<?xml version="1.0" encoding="UTF-8"?>
<svg xmlns="http://www.w3.org/2000/svg" viewBox="0 0 100 150">
  <g id="c">
    <rect y="25" width="100" height="100" rx="7.5" ry="7.5" style="fill: #004ba0;"/>
  </g>
  <g id="a">
    <g>
      <path d="M30.99,51.91h14.61v22.84h-17.57s-.3-2.4.67-10.69c.85-7.37,2.29-12.15,2.29-12.15Z" style="fill: #fff;"/>
      <path d="M69.05,51.91h-14.61v22.84h17.57s.3-2.4-.67-10.69c-.85-7.37-2.29-12.15-2.29-12.15Z" style="fill: #fff;"/>
      <path d="M83.77,63.59c-.42-4.83-1.2-19.47-12.32-26-6-3.53-18.81-3.84-21.44-3.84s-15.44.34-21.44,3.84c-11.12,6.53-11.88,21.16-12.32,26-.71,7.88-2.26,27.74-.32,34.48.95,3.26,4.29,7.32,11.79,7.32h44.54c7.5,0,10.85-4.06,11.79-7.32,1.96-6.75.39-26.59-.32-34.48h.04ZM22.65,63.11c.35-4,.97-16.1,9.99-21.5,4.87-2.91,15.26-3.19,17.4-3.19s12.53.28,17.4,3.19c9.02,5.4,9.63,17.49,9.99,21.5.34,3.81.9,11.02,1.01,17.46H21.64c.11-6.44.67-13.65,1.01-17.46ZM77.65,91.63c-.76,2.7-3.48,6.05-9.56,6.05H31.94c-6.09,0-8.79-3.35-9.56-6.05-.51-1.83-.74-4.83-.76-8.27h56.78c-.04,3.44-.25,6.44-.76,8.27Z" style="fill: #fff;"/>
      <path d="M36.8,90.5c0,2.35-1.91,4.23-4.27,4.23s-4.27-1.9-4.27-4.23,1.91-4.23,4.27-4.23,4.27,1.9,4.27,4.23Z" style="fill: #fff;"/>
      <path d="M71.79,90.5c0,2.35-1.91,4.23-4.27,4.23s-4.27-1.9-4.27-4.23,1.91-4.23,4.27-4.23,4.27,1.9,4.27,4.23Z" style="fill: #fff;"/>
      <polygon points="32.53 107.66 26.35 107.66 18.41 116.25 27.99 116.25 32.53 107.66" style="fill: #fff;"/>
      <polygon points="67.52 107.66 73.69 107.66 81.65 116.25 72.05 116.25 67.52 107.66" style="fill: #fff;"/>
    </g>
    <path d="M92.5,28c2.48,0,4.5,2.02,4.5,4.5v85c0,2.48-2.02,4.5-4.5,4.5H7.5c-2.48,0-4.5-2.02-4.5-4.5V32.5c0-2.48,2.02-4.5,4.5-4.5h85M92.5,25H7.5c-4.14,0-7.5,3.36-7.5,7.5v85c0,4.14,3.36,7.5,7.5,7.5h85c4.14,0,7.5-3.36,7.5-7.5V32.5c0-4.14-3.36-7.5-7.5-7.5h0Z" style="fill: #fff;"/>
  </g>
</svg>