<?xml version="1.0" encoding="UTF-8"?>
<svg xmlns="http://www.w3.org/2000/svg" viewBox="0 0 185 150">
  <g id="c">
    <rect x="0" y="25" width="185" height="100" rx="7.5" ry="7.5" style="fill: #c23a30;"/>
  </g>
  <g id="a">
    <g>
      <path d="M41.97,43.91c-1.19,13.23-3.57,28.09-13.23,36.25-.66-.93-2.12-2.47-3.04-3.22,8.95-7.41,10.89-21.3,11.69-33.38l4.59.35ZM67.55,77.07c-1.5.84-2.82,1.9-3.66,2.95-12.57-10.89-13.49-33.87-13.76-37.22l4.1-.31c.13,2.87,1.01,24.43,13.32,34.57Z" style="fill: #fff;"/>
      <path d="M82.41,71.69c.79.48,1.68,1.19,3,2.03,2.91,1.76,6.75,2.03,11.64,2.03s12-.35,16.54-.88c-.44,1.06-1.06,2.91-1.1,4.01-3.22.22-10.8.44-15.57.44-5.47,0-9.08-.49-12.17-2.34-1.81-1.01-3.26-2.47-4.23-2.47-1.5,0-3.62,2.6-5.73,5.42l-2.56-3.48c2.12-2.21,4.28-4.01,6.17-4.85v-11.69h-5.95v-3.88h9.97v15.66ZM76.1,41.04c2.6,2.12,6.13,5.2,7.81,7.19l-3.04,2.82c-1.59-2.03-4.98-5.25-7.58-7.54l2.82-2.47ZM107.98,40.86l.84-.22,2.51,2.03c-2.29,2.21-5.42,4.45-8.56,6.26,1.06.49,2.03,1.01,2.82,1.46l-.04.04h5.87v19.01c0,1.85-.35,2.78-1.63,3.35-1.28.57-3.17.62-6,.62-.18-1.06-.62-2.43-1.1-3.35,1.81.04,3.53.04,4.01.04.57-.04.71-.22.71-.75v-3.09h-6.62v6.84h-3.75v-6.84h-6.39v7.01h-3.92v-22.84h11.29c-2.47-1.19-5.25-2.38-7.63-3.31l2.65-2.29c1.9.66,4.1,1.54,6.22,2.47,1.72-.88,3.48-2.03,4.98-3.17h-17.33v-3.26h21.08ZM97.05,56.78v-3.26h-6.39v3.26h6.39ZM90.65,63.13h6.39v-3.35h-6.39v3.35ZM100.8,53.52v3.26h6.62v-3.26h-6.62ZM100.8,59.78v3.35h6.62v-3.35h-6.62Z" style="fill: #fff;"/>
      <path d="M118.92,54.23c.88-.22,1.63-1.19,2.6-2.65.97-1.41,4.1-6.97,5.78-12.13l3.88,1.85c-1.81,4.32-4.28,8.82-6.88,12.39l4.76-.4c.97-1.54,1.9-3.22,2.73-4.85l3.44,2.16c-2.65,4.54-5.78,9.04-9,12.83l7.98-1.37c-.13,1.06-.18,2.65-.09,3.48-10.94,2.21-12.57,2.65-13.58,3.22-.18-.79-.79-2.65-1.28-3.7,1.06-.22,2.03-1.23,3.4-2.91.79-.79,2.34-2.73,4.06-5.2-4.72.57-5.78.79-6.44,1.15-.22-.79-.88-2.78-1.37-3.88ZM134.18,69.7l.62,3.44c-5.12,1.68-10.45,3.4-14.6,4.72l-.88-4.01c3.7-.88,9.35-2.56,14.86-4.14ZM159.18,62.78c-2.16,3.4-4.98,6.35-8.29,8.95,1.19,2.82,2.6,4.45,4.15,4.45,1.06,0,1.5-1.1,1.67-4.85.84.97,2.12,1.85,3.04,2.29-.71,5.16-1.9,6.57-5.16,6.57-3,0-5.34-2.25-7.1-6.04-3.44,2.21-7.23,4.01-11.2,5.42-.53-1.06-1.59-2.51-2.56-3.44,4.45-1.32,8.69-3.26,12.35-5.64-.79-2.65-1.46-5.69-1.98-9.04l-8.2,1.54-.66-3.75,8.33-1.54c-.18-1.68-.35-3.4-.49-5.16l-6.26.97-.71-3.75,6.75-1.01c-.18-3.13-.26-6.31-.26-9.52h4.1c-.04,3.04.04,6.04.18,8.91l10.1-1.5.71,3.66-10.58,1.63c.13,1.72.31,3.44.49,5.03l10.63-1.94.66,3.66-10.76,2.03c.4,2.69.93,5.12,1.5,7.23,2.43-2.03,4.5-4.32,6.09-6.79l3.48,1.63ZM150.58,39.98c2.03,1.01,4.72,2.65,6.04,3.79l-2.47,2.56c-1.32-1.24-3.97-3-6-4.1l2.43-2.25Z" style="fill: #fff;"/>
      <path d="M18.01,90.1h7.57c1.5,0,2.62.06,3.35.19s1.39.39,1.98.78c.58.4,1.07.92,1.45,1.58.39.66.58,1.4.58,2.22,0,.89-.24,1.7-.72,2.44-.48.74-1.13,1.3-1.94,1.67,1.15.34,2.04.91,2.66,1.72s.93,1.76.93,2.86c0,.86-.2,1.7-.6,2.51-.4.81-.95,1.46-1.64,1.95-.69.49-1.55.79-2.56.9-.64.07-2.18.11-4.61.13h-6.45v-18.94ZM21.83,93.26v4.38h2.51c1.49,0,2.42-.02,2.78-.06.65-.08,1.17-.3,1.54-.68.37-.38.56-.87.56-1.48s-.16-1.06-.48-1.43c-.32-.37-.8-.59-1.44-.67-.38-.04-1.47-.06-3.27-.06h-2.2ZM21.83,100.79v5.06h3.54c1.38,0,2.25-.04,2.62-.12.57-.1,1.03-.35,1.39-.76.36-.4.54-.94.54-1.61,0-.57-.14-1.05-.41-1.45-.28-.4-.67-.68-1.19-.87-.52-.18-1.65-.27-3.39-.27h-3.09Z" style="fill: #fff;"/>
      <path d="M39.79,99.51l-3.29-.59c.37-1.33,1.01-2.31,1.91-2.95.9-.64,2.25-.96,4.03-.96,1.62,0,2.82.19,3.62.58.79.38,1.35.87,1.67,1.46s.48,1.67.48,3.25l-.04,4.24c0,1.21.06,2.09.17,2.67.12.57.33,1.19.65,1.84h-3.59c-.09-.24-.21-.6-.35-1.07-.06-.21-.1-.36-.13-.43-.62.6-1.28,1.06-1.99,1.36-.71.3-1.46.45-2.26.45-1.41,0-2.53-.38-3.34-1.15-.81-.77-1.22-1.74-1.22-2.91,0-.78.18-1.47.56-2.07.37-.61.89-1.07,1.56-1.39.67-.32,1.63-.61,2.89-.85,1.7-.32,2.87-.62,3.53-.89v-.36c0-.7-.17-1.2-.52-1.49-.34-.3-1-.45-1.95-.45-.65,0-1.15.13-1.51.38-.36.25-.65.7-.88,1.34ZM44.65,102.45c-.46.16-1.2.34-2.21.56-1.01.22-1.67.43-1.98.63-.47.34-.71.76-.71,1.28s.19.95.57,1.32c.38.37.86.56,1.45.56.65,0,1.28-.21,1.87-.65.44-.33.73-.73.87-1.2.09-.31.14-.9.14-1.77v-.72Z" style="fill: #fff;"/>
      <path d="M58.08,95.32v2.89h-2.48v5.53c0,1.12.02,1.77.07,1.96.05.19.16.34.32.46s.37.18.61.18c.34,0,.82-.12,1.46-.35l.31,2.82c-.84.36-1.8.54-2.87.54-.66,0-1.25-.11-1.77-.33s-.91-.5-1.16-.85c-.25-.35-.42-.82-.51-1.42-.08-.42-.12-1.27-.12-2.56v-5.98h-1.67v-2.89h1.67v-2.73l3.64-2.12v4.84h2.48Z" style="fill: #fff;"/>
      <path d="M59.76,101.99c0-1.21.3-2.37.89-3.5.59-1.13,1.44-1.99,2.53-2.58,1.09-.59,2.31-.89,3.65-.89,2.08,0,3.78.67,5.1,2.02,1.33,1.35,1.99,3.05,1.99,5.11s-.67,3.8-2.01,5.16c-1.34,1.37-3.03,2.05-5.06,2.05-1.26,0-2.46-.29-3.6-.85-1.14-.57-2.01-1.4-2.6-2.5-.59-1.1-.89-2.44-.89-4.01ZM63.48,102.18c0,1.36.32,2.4.97,3.13s1.44,1.08,2.39,1.08,1.74-.36,2.38-1.08.96-1.77.96-3.15-.32-2.38-.96-3.1-1.44-1.08-2.38-1.08-1.74.36-2.39,1.08-.97,1.77-.97,3.13Z" style="fill: #fff;"/>
      <path d="M89.25,109.04h-3.63v-7c0-1.48-.08-2.44-.23-2.88-.16-.43-.41-.77-.76-1.01-.35-.24-.77-.36-1.26-.36-.63,0-1.19.17-1.69.52-.5.34-.84.8-1.03,1.37s-.28,1.62-.28,3.15v6.21h-3.63v-13.72h3.37v2.01c1.2-1.55,2.7-2.33,4.52-2.33.8,0,1.53.14,2.2.43.66.29,1.17.66,1.5,1.1.34.45.58.96.71,1.52.13.57.2,1.38.2,2.44v8.53Z" style="fill: #fff;"/>
      <path d="M92.59,109.95l4.15.5c.07.48.23.81.48,1,.34.26.89.39,1.63.39.95,0,1.66-.14,2.13-.43.32-.19.56-.5.72-.92.11-.3.17-.86.17-1.67v-2c-1.08,1.48-2.45,2.22-4.11,2.22-1.84,0-3.3-.78-4.38-2.34-.84-1.23-1.27-2.77-1.27-4.6,0-2.3.55-4.06,1.66-5.27,1.11-1.21,2.48-1.82,4.13-1.82s3.1.75,4.2,2.24v-1.92h3.4v12.31c0,1.62-.13,2.83-.4,3.63-.27.8-.64,1.43-1.12,1.89-.48.46-1.13.81-1.93,1.07-.81.26-1.82.39-3.06.39-2.33,0-3.97-.4-4.95-1.2-.97-.8-1.46-1.81-1.46-3.03,0-.12,0-.27.01-.44ZM95.83,101.9c0,1.46.28,2.52.85,3.2.56.68,1.26,1.01,2.09,1.01.89,0,1.64-.35,2.25-1.04s.92-1.72.92-3.08-.29-2.48-.88-3.17c-.59-.69-1.33-1.03-2.22-1.03s-1.59.34-2.15,1.01c-.56.68-.85,1.71-.85,3.09Z" style="fill: #fff;"/>
      <path d="M116.57,109.04v-18.78h3.82v15.59h9.51v3.19h-13.33Z" style="fill: #fff;"/>
      <path d="M132.6,93.46v-3.36h3.63v3.36h-3.63ZM132.6,109.04v-13.72h3.63v13.72h-3.63Z" style="fill: #fff;"/>
      <path d="M152.43,109.04h-3.63v-7c0-1.48-.08-2.44-.23-2.88-.16-.43-.41-.77-.76-1.01-.35-.24-.77-.36-1.26-.36-.63,0-1.19.17-1.69.52-.5.34-.84.8-1.03,1.37s-.28,1.62-.28,3.15v6.21h-3.63v-13.72h3.37v2.01c1.2-1.55,2.7-2.33,4.52-2.33.8,0,1.53.14,2.2.43.66.29,1.17.66,1.5,1.1.34.45.58.96.71,1.52.13.57.2,1.38.2,2.44v8.53Z" style="fill: #fff;"/>
      <path d="M164.06,104.68l3.62.61c-.46,1.33-1.2,2.34-2.2,3.03-1,.69-2.26,1.04-3.77,1.04-2.39,0-4.15-.78-5.3-2.34-.9-1.25-1.36-2.83-1.36-4.73,0-2.27.59-4.05,1.78-5.34,1.19-1.29,2.69-1.93,4.51-1.93,2.04,0,3.65.67,4.83,2.02,1.18,1.35,1.74,3.41,1.69,6.2h-9.09c.03,1.08.32,1.91.88,2.51.56.6,1.26.9,2.09.9.57,0,1.05-.15,1.43-.46.39-.31.68-.81.88-1.5ZM164.27,101.01c-.03-1.05-.3-1.85-.81-2.4-.52-.55-1.15-.82-1.89-.82-.79,0-1.45.29-1.96.87-.52.58-.77,1.36-.76,2.35h5.43Z" style="fill: #fff;"/>
      <path d="M177.5,28c2.48,0,4.5,2.02,4.5,4.5v85c0,2.48-2.02,4.5-4.5,4.5H7.5c-2.48,0-4.5-2.02-4.5-4.5V32.5c0-2.48,2.02-4.5,4.5-4.5h170M177.5,25H7.5c-4.14,0-7.5,3.36-7.5,7.5v85c0,4.14,3.36,7.5,7.5,7.5h170c4.14,0,7.5-3.36,7.5-7.5V32.5c0-4.14-3.36-7.5-7.5-7.5h0Z" style="fill: #fff;"/>
    </g>
  </g>
</svg>