<?xml version="1.0" encoding="UTF-8"?>
<svg xmlns="http://www.w3.org/2000/svg" viewBox="0 0 255 150">
  <g id="c">
    <rect y="25" width="255" height="100" rx="7.5" ry="7.5" style="fill: #004ba0;"/>
  </g>
  <g id="a">
    <g>
      <path d="M37.44,39.36c-.04,3.62-.09,7.89-.62,12.3h17.95v4.32h-16.27c3.04,9.26,8.64,16.8,17.11,20.29-1.06.93-2.47,2.69-3.13,3.88-8.33-3.88-13.71-11.07-17.2-20.42-2.29,8.03-7.1,15.7-17.2,20.46-.66-1.1-1.98-2.6-3.17-3.48,10.63-4.67,14.95-12.66,16.71-20.73h-15.83v-4.32h16.58c.53-4.45.49-8.73.53-12.3h4.54Z" style="fill: #fff;"/>
      <path d="M76.99,67.85c-3.13,4.45-7.89,9.22-12.3,12.3-.88-.93-2.51-2.34-3.57-3.04,4.28-2.78,9-7.23,11.25-10.94l4.63,1.68ZM101.38,60.31v3.97h-39.73v-3.97h39.73ZM65.53,43.11c2.82,3.97,5.56,9.17,6.79,12.7l-4.1,1.85c-1.06-3.57-3.79-9-6.48-12.96l3.79-1.59ZM78.76,39.76c2.29,4.23,4.41,9.7,5.2,13.36l-4.28,1.5c-.62-3.66-2.65-9.35-4.81-13.54l3.88-1.32ZM89.69,66.31c3.88,3.48,9.22,8.33,11.86,11.51l-4.14,2.34c-2.43-3.09-7.58-8.2-11.6-11.82l3.88-2.03ZM101.07,42.32c-2.78,5.91-6.57,12.52-9.61,16.8l-4.1-1.37c3.04-4.41,6.79-11.42,8.91-16.8l4.81,1.37Z" style="fill: #fff;"/>
      <path d="M118.89,39.36v9.3h6.17v3.97h-6.17v3.35c1.54,1.54,5.6,6.26,6.57,7.41l-2.47,3.4c-.79-1.46-2.56-3.97-4.1-6.08v19.54h-4.01v-19.71c-1.63,4.63-3.75,9-5.95,11.82-.44-1.15-1.41-2.87-2.12-3.88,3.04-3.57,6-10.05,7.54-15.83h-6.44v-3.97h6.97v-9.3h4.01ZM142.79,41.88v31.57c0,1.32.04,2.07.22,2.29.18.18.4.26.66.26h1.01c.31,0,.62-.09.79-.31.18-.26.31-.66.35-1.63.09-1.01.18-3.22.18-6.08.84.75,2.07,1.41,3.09,1.76-.04,2.42-.22,5.64-.4,6.83-.26,1.28-.66,2.07-1.32,2.56-.71.49-1.59.71-2.56.71h-2.29c-.97,0-2.12-.31-2.78-1.01-.79-.75-1.1-1.63-1.1-5.47v-27.52h-7.1v10.28c0,7.41-.93,17.68-7.32,24.12-.66-.75-2.25-2.12-3.22-2.65,5.95-6.04,6.48-14.77,6.48-21.52v-14.2h15.3Z" style="fill: #fff;"/>
      <path d="M168.63,54.05c1.19-.22,2.82-1.15,4.54-2.25,1.32-.84,5.03-3.35,8.51-6.44h-13.1v-3.97h17.55l.88-.35,3.04,2.38c-4.32,3.88-8.73,7.32-12.88,10.01h16.67s-.04,1.32-.09,1.9c-.93,15.35-1.81,20.95-3.4,22.8-.93,1.19-1.85,1.63-3.22,1.76-1.15.18-3,.18-4.94.09-.04-1.15-.53-2.87-1.15-3.92,1.76.18,3.4.18,4.15.18.71.04,1.15-.09,1.59-.66,1.1-1.19,1.98-6.04,2.69-18.26h-2.29c-2.91,10.19-7.94,17.9-14.99,22.8-.71-.62-2.29-1.76-3.22-2.29,7.06-4.32,11.77-11.46,14.38-20.5h-3.22c-1.9,5.64-5.38,10.27-9.48,13.32-.49-.49-1.5-1.28-2.38-1.85l.13.53c-4.67,1.9-9.7,3.88-13.58,5.42l-1.37-4.28c1.59-.48,3.57-1.19,5.73-1.94v-14.55h-5.12v-3.92h5.12v-10.14h3.92v10.14h4.67v3.92h-4.67v13.14l4.45-1.63.53,2.47c3.66-2.47,6.48-6.22,8.11-10.63h-1.94c-1.94,0-3.53.22-3.92.62-.26-.88-1.15-2.87-1.72-3.88Z" style="fill: #fff;"/>
      <path d="M200.2,54.23c.88-.22,1.63-1.19,2.6-2.65.97-1.41,4.1-6.97,5.78-12.13l3.88,1.85c-1.81,4.32-4.28,8.82-6.88,12.39l4.76-.4c.97-1.54,1.9-3.22,2.73-4.85l3.44,2.16c-2.65,4.54-5.78,9.04-9,12.83l7.98-1.37c-.13,1.06-.18,2.65-.09,3.48-10.94,2.21-12.57,2.65-13.58,3.22-.18-.79-.79-2.65-1.28-3.7,1.06-.22,2.03-1.23,3.4-2.91.79-.79,2.34-2.73,4.06-5.2-4.72.57-5.78.79-6.44,1.15-.22-.79-.88-2.78-1.37-3.88ZM215.46,69.7l.62,3.44c-5.12,1.68-10.45,3.4-14.6,4.72l-.88-4.01c3.7-.88,9.35-2.56,14.86-4.14ZM240.46,62.78c-2.16,3.4-4.98,6.35-8.29,8.95,1.19,2.82,2.6,4.45,4.15,4.45,1.06,0,1.5-1.1,1.67-4.85.84.97,2.12,1.85,3.04,2.29-.71,5.16-1.9,6.57-5.16,6.57-3,0-5.34-2.25-7.1-6.04-3.44,2.21-7.23,4.01-11.2,5.42-.53-1.06-1.59-2.51-2.56-3.44,4.45-1.32,8.69-3.26,12.35-5.64-.79-2.65-1.46-5.69-1.98-9.04l-8.2,1.54-.66-3.75,8.33-1.54c-.18-1.68-.35-3.4-.49-5.16l-6.26.97-.71-3.75,6.75-1.01c-.18-3.13-.26-6.31-.26-9.52h4.1c-.04,3.04.04,6.04.18,8.91l10.1-1.5.71,3.66-10.58,1.63c.13,1.72.31,3.44.49,5.03l10.63-1.94.66,3.66-10.76,2.03c.4,2.69.93,5.12,1.5,7.23,2.43-2.03,4.5-4.32,6.09-6.79l3.48,1.63ZM231.86,39.98c2.03,1.01,4.72,2.65,6.04,3.79l-2.47,2.56c-1.32-1.24-3.97-3-6-4.1l2.43-2.25Z" style="fill: #fff;"/>
      <path d="M14.02,90.1h5.59c1.26,0,2.22.12,2.88.36.89.33,1.65.91,2.28,1.74.63.84,1.12,1.86,1.45,3.07.33,1.21.5,2.7.5,4.48,0,1.56-.16,2.9-.46,4.03-.38,1.38-.92,2.49-1.62,3.35-.53.65-1.25,1.15-2.15,1.51-.67.27-1.58.4-2.71.4h-5.76v-18.94ZM17.08,93.31v12.54h2.28c.85,0,1.47-.06,1.85-.18.5-.16.91-.42,1.24-.79.33-.37.59-.98.8-1.83.21-.85.31-2,.31-3.47s-.1-2.59-.31-3.37c-.21-.78-.5-1.39-.87-1.83s-.84-.74-1.42-.89c-.43-.12-1.26-.18-2.51-.18h-1.38Z" style="fill: #fff;"/>
      <path d="M31.26,99.51l-2.63-.59c.3-1.33.81-2.31,1.53-2.95.72-.64,1.8-.96,3.22-.96,1.29,0,2.26.19,2.89.58.63.38,1.08.87,1.34,1.46.26.59.39,1.67.39,3.25l-.03,4.24c0,1.21.05,2.09.14,2.67.09.57.27,1.19.52,1.84h-2.87c-.08-.24-.17-.6-.28-1.07-.05-.21-.08-.36-.1-.43-.5.6-1.03,1.06-1.59,1.36-.57.3-1.17.45-1.81.45-1.13,0-2.02-.38-2.67-1.15-.65-.77-.98-1.74-.98-2.91,0-.78.15-1.47.44-2.07.3-.61.71-1.07,1.25-1.39.53-.32,1.3-.61,2.31-.85,1.36-.32,2.3-.62,2.82-.89v-.36c0-.7-.14-1.2-.41-1.49s-.8-.45-1.56-.45c-.52,0-.92.13-1.21.38s-.52.7-.7,1.34ZM35.14,102.45c-.37.16-.96.34-1.77.56-.81.22-1.33.43-1.58.63-.38.34-.57.76-.57,1.28s.15.95.46,1.32c.3.37.69.56,1.16.56.52,0,1.02-.21,1.5-.65.35-.33.58-.73.69-1.2.08-.31.11-.9.11-1.77v-.72Z" style="fill: #fff;"/>
      <path d="M39.25,109.04l3.96-7.07-3.79-6.65h3.54l1.94,3.77,2.05-3.77h3.41l-3.72,6.5,4.06,7.22h-3.57l-2.23-4.25-2.25,4.25h-3.4Z" style="fill: #fff;"/>
      <path d="M52.21,93.46v-3.36h2.9v3.36h-2.9ZM52.21,109.04v-13.72h2.9v13.72h-2.9Z" style="fill: #fff;"/>
      <path d="M67.86,109.04h-2.9v-7c0-1.48-.06-2.44-.19-2.88-.12-.43-.33-.77-.6-1.01-.28-.24-.62-.36-1.01-.36-.5,0-.95.17-1.35.52-.4.34-.67.8-.82,1.37s-.22,1.62-.22,3.15v6.21h-2.9v-13.72h2.7v2.01c.96-1.55,2.16-2.33,3.62-2.33.64,0,1.23.14,1.76.43.53.29.93.66,1.2,1.1.27.45.46.96.57,1.52.11.57.16,1.38.16,2.44v8.53Z" style="fill: #fff;"/>
      <path d="M70.32,109.95l3.32.5c.05.48.18.81.38,1,.28.26.71.39,1.3.39.76,0,1.33-.14,1.71-.43.25-.19.45-.5.58-.92.09-.3.13-.86.13-1.67v-2c-.87,1.48-1.96,2.22-3.29,2.22-1.47,0-2.64-.78-3.5-2.34-.67-1.23-1.01-2.77-1.01-4.6,0-2.3.44-4.06,1.33-5.27.88-1.21,1.99-1.82,3.3-1.82s2.48.75,3.36,2.24v-1.92h2.72v12.31c0,1.62-.11,2.83-.32,3.63-.21.8-.51,1.43-.9,1.89-.39.46-.9.81-1.54,1.07-.64.26-1.46.39-2.44.39-1.86,0-3.18-.4-3.96-1.2s-1.17-1.81-1.17-3.03c0-.12,0-.27.01-.44ZM72.92,101.9c0,1.46.23,2.52.68,3.2.45.68,1.01,1.01,1.67,1.01.71,0,1.31-.35,1.8-1.04s.73-1.72.73-3.08-.23-2.48-.7-3.17c-.47-.69-1.06-1.03-1.78-1.03s-1.27.34-1.72,1.01-.68,1.71-.68,3.09Z" style="fill: #fff;"/>
      <path d="M101.88,109.04h-3.33l-1.32-4.3h-6.06l-1.25,4.3h-3.25l5.9-18.94h3.24l6.07,18.94ZM96.25,101.55l-2.09-7.03-2.05,7.03h4.13Z" style="fill: #fff;"/>
      <path d="M103.27,93.46v-3.36h2.9v3.36h-2.9ZM103.27,109.04v-13.72h2.9v13.72h-2.9Z" style="fill: #fff;"/>
      <path d="M111.72,109.04h-2.9v-13.72h2.7v1.95c.46-.92.88-1.53,1.25-1.82.37-.29.79-.44,1.26-.44.66,0,1.3.23,1.91.68l-.9,3.17c-.49-.4-.94-.59-1.36-.59s-.75.14-1.03.42-.5.79-.67,1.52c-.16.73-.24,2.27-.24,4.6v4.24Z" style="fill: #fff;"/>
      <path d="M116.88,95.32h2.71v2.01c.35-.69.83-1.25,1.43-1.68.6-.43,1.26-.65,2-.65,1.27,0,2.36.62,3.25,1.87.89,1.25,1.33,2.99,1.33,5.22s-.45,4.07-1.34,5.34c-.9,1.27-1.98,1.91-3.26,1.91-.61,0-1.16-.15-1.65-.45-.49-.3-1.01-.82-1.56-1.55v6.91h-2.9v-18.94ZM119.75,101.95c0,1.54.25,2.68.73,3.42s1.08,1.1,1.79,1.1,1.24-.34,1.68-1.01c.45-.68.67-1.79.67-3.33,0-1.44-.23-2.51-.69-3.2-.46-.7-1.03-1.05-1.72-1.05s-1.3.34-1.77,1.03-.7,1.7-.7,3.04Z" style="fill: #fff;"/>
      <path d="M129.01,101.99c0-1.21.24-2.37.71-3.5.48-1.13,1.15-1.99,2.02-2.58.87-.59,1.84-.89,2.92-.89,1.66,0,3.02.67,4.08,2.02,1.06,1.35,1.59,3.05,1.59,5.11s-.54,3.8-1.61,5.16-2.42,2.05-4.05,2.05c-1.01,0-1.97-.29-2.88-.85-.91-.57-1.61-1.4-2.08-2.5-.48-1.1-.71-2.44-.71-4.01ZM131.99,102.18c0,1.36.26,2.4.78,3.13.52.72,1.15,1.08,1.91,1.08s1.39-.36,1.91-1.08.77-1.77.77-3.15-.26-2.38-.77-3.1-1.15-1.08-1.91-1.08-1.4.36-1.91,1.08c-.52.72-.78,1.77-.78,3.13Z" style="fill: #fff;"/>
      <path d="M145.18,109.04h-2.9v-13.72h2.7v1.95c.46-.92.88-1.53,1.25-1.82.37-.29.79-.44,1.26-.44.66,0,1.3.23,1.91.68l-.9,3.17c-.49-.4-.94-.59-1.36-.59s-.75.14-1.03.42-.5.79-.67,1.52c-.16.73-.24,2.27-.24,4.6v4.24Z" style="fill: #fff;"/>
      <path d="M155.46,95.32v2.89h-1.98v5.53c0,1.12.02,1.77.06,1.96.04.19.12.34.26.46.13.12.3.18.49.18.27,0,.66-.12,1.17-.35l.25,2.82c-.67.36-1.44.54-2.29.54-.52,0-1-.11-1.42-.33-.42-.22-.73-.5-.92-.85s-.33-.82-.41-1.42c-.06-.42-.09-1.27-.09-2.56v-5.98h-1.33v-2.89h1.33v-2.73l2.92-2.12v4.84h1.98Z" style="fill: #fff;"/>
      <path d="M162.95,109.04v-18.94h11.23v3.2h-8.17v4.2h7.61v3.19h-7.61v5.15h8.46v3.19h-11.52Z" style="fill: #fff;"/>
      <path d="M175.44,109.04l3.96-7.07-3.79-6.65h3.54l1.94,3.77,2.05-3.77h3.41l-3.72,6.5,4.06,7.22h-3.57l-2.23-4.25-2.25,4.25h-3.4Z" style="fill: #fff;"/>
      <path d="M188.31,95.32h2.71v2.01c.35-.69.83-1.25,1.43-1.68.6-.43,1.26-.65,2-.65,1.27,0,2.36.62,3.25,1.87.89,1.25,1.33,2.99,1.33,5.22s-.45,4.07-1.34,5.34c-.9,1.27-1.98,1.91-3.26,1.91-.61,0-1.16-.15-1.65-.45-.49-.3-1.01-.82-1.56-1.55v6.91h-2.9v-18.94ZM191.19,101.95c0,1.54.25,2.68.73,3.42s1.08,1.1,1.79,1.1,1.24-.34,1.68-1.01c.45-.68.67-1.79.67-3.33,0-1.44-.23-2.51-.69-3.2-.46-.7-1.03-1.05-1.72-1.05s-1.3.34-1.77,1.03-.7,1.7-.7,3.04Z" style="fill: #fff;"/>
      <path d="M203.9,109.04h-2.9v-13.72h2.7v1.95c.46-.92.88-1.53,1.25-1.82.37-.29.79-.44,1.26-.44.66,0,1.3.23,1.91.68l-.9,3.17c-.49-.4-.94-.59-1.36-.59s-.75.14-1.03.42-.5.79-.67,1.52c-.16.73-.24,2.27-.24,4.6v4.24Z" style="fill: #fff;"/>
      <path d="M215.5,104.68l2.89.61c-.37,1.33-.96,2.34-1.76,3.03s-1.81,1.04-3.01,1.04c-1.91,0-3.32-.78-4.24-2.34-.72-1.25-1.08-2.83-1.08-4.73,0-2.27.48-4.05,1.43-5.34.95-1.29,2.15-1.93,3.61-1.93,1.63,0,2.92.67,3.87,2.02.94,1.35,1.4,3.41,1.35,6.2h-7.28c.02,1.08.25,1.91.7,2.51.45.6,1.01.9,1.67.9.46,0,.84-.15,1.15-.46s.54-.81.7-1.5ZM215.66,101.01c-.02-1.05-.24-1.85-.65-2.4-.41-.55-.92-.82-1.51-.82-.63,0-1.16.29-1.57.87-.41.58-.62,1.36-.61,2.35h4.34Z" style="fill: #fff;"/>
      <path d="M219.68,105.13l2.91-.56c.12.71.38,1.24.75,1.61s.91.55,1.59.55c.75,0,1.32-.17,1.7-.52.25-.24.38-.56.38-.97,0-.28-.07-.5-.21-.69-.14-.17-.47-.33-.97-.48-2.34-.65-3.83-1.24-4.46-1.77-.87-.74-1.3-1.77-1.3-3.09,0-1.19.38-2.19,1.13-3s1.92-1.21,3.49-1.21,2.62.31,3.35.92c.73.61,1.23,1.52,1.51,2.71l-2.74.63c-.12-.53-.34-.94-.67-1.23s-.79-.43-1.4-.43c-.76,0-1.31.13-1.64.4-.22.19-.33.43-.33.74,0,.26.1.48.29.66.26.24,1.17.58,2.71,1.02,1.55.44,2.63.98,3.24,1.62.61.65.91,1.55.91,2.7,0,1.26-.42,2.34-1.26,3.24-.84.9-2.08,1.36-3.73,1.36-1.5,0-2.68-.38-3.55-1.14-.87-.76-1.44-1.79-1.71-3.09Z" style="fill: #fff;"/>
      <path d="M231.24,105.13l2.91-.56c.12.71.38,1.24.75,1.61s.91.55,1.59.55c.75,0,1.32-.17,1.7-.52.25-.24.38-.56.38-.97,0-.28-.07-.5-.21-.69-.14-.17-.47-.33-.97-.48-2.34-.65-3.83-1.24-4.46-1.77-.87-.74-1.3-1.77-1.3-3.09,0-1.19.38-2.19,1.13-3s1.92-1.21,3.49-1.21,2.62.31,3.35.92c.73.61,1.23,1.52,1.51,2.71l-2.74.63c-.12-.53-.34-.94-.67-1.23s-.79-.43-1.4-.43c-.76,0-1.31.13-1.64.4-.22.19-.33.43-.33.74,0,.26.1.48.29.66.26.24,1.17.58,2.71,1.02,1.55.44,2.63.98,3.24,1.62.61.65.91,1.55.91,2.7,0,1.26-.42,2.34-1.26,3.24-.84.9-2.08,1.36-3.73,1.36-1.5,0-2.68-.38-3.55-1.14-.87-.76-1.44-1.79-1.71-3.09Z" style="fill: #fff;"/>
      <path d="M247.5,28c2.48,0,4.5,2.02,4.5,4.5v85c0,2.48-2.02,4.5-4.5,4.5H7.5c-2.48,0-4.5-2.02-4.5-4.5V32.5c0-2.48,2.02-4.5,4.5-4.5h240M247.5,25H7.5c-4.14,0-7.5,3.36-7.5,7.5v85c0,4.14,3.36,7.5,7.5,7.5h240c4.14,0,7.5-3.36,7.5-7.5V32.5c0-4.14-3.36-7.5-7.5-7.5h0Z" style="fill: #fff;"/>
    </g>
  </g>
</svg>