<?xml version="1.0" encoding="UTF-8"?>
<svg xmlns="http://www.w3.org/2000/svg" viewBox="0 0 195 150">
  <g id="c">
    <rect y="25" width="195" height="100" rx="7.5" ry="7.5" style="fill: #f7c8ce;"/>
  </g>
  <g id="a">
    <g>
      <path d="M187.5,28c2.48,0,4.5,2.02,4.5,4.5v85c0,2.48-2.02,4.5-4.5,4.5H7.5c-2.48,0-4.5-2.02-4.5-4.5V32.5c0-2.48,2.02-4.5,4.5-4.5h180M187.5,25H7.5c-4.14,0-7.5,3.36-7.5,7.5v85c0,4.14,3.36,7.5,7.5,7.5h180c4.14,0,7.5-3.36,7.5-7.5V32.5c0-4.14-3.36-7.5-7.5-7.5h0Z" style="fill: #fff;"/>
      <path d="M51.13,102.74v8.64H9.98c-.06-2.16.24-4.25.89-6.24,1.05-3.3,2.72-6.54,5.03-9.74,2.31-3.2,5.64-6.89,10-11.09,6.76-6.53,11.34-11.7,13.71-15.51,2.38-3.81,3.57-7.42,3.57-10.81,0-3.56-1.08-6.57-3.25-9.02-2.17-2.45-4.99-3.67-8.47-3.67-3.68,0-6.62,1.3-8.83,3.9s-3.33,6.19-3.35,10.79l-7.86-.95c.54-6.89,2.56-12.15,6.07-15.76,3.51-3.61,8.22-5.42,14.14-5.42s10.7,1.95,14.18,5.84c3.48,3.9,5.22,8.73,5.22,14.49,0,2.93-.51,5.81-1.53,8.64-1.02,2.83-2.71,5.81-5.07,8.94-2.36,3.13-6.29,7.43-11.78,12.89-4.59,4.53-7.53,7.6-8.83,9.22-1.3,1.62-2.38,3.24-3.23,4.87h30.53Z" style="fill: #001d31;"/>
      <path d="M95.14,102.74v8.64h-41.14c-.06-2.16.24-4.25.89-6.24,1.05-3.3,2.72-6.54,5.03-9.74,2.31-3.2,5.64-6.89,10-11.09,6.76-6.53,11.34-11.7,13.71-15.51,2.38-3.81,3.57-7.42,3.57-10.81,0-3.56-1.08-6.57-3.25-9.02-2.17-2.45-4.99-3.67-8.47-3.67-3.68,0-6.62,1.3-8.83,3.9s-3.33,6.19-3.35,10.79l-7.86-.95c.54-6.89,2.56-12.15,6.07-15.76,3.51-3.61,8.22-5.42,14.14-5.42s10.7,1.95,14.18,5.84c3.48,3.9,5.22,8.73,5.22,14.49,0,2.93-.51,5.81-1.53,8.64-1.02,2.83-2.71,5.81-5.07,8.94-2.36,3.13-6.29,7.43-11.78,12.89-4.59,4.53-7.53,7.6-8.83,9.22-1.3,1.62-2.38,3.24-3.23,4.87h30.53Z" style="fill: #001d31;"/>
      <path d="M139.77,58.07v3.79h-25.31l-1.41,4.19h21.7s-.09,1.23-.22,1.85c-.97,7.14-2.03,10.45-3.66,11.91-1.15,1.01-2.38,1.32-4.28,1.41-1.59.04-4.5.04-7.54-.09-.09-1.23-.66-2.87-1.46-4.01,3.04.31,6.31.35,7.58.35,1.01,0,1.59-.04,2.12-.44,1.01-.75,1.76-2.91,2.47-7.19h-22.89c.93-2.16,1.98-5.16,2.87-7.98h-8.73v-3.79h38.76ZM134.61,42.1v12.52h-28.22v-12.52h28.22ZM110.53,50.97h19.67v-5.2h-19.67v5.2Z" style="fill: #001d31;"/>
      <path d="M144.4,55.29c.88-.22,1.63-1.19,2.6-2.65.97-1.41,4.1-6.97,5.78-12.13l3.88,1.85c-1.81,4.32-4.28,8.82-6.88,12.39l4.76-.4c.97-1.54,1.9-3.22,2.73-4.85l3.44,2.16c-2.65,4.54-5.78,9.04-9,12.83l7.98-1.37c-.13,1.06-.18,2.65-.09,3.48-10.94,2.21-12.57,2.65-13.58,3.22-.18-.79-.79-2.65-1.28-3.7,1.06-.22,2.03-1.23,3.4-2.91.79-.79,2.34-2.73,4.06-5.2-4.72.57-5.78.79-6.44,1.15-.22-.79-.88-2.78-1.37-3.88ZM159.66,70.77l.62,3.44c-5.12,1.68-10.45,3.4-14.6,4.72l-.88-4.01c3.7-.88,9.35-2.56,14.86-4.14ZM184.66,63.84c-2.16,3.4-4.98,6.35-8.29,8.95,1.19,2.82,2.6,4.45,4.15,4.45,1.06,0,1.5-1.1,1.67-4.85.84.97,2.12,1.85,3.04,2.29-.71,5.16-1.9,6.57-5.16,6.57-3,0-5.34-2.25-7.1-6.04-3.44,2.21-7.23,4.01-11.2,5.42-.53-1.06-1.59-2.51-2.56-3.44,4.45-1.32,8.69-3.26,12.35-5.64-.79-2.65-1.46-5.69-1.98-9.04l-8.2,1.54-.66-3.75,8.33-1.54c-.18-1.68-.35-3.4-.49-5.16l-6.26.97-.71-3.75,6.75-1.01c-.18-3.13-.26-6.31-.26-9.52h4.1c-.04,3.04.04,6.04.18,8.91l10.1-1.5.71,3.66-10.58,1.63c.13,1.72.31,3.44.49,5.03l10.63-1.94.66,3.66-10.76,2.03c.4,2.69.93,5.12,1.5,7.23,2.43-2.03,4.5-4.32,6.09-6.79l3.48,1.63ZM176.06,41.04c2.03,1.01,4.72,2.65,6.04,3.79l-2.47,2.56c-1.32-1.24-3.97-3-6-4.1l2.43-2.25Z" style="fill: #001d31;"/>
      <path d="M103.8,109.04v-18.78h3.44v15.59h8.56v3.19h-12Z" style="fill: #001d31;"/>
      <path d="M118.23,93.46v-3.36h3.27v3.36h-3.27ZM118.23,109.04v-13.72h3.27v13.72h-3.27Z" style="fill: #001d31;"/>
      <path d="M136.08,109.04h-3.27v-7c0-1.48-.07-2.44-.21-2.88-.14-.43-.37-.77-.68-1.01-.31-.24-.69-.36-1.13-.36-.57,0-1.07.17-1.52.52-.45.34-.76.8-.92,1.37s-.25,1.62-.25,3.15v6.21h-3.27v-13.72h3.04v2.01c1.08-1.55,2.43-2.33,4.07-2.33.72,0,1.38.14,1.98.43.6.29,1.05.66,1.35,1.1.31.45.52.96.64,1.52.12.57.18,1.38.18,2.44v8.53Z" style="fill: #001d31;"/>
      <path d="M146.54,104.68l3.25.61c-.42,1.33-1.08,2.34-1.98,3.03-.9.69-2.03,1.04-3.39,1.04-2.15,0-3.74-.78-4.77-2.34-.81-1.25-1.22-2.83-1.22-4.73,0-2.27.54-4.05,1.6-5.34s2.42-1.93,4.06-1.93c1.84,0,3.29.67,4.35,2.02,1.06,1.35,1.57,3.41,1.52,6.2h-8.19c.02,1.08.29,1.91.79,2.51.5.6,1.13.9,1.88.9.51,0,.94-.15,1.29-.46.35-.31.61-.81.79-1.5ZM146.73,101.01c-.02-1.05-.27-1.85-.73-2.4-.46-.55-1.03-.82-1.7-.82-.71,0-1.3.29-1.77.87s-.69,1.36-.69,2.35h4.88Z" style="fill: #001d31;"/>
      <path d="M169.59,105.67v3.37h-11.45c.12-1.27.5-2.48,1.12-3.62.62-1.14,1.84-2.65,3.67-4.54,1.47-1.52,2.38-2.56,2.71-3.1.45-.75.67-1.49.67-2.22,0-.81-.2-1.43-.59-1.87-.39-.43-.93-.65-1.62-.65s-1.22.23-1.63.68c-.4.46-.64,1.21-.7,2.27l-3.26-.36c.19-2,.8-3.43,1.83-4.3,1.02-.87,2.3-1.3,3.84-1.3,1.68,0,3,.5,3.96,1.51.96,1.01,1.44,2.26,1.44,3.76,0,.85-.14,1.67-.41,2.44s-.71,1.58-1.31,2.42c-.4.56-1.11,1.37-2.14,2.42s-1.68,1.75-1.96,2.09c-.28.34-.5.68-.67,1.01h6.49Z" style="fill: #001d31;"/>
      <path d="M181.64,105.67v3.37h-11.45c.12-1.27.5-2.48,1.12-3.62.62-1.14,1.84-2.65,3.67-4.54,1.47-1.52,2.38-2.56,2.71-3.1.45-.75.67-1.49.67-2.22,0-.81-.2-1.43-.59-1.87-.39-.43-.93-.65-1.62-.65s-1.22.23-1.63.68c-.4.46-.64,1.21-.7,2.27l-3.26-.36c.19-2,.8-3.43,1.83-4.3,1.02-.87,2.3-1.3,3.84-1.3,1.68,0,3,.5,3.96,1.51.96,1.01,1.44,2.26,1.44,3.76,0,.85-.14,1.67-.41,2.44s-.71,1.58-1.31,2.42c-.4.56-1.11,1.37-2.14,2.42s-1.68,1.75-1.96,2.09c-.28.34-.5.68-.67,1.01h6.49Z" style="fill: #001d31;"/>
    </g>
  </g>
</svg>