<?xml version="1.0" encoding="UTF-8"?>
<svg xmlns="http://www.w3.org/2000/svg" viewBox="0 0 185 150">
  <g id="c">
    <rect y="25" width="185" height="100" rx="7.5" ry="7.5" style="fill: #b25921;"/>
  </g>
  <g id="a">
    <g>
      <path d="M44.23,66.51c.11.9.39,2.93,1.69,4.74,2.65,3.67,7.51,3.84,8.64,3.84,5.31,0,9.14-2.31,9.14-6.26s-3.84-5.08-9.88-6.55c-5.81-1.41-14.51-3.5-14.51-12.02,0-5.87,4.68-11.23,14.39-11.23,8.41,0,15.07,3.67,15.41,12.19l-6.6.4c-.23-1.92-.85-6.89-8.64-6.89-4.06,0-8.18,1.52-8.18,5.14,0,3.05,2.43,4.29,9.43,5.87,6.38,1.47,15.18,3.44,15.18,12.7,0,5.31-3.39,12.36-15.86,12.36s-16.2-7.62-16.65-13.72l6.43-.56Z" style="fill: #fff;"/>
      <path d="M86.74,80.11v-30.48c-2.65,2.54-6.55,4.74-9.93,5.93v-5.81c1.86-.73,9.03-4.23,11.57-10.22h4.63v40.58h-6.26Z" style="fill: #fff;"/>
      <path d="M107.27,54.23c.88-.22,1.63-1.19,2.6-2.65.97-1.41,4.1-6.97,5.78-12.13l3.88,1.85c-1.81,4.32-4.28,8.82-6.88,12.39l4.76-.4c.97-1.54,1.9-3.22,2.73-4.85l3.44,2.16c-2.65,4.54-5.78,9.04-9,12.83l7.98-1.37c-.13,1.06-.18,2.65-.09,3.48-10.94,2.21-12.57,2.65-13.58,3.22-.18-.79-.79-2.65-1.28-3.7,1.06-.22,2.03-1.23,3.4-2.91.79-.79,2.34-2.73,4.06-5.2-4.72.57-5.78.79-6.44,1.15-.22-.79-.88-2.78-1.37-3.88ZM122.53,69.7l.62,3.44c-5.12,1.68-10.45,3.4-14.6,4.72l-.88-4.01c3.7-.88,9.35-2.56,14.86-4.14ZM147.53,62.78c-2.16,3.4-4.98,6.35-8.29,8.95,1.19,2.82,2.6,4.45,4.15,4.45,1.06,0,1.5-1.1,1.67-4.85.84.97,2.12,1.85,3.04,2.29-.71,5.16-1.9,6.57-5.16,6.57-3,0-5.34-2.25-7.1-6.04-3.44,2.21-7.23,4.01-11.2,5.42-.53-1.06-1.59-2.51-2.56-3.44,4.45-1.32,8.69-3.26,12.35-5.64-.79-2.65-1.46-5.69-1.98-9.04l-8.2,1.54-.66-3.75,8.33-1.54c-.18-1.68-.35-3.4-.49-5.16l-6.26.97-.71-3.75,6.75-1.01c-.18-3.13-.26-6.31-.26-9.52h4.1c-.04,3.04.04,6.04.18,8.91l10.1-1.5.71,3.66-10.58,1.63c.13,1.72.31,3.44.49,5.03l10.63-1.94.66,3.66-10.76,2.03c.4,2.69.93,5.12,1.5,7.23,2.43-2.03,4.5-4.32,6.09-6.79l3.48,1.63ZM138.93,39.98c2.03,1.01,4.72,2.65,6.04,3.79l-2.47,2.56c-1.32-1.24-3.97-3-6-4.1l2.43-2.25Z" style="fill: #fff;"/>
      <path d="M48.14,109.04v-18.78h3.82v15.59h9.51v3.19h-13.33Z" style="fill: #fff;"/>
      <path d="M64.17,93.46v-3.36h3.63v3.36h-3.63ZM64.17,109.04v-13.72h3.63v13.72h-3.63Z" style="fill: #fff;"/>
      <path d="M84,109.04h-3.63v-7c0-1.48-.08-2.44-.23-2.88-.16-.43-.41-.77-.76-1.01-.35-.24-.77-.36-1.26-.36-.63,0-1.19.17-1.69.52-.5.34-.84.8-1.03,1.37s-.28,1.62-.28,3.15v6.21h-3.63v-13.72h3.37v2.01c1.2-1.55,2.7-2.33,4.52-2.33.8,0,1.53.14,2.2.43.66.29,1.17.66,1.5,1.1.34.45.58.96.71,1.52.13.57.2,1.38.2,2.44v8.53Z" style="fill: #fff;"/>
      <path d="M95.63,104.68l3.62.61c-.46,1.33-1.2,2.34-2.2,3.03-1,.69-2.26,1.04-3.77,1.04-2.39,0-4.15-.78-5.3-2.34-.9-1.25-1.36-2.83-1.36-4.73,0-2.27.59-4.05,1.78-5.34,1.19-1.29,2.69-1.93,4.51-1.93,2.04,0,3.65.67,4.83,2.02,1.18,1.35,1.74,3.41,1.69,6.2h-9.09c.03,1.08.32,1.91.88,2.51.56.6,1.26.9,2.09.9.57,0,1.05-.15,1.43-.46.39-.31.68-.81.88-1.5ZM95.84,101.01c-.03-1.05-.3-1.85-.81-2.4-.52-.55-1.15-.82-1.89-.82-.79,0-1.45.29-1.96.87-.52.58-.77,1.36-.76,2.35h5.43Z" style="fill: #fff;"/>
      <path d="M108.81,102.88l3.72-.36c.22,1.25.68,2.17,1.36,2.75.68.59,1.61.88,2.77.88,1.23,0,2.16-.26,2.78-.78.62-.52.94-1.13.94-1.83,0-.45-.13-.83-.39-1.14s-.72-.59-1.38-.82c-.45-.16-1.47-.43-3.06-.83-2.05-.51-3.49-1.13-4.32-1.87-1.16-1.04-1.74-2.31-1.74-3.81,0-.96.27-1.87.82-2.71.55-.84,1.33-1.48,2.36-1.92s2.27-.66,3.73-.66c2.38,0,4.17.52,5.37,1.56,1.2,1.04,1.83,2.43,1.89,4.17l-3.82.17c-.16-.97-.51-1.67-1.05-2.1-.54-.43-1.35-.64-2.42-.64s-1.98.23-2.61.69c-.41.29-.61.68-.61,1.17,0,.45.19.83.57,1.15.48.41,1.65.83,3.51,1.27,1.86.44,3.24.89,4.13,1.36s1.59,1.11,2.09,1.92c.5.81.76,1.82.76,3.02,0,1.08-.3,2.1-.9,3.05-.6.95-1.46,1.65-2.56,2.11s-2.48.69-4.12.69c-2.39,0-4.23-.55-5.52-1.66s-2.05-2.72-2.3-4.84Z" style="fill: #fff;"/>
      <path d="M134.59,109.04h-3.63v-13.68c-1.33,1.24-2.89,2.16-4.69,2.75v-3.29c.95-.31,1.98-.9,3.09-1.76s1.87-1.88,2.29-3.03h2.95v19.02Z" style="fill: #fff;"/>
      <path d="M177.5,28c2.48,0,4.5,2.02,4.5,4.5v85c0,2.48-2.02,4.5-4.5,4.5H7.5c-2.48,0-4.5-2.02-4.5-4.5V32.5c0-2.48,2.02-4.5,4.5-4.5h170M177.5,25H7.5c-4.14,0-7.5,3.36-7.5,7.5v85c0,4.14,3.36,7.5,7.5,7.5h170c4.14,0,7.5-3.36,7.5-7.5V32.5c0-4.14-3.36-7.5-7.5-7.5h0Z" style="fill: #fff;"/>
    </g>
  </g>
</svg>