<?xml version="1.0" encoding="UTF-8"?>
<svg xmlns="http://www.w3.org/2000/svg" viewBox="0 0 255 150">
  <g id="c">
    <rect y="25" width="255" height="100" rx="7.5" ry="7.5" style="fill: #a29bbb;"/>
  </g>
  <g id="a">
    <g>
      <path d="M26.75,39.14c1.63,1.54,3.4,3.7,4.23,5.2l-1.94,1.01h11.02c1.37-1.81,2.87-4.28,3.75-6.08l4.72,1.1c-1.19,1.76-2.51,3.53-3.75,4.98h10.63v3.88h-17.33c-.49,1.19-.97,2.38-1.46,3.48h13.85v27.56h-4.32v-2.29h-21.56v2.29h-4.15v-27.56h11.69c.35-1.1.66-2.34.88-3.48H15.68v-3.88h10.89c-.93-1.46-2.29-3.26-3.53-4.59l3.7-1.63ZM46.15,60.05v-3.66h-21.56v3.66h21.56ZM24.59,67.1h21.56v-3.79h-21.56v3.79ZM24.59,74.29h21.56v-3.92h-21.56v3.92Z" style="fill: #001d31;"/>
      <path d="M85.27,42.14c-1.54,3.75-3.44,7.23-5.64,10.36h4.59v3.66h-7.41c-1.15,1.37-2.38,2.65-3.66,3.84h9.3v19.49h-3.97v-1.85h-8.73v2.47h-3.79v-14.42c-.97.62-1.98,1.19-3,1.76-.44-.88-1.72-2.65-2.47-3.44,4.15-2.03,7.89-4.67,11.11-7.85h-10.05v-3.66h8.33v-4.59h-6.39v-3.66h6.39v-4.54h3.88v4.54h5.07v2.43c1.01-1.76,1.9-3.66,2.69-5.6l3.75,1.06ZM78.47,67.01v-3.62h-8.73v3.62h8.73ZM78.47,74.25v-4.01h-8.73v4.01h8.73ZM73.76,52.51h1.15c1.15-1.46,2.2-3,3.22-4.59h-4.37v4.59ZM98.8,41.83l.62-.13,3.04,1.9c-1.72,4.19-3.97,9.26-5.95,13.23,4.28,4.06,5.29,7.54,5.29,10.58s-.71,5.07-2.38,6.17c-.79.57-1.85.88-3.04,1.06-1.1.13-2.6.13-4.01.04-.04-1.15-.48-2.91-1.15-4.06,1.32.13,2.47.13,3.35.09.75,0,1.41-.18,1.94-.48.93-.53,1.28-1.68,1.23-3.26,0-2.65-1.23-5.91-5.38-9.57,1.63-3.53,3.44-8.16,4.72-11.64h-7.06v34.53h-4.15v-38.45h12.92Z" style="fill: #001d31;"/>
      <path d="M119.18,39.36v9.3h6.17v3.97h-6.17v3.35c1.54,1.54,5.6,6.26,6.57,7.41l-2.47,3.4c-.79-1.46-2.56-3.97-4.1-6.08v19.54h-4.01v-19.71c-1.63,4.63-3.75,9-5.95,11.82-.44-1.15-1.41-2.87-2.12-3.88,3.04-3.57,6-10.05,7.54-15.83h-6.44v-3.97h6.97v-9.3h4.01ZM143.08,41.88v31.57c0,1.32.04,2.07.22,2.29.18.18.4.26.66.26h1.01c.31,0,.62-.09.79-.31.18-.26.31-.66.35-1.63.09-1.01.18-3.22.18-6.08.84.75,2.07,1.41,3.09,1.76-.04,2.42-.22,5.64-.4,6.83-.26,1.28-.66,2.07-1.32,2.56-.71.49-1.59.71-2.56.71h-2.29c-.97,0-2.12-.31-2.78-1.01-.79-.75-1.1-1.63-1.1-5.47v-27.52h-7.1v10.28c0,7.41-.93,17.68-7.32,24.12-.66-.75-2.25-2.12-3.22-2.65,5.95-6.04,6.48-14.77,6.48-21.52v-14.2h15.3Z" style="fill: #001d31;"/>
      <path d="M168.92,54.05c1.19-.22,2.82-1.15,4.54-2.25,1.32-.84,5.03-3.35,8.51-6.44h-13.1v-3.97h17.55l.88-.35,3.04,2.38c-4.32,3.88-8.73,7.32-12.88,10.01h16.67s-.04,1.32-.09,1.9c-.93,15.35-1.81,20.95-3.4,22.8-.93,1.19-1.85,1.63-3.22,1.76-1.15.18-3,.18-4.94.09-.04-1.15-.53-2.87-1.15-3.92,1.76.18,3.4.18,4.15.18.71.04,1.15-.09,1.59-.66,1.1-1.19,1.98-6.04,2.69-18.26h-2.29c-2.91,10.19-7.94,17.9-14.99,22.8-.71-.62-2.29-1.76-3.22-2.29,7.06-4.32,11.77-11.46,14.38-20.5h-3.22c-1.9,5.64-5.38,10.27-9.48,13.32-.49-.49-1.5-1.28-2.38-1.85l.13.53c-4.67,1.9-9.7,3.88-13.58,5.42l-1.37-4.28c1.59-.48,3.57-1.19,5.73-1.94v-14.55h-5.12v-3.92h5.12v-10.14h3.92v10.14h4.67v3.92h-4.67v13.14l4.45-1.63.53,2.47c3.66-2.47,6.48-6.22,8.11-10.63h-1.94c-1.94,0-3.53.22-3.92.62-.26-.88-1.15-2.87-1.72-3.88Z" style="fill: #001d31;"/>
      <path d="M200.49,54.23c.88-.22,1.63-1.19,2.6-2.65.97-1.41,4.1-6.97,5.78-12.13l3.88,1.85c-1.81,4.32-4.28,8.82-6.88,12.39l4.76-.4c.97-1.54,1.9-3.22,2.73-4.85l3.44,2.16c-2.65,4.54-5.78,9.04-9,12.83l7.98-1.37c-.13,1.06-.18,2.65-.09,3.48-10.94,2.21-12.57,2.65-13.58,3.22-.18-.79-.79-2.65-1.28-3.7,1.06-.22,2.03-1.23,3.4-2.91.79-.79,2.34-2.73,4.06-5.2-4.72.57-5.78.79-6.44,1.15-.22-.79-.88-2.78-1.37-3.88ZM215.75,69.7l.62,3.44c-5.12,1.68-10.45,3.4-14.6,4.72l-.88-4.01c3.7-.88,9.35-2.56,14.86-4.14ZM240.75,62.78c-2.16,3.4-4.98,6.35-8.29,8.95,1.19,2.82,2.6,4.45,4.15,4.45,1.06,0,1.5-1.1,1.67-4.85.84.97,2.12,1.85,3.04,2.29-.71,5.16-1.9,6.57-5.16,6.57-3,0-5.34-2.25-7.1-6.04-3.44,2.21-7.23,4.01-11.2,5.42-.53-1.06-1.59-2.51-2.56-3.44,4.45-1.32,8.69-3.26,12.35-5.64-.79-2.65-1.46-5.69-1.98-9.04l-8.2,1.54-.66-3.75,8.33-1.54c-.18-1.68-.35-3.4-.49-5.16l-6.26.97-.71-3.75,6.75-1.01c-.18-3.13-.26-6.31-.26-9.52h4.1c-.04,3.04.04,6.04.18,8.91l10.1-1.5.71,3.66-10.58,1.63c.13,1.72.31,3.44.49,5.03l10.63-1.94.66,3.66-10.76,2.03c.4,2.69.93,5.12,1.5,7.23,2.43-2.03,4.5-4.32,6.09-6.79l3.48,1.63ZM232.15,39.98c2.03,1.01,4.72,2.65,6.04,3.79l-2.47,2.56c-1.32-1.24-3.97-3-6-4.1l2.43-2.25Z" style="fill: #001d31;"/>
      <path d="M23.83,102.08l2.97,1.18c-.45,2.07-1.21,3.6-2.27,4.61-1.06,1-2.4,1.5-4.03,1.5-2.01,0-3.67-.86-4.96-2.58-1.3-1.72-1.94-4.07-1.94-7.05,0-3.15.65-5.6,1.95-7.34s3.01-2.62,5.14-2.62c1.85,0,3.36.68,4.52,2.05.69.81,1.21,1.97,1.55,3.49l-3.03.9c-.18-.98-.55-1.76-1.12-2.33-.57-.57-1.26-.85-2.07-.85-1.12,0-2.03.5-2.73,1.51s-1.05,2.64-1.05,4.9c0,2.39.34,4.1,1.03,5.12.69,1.02,1.58,1.52,2.69,1.52.81,0,1.51-.32,2.1-.97.59-.65,1.01-1.66,1.26-3.05Z" style="fill: #001d31;"/>
      <path d="M31.36,99.51l-2.64-.59c.3-1.33.81-2.31,1.53-2.95.72-.64,1.8-.96,3.22-.96,1.29,0,2.26.19,2.89.58.63.38,1.08.87,1.34,1.46.26.59.39,1.67.39,3.25l-.03,4.24c0,1.21.05,2.09.14,2.67.09.57.27,1.19.52,1.84h-2.87c-.08-.24-.17-.6-.28-1.07-.05-.21-.08-.36-.1-.43-.5.6-1.03,1.06-1.59,1.36-.56.3-1.17.45-1.81.45-1.13,0-2.02-.38-2.67-1.15-.65-.77-.98-1.74-.98-2.91,0-.78.15-1.47.44-2.07s.71-1.07,1.25-1.39c.53-.32,1.3-.61,2.31-.85,1.36-.32,2.3-.62,2.82-.89v-.36c0-.7-.14-1.2-.41-1.49-.28-.3-.8-.45-1.56-.45-.52,0-.92.13-1.21.38-.29.25-.52.7-.7,1.34ZM35.24,102.45c-.37.16-.96.34-1.77.56-.81.22-1.33.43-1.58.63-.38.34-.57.76-.57,1.28s.15.95.45,1.32c.3.37.69.56,1.16.56.52,0,1.02-.21,1.5-.65.35-.33.58-.73.69-1.2.08-.31.11-.9.11-1.77v-.72Z" style="fill: #001d31;"/>
      <path d="M40.67,95.32h2.71v2.01c.35-.69.83-1.25,1.43-1.68.6-.43,1.26-.65,1.99-.65,1.27,0,2.36.62,3.25,1.87.89,1.25,1.33,2.99,1.33,5.22s-.45,4.07-1.34,5.34-1.98,1.91-3.26,1.91c-.61,0-1.16-.15-1.65-.45-.49-.3-1.01-.82-1.56-1.55v6.91h-2.9v-18.94ZM43.54,101.95c0,1.54.24,2.68.73,3.42s1.09,1.1,1.79,1.1,1.24-.34,1.68-1.01.67-1.79.67-3.33c0-1.44-.23-2.51-.69-3.2-.46-.7-1.03-1.05-1.72-1.05s-1.3.34-1.77,1.03c-.47.68-.7,1.7-.7,3.04Z" style="fill: #001d31;"/>
      <path d="M53.47,93.46v-3.36h2.9v3.36h-2.9ZM53.47,109.04v-13.72h2.9v13.72h-2.9Z" style="fill: #001d31;"/>
      <path d="M64.17,95.32v2.89h-1.98v5.53c0,1.12.02,1.77.06,1.96.04.19.12.34.26.46s.3.18.49.18c.27,0,.66-.12,1.17-.35l.25,2.82c-.68.36-1.44.54-2.29.54-.52,0-1-.11-1.42-.33-.42-.22-.73-.5-.93-.85s-.33-.82-.41-1.42c-.06-.42-.09-1.27-.09-2.56v-5.98h-1.33v-2.89h1.33v-2.73l2.91-2.12v4.84h1.98Z" style="fill: #001d31;"/>
      <path d="M68.14,99.51l-2.64-.59c.3-1.33.81-2.31,1.53-2.95.72-.64,1.8-.96,3.22-.96,1.29,0,2.26.19,2.89.58.63.38,1.08.87,1.34,1.46.26.59.39,1.67.39,3.25l-.03,4.24c0,1.21.05,2.09.14,2.67.09.57.27,1.19.52,1.84h-2.87c-.08-.24-.17-.6-.28-1.07-.05-.21-.08-.36-.1-.43-.5.6-1.03,1.06-1.59,1.36-.56.3-1.17.45-1.81.45-1.13,0-2.02-.38-2.67-1.15-.65-.77-.98-1.74-.98-2.91,0-.78.15-1.47.44-2.07s.71-1.07,1.25-1.39c.53-.32,1.3-.61,2.31-.85,1.36-.32,2.3-.62,2.82-.89v-.36c0-.7-.14-1.2-.41-1.49-.28-.3-.8-.45-1.56-.45-.52,0-.92.13-1.21.38-.29.25-.52.7-.7,1.34ZM72.03,102.45c-.37.16-.96.34-1.77.56-.81.22-1.33.43-1.58.63-.38.34-.57.76-.57,1.28s.15.95.45,1.32c.3.37.69.56,1.16.56.52,0,1.02-.21,1.5-.65.35-.33.58-.73.69-1.2.08-.31.11-.9.11-1.77v-.72Z" style="fill: #001d31;"/>
      <path d="M77.53,109.04v-18.94h2.9v18.94h-2.9Z" style="fill: #001d31;"/>
      <path d="M101.77,109.04h-3.33l-1.32-4.3h-6.06l-1.25,4.3h-3.25l5.9-18.94h3.23l6.07,18.94ZM96.14,101.55l-2.09-7.03-2.05,7.03h4.13Z" style="fill: #001d31;"/>
      <path d="M103.16,93.46v-3.36h2.9v3.36h-2.9ZM103.16,109.04v-13.72h2.9v13.72h-2.9Z" style="fill: #001d31;"/>
      <path d="M111.61,109.04h-2.9v-13.72h2.7v1.95c.46-.92.88-1.53,1.25-1.82.37-.29.79-.44,1.26-.44.66,0,1.3.23,1.91.68l-.9,3.17c-.49-.4-.94-.59-1.36-.59s-.75.14-1.03.42c-.28.28-.5.79-.67,1.52-.16.73-.24,2.27-.24,4.6v4.24Z" style="fill: #001d31;"/>
      <path d="M116.77,95.32h2.71v2.01c.35-.69.83-1.25,1.43-1.68.6-.43,1.26-.65,1.99-.65,1.27,0,2.36.62,3.25,1.87.89,1.25,1.33,2.99,1.33,5.22s-.45,4.07-1.34,5.34-1.98,1.91-3.26,1.91c-.61,0-1.16-.15-1.65-.45-.49-.3-1.01-.82-1.56-1.55v6.91h-2.9v-18.94ZM119.64,101.95c0,1.54.24,2.68.73,3.42s1.09,1.1,1.79,1.1,1.24-.34,1.68-1.01.67-1.79.67-3.33c0-1.44-.23-2.51-.69-3.2-.46-.7-1.03-1.05-1.72-1.05s-1.3.34-1.77,1.03c-.47.68-.7,1.7-.7,3.04Z" style="fill: #001d31;"/>
      <path d="M128.9,101.99c0-1.21.24-2.37.71-3.5.48-1.13,1.15-1.99,2.02-2.58.87-.59,1.84-.89,2.92-.89,1.66,0,3.02.67,4.08,2.02,1.06,1.35,1.59,3.05,1.59,5.11s-.54,3.8-1.61,5.16-2.42,2.05-4.05,2.05c-1.01,0-1.97-.29-2.88-.85s-1.61-1.4-2.08-2.5c-.48-1.1-.71-2.44-.71-4.01ZM131.88,102.18c0,1.36.26,2.4.77,3.13.52.72,1.15,1.08,1.91,1.08s1.39-.36,1.91-1.08.77-1.77.77-3.15-.26-2.38-.77-3.1-1.15-1.08-1.91-1.08-1.4.36-1.91,1.08c-.52.72-.77,1.77-.77,3.13Z" style="fill: #001d31;"/>
      <path d="M145.07,109.04h-2.9v-13.72h2.7v1.95c.46-.92.88-1.53,1.25-1.82.37-.29.79-.44,1.26-.44.66,0,1.3.23,1.91.68l-.9,3.17c-.49-.4-.94-.59-1.36-.59s-.75.14-1.03.42c-.28.28-.5.79-.67,1.52-.16.73-.24,2.27-.24,4.6v4.24Z" style="fill: #001d31;"/>
      <path d="M155.35,95.32v2.89h-1.98v5.53c0,1.12.02,1.77.06,1.96.04.19.12.34.26.46s.3.18.49.18c.27,0,.66-.12,1.17-.35l.25,2.82c-.68.36-1.44.54-2.29.54-.52,0-1-.11-1.42-.33-.42-.22-.73-.5-.93-.85s-.33-.82-.41-1.42c-.06-.42-.09-1.27-.09-2.56v-5.98h-1.33v-2.89h1.33v-2.73l2.91-2.12v4.84h1.98Z" style="fill: #001d31;"/>
      <path d="M162.84,109.04v-18.94h11.23v3.2h-8.18v4.2h7.61v3.19h-7.61v5.15h8.46v3.19h-11.52Z" style="fill: #001d31;"/>
      <path d="M175.33,109.04l3.96-7.07-3.79-6.65h3.54l1.94,3.77,2.05-3.77h3.41l-3.72,6.5,4.06,7.22h-3.57l-2.23-4.25-2.25,4.25h-3.4Z" style="fill: #001d31;"/>
      <path d="M188.21,95.32h2.71v2.01c.35-.69.83-1.25,1.43-1.68.6-.43,1.26-.65,2-.65,1.27,0,2.36.62,3.25,1.87.89,1.25,1.33,2.99,1.33,5.22s-.45,4.07-1.34,5.34c-.9,1.27-1.98,1.91-3.26,1.91-.61,0-1.16-.15-1.65-.45-.49-.3-1.01-.82-1.56-1.55v6.91h-2.9v-18.94ZM191.08,101.95c0,1.54.25,2.68.73,3.42s1.08,1.1,1.79,1.1,1.24-.34,1.68-1.01c.45-.68.67-1.79.67-3.33,0-1.44-.23-2.51-.69-3.2-.46-.7-1.03-1.05-1.72-1.05s-1.3.34-1.77,1.03-.7,1.7-.7,3.04Z" style="fill: #001d31;"/>
      <path d="M203.79,109.04h-2.9v-13.72h2.7v1.95c.46-.92.88-1.53,1.25-1.82.37-.29.79-.44,1.26-.44.66,0,1.3.23,1.91.68l-.9,3.17c-.49-.4-.94-.59-1.36-.59s-.75.14-1.03.42-.5.79-.67,1.52c-.16.73-.24,2.27-.24,4.6v4.24Z" style="fill: #001d31;"/>
      <path d="M215.39,104.68l2.89.61c-.37,1.33-.96,2.34-1.76,3.03s-1.81,1.04-3.01,1.04c-1.91,0-3.32-.78-4.24-2.34-.72-1.25-1.08-2.83-1.08-4.73,0-2.27.48-4.05,1.43-5.34.95-1.29,2.15-1.93,3.61-1.93,1.63,0,2.92.67,3.87,2.02.94,1.35,1.4,3.41,1.35,6.2h-7.28c.02,1.08.25,1.91.7,2.51.45.6,1.01.9,1.67.9.46,0,.84-.15,1.15-.46s.54-.81.7-1.5ZM215.55,101.01c-.02-1.05-.24-1.85-.65-2.4-.41-.55-.92-.82-1.51-.82-.63,0-1.16.29-1.57.87-.41.58-.62,1.36-.61,2.35h4.34Z" style="fill: #001d31;"/>
      <path d="M219.57,105.13l2.91-.56c.12.71.38,1.24.75,1.61s.91.55,1.59.55c.75,0,1.32-.17,1.7-.52.25-.24.38-.56.38-.97,0-.28-.07-.5-.21-.69-.14-.17-.47-.33-.97-.48-2.34-.65-3.83-1.24-4.46-1.77-.87-.74-1.3-1.77-1.3-3.09,0-1.19.38-2.19,1.13-3s1.92-1.21,3.49-1.21,2.62.31,3.35.92c.73.61,1.23,1.52,1.51,2.71l-2.74.63c-.12-.53-.34-.94-.67-1.23s-.79-.43-1.4-.43c-.76,0-1.31.13-1.64.4-.22.19-.33.43-.33.74,0,.26.1.48.29.66.26.24,1.17.58,2.71,1.02,1.55.44,2.63.98,3.24,1.62.61.65.91,1.55.91,2.7,0,1.26-.42,2.34-1.26,3.24-.84.9-2.08,1.36-3.73,1.36-1.5,0-2.68-.38-3.55-1.14-.87-.76-1.44-1.79-1.71-3.09Z" style="fill: #001d31;"/>
      <path d="M231.13,105.13l2.91-.56c.12.71.38,1.24.75,1.61s.91.55,1.59.55c.75,0,1.32-.17,1.7-.52.25-.24.38-.56.38-.97,0-.28-.07-.5-.21-.69-.14-.17-.47-.33-.97-.48-2.34-.65-3.83-1.24-4.46-1.77-.87-.74-1.3-1.77-1.3-3.09,0-1.19.38-2.19,1.13-3s1.92-1.21,3.49-1.21,2.62.31,3.35.92c.73.61,1.23,1.52,1.51,2.71l-2.74.63c-.12-.53-.34-.94-.67-1.23s-.79-.43-1.4-.43c-.76,0-1.31.13-1.64.4-.22.19-.33.43-.33.74,0,.26.1.48.29.66.26.24,1.17.58,2.71,1.02,1.55.44,2.63.98,3.24,1.62.61.65.91,1.55.91,2.7,0,1.26-.42,2.34-1.26,3.24-.84.9-2.08,1.36-3.73,1.36-1.5,0-2.68-.38-3.55-1.14-.87-.76-1.44-1.79-1.71-3.09Z" style="fill: #001d31;"/>
      <path d="M247.5,28c2.48,0,4.5,2.02,4.5,4.5v85c0,2.48-2.02,4.5-4.5,4.5H7.5c-2.48,0-4.5-2.02-4.5-4.5V32.5c0-2.48,2.02-4.5,4.5-4.5h240M247.5,25H7.5c-4.14,0-7.5,3.36-7.5,7.5v85c0,4.14,3.36,7.5,7.5,7.5h240c4.14,0,7.5-3.36,7.5-7.5V32.5c0-4.14-3.36-7.5-7.5-7.5h0Z" style="fill: #fff;"/>
    </g>
  </g>
</svg>