<?xml version="1.0" encoding="UTF-8"?>
<svg xmlns="http://www.w3.org/2000/svg" viewBox="0 0 195 150">
  <g id="c">
    <rect y="25" width="195" height="100" rx="7.5" ry="7.5" style="fill: #6a357d;"/>
  </g>
  <g id="a">
    <g>
      <path d="M187.5,28c2.48,0,4.5,2.02,4.5,4.5v85c0,2.48-2.02,4.5-4.5,4.5H7.5c-2.48,0-4.5-2.02-4.5-4.5V32.5c0-2.48,2.02-4.5,4.5-4.5h180M187.5,25H7.5c-4.14,0-7.5,3.36-7.5,7.5v85c0,4.14,3.36,7.5,7.5,7.5h180c4.14,0,7.5-3.36,7.5-7.5V32.5c0-4.14-3.36-7.5-7.5-7.5h0Z" style="fill: #fff;"/>
      <path d="M36.5,111.38h-8.09v-57.3c-1.95,2.07-4.5,4.13-7.67,6.19-3.16,2.07-6,3.61-8.52,4.65v-8.69c4.53-2.36,8.48-5.23,11.87-8.59,3.39-3.36,5.78-6.63,7.19-9.79h5.22v73.53Z" style="fill: #fff;"/>
      <path d="M48.02,92.2l8.5-.8c.63,4.6,2.09,8.05,4.38,10.37,2.29,2.32,5.06,3.47,8.29,3.47,3.9,0,7.19-1.63,9.89-4.9,2.7-3.26,4.05-7.59,4.05-12.99s-1.3-9.17-3.89-12.14c-2.59-2.96-5.99-4.45-10.18-4.45-2.61,0-4.96.66-7.06,1.97-2.1,1.32-3.75,3.02-4.95,5.12l-7.6-1.1,6.38-37.62h32.77v8.59h-26.3l-3.55,19.68c3.96-3.06,8.11-4.6,12.45-4.6,5.75,0,10.61,2.21,14.57,6.64,3.96,4.43,5.93,10.12,5.93,17.08s-1.74,12.36-5.22,17.18c-4.23,5.93-10,8.89-17.31,8.89-6,0-10.89-1.87-14.68-5.59-3.79-3.73-5.96-8.67-6.5-14.84Z" style="fill: #fff;"/>
      <path d="M136.26,58.07v3.79h-25.31l-1.41,4.19h21.7s-.09,1.23-.22,1.85c-.97,7.14-2.03,10.45-3.66,11.91-1.15,1.01-2.38,1.32-4.28,1.41-1.59.04-4.5.04-7.54-.09-.09-1.23-.66-2.87-1.46-4.01,3.04.31,6.31.35,7.58.35,1.01,0,1.59-.04,2.12-.44,1.01-.75,1.76-2.91,2.47-7.19h-22.89c.93-2.16,1.98-5.16,2.87-7.98h-8.73v-3.79h38.76ZM131.1,42.1v12.52h-28.22v-12.52h28.22ZM107.03,50.97h19.67v-5.2h-19.67v5.2Z" style="fill: #fff;"/>
      <path d="M140.89,55.29c.88-.22,1.63-1.19,2.6-2.65.97-1.41,4.1-6.97,5.78-12.13l3.88,1.85c-1.81,4.32-4.28,8.82-6.88,12.39l4.76-.4c.97-1.54,1.9-3.22,2.73-4.85l3.44,2.16c-2.65,4.54-5.78,9.04-9,12.83l7.98-1.37c-.13,1.06-.18,2.65-.09,3.48-10.94,2.21-12.57,2.65-13.58,3.22-.18-.79-.79-2.65-1.28-3.7,1.06-.22,2.03-1.23,3.4-2.91.79-.79,2.34-2.73,4.06-5.2-4.72.57-5.78.79-6.44,1.15-.22-.79-.88-2.78-1.37-3.88ZM156.15,70.77l.62,3.44c-5.12,1.68-10.45,3.4-14.6,4.72l-.88-4.01c3.7-.88,9.35-2.56,14.86-4.14ZM181.15,63.84c-2.16,3.4-4.98,6.35-8.29,8.95,1.19,2.82,2.6,4.45,4.15,4.45,1.06,0,1.5-1.1,1.67-4.85.84.97,2.12,1.85,3.04,2.29-.71,5.16-1.9,6.57-5.16,6.57-3,0-5.34-2.25-7.1-6.04-3.44,2.21-7.23,4.01-11.2,5.42-.53-1.06-1.59-2.51-2.56-3.44,4.45-1.32,8.69-3.26,12.35-5.64-.79-2.65-1.46-5.69-1.98-9.04l-8.2,1.54-.66-3.75,8.33-1.54c-.18-1.68-.35-3.4-.49-5.16l-6.26.97-.71-3.75,6.75-1.01c-.18-3.13-.26-6.31-.26-9.52h4.1c-.04,3.04.04,6.04.18,8.91l10.1-1.5.71,3.66-10.58,1.63c.13,1.72.31,3.44.49,5.03l10.63-1.94.66,3.66-10.76,2.03c.4,2.69.93,5.12,1.5,7.23,2.43-2.03,4.5-4.32,6.09-6.79l3.48,1.63ZM172.55,41.04c2.03,1.01,4.72,2.65,6.04,3.79l-2.47,2.56c-1.32-1.24-3.97-3-6-4.1l2.43-2.25Z" style="fill: #fff;"/>
      <path d="M102.75,109.04v-18.78h3.44v15.59h8.56v3.19h-12Z" style="fill: #fff;"/>
      <path d="M117.18,93.46v-3.36h3.27v3.36h-3.27ZM117.18,109.04v-13.72h3.27v13.72h-3.27Z" style="fill: #fff;"/>
      <path d="M135.03,109.04h-3.27v-7c0-1.48-.07-2.44-.21-2.88-.14-.43-.37-.77-.68-1.01-.31-.24-.69-.36-1.13-.36-.57,0-1.07.17-1.52.52-.45.34-.76.8-.92,1.37s-.25,1.62-.25,3.15v6.21h-3.27v-13.72h3.04v2.01c1.08-1.55,2.43-2.33,4.07-2.33.72,0,1.38.14,1.98.43.6.29,1.05.66,1.35,1.1.31.45.52.96.64,1.52.12.57.18,1.38.18,2.44v8.53Z" style="fill: #fff;"/>
      <path d="M145.49,104.68l3.25.61c-.42,1.33-1.08,2.34-1.98,3.03-.9.69-2.03,1.04-3.39,1.04-2.15,0-3.74-.78-4.77-2.34-.81-1.25-1.22-2.83-1.22-4.73,0-2.27.54-4.05,1.6-5.34s2.42-1.93,4.06-1.93c1.84,0,3.29.67,4.35,2.02,1.06,1.35,1.57,3.41,1.52,6.2h-8.19c.02,1.08.29,1.91.79,2.51.5.6,1.13.9,1.88.9.51,0,.94-.15,1.29-.46.35-.31.61-.81.79-1.5ZM145.68,101.01c-.02-1.05-.27-1.85-.73-2.4-.46-.55-1.03-.82-1.7-.82-.71,0-1.3.29-1.77.87s-.69,1.36-.69,2.35h4.88Z" style="fill: #fff;"/>
      <path d="M165.87,109.04h-3.27v-13.68c-1.19,1.24-2.6,2.16-4.22,2.75v-3.29c.85-.31,1.78-.9,2.78-1.76s1.69-1.88,2.06-3.03h2.65v19.02Z" style="fill: #fff;"/>
      <path d="M168.41,104.17l3.26-.38c.09.82.37,1.47.83,1.94.46.48.98.72,1.58.72.68,0,1.26-.31,1.73-.92.47-.62.71-1.54.71-2.78,0-1.16-.23-2.03-.7-2.62-.47-.58-1.08-.87-1.83-.87-.94,0-1.78.46-2.52,1.38l-2.65-.43,1.67-9.86h8.64v3.4h-6.16l-.51,3.22c.73-.4,1.47-.61,2.23-.61,1.45,0,2.68.59,3.69,1.76,1.01,1.17,1.51,2.69,1.51,4.56,0,1.56-.41,2.95-1.22,4.17-1.11,1.67-2.65,2.51-4.62,2.51-1.57,0-2.86-.47-3.85-1.41s-1.58-2.2-1.78-3.79Z" style="fill: #fff;"/>
    </g>
  </g>
</svg>