<?xml version="1.0" encoding="UTF-8"?>
<svg xmlns="http://www.w3.org/2000/svg" viewBox="0 0 185 150">
  <g id="c">
    <rect y="25" width="185" height="100" rx="7.5" ry="7.5" style="fill: #d29700;"/>
  </g>
  <g id="a">
    <g>
      <path d="M66.1,56.09l-8.94.7c-.8-3.53-1.93-6.09-3.4-7.69-2.43-2.56-5.43-3.85-8.99-3.85-2.86,0-5.38.8-7.54,2.4-2.83,2.07-5.06,5.08-6.69,9.04-1.63,3.96-2.48,9.61-2.55,16.93,2.16-3.3,4.81-5.75,7.94-7.34s6.41-2.4,9.84-2.4c6,0,11.1,2.21,15.31,6.62,4.21,4.41,6.32,10.12,6.32,17.11,0,4.6-.99,8.87-2.97,12.81s-4.7,6.97-8.17,9.07c-3.46,2.1-7.39,3.15-11.79,3.15-7.49,0-13.61-2.76-18.33-8.27s-7.09-14.59-7.09-27.25c0-14.15,2.61-24.44,7.84-30.87,4.56-5.59,10.71-8.39,18.43-8.39,5.76,0,10.48,1.62,14.16,4.85,3.68,3.23,5.89,7.69,6.62,13.39ZM29.39,87.66c0,3.1.66,6.06,1.97,8.89,1.32,2.83,3.16,4.99,5.52,6.47,2.36,1.48,4.85,2.22,7.44,2.22,3.8,0,7.06-1.53,9.79-4.6,2.73-3.06,4.1-7.23,4.1-12.49s-1.35-9.05-4.05-11.96-6.09-4.37-10.19-4.37-7.51,1.46-10.34,4.37c-2.83,2.91-4.25,6.74-4.25,11.46Z" style="fill: #fff;"/>
      <path d="M124.19,58.07v3.79h-25.31l-1.41,4.19h21.7s-.09,1.23-.22,1.85c-.97,7.14-2.03,10.45-3.66,11.91-1.15,1.01-2.38,1.32-4.28,1.41-1.59.04-4.5.04-7.54-.09-.09-1.23-.66-2.87-1.46-4.01,3.04.31,6.31.35,7.58.35,1.01,0,1.59-.04,2.12-.44,1.01-.75,1.76-2.91,2.47-7.19h-22.89c.93-2.16,1.98-5.16,2.87-7.98h-8.73v-3.79h38.76ZM119.03,42.1v12.52h-28.22v-12.52h28.22ZM94.95,50.97h19.67v-5.2h-19.67v5.2Z" style="fill: #fff;"/>
      <path d="M128.82,55.29c.88-.22,1.63-1.19,2.6-2.65.97-1.41,4.1-6.97,5.78-12.13l3.88,1.85c-1.81,4.32-4.28,8.82-6.88,12.39l4.76-.4c.97-1.54,1.9-3.22,2.73-4.85l3.44,2.16c-2.65,4.54-5.78,9.04-9,12.83l7.98-1.37c-.13,1.06-.18,2.65-.09,3.48-10.94,2.21-12.57,2.65-13.58,3.22-.18-.79-.79-2.65-1.28-3.7,1.06-.22,2.03-1.23,3.4-2.91.79-.79,2.34-2.73,4.06-5.2-4.72.57-5.78.79-6.44,1.15-.22-.79-.88-2.78-1.37-3.88ZM144.08,70.77l.62,3.44c-5.12,1.68-10.45,3.4-14.6,4.72l-.88-4.01c3.7-.88,9.35-2.56,14.86-4.14ZM169.08,63.84c-2.16,3.4-4.98,6.35-8.29,8.95,1.19,2.82,2.6,4.45,4.15,4.45,1.06,0,1.5-1.1,1.67-4.85.84.97,2.12,1.85,3.04,2.29-.71,5.16-1.9,6.57-5.16,6.57-3,0-5.34-2.25-7.1-6.04-3.44,2.21-7.23,4.01-11.2,5.42-.53-1.06-1.59-2.51-2.56-3.44,4.45-1.32,8.69-3.26,12.35-5.64-.79-2.65-1.46-5.69-1.98-9.04l-8.2,1.54-.66-3.75,8.33-1.54c-.18-1.68-.35-3.4-.49-5.16l-6.26.97-.71-3.75,6.75-1.01c-.18-3.13-.26-6.31-.26-9.52h4.1c-.04,3.04.04,6.04.18,8.91l10.1-1.5.71,3.66-10.58,1.63c.13,1.72.31,3.44.49,5.03l10.63-1.94.66,3.66-10.76,2.03c.4,2.69.93,5.12,1.5,7.23,2.43-2.03,4.5-4.32,6.09-6.79l3.48,1.63ZM160.48,41.04c2.03,1.01,4.72,2.65,6.04,3.79l-2.47,2.56c-1.32-1.24-3.97-3-6-4.1l2.43-2.25Z" style="fill: #fff;"/>
      <path d="M92.01,109.04v-18.78h3.82v15.59h9.51v3.19h-13.33Z" style="fill: #fff;"/>
      <path d="M108.05,93.46v-3.36h3.63v3.36h-3.63ZM108.05,109.04v-13.72h3.63v13.72h-3.63Z" style="fill: #fff;"/>
      <path d="M127.88,109.04h-3.63v-7c0-1.48-.08-2.44-.23-2.88-.16-.43-.41-.77-.76-1.01-.35-.24-.77-.36-1.26-.36-.63,0-1.19.17-1.69.52-.5.34-.84.8-1.03,1.37s-.28,1.62-.28,3.15v6.21h-3.63v-13.72h3.37v2.01c1.2-1.55,2.7-2.33,4.52-2.33.8,0,1.53.14,2.2.43.66.29,1.17.66,1.5,1.1.34.45.58.96.71,1.52.13.57.2,1.38.2,2.44v8.53Z" style="fill: #fff;"/>
      <path d="M139.51,104.68l3.62.61c-.46,1.33-1.2,2.34-2.2,3.03-1,.69-2.26,1.04-3.77,1.04-2.39,0-4.15-.78-5.3-2.34-.9-1.25-1.36-2.83-1.36-4.73,0-2.27.59-4.05,1.78-5.34,1.19-1.29,2.69-1.93,4.51-1.93,2.04,0,3.65.67,4.83,2.02,1.18,1.35,1.74,3.41,1.69,6.2h-9.09c.03,1.08.32,1.91.88,2.51.56.6,1.26.9,2.09.9.57,0,1.05-.15,1.43-.46.39-.31.68-.81.88-1.5ZM139.71,101.01c-.03-1.05-.3-1.85-.81-2.4-.52-.55-1.15-.82-1.89-.82-.79,0-1.45.29-1.96.87-.52.58-.77,1.36-.76,2.35h5.43Z" style="fill: #fff;"/>
      <path d="M165.15,94.74l-3.51.39c-.09-.72-.31-1.26-.67-1.6-.36-.34-.83-.52-1.41-.52-.77,0-1.42.34-1.94,1.03-.53.69-.86,2.12-1,4.3.9-1.07,2.03-1.6,3.37-1.6,1.52,0,2.81.58,3.9,1.73,1.08,1.15,1.62,2.64,1.62,4.47,0,1.94-.57,3.49-1.71,4.66-1.14,1.17-2.6,1.76-4.38,1.76-1.91,0-3.48-.74-4.71-2.23-1.23-1.49-1.85-3.92-1.85-7.31s.64-5.97,1.92-7.51c1.28-1.53,2.95-2.3,5-2.3,1.44,0,2.63.4,3.57,1.21.94.8,1.54,1.97,1.8,3.51ZM156.92,102.66c0,1.18.27,2.09.81,2.73.54.64,1.16.96,1.86.96s1.23-.26,1.68-.79c.45-.52.67-1.39.67-2.58s-.24-2.13-.72-2.71c-.48-.57-1.08-.86-1.81-.86s-1.29.27-1.77.82-.72,1.35-.72,2.42Z" style="fill: #fff;"/>
      <path d="M177.5,28c2.48,0,4.5,2.02,4.5,4.5v85c0,2.48-2.02,4.5-4.5,4.5H7.5c-2.48,0-4.5-2.02-4.5-4.5V32.5c0-2.48,2.02-4.5,4.5-4.5h170M177.5,25H7.5c-4.14,0-7.5,3.36-7.5,7.5v85c0,4.14,3.36,7.5,7.5,7.5h170c4.14,0,7.5-3.36,7.5-7.5V32.5c0-4.14-3.36-7.5-7.5-7.5h0Z" style="fill: #fff;"/>
    </g>
  </g>
</svg>