<?xml version="1.0" encoding="UTF-8"?>
<svg xmlns="http://www.w3.org/2000/svg" viewBox="0 0 185 150">
  <g id="c">
    <rect y="25" width="185" height="100" rx="7.5" ry="7.5" style="fill: #009b6b;"/>
  </g>
  <g id="a">
    <g>
      <path d="M33.28,71.67c-3.73-1.37-6.49-3.31-8.29-5.84-1.8-2.53-2.7-5.56-2.7-9.09,0-5.33,1.91-9.81,5.74-13.44,3.83-3.63,8.92-5.45,15.29-5.45s11.54,1.86,15.44,5.57c3.9,3.71,5.84,8.23,5.84,13.56,0,3.4-.89,6.35-2.67,8.87-1.78,2.51-4.49,4.46-8.12,5.82,4.5,1.47,7.92,3.83,10.27,7.09,2.35,3.26,3.52,7.16,3.52,11.69,0,6.26-2.21,11.52-6.64,15.79-4.43,4.26-10.26,6.39-17.48,6.39s-13.05-2.14-17.48-6.42c-4.43-4.28-6.64-9.62-6.64-16.01,0-4.76,1.21-8.75,3.62-11.96,2.41-3.21,5.85-5.4,10.32-6.57ZM28.59,90.25c0,2.57.61,5.05,1.82,7.44,1.21,2.4,3.02,4.25,5.42,5.57s4.98,1.97,7.74,1.97c4.3,0,7.84-1.38,10.64-4.15,2.8-2.76,4.2-6.28,4.2-10.54s-1.44-7.91-4.32-10.74c-2.88-2.83-6.49-4.25-10.81-4.25s-7.74,1.4-10.52,4.2c-2.78,2.8-4.17,6.29-4.17,10.49ZM31.49,56.44c0,3.46,1.12,6.29,3.35,8.49,2.23,2.2,5.13,3.3,8.69,3.3s6.3-1.09,8.52-3.27c2.21-2.18,3.32-4.85,3.32-8.02s-1.14-6.07-3.42-8.32c-2.28-2.25-5.12-3.37-8.52-3.37s-6.28,1.1-8.54,3.3-3.4,4.83-3.4,7.89Z" style="fill: #fff;"/>
      <path d="M124.19,58.07v3.79h-25.31l-1.41,4.19h21.7s-.09,1.23-.22,1.85c-.97,7.14-2.03,10.45-3.66,11.91-1.15,1.01-2.38,1.32-4.28,1.41-1.59.04-4.5.04-7.54-.09-.09-1.23-.66-2.87-1.46-4.01,3.04.31,6.31.35,7.58.35,1.01,0,1.59-.04,2.12-.44,1.01-.75,1.76-2.91,2.47-7.19h-22.89c.93-2.16,1.98-5.16,2.87-7.98h-8.73v-3.79h38.76ZM119.03,42.1v12.52h-28.22v-12.52h28.22ZM94.95,50.97h19.67v-5.2h-19.67v5.2Z" style="fill: #fff;"/>
      <path d="M128.82,55.29c.88-.22,1.63-1.19,2.6-2.65.97-1.41,4.1-6.97,5.78-12.13l3.88,1.85c-1.81,4.32-4.28,8.82-6.88,12.39l4.76-.4c.97-1.54,1.9-3.22,2.73-4.85l3.44,2.16c-2.65,4.54-5.78,9.04-9,12.83l7.98-1.37c-.13,1.06-.18,2.65-.09,3.48-10.94,2.21-12.57,2.65-13.58,3.22-.18-.79-.79-2.65-1.28-3.7,1.06-.22,2.03-1.23,3.4-2.91.79-.79,2.34-2.73,4.06-5.2-4.72.57-5.78.79-6.44,1.15-.22-.79-.88-2.78-1.37-3.88ZM144.08,70.77l.62,3.44c-5.12,1.68-10.45,3.4-14.6,4.72l-.88-4.01c3.7-.88,9.35-2.56,14.86-4.14ZM169.08,63.84c-2.16,3.4-4.98,6.35-8.29,8.95,1.19,2.82,2.6,4.45,4.15,4.45,1.06,0,1.5-1.1,1.67-4.85.84.97,2.12,1.85,3.04,2.29-.71,5.16-1.9,6.57-5.16,6.57-3,0-5.34-2.25-7.1-6.04-3.44,2.21-7.23,4.01-11.2,5.42-.53-1.06-1.59-2.51-2.56-3.44,4.45-1.32,8.69-3.26,12.35-5.64-.79-2.65-1.46-5.69-1.98-9.04l-8.2,1.54-.66-3.75,8.33-1.54c-.18-1.68-.35-3.4-.49-5.16l-6.26.97-.71-3.75,6.75-1.01c-.18-3.13-.26-6.31-.26-9.52h4.1c-.04,3.04.04,6.04.18,8.91l10.1-1.5.71,3.66-10.58,1.63c.13,1.72.31,3.44.49,5.03l10.63-1.94.66,3.66-10.76,2.03c.4,2.69.93,5.12,1.5,7.23,2.43-2.03,4.5-4.32,6.09-6.79l3.48,1.63ZM160.48,41.04c2.03,1.01,4.72,2.65,6.04,3.79l-2.47,2.56c-1.32-1.24-3.97-3-6-4.1l2.43-2.25Z" style="fill: #fff;"/>
      <path d="M92.01,109.04v-18.78h3.82v15.59h9.51v3.19h-13.33Z" style="fill: #fff;"/>
      <path d="M108.05,93.46v-3.36h3.63v3.36h-3.63ZM108.05,109.04v-13.72h3.63v13.72h-3.63Z" style="fill: #fff;"/>
      <path d="M127.88,109.04h-3.63v-7c0-1.48-.08-2.44-.23-2.88-.16-.43-.41-.77-.76-1.01-.35-.24-.77-.36-1.26-.36-.63,0-1.19.17-1.69.52-.5.34-.84.8-1.03,1.37s-.28,1.62-.28,3.15v6.21h-3.63v-13.72h3.37v2.01c1.2-1.55,2.7-2.33,4.52-2.33.8,0,1.53.14,2.2.43.66.29,1.17.66,1.5,1.1.34.45.58.96.71,1.52.13.57.2,1.38.2,2.44v8.53Z" style="fill: #fff;"/>
      <path d="M139.5,104.68l3.62.61c-.46,1.33-1.2,2.34-2.2,3.03-1,.69-2.26,1.04-3.77,1.04-2.39,0-4.15-.78-5.3-2.34-.9-1.25-1.36-2.83-1.36-4.73,0-2.27.59-4.05,1.78-5.34,1.19-1.29,2.69-1.93,4.51-1.93,2.04,0,3.65.67,4.83,2.02,1.18,1.35,1.74,3.41,1.69,6.2h-9.09c.03,1.08.32,1.91.88,2.51.56.6,1.26.9,2.09.9.57,0,1.05-.15,1.43-.46.39-.31.68-.81.88-1.5ZM139.71,101.01c-.03-1.05-.3-1.85-.81-2.4-.52-.55-1.15-.82-1.89-.82-.79,0-1.45.29-1.96.87-.52.58-.77,1.36-.76,2.35h5.43Z" style="fill: #fff;"/>
      <path d="M155.96,98.82c-.94-.4-1.62-.94-2.05-1.63-.43-.69-.64-1.45-.64-2.28,0-1.41.49-2.58,1.48-3.5.99-.92,2.39-1.38,4.21-1.38s3.2.46,4.19,1.38c1,.92,1.49,2.09,1.49,3.5,0,.88-.23,1.66-.68,2.34-.46.69-1.1,1.21-1.92,1.57,1.05.42,1.85,1.04,2.4,1.85s.82,1.74.82,2.8c0,1.75-.56,3.17-1.67,4.26s-2.6,1.64-4.45,1.64c-1.72,0-3.16-.45-4.3-1.36-1.35-1.07-2.03-2.53-2.03-4.39,0-1.02.25-1.97.76-2.82.51-.86,1.31-1.52,2.4-1.98ZM156.38,103.28c0,1,.26,1.78.77,2.34.51.56,1.15.84,1.92.84s1.37-.27,1.86-.81c.49-.54.74-1.32.74-2.33,0-.89-.25-1.6-.75-2.14-.5-.54-1.13-.81-1.9-.81-.89,0-1.55.31-1.98.92-.44.61-.65,1.27-.65,1.99ZM156.71,95.17c0,.72.21,1.29.61,1.69s.95.61,1.63.61,1.24-.21,1.65-.61c.41-.41.62-.98.62-1.7,0-.68-.21-1.23-.61-1.63s-.95-.61-1.62-.61-1.25.21-1.67.62-.62.96-.62,1.64Z" style="fill: #fff;"/>
      <path d="M177.5,28c2.48,0,4.5,2.02,4.5,4.5v85c0,2.48-2.02,4.5-4.5,4.5H7.5c-2.48,0-4.5-2.02-4.5-4.5V32.5c0-2.48,2.02-4.5,4.5-4.5h170M177.5,25H7.5c-4.14,0-7.5,3.36-7.5,7.5v85c0,4.14,3.36,7.5,7.5,7.5h170c4.14,0,7.5-3.36,7.5-7.5V32.5c0-4.14-3.36-7.5-7.5-7.5h0Z" style="fill: #fff;"/>
    </g>
  </g>
</svg>