<?xml version="1.0" encoding="UTF-8"?>
<svg xmlns="http://www.w3.org/2000/svg" viewBox="0 0 185 150">
  <g id="c">
    <rect y="25" width="185" height="100" rx="7.5" ry="7.5" style="fill: #e6081b;"/>
  </g>
  <g id="a">
    <g>
      <path d="M66.01,42.01v4.06h-12.92v5.69h11.11v28.27h-4.19v-2.56h-26.81v2.65h-4.06v-28.36h10.58v-5.69h-12.88v-4.06h39.16ZM60.02,73.63v-6.66h-5.91c-4.06,0-4.98-1.19-4.98-5.38v-6h-5.69c-.22,4.67-1.85,9.7-8.33,12.83-.35-.62-1.19-1.63-1.9-2.38v7.58h26.81ZM39.69,55.59h-6.48v9.52c5.07-2.6,6.26-6.08,6.48-9.52ZM49.12,51.76v-5.69h-5.64v5.69h5.64ZM53.09,61.55c0,1.32.18,1.5,1.59,1.5h4.5c.44,0,.71-.04.84-.09v-7.36h-6.92v5.95Z" style="fill: #fff;"/>
      <path d="M79.59,59.16c1.54,1.46,3.26,3.09,4.9,4.76,1.01-1.98,1.81-4.1,2.42-6.26l3.84.97c-.88,2.96-2.03,5.69-3.44,8.2,2.21,2.38,4.1,4.63,5.29,6.48l-2.69,3.13c-1.1-1.76-2.78-3.92-4.72-6.17-2.69,3.75-6.04,6.88-10.05,9.35-.53-.79-1.9-2.25-2.73-2.96,4.15-2.34,7.54-5.56,10.1-9.39-1.81-1.94-3.66-3.84-5.38-5.47l2.47-2.65ZM82.2,51.05c-1.9,3.66-4.81,7.76-7.36,10.32-.4-.71-1.63-2.43-2.34-3.13,2.34-2.16,4.72-5.38,6.26-8.38l3.44,1.19ZM84.62,39.32c1.1,1.68,2.34,3.92,2.87,5.38l-2.25.97h10.1v3.71h-21.87v-3.71h10.01c-.62-1.46-1.63-3.44-2.51-4.98l3.66-1.37ZM89.21,49.64c2.29,2.6,5.2,6.17,6.48,8.47l-2.95,2.47c-1.19-2.38-4.01-6.17-6.35-8.86l2.82-2.07ZM109.18,41.57l.62-.18,3,1.9c-1.72,4.19-3.97,9.22-5.95,13.1,4.32,4.1,5.29,7.58,5.29,10.63,0,2.87-.71,4.98-2.38,6.04-.79.57-1.85.88-3.04,1.01-1.15.13-2.65.13-4.01.04-.04-1.06-.44-2.82-1.15-3.97,1.32.13,2.6.18,3.48.09.71,0,1.37-.13,1.94-.44.88-.49,1.19-1.72,1.19-3.22,0-2.65-1.28-5.87-5.51-9.61,1.68-3.57,3.53-8.29,4.85-11.73h-6.48v35.06h-3.84v-38.72h11.99Z" style="fill: #fff;"/>
      <path d="M118.89,54.23c.88-.22,1.63-1.19,2.6-2.65.97-1.41,4.1-6.97,5.78-12.13l3.88,1.85c-1.81,4.32-4.28,8.82-6.88,12.39l4.76-.4c.97-1.54,1.9-3.22,2.73-4.85l3.44,2.16c-2.65,4.54-5.78,9.04-9,12.83l7.98-1.37c-.13,1.06-.18,2.65-.09,3.48-10.94,2.21-12.57,2.65-13.58,3.22-.18-.79-.79-2.65-1.28-3.7,1.06-.22,2.03-1.23,3.4-2.91.79-.79,2.34-2.73,4.06-5.2-4.72.57-5.78.79-6.44,1.15-.22-.79-.88-2.78-1.37-3.88ZM134.14,69.7l.62,3.44c-5.12,1.68-10.45,3.4-14.6,4.72l-.88-4.01c3.7-.88,9.35-2.56,14.86-4.14ZM159.15,62.78c-2.16,3.4-4.98,6.35-8.29,8.95,1.19,2.82,2.6,4.45,4.15,4.45,1.06,0,1.5-1.1,1.67-4.85.84.97,2.12,1.85,3.04,2.29-.71,5.16-1.9,6.57-5.16,6.57-3,0-5.34-2.25-7.1-6.04-3.44,2.21-7.23,4.01-11.2,5.42-.53-1.06-1.59-2.51-2.56-3.44,4.45-1.32,8.69-3.26,12.35-5.64-.79-2.65-1.46-5.69-1.98-9.04l-8.2,1.54-.66-3.75,8.33-1.54c-.18-1.68-.35-3.4-.49-5.16l-6.26.97-.71-3.75,6.75-1.01c-.18-3.13-.26-6.31-.26-9.52h4.1c-.04,3.04.04,6.04.18,8.91l10.1-1.5.71,3.66-10.58,1.63c.13,1.72.31,3.44.49,5.03l10.63-1.94.66,3.66-10.76,2.03c.4,2.69.93,5.12,1.5,7.23,2.43-2.03,4.5-4.32,6.09-6.79l3.48,1.63ZM150.55,39.98c2.03,1.01,4.72,2.65,6.04,3.79l-2.47,2.56c-1.32-1.24-3.97-3-6-4.1l2.43-2.25Z" style="fill: #fff;"/>
      <path d="M26.34,109.04l6.47-9.88-5.87-9.06h4.47l3.8,6.08,3.72-6.08h4.43l-5.89,9.2,6.47,9.74h-4.61l-4.2-6.55-4.21,6.55h-4.59Z" style="fill: #fff;"/>
      <path d="M45.89,93.46v-3.36h3.63v3.36h-3.63ZM45.89,109.04v-13.72h3.63v13.72h-3.63Z" style="fill: #fff;"/>
      <path d="M56.79,95.32v13.29c0,1.75-.11,2.98-.34,3.7-.23.72-.67,1.28-1.32,1.69-.65.4-1.48.61-2.49.61-.36,0-.75-.03-1.17-.1-.42-.07-.87-.16-1.35-.29l.63-3.1c.17.03.33.06.48.08s.29.03.42.03c.37,0,.67-.08.91-.24.24-.16.39-.35.47-.57.08-.22.12-.9.12-2.02v-13.09h3.63ZM53.16,93.46v-3.36h3.63v3.36h-3.63Z" style="fill: #fff;"/>
      <path d="M60.59,93.46v-3.36h3.63v3.36h-3.63ZM60.59,109.04v-13.72h3.63v13.72h-3.63Z" style="fill: #fff;"/>
      <path d="M70.65,99.51l-3.29-.59c.37-1.33,1.01-2.31,1.91-2.95.9-.64,2.25-.96,4.03-.96,1.62,0,2.82.19,3.62.58.79.38,1.35.87,1.67,1.46s.48,1.67.48,3.25l-.04,4.24c0,1.21.06,2.09.17,2.67.12.57.33,1.19.65,1.84h-3.59c-.09-.24-.21-.6-.35-1.07-.06-.21-.1-.36-.13-.43-.62.6-1.28,1.06-1.99,1.36-.71.3-1.46.45-2.26.45-1.41,0-2.53-.38-3.34-1.15-.81-.77-1.22-1.74-1.22-2.91,0-.78.18-1.47.56-2.07.37-.61.89-1.07,1.56-1.39.67-.32,1.63-.61,2.89-.85,1.7-.32,2.87-.62,3.53-.89v-.36c0-.7-.17-1.2-.52-1.49-.34-.3-1-.45-1.95-.45-.65,0-1.15.13-1.51.38-.36.25-.65.7-.88,1.34ZM75.51,102.45c-.46.16-1.2.34-2.21.56-1.01.22-1.67.43-1.98.63-.47.34-.71.76-.71,1.28s.19.95.57,1.32c.38.37.86.56,1.45.56.65,0,1.28-.21,1.87-.65.44-.33.73-.73.87-1.2.09-.31.14-.9.14-1.77v-.72Z" style="fill: #fff;"/>
      <path d="M81.82,101.99c0-1.21.3-2.37.89-3.5.59-1.13,1.44-1.99,2.53-2.58,1.09-.59,2.31-.89,3.65-.89,2.08,0,3.78.67,5.1,2.02,1.33,1.35,1.99,3.05,1.99,5.11s-.67,3.8-2.01,5.16c-1.34,1.37-3.03,2.05-5.06,2.05-1.26,0-2.46-.29-3.6-.85-1.14-.57-2.01-1.4-2.6-2.5-.59-1.1-.89-2.44-.89-4.01ZM85.54,102.18c0,1.36.32,2.4.97,3.13s1.44,1.08,2.39,1.08,1.74-.36,2.38-1.08.96-1.77.96-3.15-.32-2.38-.96-3.1-1.44-1.08-2.38-1.08-1.74.36-2.39,1.08-.97,1.77-.97,3.13Z" style="fill: #fff;"/>
      <path d="M106.3,109.04v-18.78h3.82v15.59h9.51v3.19h-13.33Z" style="fill: #fff;"/>
      <path d="M122.33,93.46v-3.36h3.63v3.36h-3.63ZM122.33,109.04v-13.72h3.63v13.72h-3.63Z" style="fill: #fff;"/>
      <path d="M142.16,109.04h-3.63v-7c0-1.48-.08-2.44-.23-2.88-.16-.43-.41-.77-.76-1.01-.35-.24-.77-.36-1.26-.36-.63,0-1.19.17-1.69.52-.5.34-.84.8-1.03,1.37s-.28,1.62-.28,3.15v6.21h-3.63v-13.72h3.37v2.01c1.2-1.55,2.7-2.33,4.52-2.33.8,0,1.53.14,2.2.43.66.29,1.17.66,1.5,1.1.34.45.58.96.71,1.52.13.57.2,1.38.2,2.44v8.53Z" style="fill: #fff;"/>
      <path d="M153.79,104.68l3.62.61c-.46,1.33-1.2,2.34-2.2,3.03-1,.69-2.26,1.04-3.77,1.04-2.39,0-4.15-.78-5.3-2.34-.9-1.25-1.36-2.83-1.36-4.73,0-2.27.59-4.05,1.78-5.34,1.19-1.29,2.69-1.93,4.51-1.93,2.04,0,3.65.67,4.83,2.02,1.18,1.35,1.74,3.41,1.69,6.2h-9.09c.03,1.08.32,1.91.88,2.51.56.6,1.26.9,2.09.9.57,0,1.05-.15,1.43-.46.39-.31.68-.81.88-1.5ZM153.99,101.01c-.03-1.05-.3-1.85-.81-2.4-.52-.55-1.15-.82-1.89-.82-.79,0-1.45.29-1.96.87-.52.58-.77,1.36-.76,2.35h5.43Z" style="fill: #fff;"/>
      <path d="M177.5,28c2.48,0,4.5,2.02,4.5,4.5v85c0,2.48-2.02,4.5-4.5,4.5H7.5c-2.48,0-4.5-2.02-4.5-4.5V32.5c0-2.48,2.02-4.5,4.5-4.5h170M177.5,25H7.5c-4.14,0-7.5,3.36-7.5,7.5v85c0,4.14,3.36,7.5,7.5,7.5h170c4.14,0,7.5-3.36,7.5-7.5V32.5c0-4.14-3.36-7.5-7.5-7.5h0Z" style="fill: #fff;"/>
    </g>
  </g>
</svg>