<?xml version="1.0" encoding="UTF-8"?>
<svg xmlns="http://www.w3.org/2000/svg" viewBox="0 0 185 150">
  <g id="c">
    <rect x="0" y="25" width="185" height="100" rx="7.5" ry="7.5" style="fill: #e46022;"/>
  </g>
  <g id="a">
    <g>
      <path d="M34.66,70.89c-1.15,3.4-3.17,7.06-5.6,9.3l-3.88-1.72c2.21-1.9,4.32-5.34,5.47-8.6l4.01,1.01ZM32.85,62.47v-4.59h-6.22v-3.57h6.22v-3.31h3.71v18.04h-3.71v-3.09l-6.39,2.21-.84-3.62c1.98-.48,4.5-1.23,7.23-2.07ZM41.41,39.36v3.13h8.03v-3.13h3.84v3.13h12.52v3.66h-12.52v6.22h-15.52v-6.22h-11.91v-3.66h11.91v-3.13h3.66ZM42.51,70.94c.57,2.69,1.1,6.22,1.15,8.38l-4.1.57c-.04-2.16-.4-5.73-.93-8.56l3.88-.4ZM51.86,54.8v12.79h-12.52v-12.79h12.52ZM41.41,46.15v3.13h8.03v-3.13h-8.03ZM42.78,64.46h5.47v-6.53h-5.47v6.53ZM51.46,70.72c1.15,2.65,2.38,6.17,2.82,8.38l-4.19.84c-.35-2.21-1.46-5.78-2.56-8.51l3.92-.71ZM65.57,56.17c-2.2,1.41-4.81,2.73-7.23,3.75v3.97c0,1.1.09,1.23.88,1.23h2.34c.79,0,.93-.53,1.06-4.23.75.62,2.25,1.19,3.26,1.46-.35,4.81-1.28,6.13-3.88,6.13h-3.4c-3.31,0-4.06-1.01-4.06-4.59v-12.88h3.79v5.38c1.76-1.01,3.44-2.12,4.59-3.13l2.65,2.91ZM60.37,69.57c2.16,2.73,4.81,6.57,6,9l-4.1,1.76c-1.06-2.38-3.62-6.35-5.73-9.22l3.84-1.54Z" style="fill: #fff;"/>
      <path d="M93.44,39.32c.62,1.32,1.28,2.91,1.76,4.28h14.33v11.02h-13.71c.97,1.46,1.98,3.35,2.51,4.54l-2.73,1.01h15.26v3.4h-17.95c-.13,1.19-.26,2.34-.48,3.44h15.74s-.04,1.06-.13,1.59c-.53,6.17-1.1,8.86-2.29,10.01-.88.84-1.9,1.1-3.35,1.24-1.24.09-3.66.04-6.17-.09-.04-1.01-.53-2.42-1.1-3.4,2.34.22,4.67.26,5.56.26.79,0,1.23-.04,1.63-.4.62-.53,1.1-2.21,1.46-5.95h-12.17c-1.5,4.37-4.32,7.72-10.14,9.92-.44-.93-1.54-2.43-2.38-3.13,7.41-2.6,9.08-7.28,9.75-13.49h-7.72v-3.4h13.27c-.53-1.28-1.46-3.09-2.2-4.41l3.35-1.15h-15.7c-.04,7.5-.75,18.39-4.76,25.75-.84-.62-2.73-1.59-3.84-1.98,4.01-7.14,4.41-17.46,4.41-24.47v-10.32h14.99c-.4-1.1-.84-2.25-1.28-3.22l4.1-1.06ZM79.82,51.09h25.58v-3.97h-25.58v3.97Z" style="fill: #fff;"/>
      <path d="M118.14,54.23c.88-.22,1.63-1.19,2.6-2.65.97-1.41,4.1-6.97,5.78-12.13l3.88,1.85c-1.81,4.32-4.28,8.82-6.88,12.39l4.76-.4c.97-1.54,1.9-3.22,2.73-4.85l3.44,2.16c-2.65,4.54-5.78,9.04-9,12.83l7.98-1.37c-.13,1.06-.18,2.65-.09,3.48-10.94,2.21-12.57,2.65-13.58,3.22-.18-.79-.79-2.65-1.28-3.7,1.06-.22,2.03-1.23,3.4-2.91.79-.79,2.34-2.73,4.06-5.2-4.72.57-5.78.79-6.44,1.15-.22-.79-.88-2.78-1.37-3.88ZM133.4,69.7l.62,3.44c-5.12,1.68-10.45,3.4-14.6,4.72l-.88-4.01c3.7-.88,9.35-2.56,14.86-4.14ZM158.4,62.78c-2.16,3.4-4.98,6.35-8.29,8.95,1.19,2.82,2.6,4.45,4.15,4.45,1.06,0,1.5-1.1,1.67-4.85.84.97,2.12,1.85,3.04,2.29-.71,5.16-1.9,6.57-5.16,6.57-3,0-5.34-2.25-7.1-6.04-3.44,2.21-7.23,4.01-11.2,5.42-.53-1.06-1.59-2.51-2.56-3.44,4.45-1.32,8.69-3.26,12.35-5.64-.79-2.65-1.46-5.69-1.98-9.04l-8.2,1.54-.66-3.75,8.33-1.54c-.18-1.68-.35-3.4-.49-5.16l-6.26.97-.71-3.75,6.75-1.01c-.18-3.13-.26-6.31-.26-9.52h4.1c-.04,3.04.04,6.04.18,8.91l10.1-1.5.71,3.66-10.58,1.63c.13,1.72.31,3.44.49,5.03l10.63-1.94.66,3.66-10.76,2.03c.4,2.69.93,5.12,1.5,7.23,2.43-2.03,4.5-4.32,6.09-6.79l3.48,1.63ZM149.8,39.98c2.03,1.01,4.72,2.65,6.04,3.79l-2.47,2.56c-1.32-1.24-3.97-3-6-4.1l2.43-2.25Z" style="fill: #fff;"/>
      <path d="M17.09,109.04v-7.97l-6.94-10.97h4.48l4.46,7.49,4.37-7.49h4.41l-6.96,10.99v7.95h-3.81Z" style="fill: #fff;"/>
      <path d="M31,99.51l-3.29-.59c.37-1.33,1.01-2.31,1.91-2.95.9-.64,2.25-.96,4.03-.96,1.62,0,2.82.19,3.62.58.79.38,1.35.87,1.67,1.46s.48,1.67.48,3.25l-.04,4.24c0,1.21.06,2.09.17,2.67.12.57.33,1.19.65,1.84h-3.59c-.09-.24-.21-.6-.35-1.07-.06-.21-.1-.36-.13-.43-.62.6-1.28,1.06-1.99,1.36-.71.3-1.46.45-2.26.45-1.41,0-2.53-.38-3.34-1.15-.81-.77-1.22-1.74-1.22-2.91,0-.78.18-1.47.56-2.07.37-.61.89-1.07,1.56-1.39.67-.32,1.63-.61,2.89-.85,1.7-.32,2.87-.62,3.53-.89v-.36c0-.7-.17-1.2-.52-1.49-.34-.3-1-.45-1.95-.45-.65,0-1.15.13-1.51.38-.36.25-.65.7-.88,1.34ZM35.85,102.45c-.46.16-1.2.34-2.21.56-1.01.22-1.67.43-1.98.63-.47.34-.71.76-.71,1.28s.19.95.57,1.32c.38.37.86.56,1.45.56.65,0,1.28-.21,1.87-.65.44-.33.73-.73.87-1.2.09-.31.14-.9.14-1.77v-.72Z" style="fill: #fff;"/>
      <path d="M55.48,109.04h-3.63v-7c0-1.48-.08-2.44-.23-2.88-.16-.43-.41-.77-.76-1.01-.35-.24-.77-.36-1.26-.36-.63,0-1.19.17-1.69.52-.5.34-.84.8-1.03,1.37s-.28,1.62-.28,3.15v6.21h-3.63v-13.72h3.37v2.01c1.2-1.55,2.7-2.33,4.52-2.33.8,0,1.53.14,2.2.43.66.29,1.17.66,1.5,1.1.34.45.58.96.71,1.52.13.57.2,1.38.2,2.44v8.53Z" style="fill: #fff;"/>
      <path d="M57.57,95.32h2.01v-1.03c0-1.15.12-2.01.37-2.58.25-.57.7-1.03,1.36-1.39.66-.36,1.49-.54,2.5-.54s2.05.16,3.04.47l-.49,2.53c-.58-.14-1.13-.21-1.67-.21s-.9.12-1.13.37c-.23.25-.34.72-.34,1.41v.97h2.71v2.85h-2.71v10.87h-3.63v-10.87h-2.01v-2.85Z" style="fill: #fff;"/>
      <path d="M70.68,99.51l-3.29-.59c.37-1.33,1.01-2.31,1.91-2.95.9-.64,2.25-.96,4.03-.96,1.62,0,2.82.19,3.62.58.79.38,1.35.87,1.67,1.46s.48,1.67.48,3.25l-.04,4.24c0,1.21.06,2.09.17,2.67.12.57.33,1.19.65,1.84h-3.59c-.09-.24-.21-.6-.35-1.07-.06-.21-.1-.36-.13-.43-.62.6-1.28,1.06-1.99,1.36-.71.3-1.46.45-2.26.45-1.41,0-2.53-.38-3.34-1.15-.81-.77-1.22-1.74-1.22-2.91,0-.78.18-1.47.56-2.07.37-.61.89-1.07,1.56-1.39.67-.32,1.63-.61,2.89-.85,1.7-.32,2.87-.62,3.53-.89v-.36c0-.7-.17-1.2-.52-1.49-.34-.3-1-.45-1.95-.45-.65,0-1.15.13-1.51.38-.36.25-.65.7-.88,1.34ZM75.54,102.45c-.46.16-1.2.34-2.21.56-1.01.22-1.67.43-1.98.63-.47.34-.71.76-.71,1.28s.19.95.57,1.32c.38.37.86.56,1.45.56.65,0,1.28-.21,1.87-.65.44-.33.73-.73.87-1.2.09-.31.14-.9.14-1.77v-.72Z" style="fill: #fff;"/>
      <path d="M95.16,109.04h-3.63v-7c0-1.48-.08-2.44-.23-2.88-.16-.43-.41-.77-.76-1.01-.35-.24-.77-.36-1.26-.36-.63,0-1.19.17-1.69.52-.5.34-.84.8-1.03,1.37s-.28,1.62-.28,3.15v6.21h-3.63v-13.72h3.37v2.01c1.2-1.55,2.7-2.33,4.52-2.33.8,0,1.53.14,2.2.43.66.29,1.17.66,1.5,1.1.34.45.58.96.71,1.52.13.57.2,1.38.2,2.44v8.53Z" style="fill: #fff;"/>
      <path d="M98.51,109.95l4.15.5c.07.48.23.81.48,1,.34.26.89.39,1.63.39.95,0,1.66-.14,2.13-.43.32-.19.56-.5.72-.92.11-.3.17-.86.17-1.67v-2c-1.08,1.48-2.45,2.22-4.11,2.22-1.84,0-3.3-.78-4.38-2.34-.84-1.23-1.27-2.77-1.27-4.6,0-2.3.55-4.06,1.66-5.27,1.11-1.21,2.48-1.82,4.13-1.82s3.1.75,4.2,2.24v-1.92h3.4v12.31c0,1.62-.13,2.83-.4,3.63-.27.8-.64,1.43-1.12,1.89-.48.46-1.13.81-1.93,1.07-.81.26-1.82.39-3.06.39-2.33,0-3.97-.4-4.95-1.2-.97-.8-1.46-1.81-1.46-3.03,0-.12,0-.27.01-.44ZM101.75,101.9c0,1.46.28,2.52.85,3.2.56.68,1.26,1.01,2.09,1.01.89,0,1.64-.35,2.25-1.04s.92-1.72.92-3.08-.29-2.48-.88-3.17c-.59-.69-1.33-1.03-2.22-1.03s-1.59.34-2.15,1.01c-.56.68-.85,1.71-.85,3.09Z" style="fill: #fff;"/>
      <path d="M122.49,109.04v-18.78h3.82v15.59h9.51v3.19h-13.33Z" style="fill: #fff;"/>
      <path d="M138.52,93.46v-3.36h3.63v3.36h-3.63ZM138.52,109.04v-13.72h3.63v13.72h-3.63Z" style="fill: #fff;"/>
      <path d="M158.35,109.04h-3.63v-7c0-1.48-.08-2.44-.23-2.88-.16-.43-.41-.77-.76-1.01-.35-.24-.77-.36-1.26-.36-.63,0-1.19.17-1.69.52-.5.34-.84.8-1.03,1.37s-.28,1.62-.28,3.15v6.21h-3.63v-13.72h3.37v2.01c1.2-1.55,2.7-2.33,4.52-2.33.8,0,1.53.14,2.2.43.66.29,1.17.66,1.5,1.1.34.45.58.96.71,1.52.13.57.2,1.38.2,2.44v8.53Z" style="fill: #fff;"/>
      <path d="M169.98,104.68l3.62.61c-.46,1.33-1.2,2.34-2.2,3.03-1,.69-2.26,1.04-3.77,1.04-2.39,0-4.15-.78-5.3-2.34-.9-1.25-1.36-2.83-1.36-4.73,0-2.27.59-4.05,1.78-5.34,1.19-1.29,2.69-1.93,4.51-1.93,2.04,0,3.65.67,4.83,2.02,1.18,1.35,1.74,3.41,1.69,6.2h-9.09c.03,1.08.32,1.91.88,2.51.56.6,1.26.9,2.09.9.57,0,1.05-.15,1.43-.46.39-.31.68-.81.88-1.5ZM170.19,101.01c-.03-1.05-.3-1.85-.81-2.4-.52-.55-1.15-.82-1.89-.82-.79,0-1.45.29-1.96.87-.52.58-.77,1.36-.76,2.35h5.43Z" style="fill: #fff;"/>
      <path d="M177.5,28c2.48,0,4.5,2.02,4.5,4.5v85c0,2.48-2.02,4.5-4.5,4.5H7.5c-2.48,0-4.5-2.02-4.5-4.5V32.5c0-2.48,2.02-4.5,4.5-4.5h170M177.5,25H7.5c-4.14,0-7.5,3.36-7.5,7.5v85c0,4.14,3.36,7.5,7.5,7.5h170c4.14,0,7.5-3.36,7.5-7.5V32.5c0-4.14-3.36-7.5-7.5-7.5h0Z" style="fill: #fff;"/>
    </g>
  </g>
</svg>