<?xml version="1.0" encoding="UTF-8"?>
<svg xmlns="http://www.w3.org/2000/svg" viewBox="0 0 215 150">
  <g id="c">
    <rect y="25" width="215" height="100" rx="7.5" ry="7.5" style="fill: #e6081b;"/>
  </g>
  <g id="a">
    <g>
      <path d="M20.87,55.9c-1.37,5.38-3.66,10.72-6.31,14.07-.79-.62-2.65-1.81-3.62-2.34,2.6-3,4.63-7.76,5.73-12.57l4.19.84ZM31.06,38.97c1.28,1.98,2.87,4.72,3.57,6.39l-3.62,1.32h19.4v4.1h-11.24v24.34c0,2.42-.53,3.62-2.12,4.28-1.63.71-4.15.79-7.85.79-.18-1.19-.79-3.04-1.37-4.23,2.65.09,5.25.09,6.04.04.79,0,1.01-.22,1.01-.93v-24.3h-6.39v4.81c0,7.67-1.1,17.77-11.2,24.92-.71-.93-2.16-2.38-3.18-3.09,9.26-6.39,10.14-15.26,10.14-21.87v-4.76h-12.83v-4.1h18.87c-.66-1.68-1.98-4.37-3.26-6.35l4.01-1.37ZM44.2,54.98c2.78,4.45,5.64,10.36,6.61,14.2l-3.92,1.81c-.88-3.84-3.62-9.92-6.31-14.51l3.62-1.5Z" style="fill: #fff;"/>
      <path d="M79.66,38.97c.93,1.68,2.07,3.97,2.56,5.38l-2.6.79h17.51v3.88h-32.46v7.58c0,6.97-.53,17.2-4.23,23.99-.79-.62-2.69-1.54-3.79-1.9,3.57-6.44,3.88-15.66,3.88-22.14v-11.42h17.2c-.44-1.46-1.37-3.48-2.16-5.03l4.1-1.15ZM83.05,50.48v8.38h11.99v3.97h-11.99v12.13h14.24v4.01h-32.54v-4.01h14.02v-12.13h-11.07v-3.97h11.07v-8.38h4.28Z" style="fill: #fff;"/>
      <path d="M116.36,45.4h-12.7v-5.7h32.06v5.7h-12.7v34.71h-6.66v-34.71Z" style="fill: #fff;"/>
      <path d="M150.68,80.11v-30.48c-2.65,2.54-6.55,4.74-9.93,5.93v-5.81c1.86-.73,9.03-4.23,11.57-10.22h4.63v40.58h-6.27Z" style="fill: #fff;"/>
      <path d="M164.44,54.23c.88-.22,1.63-1.19,2.6-2.65.97-1.41,4.1-6.97,5.78-12.13l3.88,1.85c-1.81,4.32-4.28,8.82-6.88,12.39l4.76-.4c.97-1.54,1.9-3.22,2.73-4.85l3.44,2.16c-2.65,4.54-5.78,9.04-9,12.83l7.98-1.37c-.13,1.06-.18,2.65-.09,3.48-10.94,2.21-12.57,2.65-13.58,3.22-.18-.79-.79-2.65-1.28-3.7,1.06-.22,2.03-1.23,3.4-2.91.79-.79,2.34-2.73,4.06-5.2-4.72.57-5.78.79-6.44,1.15-.22-.79-.88-2.78-1.37-3.88ZM179.7,69.7l.62,3.44c-5.12,1.68-10.45,3.4-14.6,4.72l-.88-4.01c3.7-.88,9.35-2.56,14.86-4.14ZM204.7,62.78c-2.16,3.4-4.98,6.35-8.29,8.95,1.19,2.82,2.6,4.45,4.15,4.45,1.06,0,1.5-1.1,1.68-4.85.84.97,2.12,1.85,3.04,2.29-.71,5.16-1.9,6.57-5.16,6.57-3,0-5.34-2.25-7.1-6.04-3.44,2.21-7.23,4.01-11.2,5.42-.53-1.06-1.59-2.51-2.56-3.44,4.45-1.32,8.69-3.26,12.35-5.64-.79-2.65-1.46-5.69-1.98-9.04l-8.2,1.54-.66-3.75,8.33-1.54c-.18-1.68-.35-3.4-.49-5.16l-6.26.97-.71-3.75,6.75-1.01c-.18-3.13-.26-6.31-.26-9.52h4.1c-.04,3.04.04,6.04.18,8.91l10.1-1.5.71,3.66-10.58,1.63c.13,1.72.31,3.44.48,5.03l10.63-1.94.66,3.66-10.76,2.03c.4,2.69.93,5.12,1.5,7.23,2.43-2.03,4.5-4.32,6.09-6.79l3.48,1.63ZM196.1,39.98c2.03,1.01,4.72,2.65,6.04,3.79l-2.47,2.56c-1.32-1.24-3.97-3-6-4.1l2.43-2.25Z" style="fill: #fff;"/>
      <path d="M21.34,109.04v-7.97l-5.9-10.97h3.81l3.79,7.49,3.71-7.49h3.74l-5.92,10.99v7.95h-3.24Z" style="fill: #fff;"/>
      <path d="M31.25,93.46v-3.36h3.09v3.36h-3.09ZM31.25,109.04v-13.72h3.09v13.72h-3.09Z" style="fill: #fff;"/>
      <path d="M36.26,109.04v-2.83l4.37-5.9c.72-.96,1.25-1.65,1.59-2.05-.36.03-.83.04-1.42.05l-4.12.03v-3.01h9.64v2.57l-4.46,6.05-1.57,2c.86-.06,1.39-.09,1.59-.09h4.78v3.19h-10.41Z" style="fill: #fff;"/>
      <path d="M51.82,90.1v6.96c1-1.37,2.19-2.05,3.57-2.05.71,0,1.35.16,1.92.46.57.31,1,.71,1.29,1.19.29.48.49,1.02.59,1.6.11.59.16,1.49.16,2.73v8.05h-3.09v-7.25c0-1.44-.06-2.35-.18-2.74s-.32-.7-.62-.92-.67-.34-1.11-.34c-.51,0-.97.15-1.37.44-.4.29-.7.73-.88,1.32-.19.59-.28,1.46-.28,2.62v6.87h-3.09v-18.94h3.09Z" style="fill: #fff;"/>
      <path d="M70.16,109.04v-2.05c-.42.73-.98,1.31-1.67,1.73-.69.42-1.42.63-2.19.63s-1.49-.2-2.11-.61c-.62-.41-1.07-.97-1.35-1.71-.28-.73-.42-1.74-.42-3.04v-8.68h3.09v6.3c0,1.93.06,3.11.17,3.55s.32.78.62,1.03c.3.25.68.38,1.14.38.53,0,1-.17,1.42-.51s.7-.76.86-1.27c.15-.5.23-1.74.23-3.7v-5.79h3.09v13.72h-2.87Z" style="fill: #fff;"/>
      <path d="M78.53,99.51l-2.8-.59c.31-1.33.86-2.31,1.62-2.95.77-.64,1.91-.96,3.43-.96,1.38,0,2.4.19,3.07.58.67.38,1.15.87,1.42,1.46.27.59.41,1.67.41,3.25l-.03,4.24c0,1.21.05,2.09.15,2.67.1.57.28,1.19.55,1.84h-3.05c-.08-.24-.18-.6-.3-1.07-.05-.21-.09-.36-.11-.43-.53.6-1.09,1.06-1.69,1.36-.6.3-1.24.45-1.92.45-1.2,0-2.15-.38-2.84-1.15s-1.04-1.74-1.04-2.91c0-.78.16-1.47.47-2.07.31-.61.76-1.07,1.32-1.39.57-.32,1.39-.61,2.45-.85,1.44-.32,2.44-.62,3-.89v-.36c0-.7-.15-1.2-.44-1.49s-.85-.45-1.66-.45c-.55,0-.98.13-1.28.38s-.56.7-.75,1.34ZM82.66,102.45c-.4.16-1.02.34-1.88.56-.86.22-1.42.43-1.68.63-.4.34-.6.76-.6,1.28s.16.95.48,1.32c.32.37.73.56,1.23.56.56,0,1.09-.21,1.59-.65.37-.33.62-.73.74-1.2.08-.31.12-.9.12-1.77v-.72Z" style="fill: #fff;"/>
      <path d="M99.34,109.04h-3.09v-7c0-1.48-.07-2.44-.2-2.88-.13-.43-.35-.77-.64-1.01s-.65-.36-1.07-.36c-.53,0-1.01.17-1.44.52-.42.34-.72.8-.87,1.37s-.24,1.62-.24,3.15v6.21h-3.09v-13.72h2.87v2.01c1.02-1.55,2.3-2.33,3.84-2.33.68,0,1.3.14,1.87.43.56.29.99.66,1.28,1.1.29.45.49.96.6,1.52.11.57.17,1.38.17,2.44v8.53Z" style="fill: #fff;"/>
      <path d="M102.18,109.95l3.52.5c.06.48.19.81.41,1,.29.26.75.39,1.38.39.81,0,1.41-.14,1.81-.43.27-.19.48-.5.61-.92.1-.3.14-.86.14-1.67v-2c-.92,1.48-2.09,2.22-3.49,2.22-1.57,0-2.81-.78-3.72-2.34-.72-1.23-1.08-2.77-1.08-4.6,0-2.3.47-4.06,1.41-5.27.94-1.21,2.11-1.82,3.51-1.82s2.63.75,3.57,2.24v-1.92h2.89v12.31c0,1.62-.11,2.83-.34,3.63-.23.8-.55,1.43-.96,1.89-.41.46-.96.81-1.64,1.07-.68.26-1.55.39-2.6.39-1.98,0-3.38-.4-4.21-1.2s-1.24-1.81-1.24-3.03c0-.12,0-.27.01-.44ZM104.94,101.9c0,1.46.24,2.52.72,3.2.48.68,1.07,1.01,1.77,1.01.75,0,1.39-.35,1.91-1.04.52-.69.78-1.72.78-3.08s-.25-2.48-.75-3.17c-.5-.69-1.13-1.03-1.89-1.03s-1.35.34-1.83,1.01-.72,1.71-.72,3.09Z" style="fill: #fff;"/>
      <path d="M126.1,109.04v-15.74h-4.78v-3.2h12.79v3.2h-4.77v15.74h-3.25Z" style="fill: #fff;"/>
      <path d="M143.43,109.04h-3.09v-13.68c-1.13,1.24-2.46,2.16-3.99,2.75v-3.29c.81-.31,1.68-.9,2.62-1.76s1.59-1.88,1.94-3.03h2.5v19.02Z" style="fill: #fff;"/>
      <path d="M155.06,109.04v-18.78h3.25v15.59h8.08v3.19h-11.33Z" style="fill: #fff;"/>
      <path d="M168.68,93.46v-3.36h3.09v3.36h-3.09ZM168.68,109.04v-13.72h3.09v13.72h-3.09Z" style="fill: #fff;"/>
      <path d="M185.54,109.04h-3.09v-7c0-1.48-.07-2.44-.2-2.88-.13-.43-.35-.77-.64-1.01s-.65-.36-1.07-.36c-.53,0-1.01.17-1.44.52-.42.34-.72.8-.87,1.37s-.24,1.62-.24,3.15v6.21h-3.09v-13.72h2.87v2.01c1.02-1.55,2.3-2.33,3.84-2.33.68,0,1.3.14,1.87.43.56.29.99.66,1.28,1.1.29.45.49.96.6,1.52.11.57.17,1.38.17,2.44v8.53Z" style="fill: #fff;"/>
      <path d="M195.42,104.68l3.07.61c-.4,1.33-1.02,2.34-1.87,3.03-.85.69-1.92,1.04-3.2,1.04-2.03,0-3.53-.78-4.5-2.34-.77-1.25-1.15-2.83-1.15-4.73,0-2.27.5-4.05,1.52-5.34s2.29-1.93,3.83-1.93c1.74,0,3.1.67,4.11,2.02,1,1.35,1.48,3.41,1.44,6.2h-7.73c.02,1.08.27,1.91.75,2.51s1.07.9,1.78.9c.48,0,.89-.15,1.22-.46.33-.31.58-.81.75-1.5ZM195.6,101.01c-.02-1.05-.25-1.85-.69-2.4-.44-.55-.97-.82-1.6-.82-.67,0-1.23.29-1.67.87-.44.58-.66,1.36-.65,2.35h4.61Z" style="fill: #fff;"/>
      <path d="M207.5,28c2.48,0,4.5,2.02,4.5,4.5v85c0,2.48-2.02,4.5-4.5,4.5H7.5c-2.48,0-4.5-2.02-4.5-4.5V32.5c0-2.48,2.02-4.5,4.5-4.5h200M207.5,25H7.5c-4.14,0-7.5,3.36-7.5,7.5v85c0,4.14,3.36,7.5,7.5,7.5h200c4.14,0,7.5-3.36,7.5-7.5V32.5c0-4.14-3.36-7.5-7.5-7.5h0Z" style="fill: #fff;"/>
    </g>
  </g>
</svg>