<?xml version="1.0" encoding="UTF-8"?>
<svg xmlns="http://www.w3.org/2000/svg" viewBox="0 0 185 150">
  <g id="c">
    <rect y="25" width="185" height="100" rx="7.5" ry="7.5" style="fill: #de82b2;"/>
  </g>
  <g id="a">
    <g>
      <path d="M63.57,60.49v19.84h-4.59v-1.9h-25.09v1.98h-4.41v-19.93h34.09ZM60,41v16.58h-26.99v-16.58h26.99ZM58.99,67.67v-3.57h-25.09v3.57h25.09ZM33.9,74.82h25.09v-3.7h-25.09v3.7ZM37.34,47.65h18.12v-3.26h-18.12v3.26ZM37.34,54.14h18.12v-3.31h-18.12v3.31Z" style="fill: #001d31;"/>
      <path d="M90.56,60.93v-14.55h-15.35v-4.15h34.97v4.15h-15.3v14.55h17.86v4.19h-17.86v15.13h-4.32v-15.13h-17.68v-4.19h17.68ZM81.92,48.18c1.63,3.04,3.35,7.01,3.92,9.57l-4.01,1.32c-.57-2.56-2.12-6.66-3.7-9.79l3.79-1.1ZM107.98,49.2c-1.63,3.48-3.62,7.41-5.2,9.92l-3.66-1.15c1.54-2.65,3.4-6.92,4.41-9.97l4.45,1.19Z" style="fill: #001d31;"/>
      <path d="M118.87,54.23c.88-.22,1.63-1.19,2.6-2.65.97-1.41,4.1-6.97,5.78-12.13l3.88,1.85c-1.81,4.32-4.28,8.82-6.88,12.39l4.76-.4c.97-1.54,1.9-3.22,2.73-4.85l3.44,2.16c-2.65,4.54-5.78,9.04-9,12.83l7.98-1.37c-.13,1.06-.18,2.65-.09,3.48-10.94,2.21-12.57,2.65-13.58,3.22-.18-.79-.79-2.65-1.28-3.7,1.06-.22,2.03-1.23,3.4-2.91.79-.79,2.34-2.73,4.06-5.2-4.72.57-5.78.79-6.44,1.15-.22-.79-.88-2.78-1.37-3.88ZM134.13,69.7l.62,3.44c-5.12,1.68-10.45,3.4-14.6,4.72l-.88-4.01c3.7-.88,9.35-2.56,14.86-4.14ZM159.13,62.78c-2.16,3.4-4.98,6.35-8.29,8.95,1.19,2.82,2.6,4.45,4.15,4.45,1.06,0,1.5-1.1,1.67-4.85.84.97,2.12,1.85,3.04,2.29-.71,5.16-1.9,6.57-5.16,6.57-3,0-5.34-2.25-7.1-6.04-3.44,2.21-7.23,4.01-11.2,5.42-.53-1.06-1.59-2.51-2.56-3.44,4.45-1.32,8.69-3.26,12.35-5.64-.79-2.65-1.46-5.69-1.98-9.04l-8.2,1.54-.66-3.75,8.33-1.54c-.18-1.68-.35-3.4-.49-5.16l-6.26.97-.71-3.75,6.75-1.01c-.18-3.13-.26-6.31-.26-9.52h4.1c-.04,3.04.04,6.04.18,8.91l10.1-1.5.71,3.66-10.58,1.63c.13,1.72.31,3.44.49,5.03l10.63-1.94.66,3.66-10.76,2.03c.4,2.69.93,5.12,1.5,7.23,2.43-2.03,4.5-4.32,6.09-6.79l3.48,1.63ZM150.54,39.98c2.03,1.01,4.72,2.65,6.04,3.79l-2.47,2.56c-1.32-1.24-3.97-3-6-4.1l2.43-2.25Z" style="fill: #001d31;"/>
      <path d="M19.49,102.08l3.15,1.18c-.48,2.07-1.29,3.6-2.41,4.61-1.12,1-2.55,1.5-4.28,1.5-2.14,0-3.89-.86-5.27-2.58-1.38-1.72-2.06-4.07-2.06-7.05,0-3.15.69-5.6,2.08-7.34s3.2-2.62,5.46-2.62c1.97,0,3.57.68,4.8,2.05.73.81,1.28,1.97,1.65,3.49l-3.22.9c-.19-.98-.59-1.76-1.19-2.33-.6-.57-1.34-.85-2.2-.85-1.19,0-2.16.5-2.9,1.51s-1.12,2.64-1.12,4.9c0,2.39.37,4.1,1.1,5.12.73,1.02,1.68,1.52,2.86,1.52.86,0,1.61-.32,2.23-.97.62-.65,1.07-1.66,1.34-3.05Z" style="fill: #001d31;"/>
      <path d="M28.48,90.1v6.96c1-1.37,2.18-2.05,3.57-2.05.71,0,1.35.16,1.92.46.57.31,1,.71,1.29,1.19.29.48.49,1.02.59,1.6.11.59.16,1.49.16,2.73v8.05h-3.08v-7.25c0-1.44-.06-2.35-.18-2.74s-.32-.7-.62-.92c-.3-.23-.67-.34-1.11-.34-.51,0-.97.15-1.37.44-.4.29-.7.73-.88,1.32s-.28,1.46-.28,2.62v6.87h-3.09v-18.94h3.09Z" style="fill: #001d31;"/>
      <path d="M41.45,99.51l-2.8-.59c.31-1.33.86-2.31,1.62-2.95.77-.64,1.91-.96,3.43-.96,1.38,0,2.4.19,3.07.58.67.38,1.15.87,1.42,1.46s.41,1.67.41,3.25l-.03,4.24c0,1.21.05,2.09.15,2.67.1.57.28,1.19.55,1.84h-3.05c-.08-.24-.18-.6-.3-1.07-.05-.21-.09-.36-.11-.43-.53.6-1.09,1.06-1.69,1.36-.6.3-1.24.45-1.92.45-1.2,0-2.15-.38-2.84-1.15-.69-.77-1.04-1.74-1.04-2.91,0-.78.16-1.47.47-2.07.32-.61.76-1.07,1.32-1.39.57-.32,1.39-.61,2.46-.85,1.44-.32,2.44-.62,3-.89v-.36c0-.7-.15-1.2-.44-1.49-.29-.3-.85-.45-1.66-.45-.55,0-.98.13-1.29.38s-.56.7-.75,1.34ZM45.58,102.45c-.39.16-1.02.34-1.88.56-.86.22-1.42.43-1.68.63-.4.34-.6.76-.6,1.28s.16.95.48,1.32c.32.37.73.56,1.23.56.56,0,1.09-.21,1.59-.65.37-.33.62-.73.74-1.2.08-.31.12-.9.12-1.77v-.72Z" style="fill: #001d31;"/>
      <path d="M62.26,109.04h-3.08v-7c0-1.48-.07-2.44-.2-2.88-.13-.43-.35-.77-.64-1.01-.3-.24-.65-.36-1.07-.36-.53,0-1.01.17-1.44.52-.42.34-.72.8-.87,1.37s-.24,1.62-.24,3.15v6.21h-3.09v-13.72h2.87v2.01c1.02-1.55,2.3-2.33,3.84-2.33.68,0,1.3.14,1.87.43.56.29.99.66,1.28,1.1.29.45.49.96.6,1.52.11.57.17,1.38.17,2.44v8.53Z" style="fill: #001d31;"/>
      <path d="M65.1,109.95l3.52.5c.06.48.19.81.41,1,.29.26.75.39,1.38.39.81,0,1.41-.14,1.81-.43.27-.19.48-.5.62-.92.1-.3.14-.86.14-1.67v-2c-.92,1.48-2.09,2.22-3.49,2.22-1.57,0-2.81-.78-3.72-2.34-.72-1.23-1.08-2.77-1.08-4.6,0-2.3.47-4.06,1.41-5.27.94-1.21,2.11-1.82,3.51-1.82s2.63.75,3.57,2.24v-1.92h2.89v12.31c0,1.62-.11,2.83-.34,3.63-.23.8-.55,1.43-.96,1.89-.41.46-.96.81-1.64,1.07-.68.26-1.55.39-2.6.39-1.98,0-3.38-.4-4.21-1.2s-1.24-1.81-1.24-3.03c0-.12,0-.27.01-.44ZM67.86,101.9c0,1.46.24,2.52.72,3.2.48.68,1.07,1.01,1.77,1.01.75,0,1.39-.35,1.91-1.04s.78-1.72.78-3.08-.25-2.48-.75-3.17c-.5-.69-1.13-1.03-1.89-1.03s-1.35.34-1.83,1.01-.72,1.71-.72,3.09Z" style="fill: #001d31;"/>
      <path d="M79.04,95.32h2.88v2.01c.37-.69.88-1.25,1.52-1.68s1.34-.65,2.12-.65c1.35,0,2.5.62,3.45,1.87.94,1.25,1.42,2.99,1.42,5.22s-.48,4.07-1.43,5.34c-.95,1.27-2.11,1.91-3.46,1.91-.64,0-1.23-.15-1.75-.45-.52-.3-1.07-.82-1.65-1.55v6.91h-3.09v-18.94ZM82.09,101.95c0,1.54.26,2.68.78,3.42.52.74,1.15,1.1,1.9,1.1s1.31-.34,1.79-1.01c.48-.68.71-1.79.71-3.33,0-1.44-.25-2.51-.74-3.2-.49-.7-1.1-1.05-1.82-1.05s-1.38.34-1.88,1.03c-.5.68-.75,1.7-.75,3.04Z" style="fill: #001d31;"/>
      <path d="M92.86,93.46v-3.36h3.09v3.36h-3.09ZM92.86,109.04v-13.72h3.09v13.72h-3.09Z" style="fill: #001d31;"/>
      <path d="M109.72,109.04h-3.08v-7c0-1.48-.07-2.44-.2-2.88-.13-.43-.35-.77-.64-1.01-.3-.24-.65-.36-1.07-.36-.53,0-1.01.17-1.44.52-.42.34-.72.8-.87,1.37s-.24,1.62-.24,3.15v6.21h-3.09v-13.72h2.87v2.01c1.02-1.55,2.3-2.33,3.84-2.33.68,0,1.3.14,1.87.43.56.29.99.66,1.28,1.1.29.45.49.96.6,1.52.11.57.17,1.38.17,2.44v8.53Z" style="fill: #001d31;"/>
      <path d="M112.56,109.95l3.52.5c.06.48.19.81.41,1,.29.26.75.39,1.38.39.81,0,1.41-.14,1.81-.43.27-.19.48-.5.62-.92.1-.3.14-.86.14-1.67v-2c-.92,1.48-2.09,2.22-3.49,2.22-1.57,0-2.81-.78-3.72-2.34-.72-1.23-1.08-2.77-1.08-4.6,0-2.3.47-4.06,1.41-5.27.94-1.21,2.11-1.82,3.51-1.82s2.63.75,3.57,2.24v-1.92h2.89v12.31c0,1.62-.11,2.83-.34,3.63-.23.8-.55,1.43-.96,1.89-.41.46-.96.81-1.64,1.07-.68.26-1.55.39-2.6.39-1.98,0-3.38-.4-4.21-1.2s-1.24-1.81-1.24-3.03c0-.12,0-.27.01-.44ZM115.32,101.9c0,1.46.24,2.52.72,3.2.48.68,1.07,1.01,1.77,1.01.75,0,1.39-.35,1.91-1.04s.78-1.72.78-3.08-.25-2.48-.75-3.17c-.5-.69-1.13-1.03-1.89-1.03s-1.35.34-1.83,1.01-.72,1.71-.72,3.09Z" style="fill: #001d31;"/>
      <path d="M132.94,109.04v-18.78h3.25v15.59h8.08v3.19h-11.33Z" style="fill: #001d31;"/>
      <path d="M146.57,93.46v-3.36h3.09v3.36h-3.09ZM146.57,109.04v-13.72h3.09v13.72h-3.09Z" style="fill: #001d31;"/>
      <path d="M163.43,109.04h-3.08v-7c0-1.48-.07-2.44-.2-2.88-.13-.43-.35-.77-.64-1.01-.3-.24-.65-.36-1.07-.36-.53,0-1.01.17-1.44.52-.42.34-.72.8-.87,1.37s-.24,1.62-.24,3.15v6.21h-3.09v-13.72h2.87v2.01c1.02-1.55,2.3-2.33,3.84-2.33.68,0,1.3.14,1.87.43.56.29.99.66,1.28,1.1.29.45.49.96.6,1.52.11.57.17,1.38.17,2.44v8.53Z" style="fill: #001d31;"/>
      <path d="M173.31,104.68l3.07.61c-.4,1.33-1.02,2.34-1.87,3.03-.85.69-1.92,1.04-3.2,1.04-2.03,0-3.53-.78-4.5-2.34-.77-1.25-1.15-2.83-1.15-4.73,0-2.27.5-4.05,1.52-5.34,1.01-1.29,2.29-1.93,3.83-1.93,1.74,0,3.1.67,4.11,2.02,1,1.35,1.48,3.41,1.44,6.2h-7.73c.02,1.08.27,1.91.75,2.51s1.07.9,1.78.9c.48,0,.89-.15,1.22-.46.33-.31.58-.81.75-1.5ZM173.49,101.01c-.02-1.05-.25-1.85-.69-2.4-.44-.55-.97-.82-1.6-.82-.67,0-1.23.29-1.67.87s-.66,1.36-.65,2.35h4.61Z" style="fill: #001d31;"/>
      <path d="M177.5,28c2.48,0,4.5,2.02,4.5,4.5v85c0,2.48-2.02,4.5-4.5,4.5H7.5c-2.48,0-4.5-2.02-4.5-4.5V32.5c0-2.48,2.02-4.5,4.5-4.5h170M177.5,25H7.5c-4.14,0-7.5,3.36-7.5,7.5v85c0,4.14,3.36,7.5,7.5,7.5h170c4.14,0,7.5-3.36,7.5-7.5V32.5c0-4.14-3.36-7.5-7.5-7.5h0Z" style="fill: #fff;"/>
    </g>
  </g>
</svg>