<?xml version="1.0" encoding="UTF-8"?>
<svg xmlns="http://www.w3.org/2000/svg" viewBox="0 0 185 150">
  <g id="c">
    <rect y="25" width="185" height="100" rx="7.5" ry="7.5" style="fill: #e46022;"/>
  </g>
  <g id="a">
    <g>
      <path d="M47.84,39.32c.62,1.32,1.28,2.91,1.76,4.28h14.33v11.02h-13.71c.97,1.46,1.98,3.35,2.51,4.54l-2.73,1.01h15.26v3.4h-17.95c-.13,1.19-.26,2.34-.48,3.44h15.74s-.04,1.06-.13,1.59c-.53,6.17-1.1,8.86-2.29,10.01-.88.84-1.9,1.1-3.35,1.24-1.24.09-3.66.04-6.17-.09-.04-1.01-.53-2.42-1.1-3.4,2.34.22,4.67.26,5.56.26.79,0,1.23-.04,1.63-.4.62-.53,1.1-2.21,1.46-5.95h-12.17c-1.5,4.37-4.32,7.72-10.14,9.92-.44-.93-1.54-2.43-2.38-3.13,7.41-2.6,9.08-7.28,9.75-13.49h-7.72v-3.4h13.27c-.53-1.28-1.46-3.09-2.2-4.41l3.35-1.15h-15.7c-.04,7.5-.75,18.39-4.76,25.75-.84-.62-2.73-1.59-3.84-1.98,4.01-7.14,4.41-17.46,4.41-24.47v-10.32h14.99c-.4-1.1-.84-2.25-1.28-3.22l4.1-1.06ZM34.22,51.09h25.58v-3.97h-25.58v3.97Z" style="fill: #fff;"/>
      <path d="M79.46,48.71v23.99h11.02v-32.9h4.41v32.9h11.2v-24.12h4.32v31.57h-4.32v-3.22h-30.91v-28.22h4.28Z" style="fill: #fff;"/>
      <path d="M118.84,54.23c.88-.22,1.63-1.19,2.6-2.65.97-1.41,4.1-6.97,5.78-12.13l3.88,1.85c-1.81,4.32-4.28,8.82-6.88,12.39l4.76-.4c.97-1.54,1.9-3.22,2.73-4.85l3.44,2.16c-2.65,4.54-5.78,9.04-9,12.83l7.98-1.37c-.13,1.06-.18,2.65-.09,3.48-10.94,2.21-12.57,2.65-13.58,3.22-.18-.79-.79-2.65-1.28-3.7,1.06-.22,2.03-1.23,3.4-2.91.79-.79,2.34-2.73,4.06-5.2-4.72.57-5.78.79-6.44,1.15-.22-.79-.88-2.78-1.37-3.88ZM134.1,69.7l.62,3.44c-5.12,1.68-10.45,3.4-14.6,4.72l-.88-4.01c3.7-.88,9.35-2.56,14.86-4.14ZM159.1,62.78c-2.16,3.4-4.98,6.35-8.29,8.95,1.19,2.82,2.6,4.45,4.15,4.45,1.06,0,1.5-1.1,1.67-4.85.84.97,2.12,1.85,3.04,2.29-.71,5.16-1.9,6.57-5.16,6.57-3,0-5.34-2.25-7.1-6.04-3.44,2.21-7.23,4.01-11.2,5.42-.53-1.06-1.59-2.51-2.56-3.44,4.45-1.32,8.69-3.26,12.35-5.64-.79-2.65-1.46-5.69-1.98-9.04l-8.2,1.54-.66-3.75,8.33-1.54c-.18-1.68-.35-3.4-.49-5.16l-6.26.97-.71-3.75,6.75-1.01c-.18-3.13-.26-6.31-.26-9.52h4.1c-.04,3.04.04,6.04.18,8.91l10.1-1.5.71,3.66-10.58,1.63c.13,1.72.31,3.44.49,5.03l10.63-1.94.66,3.66-10.76,2.03c.4,2.69.93,5.12,1.5,7.23,2.43-2.03,4.5-4.32,6.09-6.79l3.48,1.63ZM150.5,39.98c2.03,1.01,4.72,2.65,6.04,3.79l-2.47,2.56c-1.32-1.24-3.97-3-6-4.1l2.43-2.25Z" style="fill: #fff;"/>
      <path d="M10.25,109.04v-18.94h11.69v3.2h-8.24v4.48h7.12v3.2h-7.12v8.05h-3.44Z" style="fill: #fff;"/>
      <path d="M27.19,99.51l-2.97-.59c.33-1.33.91-2.31,1.72-2.95.81-.64,2.02-.96,3.63-.96,1.46,0,2.54.19,3.26.58.71.38,1.21.87,1.51,1.46s.44,1.67.44,3.25l-.03,4.24c0,1.21.05,2.09.16,2.67.11.57.3,1.19.59,1.84h-3.23c-.09-.24-.19-.6-.31-1.07-.05-.21-.09-.36-.12-.43-.56.6-1.16,1.06-1.79,1.36-.64.3-1.31.45-2.04.45-1.27,0-2.27-.38-3.01-1.15s-1.1-1.74-1.1-2.91c0-.78.17-1.47.5-2.07s.8-1.07,1.4-1.39c.6-.32,1.47-.61,2.6-.85,1.53-.32,2.58-.62,3.17-.89v-.36c0-.7-.16-1.2-.46-1.49-.31-.3-.9-.45-1.76-.45-.58,0-1.03.13-1.36.38-.33.25-.59.7-.79,1.34ZM31.56,102.45c-.42.16-1.08.34-1.99.56-.91.22-1.5.43-1.78.63-.43.34-.64.76-.64,1.28s.17.95.51,1.32c.34.37.77.56,1.3.56.59,0,1.15-.21,1.69-.65.39-.33.65-.73.78-1.2.09-.31.13-.9.13-1.77v-.72Z" style="fill: #fff;"/>
      <path d="M49.22,109.04h-3.27v-7c0-1.48-.07-2.44-.21-2.88-.14-.43-.37-.77-.68-1.01-.31-.24-.69-.36-1.13-.36-.57,0-1.07.17-1.52.52-.45.34-.76.8-.92,1.37s-.25,1.62-.25,3.15v6.21h-3.27v-13.72h3.04v2.01c1.08-1.55,2.43-2.33,4.07-2.33.72,0,1.38.14,1.98.43.6.29,1.05.66,1.35,1.1.31.45.52.96.64,1.52.12.57.18,1.38.18,2.44v8.53Z" style="fill: #fff;"/>
      <path d="M52.23,109.95l3.73.5c.06.48.21.81.43,1,.31.26.8.39,1.46.39.85,0,1.49-.14,1.92-.43.29-.19.5-.5.65-.92.1-.3.15-.86.15-1.67v-2c-.98,1.48-2.21,2.22-3.7,2.22-1.66,0-2.97-.78-3.94-2.34-.76-1.23-1.14-2.77-1.14-4.6,0-2.3.5-4.06,1.49-5.27,1-1.21,2.23-1.82,3.71-1.82s2.79.75,3.78,2.24v-1.92h3.06v12.31c0,1.62-.12,2.83-.36,3.63-.24.8-.58,1.43-1.01,1.89-.43.46-1.01.81-1.74,1.07-.72.26-1.64.39-2.75.39-2.09,0-3.58-.4-4.45-1.2s-1.31-1.81-1.31-3.03c0-.12,0-.27.01-.44ZM55.15,101.9c0,1.46.25,2.52.76,3.2.51.68,1.13,1.01,1.88,1.01.8,0,1.47-.35,2.02-1.04.55-.69.83-1.72.83-3.08s-.26-2.48-.79-3.17c-.53-.69-1.19-1.03-2-1.03s-1.43.34-1.94,1.01-.76,1.71-.76,3.09Z" style="fill: #fff;"/>
      <path d="M65.93,105.13l3.28-.56c.14.71.42,1.24.85,1.61.43.37,1.02.55,1.79.55.84,0,1.48-.17,1.91-.52.29-.24.43-.56.43-.97,0-.28-.08-.5-.23-.69-.16-.17-.53-.33-1.09-.48-2.64-.65-4.31-1.24-5.01-1.77-.98-.74-1.46-1.77-1.46-3.09,0-1.19.42-2.19,1.27-3,.84-.81,2.15-1.21,3.93-1.21s2.95.31,3.77.92c.82.61,1.39,1.52,1.7,2.71l-3.08.63c-.13-.53-.38-.94-.75-1.23s-.89-.43-1.58-.43c-.86,0-1.48.13-1.85.4-.25.19-.37.43-.37.74,0,.26.11.48.33.66.29.24,1.31.58,3.05,1.02,1.74.44,2.96.98,3.65,1.62.68.65,1.02,1.55,1.02,2.7,0,1.26-.47,2.34-1.42,3.24-.95.9-2.34,1.36-4.2,1.36-1.68,0-3.01-.38-3.99-1.14-.98-.76-1.62-1.79-1.92-3.09Z" style="fill: #fff;"/>
      <path d="M83.58,90.1v6.96c1.05-1.37,2.31-2.05,3.78-2.05.75,0,1.43.16,2.04.46.6.31,1.06.71,1.37,1.19.31.48.52,1.02.63,1.6s.17,1.49.17,2.73v8.05h-3.27v-7.25c0-1.44-.06-2.35-.19-2.74s-.34-.7-.66-.92c-.31-.23-.71-.34-1.18-.34-.54,0-1.03.15-1.45.44-.43.29-.74.73-.94,1.32-.2.59-.3,1.46-.3,2.62v6.87h-3.27v-18.94h3.27Z" style="fill: #fff;"/>
      <path d="M97.31,99.51l-2.97-.59c.33-1.33.91-2.31,1.72-2.95.81-.64,2.02-.96,3.63-.96,1.46,0,2.54.19,3.26.58.71.38,1.21.87,1.51,1.46s.44,1.67.44,3.25l-.03,4.24c0,1.21.05,2.09.16,2.67.11.57.3,1.19.59,1.84h-3.23c-.09-.24-.19-.6-.31-1.07-.05-.21-.09-.36-.12-.43-.56.6-1.16,1.06-1.79,1.36-.64.3-1.31.45-2.04.45-1.27,0-2.27-.38-3.01-1.15s-1.1-1.74-1.1-2.91c0-.78.17-1.47.5-2.07s.8-1.07,1.4-1.39c.6-.32,1.47-.61,2.6-.85,1.53-.32,2.58-.62,3.17-.89v-.36c0-.7-.16-1.2-.46-1.49-.31-.3-.9-.45-1.76-.45-.58,0-1.03.13-1.36.38-.33.25-.59.7-.79,1.34ZM101.68,102.45c-.42.16-1.08.34-1.99.56-.91.22-1.5.43-1.78.63-.43.34-.64.76-.64,1.28s.17.95.51,1.32c.34.37.77.56,1.3.56.59,0,1.15-.21,1.69-.65.39-.33.65-.73.78-1.2.09-.31.13-.9.13-1.77v-.72Z" style="fill: #fff;"/>
      <path d="M119.34,109.04h-3.27v-7c0-1.48-.07-2.44-.21-2.88-.14-.43-.37-.77-.68-1.01-.31-.24-.69-.36-1.13-.36-.57,0-1.07.17-1.52.52-.45.34-.76.8-.92,1.37s-.25,1.62-.25,3.15v6.21h-3.27v-13.72h3.04v2.01c1.08-1.55,2.43-2.33,4.07-2.33.72,0,1.38.14,1.98.43.6.29,1.05.66,1.35,1.1.31.45.52.96.64,1.52.12.57.18,1.38.18,2.44v8.53Z" style="fill: #fff;"/>
      <path d="M129.39,109.04v-18.78h3.44v15.59h8.56v3.19h-12Z" style="fill: #fff;"/>
      <path d="M143.82,93.46v-3.36h3.27v3.36h-3.27ZM143.82,109.04v-13.72h3.27v13.72h-3.27Z" style="fill: #fff;"/>
      <path d="M161.67,109.04h-3.27v-7c0-1.48-.07-2.44-.21-2.88-.14-.43-.37-.77-.68-1.01-.31-.24-.69-.36-1.13-.36-.57,0-1.07.17-1.52.52-.45.34-.76.8-.92,1.37s-.25,1.62-.25,3.15v6.21h-3.27v-13.72h3.04v2.01c1.08-1.55,2.43-2.33,4.07-2.33.72,0,1.38.14,1.98.43.6.29,1.05.66,1.35,1.1.31.45.52.96.64,1.52.12.57.18,1.38.18,2.44v8.53Z" style="fill: #fff;"/>
      <path d="M172.13,104.68l3.25.61c-.42,1.33-1.08,2.34-1.98,3.03-.9.69-2.03,1.04-3.39,1.04-2.15,0-3.74-.78-4.77-2.34-.81-1.25-1.22-2.83-1.22-4.73,0-2.27.54-4.05,1.6-5.34s2.42-1.93,4.06-1.93c1.84,0,3.29.67,4.35,2.02,1.06,1.35,1.57,3.41,1.52,6.2h-8.19c.02,1.08.29,1.91.79,2.51.5.6,1.13.9,1.88.9.51,0,.94-.15,1.29-.46.35-.31.61-.81.79-1.5ZM172.32,101.01c-.02-1.05-.27-1.85-.73-2.4-.46-.55-1.03-.82-1.7-.82-.71,0-1.3.29-1.77.87s-.69,1.36-.69,2.35h4.88Z" style="fill: #fff;"/>
      <path d="M177.5,28c2.48,0,4.5,2.02,4.5,4.5v85c0,2.48-2.02,4.5-4.5,4.5H7.5c-2.48,0-4.5-2.02-4.5-4.5V32.5c0-2.48,2.02-4.5,4.5-4.5h170M177.5,25H7.5c-4.14,0-7.5,3.36-7.5,7.5v85c0,4.14,3.36,7.5,7.5,7.5h170c4.14,0,7.5-3.36,7.5-7.5V32.5c0-4.14-3.36-7.5-7.5-7.5h0Z" style="fill: #fff;"/>
    </g>
  </g>
</svg>