<?xml version="1.0" encoding="UTF-8"?>
<svg xmlns="http://www.w3.org/2000/svg" viewBox="0 0 185 150">
  <g id="c">
    <rect y="25" width="185" height="100" rx="7.5" ry="7.5" style="fill: #e40077;"/>
  </g>
  <g id="a">
    <g>
      <path d="M36.85,55.9c-1.37,5.38-3.66,10.72-6.31,14.07-.79-.62-2.65-1.81-3.62-2.34,2.6-3,4.63-7.76,5.73-12.57l4.19.84ZM47.04,38.97c1.28,1.98,2.87,4.72,3.57,6.39l-3.62,1.32h19.4v4.1h-11.24v24.34c0,2.42-.53,3.62-2.12,4.28-1.63.71-4.15.79-7.85.79-.18-1.19-.79-3.04-1.37-4.23,2.65.09,5.25.09,6.04.04.79,0,1.01-.22,1.01-.93v-24.3h-6.39v4.81c0,7.67-1.1,17.77-11.2,24.92-.71-.93-2.16-2.38-3.18-3.09,9.26-6.39,10.14-15.26,10.14-21.87v-4.76h-12.83v-4.1h18.87c-.66-1.68-1.98-4.37-3.26-6.35l4.01-1.37ZM60.18,54.97c2.78,4.45,5.64,10.36,6.61,14.2l-3.92,1.81c-.88-3.84-3.62-9.92-6.31-14.51l3.62-1.5Z" style="fill: #fff;"/>
      <path d="M95.63,38.97c.93,1.68,2.07,3.97,2.56,5.38l-2.6.79h17.51v3.88h-32.46v7.58c0,6.97-.53,17.2-4.23,23.99-.79-.62-2.69-1.54-3.79-1.9,3.57-6.44,3.88-15.65,3.88-22.14v-11.42h17.2c-.44-1.46-1.37-3.48-2.16-5.03l4.1-1.15ZM99.03,50.48v8.38h12v3.97h-12v12.13h14.24v4.01h-32.54v-4.01h14.02v-12.13h-11.07v-3.97h11.07v-8.38h4.28Z" style="fill: #fff;"/>
      <path d="M119.31,54.23c.88-.22,1.63-1.19,2.6-2.65.97-1.41,4.1-6.97,5.78-12.13l3.88,1.85c-1.81,4.32-4.28,8.82-6.88,12.39l4.76-.4c.97-1.54,1.9-3.22,2.73-4.85l3.44,2.16c-2.65,4.54-5.78,9.04-9,12.83l7.98-1.37c-.13,1.06-.18,2.65-.09,3.48-10.94,2.21-12.57,2.65-13.58,3.22-.18-.79-.79-2.65-1.28-3.7,1.06-.22,2.03-1.23,3.4-2.91.79-.79,2.34-2.73,4.06-5.2-4.72.57-5.78.79-6.44,1.15-.22-.79-.88-2.78-1.37-3.88ZM134.57,69.7l.62,3.44c-5.12,1.68-10.45,3.4-14.6,4.72l-.88-4.01c3.7-.88,9.35-2.56,14.86-4.14ZM159.57,62.78c-2.16,3.4-4.98,6.35-8.29,8.95,1.19,2.82,2.6,4.45,4.15,4.45,1.06,0,1.5-1.1,1.68-4.85.84.97,2.12,1.85,3.04,2.29-.71,5.16-1.9,6.57-5.16,6.57-3,0-5.34-2.25-7.1-6.04-3.44,2.21-7.23,4.01-11.2,5.42-.53-1.06-1.59-2.51-2.56-3.44,4.45-1.32,8.69-3.26,12.35-5.64-.79-2.65-1.46-5.69-1.98-9.04l-8.2,1.54-.66-3.75,8.33-1.54c-.18-1.68-.35-3.4-.49-5.16l-6.26.97-.71-3.75,6.75-1.01c-.18-3.13-.26-6.31-.26-9.52h4.1c-.04,3.04.04,6.04.18,8.91l10.1-1.5.71,3.66-10.58,1.63c.13,1.72.31,3.44.48,5.03l10.63-1.94.66,3.66-10.76,2.03c.4,2.69.93,5.12,1.5,7.23,2.43-2.03,4.5-4.32,6.09-6.79l3.48,1.63ZM150.97,39.98c2.03,1.01,4.72,2.65,6.04,3.79l-2.47,2.56c-1.32-1.24-3.97-3-6-4.1l2.43-2.25Z" style="fill: #fff;"/>
      <path d="M18.47,109.04v-7.97l-6.24-10.97h4.03l4.01,7.49,3.93-7.49h3.96l-6.27,10.99v7.95h-3.43Z" style="fill: #fff;"/>
      <path d="M28.97,93.46v-3.36h3.27v3.36h-3.27ZM28.97,109.04v-13.72h3.27v13.72h-3.27Z" style="fill: #fff;"/>
      <path d="M34.27,109.04v-2.83l4.63-5.9c.76-.96,1.32-1.65,1.69-2.05-.38.03-.88.04-1.5.05l-4.36.03v-3.01h10.21v2.57l-4.72,6.05-1.66,2c.91-.06,1.47-.09,1.69-.09h5.06v3.19h-11.02Z" style="fill: #fff;"/>
      <path d="M50.75,90.1v6.96c1.05-1.37,2.31-2.05,3.78-2.05.75,0,1.43.16,2.03.46.6.31,1.06.71,1.37,1.19.31.48.52,1.02.63,1.6s.17,1.49.17,2.73v8.05h-3.27v-7.25c0-1.44-.06-2.35-.19-2.74s-.34-.7-.66-.92-.71-.34-1.18-.34c-.54,0-1.03.15-1.45.44s-.74.73-.94,1.32-.3,1.46-.3,2.62v6.87h-3.27v-18.94h3.27Z" style="fill: #fff;"/>
      <path d="M70.16,109.04v-2.05c-.45.73-1.04,1.31-1.77,1.73s-1.51.63-2.32.63-1.57-.2-2.23-.61c-.66-.41-1.14-.97-1.43-1.71-.29-.73-.44-1.74-.44-3.04v-8.68h3.27v6.3c0,1.93.06,3.11.18,3.55s.34.78.66,1.03.72.38,1.21.38c.56,0,1.06-.17,1.5-.51s.74-.76.91-1.27c.16-.5.24-1.74.24-3.7v-5.79h3.27v13.72h-3.03Z" style="fill: #fff;"/>
      <path d="M79.02,99.51l-2.96-.59c.33-1.33.91-2.31,1.72-2.95.81-.64,2.02-.96,3.63-.96,1.46,0,2.54.19,3.26.58.71.38,1.22.87,1.51,1.46s.44,1.67.44,3.25l-.04,4.24c0,1.21.05,2.09.16,2.67.1.57.3,1.19.59,1.84h-3.23c-.08-.24-.19-.6-.31-1.07-.05-.21-.09-.36-.12-.43-.56.6-1.15,1.06-1.79,1.36-.64.3-1.31.45-2.03.45-1.27,0-2.27-.38-3.01-1.15-.73-.77-1.1-1.74-1.1-2.91,0-.78.17-1.47.5-2.07.33-.61.8-1.07,1.4-1.39.6-.32,1.47-.61,2.6-.85,1.53-.32,2.58-.62,3.17-.89v-.36c0-.7-.16-1.2-.47-1.49s-.9-.45-1.76-.45c-.58,0-1.03.13-1.36.38-.33.25-.59.7-.79,1.34ZM83.4,102.45c-.42.16-1.08.34-1.99.56-.91.22-1.5.43-1.78.63-.43.34-.64.76-.64,1.28s.17.95.51,1.32c.34.37.78.56,1.3.56.59,0,1.15-.21,1.69-.65.4-.33.65-.73.78-1.2.08-.31.13-.9.13-1.77v-.72Z" style="fill: #fff;"/>
      <path d="M101.06,109.04h-3.27v-7c0-1.48-.07-2.44-.21-2.88-.14-.43-.37-.77-.68-1.01s-.69-.36-1.13-.36c-.57,0-1.07.17-1.52.52-.45.34-.76.8-.92,1.37s-.25,1.62-.25,3.15v6.21h-3.27v-13.72h3.03v2.01c1.08-1.55,2.43-2.33,4.07-2.33.72,0,1.38.14,1.98.43.6.29,1.05.66,1.35,1.1.31.45.52.96.64,1.52.12.57.18,1.38.18,2.44v8.53Z" style="fill: #fff;"/>
      <path d="M104.07,109.95l3.73.5c.06.48.21.81.43,1,.31.26.8.39,1.47.39.85,0,1.49-.14,1.92-.43.29-.19.5-.5.65-.92.1-.3.15-.86.15-1.67v-2c-.98,1.48-2.21,2.22-3.7,2.22-1.66,0-2.97-.78-3.94-2.34-.76-1.23-1.14-2.77-1.14-4.6,0-2.3.5-4.06,1.49-5.27,1-1.21,2.23-1.82,3.71-1.82s2.79.75,3.78,2.24v-1.92h3.06v12.31c0,1.62-.12,2.83-.36,3.63-.24.8-.58,1.43-1.01,1.89-.43.46-1.01.81-1.74,1.07-.72.26-1.64.39-2.75.39-2.09,0-3.58-.4-4.45-1.2s-1.31-1.81-1.31-3.03c0-.12,0-.27.01-.44ZM106.99,101.9c0,1.46.25,2.52.76,3.2.51.68,1.13,1.01,1.88,1.01.8,0,1.47-.35,2.02-1.04s.83-1.72.83-3.08-.26-2.48-.79-3.17c-.53-.69-1.19-1.03-2-1.03s-1.43.34-1.94,1.01-.76,1.71-.76,3.09Z" style="fill: #fff;"/>
      <path d="M125.65,109.04v-18.78h3.44v15.59h8.56v3.19h-12Z" style="fill: #fff;"/>
      <path d="M140.08,93.46v-3.36h3.27v3.36h-3.27ZM140.08,109.04v-13.72h3.27v13.72h-3.27Z" style="fill: #fff;"/>
      <path d="M157.93,109.04h-3.27v-7c0-1.48-.07-2.44-.21-2.88-.14-.43-.37-.77-.68-1.01s-.69-.36-1.13-.36c-.57,0-1.07.17-1.52.52-.45.34-.76.8-.92,1.37s-.25,1.62-.25,3.15v6.21h-3.27v-13.72h3.03v2.01c1.08-1.55,2.43-2.33,4.07-2.33.72,0,1.38.14,1.98.43.6.29,1.05.66,1.35,1.1.31.45.52.96.64,1.52.12.57.18,1.38.18,2.44v8.53Z" style="fill: #fff;"/>
      <path d="M168.39,104.68l3.26.61c-.42,1.33-1.08,2.34-1.98,3.03-.9.69-2.03,1.04-3.39,1.04-2.15,0-3.74-.78-4.77-2.34-.81-1.25-1.22-2.83-1.22-4.73,0-2.27.53-4.05,1.6-5.34s2.42-1.93,4.06-1.93c1.84,0,3.29.67,4.35,2.02,1.06,1.35,1.57,3.41,1.52,6.2h-8.19c.02,1.08.29,1.91.79,2.51s1.13.9,1.88.9c.51,0,.94-.15,1.29-.46.35-.31.61-.81.79-1.5ZM168.58,101.01c-.02-1.05-.27-1.85-.73-2.4-.47-.55-1.03-.82-1.7-.82-.71,0-1.3.29-1.77.87-.47.58-.69,1.36-.69,2.35h4.88Z" style="fill: #fff;"/>
      <path d="M177.5,28c2.48,0,4.5,2.02,4.5,4.5v85c0,2.48-2.02,4.5-4.5,4.5H7.5c-2.48,0-4.5-2.02-4.5-4.5V32.5c0-2.48,2.02-4.5,4.5-4.5h170M177.5,25H7.5c-4.14,0-7.5,3.36-7.5,7.5v85c0,4.14,3.36,7.5,7.5,7.5h170c4.14,0,7.5-3.36,7.5-7.5V32.5c0-4.14-3.36-7.5-7.5-7.5h0Z" style="fill: #fff;"/>
    </g>
  </g>
</svg>