<?xml version="1.0" encoding="UTF-8"?>
<svg xmlns="http://www.w3.org/2000/svg" viewBox="0 0 185 150">
  <g id="c">
    <rect x="0" y="25" width="185" height="100" rx="7.5" ry="7.5" style="fill: #008e9c;"/>
  </g>
  <g id="a">
    <g>
      <path d="M48.74,39.36c-.04,3.62-.09,7.89-.62,12.3h17.95v4.32h-16.27c3.04,9.26,8.64,16.8,17.11,20.29-1.06.93-2.47,2.69-3.13,3.88-8.33-3.88-13.71-11.07-17.2-20.42-2.29,8.03-7.1,15.7-17.2,20.46-.66-1.1-1.98-2.6-3.18-3.48,10.63-4.67,14.95-12.66,16.71-20.73h-15.83v-4.32h16.58c.53-4.45.49-8.73.53-12.3h4.54Z" style="fill: #fff;"/>
      <path d="M88.3,67.85c-3.13,4.45-7.89,9.22-12.3,12.3-.88-.93-2.51-2.34-3.57-3.04,4.28-2.78,9-7.23,11.25-10.94l4.63,1.68ZM112.68,60.31v3.97h-39.73v-3.97h39.73ZM76.83,43.11c2.82,3.97,5.56,9.17,6.79,12.7l-4.1,1.85c-1.06-3.57-3.79-9-6.48-12.96l3.79-1.59ZM90.06,39.76c2.29,4.23,4.41,9.7,5.2,13.36l-4.28,1.5c-.62-3.66-2.65-9.35-4.81-13.54l3.88-1.32ZM101,66.31c3.88,3.48,9.22,8.33,11.86,11.51l-4.15,2.34c-2.43-3.09-7.58-8.2-11.6-11.82l3.88-2.03ZM112.37,42.32c-2.78,5.91-6.57,12.52-9.61,16.8l-4.1-1.37c3.04-4.41,6.79-11.42,8.91-16.8l4.81,1.37Z" style="fill: #fff;"/>
      <path d="M118.9,54.23c.88-.22,1.63-1.19,2.6-2.65.97-1.41,4.1-6.97,5.78-12.13l3.88,1.85c-1.81,4.32-4.28,8.82-6.88,12.39l4.76-.4c.97-1.54,1.9-3.22,2.73-4.85l3.44,2.16c-2.65,4.54-5.78,9.04-9,12.83l7.98-1.37c-.13,1.06-.18,2.65-.09,3.48-10.94,2.21-12.57,2.65-13.58,3.22-.18-.79-.79-2.65-1.28-3.7,1.06-.22,2.03-1.23,3.4-2.91.79-.79,2.34-2.73,4.06-5.2-4.72.57-5.78.79-6.44,1.15-.22-.79-.88-2.78-1.37-3.88ZM134.16,69.7l.62,3.44c-5.12,1.68-10.45,3.4-14.6,4.72l-.88-4.01c3.7-.88,9.35-2.56,14.86-4.14ZM159.16,62.78c-2.16,3.4-4.98,6.35-8.29,8.95,1.19,2.82,2.6,4.45,4.15,4.45,1.06,0,1.5-1.1,1.68-4.85.84.97,2.12,1.85,3.04,2.29-.71,5.16-1.9,6.57-5.16,6.57-3,0-5.34-2.25-7.1-6.04-3.44,2.21-7.23,4.01-11.2,5.42-.53-1.06-1.59-2.51-2.56-3.44,4.45-1.32,8.69-3.26,12.35-5.64-.79-2.65-1.46-5.69-1.98-9.04l-8.2,1.54-.66-3.75,8.33-1.54c-.18-1.68-.35-3.4-.49-5.16l-6.26.97-.71-3.75,6.75-1.01c-.18-3.13-.26-6.31-.26-9.52h4.1c-.04,3.04.04,6.04.18,8.91l10.1-1.5.71,3.66-10.58,1.63c.13,1.72.31,3.44.48,5.03l10.63-1.94.66,3.66-10.76,2.03c.4,2.69.93,5.12,1.5,7.23,2.43-2.03,4.5-4.32,6.09-6.79l3.48,1.63ZM150.56,39.98c2.03,1.01,4.72,2.65,6.04,3.79l-2.47,2.56c-1.32-1.24-3.97-3-6-4.1l2.43-2.25Z" style="fill: #fff;"/>
      <path d="M19.44,90.1h6.99c1.58,0,2.78.12,3.6.36,1.11.33,2.06.91,2.85,1.74.79.84,1.4,1.86,1.81,3.07.41,1.21.62,2.7.62,4.48,0,1.56-.19,2.9-.58,4.03-.47,1.38-1.15,2.49-2.03,3.35-.66.65-1.56,1.15-2.69,1.51-.84.27-1.97.4-3.38.4h-7.2v-18.94ZM23.26,93.31v12.54h2.86c1.07,0,1.84-.06,2.31-.18.62-.16,1.13-.42,1.54-.79.41-.37.74-.98,1-1.83.26-.85.39-2,.39-3.47s-.13-2.59-.39-3.37c-.26-.78-.62-1.39-1.08-1.83-.47-.44-1.06-.74-1.77-.89-.53-.12-1.58-.18-3.14-.18h-1.72Z" style="fill: #fff;"/>
      <path d="M41.24,99.51l-3.29-.59c.37-1.33,1.01-2.31,1.91-2.95.9-.64,2.25-.96,4.03-.96,1.62,0,2.82.19,3.62.58.79.38,1.35.87,1.67,1.46.32.59.48,1.67.48,3.25l-.04,4.24c0,1.21.06,2.09.17,2.67.12.57.33,1.19.65,1.84h-3.59c-.09-.24-.21-.6-.35-1.07-.06-.21-.1-.36-.13-.43-.62.6-1.28,1.06-1.99,1.36-.71.3-1.46.45-2.26.45-1.41,0-2.53-.38-3.34-1.15s-1.22-1.74-1.22-2.91c0-.78.19-1.47.56-2.07s.89-1.07,1.56-1.39c.67-.32,1.63-.61,2.89-.85,1.7-.32,2.87-.62,3.53-.89v-.36c0-.7-.17-1.2-.52-1.49-.34-.3-1-.45-1.95-.45-.65,0-1.15.13-1.51.38s-.65.7-.88,1.34ZM46.1,102.45c-.47.16-1.2.34-2.21.56-1.01.22-1.67.43-1.98.63-.47.34-.71.76-.71,1.28s.19.95.57,1.32c.38.37.86.56,1.45.56.65,0,1.28-.21,1.87-.65.44-.33.73-.73.87-1.2.09-.31.14-.9.14-1.77v-.72Z" style="fill: #fff;"/>
      <path d="M51.5,109.04l4.95-7.07-4.74-6.65h4.43l2.43,3.77,2.56-3.77h4.26l-4.65,6.5,5.08,7.22h-4.46l-2.79-4.25-2.82,4.25h-4.25Z" style="fill: #fff;"/>
      <path d="M67.96,93.46v-3.36h3.63v3.36h-3.63ZM67.96,109.04v-13.72h3.63v13.72h-3.63Z" style="fill: #fff;"/>
      <path d="M87.79,109.04h-3.63v-7c0-1.48-.08-2.44-.23-2.88-.15-.43-.41-.77-.76-1.01-.35-.24-.77-.36-1.26-.36-.63,0-1.19.17-1.69.52-.5.34-.84.8-1.03,1.37s-.28,1.62-.28,3.15v6.21h-3.63v-13.72h3.37v2.01c1.2-1.55,2.7-2.33,4.52-2.33.8,0,1.53.14,2.2.43.66.29,1.17.66,1.51,1.1.34.45.58.96.71,1.52.13.57.2,1.38.2,2.44v8.53Z" style="fill: #fff;"/>
      <path d="M91.14,109.95l4.15.5c.07.48.23.81.48,1,.34.26.89.39,1.63.39.95,0,1.66-.14,2.13-.43.32-.19.56-.5.72-.92.11-.3.17-.86.17-1.67v-2c-1.09,1.48-2.46,2.22-4.11,2.22-1.84,0-3.3-.78-4.38-2.34-.84-1.23-1.27-2.77-1.27-4.6,0-2.3.55-4.06,1.66-5.27,1.11-1.21,2.48-1.82,4.13-1.82s3.1.75,4.2,2.24v-1.92h3.4v12.31c0,1.62-.13,2.83-.4,3.63-.27.8-.64,1.43-1.12,1.89-.48.46-1.13.81-1.93,1.07-.81.26-1.82.39-3.06.39-2.33,0-3.97-.4-4.95-1.2-.97-.8-1.46-1.81-1.46-3.03,0-.12,0-.27.01-.44ZM94.38,101.9c0,1.46.28,2.52.85,3.2.56.68,1.26,1.01,2.09,1.01.89,0,1.64-.35,2.25-1.04.61-.69.92-1.72.92-3.08s-.29-2.48-.88-3.17c-.59-.69-1.33-1.03-2.22-1.03s-1.59.34-2.15,1.01c-.56.68-.85,1.71-.85,3.09Z" style="fill: #fff;"/>
      <path d="M115.12,109.04v-18.78h3.82v15.59h9.51v3.19h-13.33Z" style="fill: #fff;"/>
      <path d="M131.15,93.46v-3.36h3.63v3.36h-3.63ZM131.15,109.04v-13.72h3.63v13.72h-3.63Z" style="fill: #fff;"/>
      <path d="M150.98,109.04h-3.63v-7c0-1.48-.08-2.44-.23-2.88-.15-.43-.41-.77-.76-1.01-.35-.24-.77-.36-1.26-.36-.63,0-1.19.17-1.69.52-.5.34-.84.8-1.03,1.37s-.28,1.62-.28,3.15v6.21h-3.63v-13.72h3.37v2.01c1.2-1.55,2.7-2.33,4.52-2.33.8,0,1.53.14,2.2.43.66.29,1.17.66,1.51,1.1.34.45.58.96.71,1.52.13.57.2,1.38.2,2.44v8.53Z" style="fill: #fff;"/>
      <path d="M162.61,104.68l3.62.61c-.47,1.33-1.2,2.34-2.2,3.03s-2.26,1.04-3.77,1.04c-2.39,0-4.15-.78-5.3-2.34-.9-1.25-1.36-2.83-1.36-4.73,0-2.27.59-4.05,1.78-5.34s2.69-1.93,4.51-1.93c2.04,0,3.65.67,4.83,2.02,1.18,1.35,1.74,3.41,1.69,6.2h-9.09c.03,1.08.32,1.91.88,2.51.56.6,1.26.9,2.09.9.57,0,1.05-.15,1.43-.46.39-.31.68-.81.88-1.5ZM162.81,101.01c-.03-1.05-.3-1.85-.81-2.4-.52-.55-1.15-.82-1.89-.82-.79,0-1.45.29-1.96.87s-.77,1.36-.76,2.35h5.43Z" style="fill: #fff;"/>
      <path d="M177.5,28c2.48,0,4.5,2.02,4.5,4.5v85c0,2.48-2.02,4.5-4.5,4.5H7.5c-2.48,0-4.5-2.02-4.5-4.5V32.5c0-2.48,2.02-4.5,4.5-4.5h170M177.5,25H7.5c-4.14,0-7.5,3.36-7.5,7.5v85c0,4.14,3.36,7.5,7.5,7.5h170c4.14,0,7.5-3.36,7.5-7.5V32.5c0-4.14-3.36-7.5-7.5-7.5h0Z" style="fill: #fff;"/>
    </g>
  </g>
</svg>