<?xml version="1.0" encoding="UTF-8"?>
<svg xmlns="http://www.w3.org/2000/svg" viewBox="0 0 175 150">
  <g id="a">
    <g>
      <g>
        <path d="M25.84,59.42c-1.24,3.81-3.52,7.76-6.05,10.29l-5.43-2.33c2.38-2.05,4.67-5.81,5.95-9.38l5.52,1.43ZM22.13,49.81v-4.09h-6.09v-4.81h6.09v-3.19h5.05v19.71h-5.05v-2.86l-6.19,2.09-1.05-4.86c2-.48,4.48-1.19,7.24-2ZM33.13,25.14v2.86h6.9v-2.86h5.14v2.86h13.66v5.05h-13.66v6.81h-17v-6.81h-12.86v-5.05h12.86v-2.86h4.95ZM34.27,59.23c.67,3.05,1.19,6.95,1.24,9.38l-5.62.81c0-2.43-.38-6.43-.91-9.57l5.29-.62ZM43.79,42v13.95h-14.19v-13.95h14.19ZM33.13,33.05v2.66h6.9v-2.66h-6.9ZM34.27,51.85h4.66v-5.71h-4.66v5.71ZM43.79,59.09c1.24,2.86,2.48,6.76,2.95,9.24l-5.71,1.1c-.38-2.43-1.48-6.38-2.57-9.43l5.33-.9ZM58.93,43.66c-2.38,1.43-5.09,2.71-7.57,3.76v3.57c0,1.29.09,1.48.76,1.48h1.67c.71,0,.86-.62,1-4.33.95.81,3,1.62,4.38,1.95-.48,5.28-1.71,6.86-4.81,6.86h-3.19c-4.05,0-4.95-1.43-4.95-5.9v-13.28h5.14v4.81c1.57-.95,3-1.95,4.09-2.9l3.47,4ZM53.31,57.61c2.24,3,5.05,7.14,6.33,9.9l-5.67,2.38c-1.1-2.66-3.76-7.05-5.95-10.24l5.28-2.05Z" style="fill: #fff;"/>
        <path d="M89.47,25.1c.62,1.33,1.29,2.95,1.76,4.38h15.38v12.85h-14.33c.81,1.43,1.67,3.24,2.09,4.48l-2.95,1h16.43v4.57h-19.09c-.14,1.05-.24,2.05-.43,3l12.43.05h4.24s-.05,1.33-.1,2c-.52,6.28-1.14,9.19-2.43,10.43-1.05,1.1-2.38,1.43-4.05,1.52-1.38.14-4,.14-6.66.05-.1-1.43-.71-3.33-1.48-4.57,2.33.24,4.71.29,5.67.29.86,0,1.33-.09,1.81-.48.52-.48.95-1.95,1.29-4.9h-11.81c-1.57,4.33-4.52,7.76-10.47,10.05-.62-1.33-2.05-3.33-3.24-4.29,7.43-2.66,9-7.19,9.67-13.14h-7.52v-4.57h13.19c-.43-1.29-1.19-3-1.81-4.29l3.95-1.19h-16.47c-.14,8.29-1.05,20.05-4.95,27.9-1.19-.86-3.81-2.19-5.28-2.67,4.14-7.86,4.48-19.47,4.48-27.14v-10.95h16.19l-1.1-3.05,5.62-1.33ZM74.52,37.62h26.42v-3.38h-26.42v3.38Z" style="fill: #fff;"/>
        <path d="M114.9,40.66c1-.29,1.81-1.24,2.86-2.76,1.05-1.48,4.33-7.24,6.05-12.67l5.33,2.57c-1.86,4.24-4.48,8.71-7.14,12.33l4.05-.29c1-1.62,1.95-3.33,2.81-5.05l4.62,2.9c-2.57,4.48-5.71,8.95-9,12.81l7.52-1.24c-.14,1.43-.24,3.62-.14,4.76-11.62,2.24-13.57,2.81-14.81,3.52-.29-1.05-1.14-3.62-1.76-5,1.24-.29,2.33-1.33,3.81-3.09.76-.76,2.14-2.48,3.71-4.71-4.19.52-5.33.81-6.09,1.19-.29-1.1-1.19-3.81-1.81-5.28ZM131.66,57.38l.9,4.71c-5.47,1.95-11.28,4-15.95,5.57l-1.14-5.43c4-1.05,10.24-2.95,16.19-4.86ZM159.04,51.04c-2.29,3.57-5.14,6.66-8.43,9.38,1,2.48,2.19,3.9,3.38,3.9.9,0,1.33-1.19,1.57-5.05,1.1,1.33,2.76,2.52,4,3.14-.9,5.9-2.43,7.43-6.24,7.43-3.05,0-5.48-2.33-7.33-6.14-3.52,2.24-7.43,4.05-11.52,5.52-.71-1.47-2.14-3.43-3.43-4.76,4.67-1.38,9.14-3.28,13.05-5.76-.76-2.62-1.43-5.57-1.95-8.76l-8.47,1.57-.95-5.09,8.76-1.57-.48-4.57-6.33,1-.91-5.14,6.9-1.05c-.19-3.33-.28-6.76-.28-10.09h5.71c-.05,3.1,0,6.19.14,9.24l10.24-1.57.95,5-10.86,1.71.43,4.48,10.71-1.95.95,4.95-11,2.05c.38,2.24.81,4.33,1.24,6.19,2.09-1.86,3.91-3.9,5.33-6.19l4.81,2.14ZM150.18,25.62c1.9,1.09,4.62,2.95,6,4.14l-3.43,3.33c-1.33-1.24-3.95-3.19-5.9-4.52l3.33-2.95Z" style="fill: #fff;"/>
      </g>
      <g>
        <path d="M12.09,99.01v-7.97l-6.94-10.97h4.48l4.46,7.49,4.37-7.49h4.4l-6.96,10.99v7.94h-3.81Z" style="fill: #fff;"/>
        <path d="M25.99,89.47l-3.29-.6c.37-1.33,1.01-2.31,1.91-2.95s2.25-.95,4.03-.95c1.62,0,2.82.19,3.62.58.79.38,1.35.87,1.67,1.46.32.59.48,1.67.48,3.25l-.04,4.24c0,1.21.06,2.1.17,2.67.12.57.33,1.19.65,1.84h-3.59c-.09-.24-.21-.6-.35-1.07-.06-.22-.1-.36-.13-.43-.62.6-1.28,1.06-1.99,1.36s-1.46.45-2.26.45c-1.41,0-2.53-.38-3.34-1.15-.81-.77-1.22-1.73-1.22-2.91,0-.78.19-1.47.56-2.07s.89-1.07,1.56-1.4c.67-.32,1.63-.61,2.89-.85,1.7-.32,2.87-.61,3.53-.89v-.36c0-.7-.17-1.19-.52-1.49-.34-.3-.99-.44-1.95-.44-.65,0-1.15.13-1.51.38-.36.25-.65.7-.88,1.34ZM30.85,92.42c-.47.16-1.2.34-2.21.55s-1.67.43-1.98.63c-.47.33-.71.76-.71,1.28s.19.95.57,1.32.86.56,1.45.56c.65,0,1.28-.22,1.87-.65.44-.33.73-.73.87-1.2.09-.31.14-.9.14-1.77v-.72Z" style="fill: #fff;"/>
        <path d="M50.48,99.01h-3.63v-7c0-1.48-.08-2.44-.23-2.88-.16-.43-.41-.77-.76-1.01-.35-.24-.77-.36-1.26-.36-.63,0-1.19.17-1.69.52s-.84.8-1.03,1.37c-.18.57-.28,1.62-.28,3.15v6.21h-3.63v-13.72h3.37v2.02c1.2-1.55,2.7-2.33,4.52-2.33.8,0,1.53.14,2.2.43.66.29,1.16.66,1.51,1.11.34.45.58.96.71,1.52.13.57.2,1.38.2,2.44v8.53Z" style="fill: #fff;"/>
        <path d="M52.57,85.29h2.02v-1.03c0-1.15.12-2.02.37-2.58.24-.57.7-1.03,1.36-1.39.66-.36,1.49-.54,2.5-.54s2.05.16,3.04.47l-.49,2.53c-.58-.14-1.13-.21-1.67-.21s-.9.12-1.13.37c-.23.24-.34.72-.34,1.41v.97h2.71v2.85h-2.71v10.86h-3.63v-10.86h-2.02v-2.85Z" style="fill: #fff;"/>
        <path d="M65.68,89.47l-3.29-.6c.37-1.33,1.01-2.31,1.91-2.95s2.25-.95,4.03-.95c1.62,0,2.82.19,3.62.58.79.38,1.35.87,1.67,1.46.32.59.48,1.67.48,3.25l-.04,4.24c0,1.21.06,2.1.17,2.67.12.57.33,1.19.65,1.84h-3.59c-.09-.24-.21-.6-.35-1.07-.06-.22-.1-.36-.13-.43-.62.6-1.28,1.06-1.99,1.36s-1.46.45-2.26.45c-1.41,0-2.53-.38-3.34-1.15-.81-.77-1.22-1.73-1.22-2.91,0-.78.19-1.47.56-2.07s.89-1.07,1.56-1.4c.67-.32,1.63-.61,2.89-.85,1.7-.32,2.87-.61,3.53-.89v-.36c0-.7-.17-1.19-.52-1.49-.34-.3-.99-.44-1.95-.44-.65,0-1.15.13-1.51.38-.36.25-.65.7-.88,1.34ZM70.54,92.42c-.47.16-1.2.34-2.21.55s-1.67.43-1.98.63c-.47.33-.71.76-.71,1.28s.19.95.57,1.32.86.56,1.45.56c.65,0,1.28-.22,1.87-.65.44-.33.73-.73.87-1.2.09-.31.14-.9.14-1.77v-.72Z" style="fill: #fff;"/>
        <path d="M90.16,99.01h-3.63v-7c0-1.48-.08-2.44-.23-2.88-.16-.43-.41-.77-.76-1.01-.35-.24-.77-.36-1.26-.36-.63,0-1.19.17-1.69.52s-.84.8-1.03,1.37c-.18.57-.28,1.62-.28,3.15v6.21h-3.63v-13.72h3.37v2.02c1.2-1.55,2.7-2.33,4.52-2.33.8,0,1.53.14,2.2.43.66.29,1.16.66,1.51,1.11.34.45.58.96.71,1.52.13.57.2,1.38.2,2.44v8.53Z" style="fill: #fff;"/>
        <path d="M93.51,99.91l4.15.5c.07.48.23.81.48,1,.34.26.89.39,1.63.39.95,0,1.66-.14,2.13-.43.32-.19.56-.49.72-.92.11-.3.17-.86.17-1.67v-2c-1.09,1.48-2.45,2.22-4.11,2.22-1.84,0-3.3-.78-4.38-2.34-.84-1.23-1.27-2.76-1.27-4.6,0-2.3.55-4.06,1.66-5.27,1.11-1.21,2.48-1.82,4.13-1.82s3.1.74,4.2,2.23v-1.92h3.4v12.31c0,1.62-.13,2.83-.4,3.63-.27.8-.64,1.43-1.12,1.89-.48.45-1.13.81-1.93,1.07-.81.26-1.82.39-3.06.39-2.33,0-3.98-.4-4.95-1.19-.97-.8-1.46-1.81-1.46-3.03,0-.12,0-.27.01-.44ZM96.75,91.86c0,1.46.28,2.52.85,3.2.56.68,1.26,1.01,2.09,1.01.89,0,1.64-.35,2.25-1.04.61-.69.92-1.72.92-3.08s-.29-2.48-.88-3.17-1.33-1.03-2.22-1.03-1.59.34-2.15,1.01c-.56.68-.85,1.71-.85,3.1Z" style="fill: #fff;"/>
        <path d="M117.49,99.01v-18.78h3.82v15.59h9.51v3.19h-13.33Z" style="fill: #fff;"/>
        <path d="M133.52,83.43v-3.36h3.63v3.36h-3.63ZM133.52,99.01v-13.72h3.63v13.72h-3.63Z" style="fill: #fff;"/>
        <path d="M153.35,99.01h-3.63v-7c0-1.48-.08-2.44-.23-2.88-.16-.43-.41-.77-.76-1.01-.35-.24-.77-.36-1.26-.36-.63,0-1.19.17-1.69.52s-.84.8-1.03,1.37c-.19.57-.28,1.62-.28,3.15v6.21h-3.63v-13.72h3.37v2.02c1.2-1.55,2.7-2.33,4.52-2.33.8,0,1.53.14,2.2.43.66.29,1.16.66,1.51,1.11.34.45.58.96.71,1.52.13.57.2,1.38.2,2.44v8.53Z" style="fill: #fff;"/>
        <path d="M164.98,94.64l3.62.61c-.47,1.33-1.2,2.34-2.2,3.03-1,.7-2.26,1.04-3.77,1.04-2.39,0-4.15-.78-5.3-2.34-.9-1.25-1.36-2.82-1.36-4.73,0-2.27.59-4.05,1.78-5.34,1.19-1.29,2.69-1.93,4.51-1.93,2.04,0,3.65.67,4.83,2.02,1.18,1.35,1.74,3.41,1.69,6.19h-9.1c.03,1.07.32,1.91.88,2.51.56.6,1.26.9,2.09.9.57,0,1.05-.16,1.43-.47s.68-.81.88-1.5ZM165.18,90.97c-.03-1.05-.3-1.85-.81-2.4-.52-.55-1.15-.82-1.89-.82-.79,0-1.45.29-1.96.86-.52.58-.77,1.36-.76,2.35h5.43Z" style="fill: #fff;"/>
      </g>
    </g>
  </g>
  <g id="c">
    <rect x="0" y="110" width="175" height="40" style="fill: #e46022;"/>
  </g>
</svg>