<?xml version="1.0" encoding="UTF-8"?>
<svg xmlns="http://www.w3.org/2000/svg" viewBox="0 0 210 150">
  <g id="a">
    <g>
      <g>
        <path d="M15.66,43.47c-1.38,5.95-3.91,11.85-6.76,15.52-1.1-.9-3.57-2.48-4.95-3.19,2.81-3.19,4.9-8.33,6-13.48l5.71,1.14ZM27.05,24.67c1.29,2.05,2.86,4.86,3.62,6.62l-3.86,1.38h20.57v5.57h-11.71v24.9c0,3.05-.57,4.62-2.52,5.52-2,.9-4.81,1.05-8.76,1.05-.19-1.67-1.05-4.14-1.81-5.81,2.52.09,5.33.09,6.19.09.76,0,1.05-.19,1.05-.95v-24.8h-5.52v4.76c0,8.19-1.24,19.43-12.05,27.09-.95-1.29-3-3.33-4.38-4.28,9.67-6.57,10.62-16.05,10.62-22.85v-4.71H5v-5.57h19.57c-.67-1.76-1.91-4.29-3-6.14l5.48-1.86ZM41.14,42.14c2.95,4.76,5.95,11,6.95,15.19l-5.38,2.52c-.9-4.14-3.71-10.62-6.52-15.57l4.95-2.14Z" style="fill: #fff;"/>
        <path d="M77.19,24.62c.86,1.81,2,4.19,2.53,5.76l-3,.86h18.76v5.28h-34.47v6.86c0,7.76-.62,19.24-4.52,26.66-1.14-.76-3.71-2.05-5.24-2.53,3.81-6.95,4.1-17.14,4.1-24.14v-12.14h18.14c-.48-1.52-1.29-3.52-2-5.09l5.71-1.52ZM81,38v7.95h12.09v5.47h-12.09v11.62h14.57v5.43h-34.76v-5.43h14.33v-11.62h-11.19v-5.47h11.19v-7.95h5.86Z" style="fill: #fff;"/>
        <path d="M113.2,31.72h-13.69v-6.15h34.57v6.15h-13.69v37.43h-7.18V31.72Z" style="fill: #fff;"/>
        <path d="M148.98,69.14v-32.86c-2.86,2.74-7.06,5.11-10.71,6.39v-6.27c2.01-.79,9.74-4.56,12.47-11.01h4.99v43.75h-6.76Z" style="fill: #fff;"/>
        <path d="M161.71,40.67c1-.29,1.81-1.24,2.86-2.76,1.05-1.47,4.33-7.24,6.05-12.66l5.33,2.57c-1.86,4.24-4.48,8.71-7.14,12.33l4.05-.29c1-1.62,1.95-3.33,2.81-5.05l4.62,2.9c-2.57,4.48-5.71,8.95-9,12.81l7.52-1.24c-.14,1.43-.24,3.62-.14,4.76-11.62,2.24-13.57,2.81-14.81,3.52-.29-1.05-1.14-3.62-1.76-5,1.24-.29,2.33-1.33,3.81-3.1.76-.76,2.14-2.48,3.71-4.71-4.19.52-5.33.81-6.09,1.19-.29-1.1-1.19-3.81-1.81-5.28ZM178.47,57.38l.9,4.71c-5.48,1.95-11.28,4-15.95,5.57l-1.14-5.43c4-1.05,10.24-2.95,16.19-4.86ZM205.85,51.04c-2.29,3.57-5.14,6.66-8.43,9.38,1,2.48,2.19,3.9,3.38,3.9.9,0,1.33-1.19,1.57-5.05,1.1,1.33,2.76,2.52,4,3.14-.91,5.9-2.43,7.43-6.24,7.43-3.05,0-5.47-2.33-7.33-6.14-3.52,2.24-7.43,4.05-11.52,5.52-.71-1.48-2.14-3.43-3.43-4.76,4.67-1.38,9.14-3.29,13.05-5.76-.76-2.62-1.43-5.57-1.95-8.76l-8.47,1.57-.95-5.1,8.76-1.57-.48-4.57-6.33,1-.91-5.14,6.9-1.05c-.19-3.33-.29-6.76-.29-10.09h5.71c-.05,3.09,0,6.19.14,9.24l10.24-1.57.95,5-10.86,1.71.43,4.48,10.71-1.95.95,4.95-11,2.05c.38,2.24.81,4.33,1.24,6.19,2.09-1.86,3.9-3.9,5.33-6.19l4.81,2.14ZM196.99,25.62c1.91,1.09,4.62,2.95,6,4.14l-3.43,3.33c-1.33-1.24-3.95-3.19-5.9-4.52l3.33-2.95Z" style="fill: #fff;"/>
      </g>
      <g>
        <path d="M9.1,99.01v-7.97l-6.6-10.97h4.26l4.24,7.49,4.15-7.49h4.19l-6.62,11v7.95h-3.62Z" style="fill: #fff;"/>
        <path d="M20.19,83.43v-3.36h3.45v3.36h-3.45ZM20.19,99.01v-13.72h3.45v13.72h-3.45Z" style="fill: #fff;"/>
        <path d="M25.79,99.01v-2.83l4.89-5.9c.8-.96,1.4-1.65,1.78-2.05-.4.03-.93.04-1.58.05l-4.61.03v-3.01h10.79v2.57l-4.99,6.05-1.76,2c.96-.06,1.55-.09,1.78-.09h5.34v3.19h-11.65Z" style="fill: #fff;"/>
        <path d="M43.2,80.07v6.96c1.11-1.37,2.44-2.05,3.99-2.05.79,0,1.51.16,2.15.47s1.12.71,1.44,1.19.54,1.02.66,1.6.18,1.5.18,2.73v8.05h-3.45v-7.25c0-1.44-.07-2.35-.2-2.74-.13-.39-.36-.7-.69-.92-.33-.23-.75-.34-1.25-.34-.57,0-1.09.15-1.54.44-.45.29-.78.73-.99,1.32-.21.59-.31,1.46-.31,2.62v6.87h-3.45v-18.94h3.45Z" style="fill: #fff;"/>
        <path d="M63.72,99.01v-2.05c-.48.73-1.1,1.31-1.87,1.73s-1.59.63-2.45.63-1.66-.2-2.36-.61c-.7-.4-1.2-.97-1.51-1.71-.31-.73-.47-1.74-.47-3.04v-8.68h3.45v6.3c0,1.93.06,3.11.19,3.55.13.43.36.78.69,1.03.34.25.76.38,1.28.38.59,0,1.12-.17,1.58-.51.47-.34.79-.76.96-1.26.17-.51.26-1.74.26-3.7v-5.79h3.45v13.72h-3.21Z" style="fill: #fff;"/>
        <path d="M73.08,89.47l-3.13-.59c.35-1.33.96-2.31,1.82-2.95.86-.64,2.14-.96,3.83-.96,1.54,0,2.69.19,3.44.58.75.38,1.29.87,1.59,1.46s.46,1.67.46,3.25l-.04,4.24c0,1.21.06,2.09.17,2.67.11.58.32,1.19.62,1.84h-3.42c-.09-.24-.2-.6-.33-1.07-.06-.22-.1-.36-.12-.43-.59.6-1.22,1.05-1.89,1.36-.67.3-1.39.45-2.15.45-1.34,0-2.4-.38-3.18-1.15s-1.16-1.74-1.16-2.91c0-.78.18-1.46.53-2.07.35-.61.84-1.07,1.48-1.4.63-.32,1.55-.6,2.75-.84,1.61-.32,2.73-.62,3.35-.89v-.36c0-.7-.16-1.2-.49-1.49s-.95-.45-1.86-.45c-.61,0-1.09.13-1.44.38-.34.25-.62.7-.84,1.34ZM77.7,92.42c-.44.16-1.14.34-2.1.56-.96.22-1.59.43-1.88.63-.45.34-.68.76-.68,1.28s.18.95.54,1.32.82.55,1.38.55c.62,0,1.22-.21,1.78-.64.42-.33.69-.73.82-1.2.09-.31.13-.9.13-1.77v-.72Z" style="fill: #fff;"/>
        <path d="M96.36,99.01h-3.45v-7c0-1.48-.07-2.44-.22-2.87-.15-.43-.39-.77-.72-1.01-.33-.24-.73-.36-1.2-.36-.6,0-1.14.17-1.61.52-.47.34-.8.8-.98,1.37-.18.57-.26,1.62-.26,3.15v6.21h-3.45v-13.72h3.21v2.02c1.14-1.55,2.57-2.33,4.3-2.33.76,0,1.46.14,2.09.43s1.11.66,1.43,1.1.55.96.68,1.52.19,1.38.19,2.44v8.53Z" style="fill: #fff;"/>
        <path d="M99.54,99.91l3.94.5c.07.48.22.81.45.99.33.26.84.39,1.55.39.9,0,1.58-.14,2.03-.43.3-.19.53-.5.69-.92.11-.3.16-.86.16-1.67v-2c-1.03,1.48-2.33,2.22-3.91,2.22-1.75,0-3.14-.78-4.17-2.34-.8-1.23-1.2-2.76-1.2-4.6,0-2.3.53-4.06,1.58-5.27,1.05-1.21,2.36-1.82,3.93-1.82s2.94.75,3.99,2.24v-1.93h3.23v12.31c0,1.62-.13,2.83-.38,3.63-.25.8-.61,1.43-1.07,1.88-.46.46-1.07.81-1.84,1.07-.76.26-1.73.39-2.9.39-2.21,0-3.78-.4-4.71-1.2s-1.39-1.81-1.39-3.03c0-.12,0-.27.01-.44ZM102.63,91.86c0,1.46.27,2.52.81,3.2.54.68,1.2,1.01,1.98,1.01.84,0,1.56-.35,2.14-1.04.58-.69.87-1.72.87-3.08s-.28-2.48-.84-3.16c-.56-.69-1.26-1.03-2.11-1.03s-1.51.34-2.04,1.01c-.54.68-.81,1.71-.81,3.09Z" style="fill: #fff;"/>
        <path d="M126.3,99.01v-15.74h-5.35v-3.2h14.31v3.2h-5.33v15.74h-3.64Z" style="fill: #fff;"/>
        <path d="M145.69,99.01h-3.45v-13.68c-1.26,1.24-2.75,2.16-4.46,2.75v-3.29c.9-.31,1.88-.9,2.94-1.76,1.06-.86,1.78-1.87,2.17-3.03h2.8v19.02Z" style="fill: #fff;"/>
        <path d="M158.7,99.01v-18.79h3.64v15.59h9.04v3.19h-12.68Z" style="fill: #fff;"/>
        <path d="M173.94,83.43v-3.36h3.45v3.36h-3.45ZM173.94,99.01v-13.72h3.45v13.72h-3.45Z" style="fill: #fff;"/>
        <path d="M192.8,99.01h-3.45v-7c0-1.48-.07-2.44-.22-2.87-.15-.43-.39-.77-.72-1.01-.33-.24-.73-.36-1.2-.36-.6,0-1.14.17-1.61.52-.47.34-.8.8-.98,1.37-.18.57-.26,1.62-.26,3.15v6.21h-3.45v-13.72h3.21v2.02c1.14-1.55,2.57-2.33,4.3-2.33.76,0,1.46.14,2.09.43s1.11.66,1.43,1.1.55.96.68,1.52.19,1.38.19,2.44v8.53Z" style="fill: #fff;"/>
        <path d="M203.86,94.64l3.44.61c-.44,1.33-1.14,2.34-2.09,3.03s-2.15,1.04-3.58,1.04c-2.27,0-3.95-.78-5.04-2.34-.86-1.25-1.29-2.82-1.29-4.73,0-2.27.56-4.05,1.69-5.34s2.56-1.93,4.29-1.93c1.94,0,3.47.68,4.6,2.02,1.12,1.35,1.66,3.41,1.61,6.19h-8.65c.02,1.08.3,1.92.84,2.51.53.6,1.2.9,1.99.9.54,0,1-.16,1.36-.47s.65-.81.84-1.5ZM204.06,90.97c-.02-1.05-.28-1.85-.77-2.39-.49-.55-1.09-.82-1.79-.82-.75,0-1.37.29-1.87.87-.49.58-.73,1.36-.72,2.35h5.16Z" style="fill: #fff;"/>
      </g>
    </g>
  </g>
  <g id="c">
    <rect x="0" y="110" width="210" height="40" style="fill: #e6081b;"/>
  </g>
</svg>