<?xml version="1.0" encoding="UTF-8"?>
<svg xmlns="http://www.w3.org/2000/svg" viewBox="0 0 175 150">
  <g id="a">
    <g>
      <g>
        <path d="M123.36,44.19v5.14h-27l-1.14,3.57h22.9s-.14,1.62-.29,2.38c-.95,7.38-2.1,10.95-3.81,12.57-1.43,1.33-3,1.67-5.24,1.81-1.81.09-4.95.14-8.24-.05-.09-1.62-.95-3.9-2-5.43,3.19.29,6.71.33,8.19.33,1.05,0,1.67-.05,2.29-.43.9-.67,1.62-2.57,2.24-6h-24.42c1-2.33,2.14-5.62,3.09-8.76h-8.95v-5.14h42.37ZM117.88,26.81v14.38h-31.23v-14.38h31.23ZM92.36,36.24h19.43v-4.43h-19.43v4.43Z" style="fill: #fff;"/>
        <path d="M127.8,40.67c1-.29,1.81-1.24,2.86-2.76,1.05-1.47,4.33-7.24,6.05-12.66l5.33,2.57c-1.86,4.24-4.48,8.71-7.14,12.33l4.05-.29c1-1.62,1.95-3.33,2.81-5.05l4.62,2.9c-2.57,4.48-5.71,8.95-9,12.81l7.52-1.24c-.14,1.43-.24,3.62-.14,4.76-11.62,2.24-13.57,2.81-14.81,3.52-.29-1.05-1.14-3.62-1.76-5,1.24-.29,2.33-1.33,3.81-3.1.76-.76,2.14-2.48,3.71-4.71-4.19.52-5.33.81-6.09,1.19-.29-1.1-1.19-3.81-1.81-5.28ZM144.56,57.38l.9,4.71c-5.48,1.95-11.28,4-15.95,5.57l-1.14-5.43c4-1.05,10.24-2.95,16.19-4.86ZM171.94,51.05c-2.29,3.57-5.14,6.67-8.43,9.38,1,2.48,2.19,3.91,3.38,3.91.9,0,1.33-1.19,1.57-5.05,1.1,1.33,2.76,2.52,4,3.14-.9,5.9-2.43,7.43-6.24,7.43-3.05,0-5.48-2.33-7.33-6.14-3.52,2.24-7.43,4.05-11.52,5.52-.71-1.48-2.14-3.43-3.43-4.76,4.67-1.38,9.14-3.28,13.05-5.76-.76-2.62-1.43-5.57-1.95-8.76l-8.47,1.57-.95-5.1,8.76-1.57-.48-4.57-6.33,1-.9-5.14,6.9-1.05c-.19-3.33-.29-6.76-.29-10.09h5.71c-.05,3.09,0,6.19.14,9.24l10.24-1.57.95,5-10.86,1.71.43,4.48,10.71-1.95.95,4.95-11,2.05c.38,2.24.81,4.33,1.24,6.19,2.09-1.86,3.9-3.91,5.33-6.19l4.81,2.14ZM163.08,25.62c1.9,1.1,4.62,2.95,6,4.14l-3.43,3.33c-1.33-1.24-3.95-3.19-5.9-4.52l3.33-2.95Z" style="fill: #fff;"/>
      </g>
      <g>
        <path d="M88.07,99.01v-18.79h3.82v15.59h9.51v3.19h-13.33Z" style="fill: #fff;"/>
        <path d="M104.1,83.43v-3.36h3.63v3.36h-3.63ZM104.1,99.01v-13.72h3.63v13.72h-3.63Z" style="fill: #fff;"/>
        <path d="M123.94,99.01h-3.63v-7c0-1.48-.08-2.44-.23-2.87s-.41-.77-.76-1.01c-.35-.24-.77-.36-1.26-.36-.63,0-1.19.17-1.69.52s-.84.8-1.03,1.37-.28,1.62-.28,3.15v6.21h-3.63v-13.72h3.37v2.02c1.2-1.55,2.7-2.33,4.52-2.33.8,0,1.53.14,2.2.43s1.16.66,1.51,1.1c.34.45.58.96.71,1.52s.2,1.38.2,2.44v8.53Z" style="fill: #fff;"/>
        <path d="M135.56,94.64l3.62.61c-.47,1.33-1.2,2.34-2.2,3.03s-2.26,1.04-3.77,1.04c-2.39,0-4.15-.78-5.3-2.34-.9-1.25-1.36-2.82-1.36-4.73,0-2.27.59-4.05,1.78-5.34s2.69-1.93,4.51-1.93c2.04,0,3.65.68,4.83,2.02,1.18,1.35,1.74,3.41,1.69,6.19h-9.1c.03,1.08.32,1.92.88,2.51.56.6,1.26.9,2.09.9.57,0,1.05-.16,1.43-.47s.68-.81.88-1.5ZM135.77,90.97c-.03-1.05-.3-1.85-.81-2.39-.52-.55-1.15-.82-1.89-.82-.79,0-1.45.29-1.96.87-.52.58-.77,1.36-.76,2.35h5.43Z" style="fill: #fff;"/>
        <path d="M156.26,83.7v-3.37h12.42v2.64c-1.02,1.01-2.07,2.46-3.13,4.34-1.06,1.89-1.87,3.89-2.42,6.02-.56,2.12-.83,4.02-.82,5.69h-3.5c.06-2.62.6-5.29,1.62-8.01,1.02-2.72,2.38-5.16,4.09-7.3h-8.26Z" style="fill: #fff;"/>
      </g>
      <path d="M4.4,26.15h48.09v8.57c-7.33,7.53-24.87,31.88-26.52,64.29h-11.45c.62-26.42,15.48-51.91,24.25-62.12H4.4v-10.73Z" style="fill: #fff;"/>
    </g>
  </g>
  <g id="c">
    <rect x="0" y="110" width="175" height="40" style="fill: #fac671;"/>
  </g>
</svg>