<?xml version="1.0" encoding="UTF-8"?>
<svg xmlns="http://www.w3.org/2000/svg" viewBox="0 0 175 150">
  <g id="a">
    <g>
      <g>
        <path d="M56.25,48v21.95h-6.38v-1.86h-24.85v1.91h-6.05v-22h37.28ZM52.34,26.86v18.66h-29.57v-18.66h29.57ZM49.87,55.66v-2.81h-24.85v2.81h24.85ZM25.01,63.23h24.85v-2.95h-24.85v2.95ZM28.77,34.05h17.28v-2.62h-17.28v2.62ZM28.77,40.95h17.28v-2.66h-17.28v2.66Z" style="fill: #fff;"/>
        <path d="M84.49,48.28v-14.52h-16.09v-5.67h38.09v5.67h-16.05v14.52h18.81v5.76h-18.81v15.81h-5.95v-15.81h-18.62v-5.76h18.62ZM76.5,35.28c1.62,3.09,3.28,7.09,3.86,9.76l-5.57,1.76c-.48-2.57-1.95-6.76-3.52-9.95l5.24-1.57ZM104.54,36.71c-1.71,3.67-3.67,7.52-5.28,10l-5-1.48c1.52-2.76,3.24-6.95,4.14-10.09l6.14,1.57Z" style="fill: #fff;"/>
        <path d="M115.41,40.67c1-.29,1.81-1.24,2.86-2.76,1.05-1.47,4.33-7.24,6.05-12.66l5.33,2.57c-1.86,4.24-4.48,8.71-7.14,12.33l4.05-.29c1-1.62,1.95-3.33,2.81-5.05l4.62,2.9c-2.57,4.48-5.71,8.95-9,12.81l7.52-1.24c-.14,1.43-.24,3.62-.14,4.76-11.62,2.24-13.57,2.81-14.81,3.52-.29-1.05-1.14-3.62-1.76-5,1.24-.29,2.33-1.33,3.81-3.1.76-.76,2.14-2.48,3.71-4.71-4.19.52-5.33.81-6.09,1.19-.29-1.1-1.19-3.81-1.81-5.28ZM132.17,57.38l.9,4.71c-5.47,1.95-11.28,4-15.95,5.57l-1.14-5.43c4-1.05,10.24-2.95,16.19-4.86ZM159.55,51.04c-2.29,3.57-5.14,6.66-8.43,9.38,1,2.48,2.19,3.9,3.38,3.9.9,0,1.33-1.19,1.57-5.05,1.1,1.33,2.76,2.52,4,3.14-.9,5.9-2.43,7.43-6.24,7.43-3.05,0-5.48-2.33-7.33-6.14-3.52,2.24-7.43,4.05-11.52,5.52-.71-1.48-2.14-3.43-3.43-4.76,4.67-1.38,9.14-3.29,13.05-5.76-.76-2.62-1.43-5.57-1.95-8.76l-8.47,1.57-.95-5.1,8.76-1.57-.48-4.57-6.33,1-.91-5.14,6.9-1.05c-.19-3.33-.28-6.76-.28-10.09h5.71c-.05,3.09,0,6.19.14,9.24l10.24-1.57.95,5-10.86,1.71.43,4.48,10.71-1.95.95,4.95-11,2.05c.38,2.24.81,4.33,1.24,6.19,2.09-1.86,3.91-3.9,5.33-6.19l4.81,2.14ZM150.69,25.62c1.9,1.09,4.62,2.95,6,4.14l-3.43,3.33c-1.33-1.24-3.95-3.19-5.9-4.52l3.33-2.95Z" style="fill: #fff;"/>
      </g>
      <g>
        <path d="M14,92.04l3.34,1.18c-.51,2.07-1.36,3.6-2.55,4.61-1.19,1-2.7,1.5-4.53,1.5-2.26,0-4.12-.86-5.58-2.58-1.46-1.72-2.19-4.07-2.19-7.05,0-3.15.73-5.6,2.2-7.34,1.46-1.74,3.39-2.62,5.78-2.62,2.08,0,3.78.68,5.08,2.05.77.81,1.36,1.97,1.74,3.49l-3.41.91c-.2-.98-.62-1.76-1.26-2.33s-1.42-.85-2.33-.85c-1.26,0-2.29.5-3.07,1.51-.79,1.01-1.18,2.64-1.18,4.9,0,2.39.39,4.1,1.16,5.12.78,1.02,1.78,1.53,3.02,1.53.91,0,1.7-.32,2.36-.97s1.13-1.66,1.42-3.05Z" style="fill: #fff;"/>
        <path d="M22.93,80.07v6.96c1.05-1.37,2.31-2.05,3.78-2.05.75,0,1.43.16,2.03.47s1.06.71,1.36,1.19c.31.48.52,1.02.63,1.6s.17,1.5.17,2.73v8.05h-3.27v-7.25c0-1.44-.06-2.35-.19-2.74s-.34-.7-.66-.92c-.32-.23-.71-.34-1.18-.34-.54,0-1.03.15-1.45.44-.43.29-.74.73-.94,1.32-.2.59-.3,1.46-.3,2.62v6.87h-3.27v-18.94h3.27Z" style="fill: #fff;"/>
        <path d="M36.06,89.47l-2.96-.59c.33-1.33.91-2.31,1.72-2.95s2.02-.96,3.63-.96c1.46,0,2.54.19,3.25.58.71.38,1.21.87,1.51,1.46s.44,1.67.44,3.25l-.03,4.24c0,1.21.05,2.09.16,2.67.11.58.3,1.19.59,1.84h-3.23c-.09-.24-.19-.6-.31-1.07-.06-.22-.09-.36-.12-.43-.56.6-1.15,1.05-1.79,1.36s-1.31.45-2.03.45c-1.27,0-2.27-.38-3-1.15s-1.1-1.74-1.1-2.91c0-.78.17-1.46.5-2.07.33-.61.8-1.07,1.4-1.4.6-.32,1.47-.6,2.6-.84,1.53-.32,2.58-.62,3.17-.89v-.36c0-.7-.16-1.2-.47-1.49s-.9-.45-1.76-.45c-.58,0-1.04.13-1.36.38-.33.25-.59.7-.79,1.34ZM40.43,92.42c-.42.16-1.08.34-1.99.56s-1.5.43-1.78.63c-.43.34-.64.76-.64,1.28s.17.95.51,1.32.78.55,1.3.55c.59,0,1.15-.21,1.68-.64.4-.33.65-.73.78-1.2.09-.31.13-.9.13-1.77v-.72Z" style="fill: #fff;"/>
        <path d="M57.49,99.01h-3.27v-7c0-1.48-.07-2.44-.21-2.87s-.37-.77-.68-1.01c-.32-.24-.69-.36-1.13-.36-.57,0-1.07.17-1.52.52s-.76.8-.93,1.37c-.17.57-.25,1.62-.25,3.15v6.21h-3.27v-13.72h3.03v2.02c1.08-1.55,2.43-2.33,4.07-2.33.72,0,1.38.14,1.98.43s1.05.66,1.35,1.1.52.96.64,1.52.18,1.38.18,2.44v8.53Z" style="fill: #fff;"/>
        <path d="M59.9,99.91l3.73.5c.06.48.2.81.43.99.31.26.8.39,1.46.39.85,0,1.49-.14,1.92-.43.29-.19.5-.5.65-.92.1-.3.15-.86.15-1.67v-2c-.98,1.48-2.21,2.22-3.7,2.22-1.66,0-2.97-.78-3.94-2.34-.76-1.23-1.14-2.76-1.14-4.6,0-2.3.5-4.06,1.49-5.27s2.23-1.82,3.71-1.82,2.79.75,3.78,2.24v-1.93h3.06v12.31c0,1.62-.12,2.83-.36,3.63-.24.8-.58,1.43-1.01,1.88-.43.46-1.01.81-1.74,1.07s-1.64.39-2.75.39c-2.09,0-3.58-.4-4.45-1.2s-1.31-1.81-1.31-3.03c0-.12,0-.27.01-.44ZM62.82,91.86c0,1.46.25,2.52.76,3.2.51.68,1.13,1.01,1.88,1.01.8,0,1.47-.35,2.02-1.04.55-.69.83-1.72.83-3.08s-.26-2.48-.79-3.16-1.19-1.03-2-1.03-1.43.34-1.93,1.01c-.51.68-.76,1.71-.76,3.09Z" style="fill: #fff;"/>
        <path d="M74.06,85.29h3.05v2.02c.39-.69.93-1.25,1.6-1.68.67-.43,1.42-.65,2.24-.65,1.43,0,2.65.63,3.65,1.87,1,1.25,1.5,2.99,1.5,5.22s-.5,4.07-1.51,5.34c-1.01,1.27-2.23,1.91-3.66,1.91-.68,0-1.3-.15-1.85-.45-.55-.3-1.14-.82-1.75-1.55v6.91h-3.27v-18.94ZM77.29,91.91c0,1.54.27,2.68.83,3.42.55.74,1.22,1.1,2.01,1.1s1.39-.34,1.89-1.01c.5-.68.75-1.78.75-3.33,0-1.44-.26-2.51-.78-3.2-.52-.7-1.16-1.05-1.93-1.05s-1.46.34-1.99,1.03-.79,1.7-.79,3.04Z" style="fill: #fff;"/>
        <path d="M88.09,83.43v-3.36h3.27v3.36h-3.27ZM88.09,99.01v-13.72h3.27v13.72h-3.27Z" style="fill: #fff;"/>
        <path d="M105.34,99.01h-3.27v-7c0-1.48-.07-2.44-.21-2.87s-.37-.77-.68-1.01c-.32-.24-.69-.36-1.13-.36-.57,0-1.07.17-1.52.52s-.76.8-.93,1.37c-.17.57-.25,1.62-.25,3.15v6.21h-3.27v-13.72h3.03v2.02c1.08-1.55,2.43-2.33,4.07-2.33.72,0,1.38.14,1.98.43s1.05.66,1.35,1.1.52.96.64,1.52.18,1.38.18,2.44v8.53Z" style="fill: #fff;"/>
        <path d="M107.75,99.91l3.73.5c.06.48.2.81.43.99.31.26.8.39,1.46.39.85,0,1.49-.14,1.92-.43.29-.19.5-.5.65-.92.1-.3.15-.86.15-1.67v-2c-.98,1.48-2.21,2.22-3.7,2.22-1.66,0-2.97-.78-3.94-2.34-.76-1.23-1.14-2.76-1.14-4.6,0-2.3.5-4.06,1.49-5.27,1-1.21,2.23-1.82,3.71-1.82s2.79.75,3.78,2.24v-1.93h3.06v12.31c0,1.62-.12,2.83-.36,3.63-.24.8-.58,1.43-1.01,1.88-.43.46-1.01.81-1.74,1.07s-1.64.39-2.75.39c-2.09,0-3.58-.4-4.45-1.2s-1.31-1.81-1.31-3.03c0-.12,0-.27.01-.44ZM110.67,91.86c0,1.46.25,2.52.76,3.2.51.68,1.13,1.01,1.88,1.01.8,0,1.47-.35,2.02-1.04.55-.69.83-1.72.83-3.08s-.26-2.48-.79-3.16-1.19-1.03-2-1.03-1.43.34-1.93,1.01c-.51.68-.76,1.71-.76,3.09Z" style="fill: #fff;"/>
        <path d="M128.13,99.01v-18.79h3.44v15.59h8.55v3.19h-11.99Z" style="fill: #fff;"/>
        <path d="M141.96,83.43v-3.36h3.27v3.36h-3.27ZM141.96,99.01v-13.72h3.27v13.72h-3.27Z" style="fill: #fff;"/>
        <path d="M159.21,99.01h-3.27v-7c0-1.48-.07-2.44-.21-2.87s-.37-.77-.68-1.01c-.32-.24-.69-.36-1.13-.36-.57,0-1.07.17-1.52.52s-.76.8-.93,1.37c-.17.57-.25,1.62-.25,3.15v6.21h-3.27v-13.72h3.03v2.02c1.08-1.55,2.43-2.33,4.07-2.33.72,0,1.38.14,1.98.43s1.05.66,1.35,1.1.52.96.64,1.52.18,1.38.18,2.44v8.53Z" style="fill: #fff;"/>
        <path d="M169.07,94.64l3.26.61c-.42,1.33-1.08,2.34-1.98,3.03s-2.03,1.04-3.39,1.04c-2.15,0-3.73-.78-4.76-2.34-.81-1.25-1.22-2.82-1.22-4.73,0-2.27.53-4.05,1.6-5.34,1.07-1.29,2.42-1.93,4.05-1.93,1.84,0,3.29.68,4.35,2.02,1.06,1.35,1.57,3.41,1.52,6.19h-8.18c.02,1.08.29,1.92.79,2.51.5.6,1.13.9,1.88.9.51,0,.94-.16,1.29-.47.35-.31.61-.81.79-1.5ZM169.26,90.97c-.02-1.05-.27-1.85-.73-2.39-.47-.55-1.03-.82-1.7-.82-.71,0-1.3.29-1.77.87-.47.58-.69,1.36-.69,2.35h4.88Z" style="fill: #fff;"/>
      </g>
    </g>
  </g>
  <g id="c">
    <rect x="0" y="110" width="175" height="40" style="fill: #de82b2;"/>
  </g>
</svg>