<?xml version="1.0" encoding="UTF-8"?>
<svg xmlns="http://www.w3.org/2000/svg" viewBox="0 0 175 150">
  <g id="a">
    <g>
      <g>
        <path d="M33.2,30.05c-1.29,14.47-3.81,30.9-14.24,39.76-.9-1.29-2.9-3.48-4.19-4.52,9.38-7.71,11.33-22.76,12.09-35.76l6.33.52ZM60.39,65.47c-2.05,1.19-3.9,2.57-5.05,4.14-13.28-12.81-14-37.52-14.28-40.76l5.67-.43c.14,2.53.76,25.28,13.66,37.04Z" style="fill: #fff;"/>
        <path d="M76.73,60.14c.71.48,1.57,1.09,2.71,1.76,3.1,1.86,7.38,2.14,12.57,2.14s13.09-.43,18.09-1.1c-.62,1.43-1.43,4-1.52,5.48-3.71.19-11.67.48-16.76.48-5.9,0-9.81-.52-13.14-2.43-1.91-1.1-3.48-2.57-4.48-2.57-1.52,0-3.81,2.86-5.86,5.76l-3.48-4.81c2.09-2.09,4.33-3.86,6.38-4.81v-11.38h-6v-5.28h11.48v16.76ZM69.74,26.86c2.81,2.29,6.71,5.57,8.57,7.71l-4.09,3.91c-1.71-2.24-5.52-5.71-8.33-8.19l3.86-3.43ZM103.25,26.67l1.09-.29,3.38,2.71c-2.38,2.33-5.48,4.71-8.67,6.67l2.52,1.29-.09.09h6.38v19.71c0,2.33-.43,3.52-1.95,4.29-1.47.76-3.57.81-6.43.81-.24-1.38-.86-3.29-1.43-4.52,1.48.09,3.14.05,3.67.05s.71-.19.71-.71v-2.14h-5.67v7h-5.09v-7h-5.48v7.19h-5.33v-24.66h10.38c-2.29-1.05-4.71-2.1-6.81-2.9l3.67-3.05c1.86.67,4.09,1.52,6.28,2.43,1.33-.76,2.67-1.67,3.91-2.62h-17v-4.33h21.95ZM91.68,43.81v-2.57h-5.48v2.57h5.48ZM86.21,50.47h5.48v-2.67h-5.48v2.67ZM96.78,41.24v2.57h5.67v-2.57h-5.67ZM96.78,47.81v2.67h5.67v-2.67h-5.67Z" style="fill: #fff;"/>
        <path d="M115.41,40.66c1-.29,1.81-1.24,2.86-2.76,1.05-1.48,4.33-7.24,6.05-12.67l5.33,2.57c-1.86,4.24-4.48,8.71-7.14,12.33l4.05-.29c1-1.62,1.95-3.33,2.81-5.05l4.62,2.9c-2.57,4.48-5.71,8.95-9,12.81l7.52-1.24c-.14,1.43-.24,3.62-.14,4.76-11.62,2.24-13.57,2.81-14.81,3.52-.29-1.05-1.14-3.62-1.76-5,1.24-.29,2.33-1.33,3.81-3.09.76-.76,2.14-2.48,3.71-4.71-4.19.52-5.33.81-6.09,1.19-.29-1.1-1.19-3.81-1.81-5.28ZM132.17,57.38l.9,4.71c-5.47,1.95-11.28,4-15.95,5.57l-1.14-5.43c4-1.05,10.24-2.95,16.19-4.86ZM159.55,51.04c-2.29,3.57-5.14,6.67-8.43,9.38,1,2.48,2.19,3.91,3.38,3.91.9,0,1.33-1.19,1.57-5.05,1.1,1.33,2.76,2.52,4,3.14-.9,5.9-2.43,7.43-6.24,7.43-3.05,0-5.48-2.33-7.33-6.14-3.52,2.24-7.43,4.05-11.52,5.52-.71-1.47-2.14-3.43-3.43-4.76,4.67-1.38,9.14-3.28,13.05-5.76-.76-2.62-1.43-5.57-1.95-8.76l-8.47,1.57-.95-5.09,8.76-1.57-.48-4.57-6.33,1-.91-5.14,6.9-1.05c-.19-3.33-.28-6.76-.28-10.09h5.71c-.05,3.1,0,6.19.14,9.24l10.24-1.57.95,5-10.86,1.71.43,4.48,10.71-1.95.95,4.95-11,2.05c.38,2.24.81,4.33,1.24,6.19,2.09-1.86,3.91-3.91,5.33-6.19l4.81,2.14ZM150.69,25.62c1.9,1.1,4.62,2.95,6,4.14l-3.43,3.33c-1.33-1.24-3.95-3.19-5.9-4.52l3.33-2.95Z" style="fill: #fff;"/>
      </g>
      <g>
        <path d="M13.01,80.07h7.57c1.5,0,2.62.06,3.35.19.74.13,1.4.39,1.98.78.58.4,1.07.92,1.45,1.58.39.66.58,1.4.58,2.22,0,.89-.24,1.7-.72,2.44-.48.74-1.13,1.3-1.94,1.67,1.15.34,2.04.91,2.66,1.72s.93,1.76.93,2.86c0,.86-.2,1.7-.6,2.51-.4.81-.95,1.47-1.64,1.95-.69.49-1.55.79-2.56.9-.64.07-2.17.11-4.61.13h-6.45v-18.94ZM16.83,83.22v4.38h2.51c1.49,0,2.42-.02,2.78-.07.65-.08,1.17-.3,1.54-.68s.56-.87.56-1.48-.16-1.06-.48-1.43c-.32-.37-.8-.59-1.44-.66-.38-.04-1.47-.07-3.27-.07h-2.2ZM16.83,90.75v5.06h3.54c1.38,0,2.25-.04,2.62-.12.57-.1,1.03-.35,1.39-.76.36-.4.54-.94.54-1.61,0-.57-.14-1.05-.41-1.45s-.67-.69-1.2-.87c-.52-.18-1.65-.27-3.39-.27h-3.09Z" style="fill: #fff;"/>
        <path d="M34.79,89.47l-3.29-.59c.37-1.33,1.01-2.31,1.91-2.95s2.25-.96,4.03-.96c1.62,0,2.82.19,3.62.58.79.38,1.35.87,1.67,1.46.32.59.48,1.67.48,3.25l-.04,4.24c0,1.21.06,2.09.17,2.67.12.57.33,1.19.65,1.84h-3.59c-.09-.24-.21-.6-.35-1.07-.06-.22-.1-.36-.13-.43-.62.6-1.28,1.06-1.99,1.36s-1.46.45-2.26.45c-1.41,0-2.53-.38-3.34-1.15-.81-.77-1.22-1.74-1.22-2.91,0-.78.19-1.47.56-2.07.37-.61.89-1.07,1.56-1.4.67-.32,1.63-.6,2.89-.85,1.7-.32,2.87-.61,3.53-.89v-.36c0-.7-.17-1.2-.52-1.49-.34-.3-.99-.44-1.95-.44-.65,0-1.15.13-1.51.38-.36.25-.65.7-.88,1.34ZM39.65,92.42c-.47.16-1.2.34-2.21.56s-1.67.43-1.98.63c-.47.34-.71.76-.71,1.28s.19.95.57,1.32.86.55,1.45.55c.65,0,1.28-.22,1.87-.65.44-.33.73-.73.87-1.2.09-.31.14-.9.14-1.77v-.72Z" style="fill: #fff;"/>
        <path d="M53.08,85.29v2.89h-2.48v5.53c0,1.12.02,1.77.07,1.96.05.19.16.34.32.46.17.12.37.18.61.18.34,0,.82-.12,1.46-.35l.31,2.82c-.84.36-1.8.54-2.87.54-.65,0-1.25-.11-1.77-.33-.53-.22-.91-.5-1.16-.85-.25-.35-.42-.82-.51-1.41-.08-.42-.12-1.27-.12-2.56v-5.98h-1.67v-2.89h1.67v-2.73l3.64-2.12v4.84h2.48Z" style="fill: #fff;"/>
        <path d="M54.76,91.95c0-1.21.3-2.37.89-3.5s1.43-1.99,2.53-2.58c1.09-.59,2.31-.89,3.65-.89,2.08,0,3.78.68,5.1,2.02,1.33,1.35,1.99,3.05,1.99,5.11s-.67,3.8-2.01,5.16c-1.34,1.37-3.02,2.05-5.06,2.05-1.26,0-2.46-.28-3.6-.85-1.14-.57-2.01-1.4-2.6-2.5-.59-1.1-.89-2.44-.89-4.01ZM58.48,92.15c0,1.36.32,2.4.97,3.13s1.44,1.09,2.39,1.09,1.74-.36,2.38-1.09c.64-.72.96-1.77.96-3.15s-.32-2.38-.96-3.1c-.64-.72-1.44-1.09-2.38-1.09s-1.74.36-2.39,1.09-.97,1.77-.97,3.13Z" style="fill: #fff;"/>
        <path d="M84.24,99.01h-3.63v-7c0-1.48-.08-2.44-.23-2.87-.16-.43-.41-.77-.76-1.01-.35-.24-.77-.36-1.26-.36-.63,0-1.19.17-1.69.52s-.84.8-1.03,1.37c-.19.57-.28,1.62-.28,3.15v6.21h-3.63v-13.72h3.37v2.02c1.2-1.55,2.7-2.33,4.52-2.33.8,0,1.53.14,2.2.43.66.29,1.16.66,1.51,1.11.34.45.58.96.71,1.52.13.57.2,1.38.2,2.44v8.53Z" style="fill: #fff;"/>
        <path d="M87.59,99.91l4.15.5c.07.48.23.81.48.99.34.26.89.39,1.63.39.95,0,1.66-.14,2.13-.43.32-.19.56-.5.72-.92.11-.3.17-.86.17-1.67v-2c-1.09,1.48-2.45,2.22-4.11,2.22-1.84,0-3.3-.78-4.38-2.34-.84-1.23-1.27-2.76-1.27-4.6,0-2.3.55-4.06,1.66-5.27,1.11-1.21,2.48-1.82,4.13-1.82s3.1.75,4.2,2.24v-1.93h3.4v12.31c0,1.62-.13,2.83-.4,3.63s-.64,1.43-1.12,1.89-1.13.81-1.93,1.07c-.81.26-1.82.39-3.06.39-2.33,0-3.97-.4-4.95-1.2-.97-.8-1.46-1.81-1.46-3.03,0-.12,0-.27.01-.44ZM90.83,91.86c0,1.46.28,2.52.85,3.2.56.68,1.26,1.01,2.09,1.01.89,0,1.64-.35,2.25-1.04.61-.69.92-1.72.92-3.08s-.29-2.48-.88-3.16-1.33-1.03-2.22-1.03-1.59.34-2.15,1.01c-.56.68-.85,1.71-.85,3.1Z" style="fill: #fff;"/>
        <path d="M111.57,99.01v-18.78h3.82v15.59h9.51v3.19h-13.33Z" style="fill: #fff;"/>
        <path d="M127.6,83.43v-3.36h3.63v3.36h-3.63ZM127.6,99.01v-13.72h3.63v13.72h-3.63Z" style="fill: #fff;"/>
        <path d="M147.43,99.01h-3.63v-7c0-1.48-.08-2.44-.23-2.87-.16-.43-.41-.77-.76-1.01-.35-.24-.77-.36-1.26-.36-.63,0-1.19.17-1.69.52s-.84.8-1.03,1.37c-.18.57-.28,1.62-.28,3.15v6.21h-3.63v-13.72h3.37v2.02c1.2-1.55,2.7-2.33,4.52-2.33.8,0,1.53.14,2.2.43.66.29,1.16.66,1.51,1.11.34.45.58.96.71,1.52.13.57.2,1.38.2,2.44v8.53Z" style="fill: #fff;"/>
        <path d="M159.06,94.64l3.62.61c-.47,1.33-1.2,2.34-2.2,3.03-1,.69-2.26,1.04-3.77,1.04-2.39,0-4.15-.78-5.3-2.34-.9-1.25-1.36-2.82-1.36-4.73,0-2.27.59-4.05,1.78-5.34,1.19-1.29,2.69-1.93,4.51-1.93,2.04,0,3.65.68,4.83,2.02,1.18,1.35,1.74,3.41,1.69,6.19h-9.1c.03,1.08.32,1.92.88,2.51.56.6,1.26.9,2.09.9.57,0,1.05-.16,1.43-.47s.68-.81.88-1.5ZM159.27,90.97c-.03-1.05-.3-1.85-.81-2.4-.52-.55-1.15-.82-1.89-.82-.79,0-1.45.29-1.96.86s-.77,1.36-.76,2.35h5.43Z" style="fill: #fff;"/>
      </g>
    </g>
  </g>
  <g id="c">
    <rect x="0" y="110" width="175" height="40" style="fill: #c23a30;"/>
  </g>
</svg>