<?xml version="1.0" encoding="UTF-8"?>
<svg xmlns="http://www.w3.org/2000/svg" viewBox="0 0 175 150">
  <g id="a">
    <g>
      <g>
        <path d="M128.33,44.19v5.14h-24.31l-1.03,3.57h20.62s-.13,1.62-.26,2.38c-.86,7.38-1.89,10.95-3.43,12.57-1.29,1.33-2.7,1.67-4.72,1.81-1.63.09-4.46.14-7.42-.05-.09-1.62-.86-3.9-1.8-5.43,2.87.29,6.04.33,7.37.33.94,0,1.5-.05,2.06-.43.81-.67,1.46-2.57,2.01-6h-21.99c.9-2.33,1.93-5.62,2.79-8.76h-8.06v-5.14h38.16ZM123.39,26.81v14.38h-28.13v-14.38h28.13ZM100.41,36.24h17.49v-4.43h-17.49v4.43Z" style="fill: #fff;"/>
        <path d="M132.3,40.67c.9-.29,1.63-1.24,2.57-2.76.94-1.47,3.9-7.24,5.44-12.66l4.8,2.57c-1.67,4.24-4.03,8.71-6.43,12.33l3.64-.29c.9-1.62,1.76-3.33,2.53-5.05l4.16,2.9c-2.32,4.48-5.15,8.95-8.1,12.81l6.77-1.24c-.13,1.43-.22,3.62-.13,4.76-10.46,2.24-12.22,2.81-13.33,3.52-.26-1.05-1.03-3.62-1.59-5,1.11-.29,2.1-1.33,3.43-3.1.69-.76,1.93-2.48,3.35-4.71-3.77.52-4.8.81-5.49,1.19-.26-1.1-1.07-3.81-1.63-5.28ZM147.39,57.38l.81,4.71c-4.93,1.95-10.16,4-14.36,5.57l-1.03-5.43c3.6-1.05,9.22-2.95,14.58-4.86ZM172.04,51.04c-2.06,3.57-4.63,6.67-7.59,9.38.9,2.48,1.97,3.91,3.04,3.91.81,0,1.2-1.19,1.41-5.05.99,1.33,2.49,2.52,3.6,3.14-.81,5.9-2.19,7.43-5.62,7.43-2.74,0-4.93-2.33-6.6-6.14-3.17,2.24-6.69,4.05-10.37,5.52-.64-1.48-1.93-3.43-3.09-4.76,4.2-1.38,8.23-3.28,11.75-5.76-.69-2.62-1.29-5.57-1.76-8.76l-7.63,1.57-.86-5.1,7.89-1.57-.43-4.57-5.7,1-.81-5.14,6.22-1.05c-.17-3.33-.26-6.76-.26-10.09h5.15c-.04,3.09,0,6.19.13,9.24l9.22-1.57.86,5-9.78,1.71.39,4.48,9.65-1.95.86,4.95-9.9,2.05c.34,2.24.73,4.33,1.11,6.19,1.89-1.86,3.52-3.91,4.8-6.19l4.33,2.14ZM164.07,25.62c1.71,1.1,4.16,2.95,5.4,4.14l-3.09,3.33c-1.2-1.24-3.56-3.19-5.32-4.52l3-2.95Z" style="fill: #fff;"/>
      </g>
      <g>
        <path d="M94.67,99.01v-18.78h3.44v15.59h8.56v3.19h-12Z" style="fill: #fff;"/>
        <path d="M109.1,83.43v-3.36h3.27v3.36h-3.27ZM109.1,99.01v-13.72h3.27v13.72h-3.27Z" style="fill: #fff;"/>
        <path d="M126.95,99.01h-3.27v-7c0-1.48-.07-2.44-.21-2.88-.14-.43-.37-.77-.68-1.01s-.69-.36-1.13-.36c-.57,0-1.07.17-1.52.52s-.76.8-.92,1.37-.25,1.62-.25,3.15v6.21h-3.27v-13.72h3.04v2.02c1.08-1.55,2.43-2.33,4.07-2.33.72,0,1.38.14,1.98.43.6.29,1.05.66,1.35,1.11s.52.96.64,1.52c.12.57.18,1.38.18,2.44v8.53Z" style="fill: #fff;"/>
        <path d="M137.42,94.64l3.26.61c-.42,1.33-1.08,2.34-1.98,3.03-.9.7-2.03,1.04-3.39,1.04-2.15,0-3.74-.78-4.77-2.34-.81-1.25-1.22-2.82-1.22-4.73,0-2.27.53-4.05,1.6-5.34,1.07-1.29,2.42-1.93,4.06-1.93,1.84,0,3.29.67,4.35,2.02,1.06,1.35,1.57,3.41,1.52,6.19h-8.19c.02,1.07.29,1.91.79,2.51.5.6,1.13.9,1.88.9.51,0,.94-.16,1.29-.47.35-.31.61-.81.79-1.5ZM137.6,90.97c-.02-1.05-.27-1.85-.73-2.4-.47-.55-1.03-.82-1.7-.82-.71,0-1.3.29-1.77.86-.47.58-.69,1.36-.69,2.35h4.88Z" style="fill: #fff;"/>
        <path d="M160.46,95.64v3.37h-11.45c.12-1.27.5-2.48,1.12-3.62.62-1.14,1.84-2.65,3.67-4.54,1.47-1.52,2.38-2.56,2.71-3.1.45-.75.68-1.49.68-2.22,0-.81-.2-1.43-.59-1.87-.39-.43-.93-.65-1.62-.65s-1.22.23-1.63.69c-.4.45-.64,1.21-.7,2.27l-3.26-.36c.19-2,.8-3.43,1.83-4.3s2.3-1.31,3.84-1.31c1.68,0,3,.5,3.97,1.51.96,1.01,1.44,2.26,1.44,3.76,0,.85-.14,1.67-.41,2.44-.28.77-.71,1.58-1.31,2.42-.39.56-1.11,1.37-2.14,2.42-1.03,1.05-1.68,1.75-1.96,2.09s-.5.68-.67,1.01h6.49Z" style="fill: #fff;"/>
        <path d="M172.51,95.64v3.37h-11.45c.12-1.27.5-2.48,1.12-3.62.62-1.14,1.84-2.65,3.67-4.54,1.47-1.52,2.38-2.56,2.71-3.1.45-.75.67-1.49.67-2.22,0-.81-.19-1.43-.59-1.87-.39-.43-.93-.65-1.62-.65s-1.22.23-1.63.69c-.4.45-.64,1.21-.7,2.27l-3.26-.36c.19-2,.8-3.43,1.83-4.3s2.3-1.31,3.84-1.31c1.68,0,3,.5,3.97,1.51s1.44,2.26,1.44,3.76c0,.85-.14,1.67-.41,2.44-.28.77-.71,1.58-1.31,2.42-.4.56-1.11,1.37-2.14,2.42-1.03,1.05-1.68,1.75-1.96,2.09-.27.34-.5.68-.67,1.01h6.49Z" style="fill: #fff;"/>
      </g>
      <g>
        <path d="M41.84,99.01H2.46c.33-11.76,9-21.57,13.13-26.21,13.54-15.17,16.84-19.19,16.84-27.14s-4.71-11.45-9.41-11.45c-3.22,0-9.66,1.55-9.91,13.42l-9.24-1.24c1.49-19.81,14.36-21.57,18.9-21.57,15.6,0,19.07,13.42,19.07,20.74,0,11.97-7.35,20.33-15.44,29.31-3.8,4.13-8.59,9.49-10.48,13.31h25.92v10.83Z" style="fill: #fff;"/>
        <path d="M83.28,99.01h-39.38c.33-11.76,9-21.57,13.12-26.21,13.54-15.17,16.84-19.19,16.84-27.14s-4.71-11.45-9.41-11.45c-3.22,0-9.66,1.55-9.9,13.42l-9.24-1.24c1.48-19.81,14.36-21.57,18.9-21.57,15.6,0,19.07,13.42,19.07,20.74,0,11.97-7.35,20.33-15.44,29.31-3.8,4.13-8.59,9.49-10.48,13.31h25.92v10.83Z" style="fill: #fff;"/>
      </g>
    </g>
  </g>
  <g id="c">
    <rect x="0" y="110" width="175" height="40" style="fill: #f7c8ce;"/>
  </g>
</svg>