<?xml version="1.0" encoding="UTF-8"?>
<svg xmlns="http://www.w3.org/2000/svg" viewBox="0 0 175 150">
  <g id="a">
    <g>
      <g>
        <path d="M36.03,54.47c.12.97.43,3.16,1.83,5.11,2.86,3.95,8.09,4.14,9.31,4.14,5.72,0,9.86-2.49,9.86-6.75s-4.14-5.48-10.65-7.06c-6.27-1.52-15.64-3.77-15.64-12.96,0-6.33,5.05-12.11,15.52-12.11,9.07,0,16.25,3.96,16.61,13.14l-7.12.43c-.24-2.07-.91-7.42-9.31-7.42-4.38,0-8.82,1.64-8.82,5.54,0,3.29,2.62,4.63,10.16,6.33,6.88,1.58,16.37,3.71,16.37,13.69,0,5.72-3.65,13.33-17.1,13.33s-17.46-8.21-17.95-14.79l6.94-.61Z" style="fill: #fff;"/>
        <path d="M80.63,69.14v-32.86c-2.86,2.74-7.06,5.11-10.71,6.39v-6.27c2.01-.79,9.74-4.56,12.48-11.02h4.99v43.75h-6.75Z" style="fill: #fff;"/>
        <path d="M102.49,40.66c1-.29,1.81-1.24,2.86-2.76,1.05-1.47,4.33-7.24,6.05-12.66l5.33,2.57c-1.86,4.24-4.48,8.71-7.14,12.33l4.05-.29c1-1.62,1.95-3.33,2.81-5.05l4.62,2.9c-2.57,4.48-5.71,8.95-9,12.81l7.52-1.24c-.14,1.43-.24,3.62-.14,4.76-11.62,2.24-13.57,2.81-14.81,3.52-.29-1.05-1.14-3.62-1.76-5,1.24-.29,2.33-1.33,3.81-3.1.76-.76,2.14-2.48,3.71-4.71-4.19.52-5.33.81-6.09,1.19-.29-1.1-1.19-3.81-1.81-5.28ZM119.25,57.37l.9,4.71c-5.48,1.95-11.28,4-15.95,5.57l-1.14-5.43c4-1.05,10.24-2.95,16.19-4.86ZM146.63,51.04c-2.29,3.57-5.14,6.67-8.43,9.38,1,2.48,2.19,3.91,3.38,3.91.9,0,1.33-1.19,1.57-5.05,1.1,1.33,2.76,2.52,4,3.14-.9,5.9-2.43,7.43-6.24,7.43-3.05,0-5.48-2.33-7.33-6.14-3.52,2.24-7.43,4.05-11.52,5.52-.71-1.48-2.14-3.43-3.43-4.76,4.67-1.38,9.14-3.28,13.05-5.76-.76-2.62-1.43-5.57-1.95-8.76l-8.47,1.57-.95-5.1,8.76-1.57-.48-4.57-6.33,1-.9-5.14,6.9-1.05c-.19-3.33-.29-6.76-.29-10.09h5.71c-.05,3.09,0,6.19.14,9.24l10.24-1.57.95,5-10.86,1.71.43,4.48,10.71-1.95.95,4.95-11,2.05c.38,2.24.81,4.33,1.24,6.19,2.09-1.86,3.9-3.91,5.33-6.19l4.81,2.14ZM137.77,25.62c1.9,1.1,4.62,2.95,6,4.14l-3.43,3.33c-1.33-1.24-3.95-3.19-5.9-4.52l3.33-2.95Z" style="fill: #fff;"/>
      </g>
      <g>
        <path d="M42.48,99.01v-18.79h3.82v15.59h9.51v3.19h-13.33Z" style="fill: #fff;"/>
        <path d="M58.51,83.42v-3.36h3.63v3.36h-3.63ZM58.51,99.01v-13.72h3.63v13.72h-3.63Z" style="fill: #fff;"/>
        <path d="M78.34,99.01h-3.63v-7c0-1.48-.08-2.44-.23-2.87s-.41-.77-.76-1.01c-.35-.24-.77-.36-1.26-.36-.63,0-1.19.17-1.69.52s-.84.8-1.03,1.37-.28,1.62-.28,3.15v6.21h-3.63v-13.72h3.37v2.02c1.2-1.55,2.7-2.33,4.52-2.33.8,0,1.53.14,2.2.43s1.16.66,1.51,1.1c.34.45.58.96.71,1.52s.2,1.38.2,2.44v8.53Z" style="fill: #fff;"/>
        <path d="M89.97,94.64l3.62.61c-.47,1.33-1.2,2.34-2.2,3.03s-2.26,1.04-3.77,1.04c-2.39,0-4.15-.78-5.3-2.34-.9-1.25-1.36-2.82-1.36-4.73,0-2.27.59-4.05,1.78-5.34s2.69-1.93,4.51-1.93c2.04,0,3.65.68,4.83,2.02,1.18,1.35,1.74,3.41,1.69,6.19h-9.1c.03,1.08.32,1.92.88,2.51.56.6,1.26.9,2.09.9.57,0,1.05-.16,1.43-.47s.68-.81.88-1.5ZM90.17,90.97c-.03-1.05-.3-1.85-.81-2.39-.52-.55-1.15-.82-1.89-.82-.79,0-1.45.29-1.96.87-.52.58-.77,1.36-.76,2.35h5.43Z" style="fill: #fff;"/>
        <path d="M103.14,92.84l3.72-.36c.22,1.25.68,2.17,1.36,2.75.69.59,1.61.88,2.77.88,1.23,0,2.16-.26,2.78-.78s.94-1.13.94-1.83c0-.45-.13-.83-.39-1.14-.26-.31-.72-.59-1.38-.82-.45-.16-1.47-.43-3.06-.83-2.05-.51-3.49-1.13-4.31-1.87-1.16-1.04-1.74-2.31-1.74-3.81,0-.96.27-1.87.82-2.7.55-.84,1.33-1.48,2.36-1.92,1.03-.44,2.27-.66,3.73-.66,2.38,0,4.17.52,5.37,1.56,1.2,1.04,1.83,2.43,1.89,4.17l-3.82.17c-.16-.97-.52-1.67-1.05-2.1-.54-.43-1.35-.64-2.42-.64s-1.98.23-2.61.69c-.4.29-.61.69-.61,1.17,0,.45.19.83.57,1.15.48.4,1.65.83,3.51,1.27s3.24.89,4.13,1.36c.89.47,1.59,1.11,2.09,1.93.5.81.76,1.82.76,3.02,0,1.09-.3,2.1-.9,3.05s-1.46,1.65-2.56,2.11c-1.1.46-2.48.69-4.12.69-2.39,0-4.23-.55-5.52-1.66-1.28-1.11-2.05-2.72-2.3-4.84Z" style="fill: #fff;"/>
        <path d="M130.25,99.01h-3.63v-13.68c-1.33,1.24-2.89,2.16-4.69,2.75v-3.29c.95-.31,1.98-.9,3.09-1.76s1.87-1.87,2.29-3.03h2.95v19.02Z" style="fill: #fff;"/>
      </g>
    </g>
  </g>
  <g id="c">
    <rect x="0" y="110" width="175" height="40" style="fill: #b25921;"/>
  </g>
</svg>