<?xml version="1.0" encoding="UTF-8"?>
<svg xmlns="http://www.w3.org/2000/svg" viewBox="0 0 175 150">
  <g id="a">
    <g>
      <g>
        <path d="M123.36,44.19v5.14h-27l-1.14,3.57h22.9s-.14,1.62-.28,2.38c-.95,7.38-2.1,10.95-3.81,12.57-1.43,1.33-3,1.67-5.24,1.81-1.81.09-4.95.14-8.24-.05-.09-1.62-.95-3.91-2-5.43,3.19.29,6.71.33,8.19.33,1.05,0,1.67-.05,2.29-.43.9-.67,1.62-2.57,2.24-6h-24.42c1-2.33,2.14-5.62,3.09-8.76h-8.95v-5.14h42.37ZM117.88,26.81v14.38h-31.23v-14.38h31.23ZM92.36,36.24h19.43v-4.43h-19.43v4.43Z" style="fill: #fff;"/>
        <path d="M127.8,40.67c1-.29,1.81-1.24,2.86-2.76,1.05-1.47,4.33-7.23,6.05-12.66l5.33,2.57c-1.86,4.24-4.48,8.71-7.14,12.33l4.05-.29c1-1.62,1.95-3.33,2.81-5.05l4.62,2.9c-2.57,4.48-5.71,8.95-9,12.81l7.52-1.24c-.14,1.43-.24,3.62-.14,4.76-11.62,2.24-13.57,2.81-14.81,3.52-.29-1.05-1.14-3.62-1.76-5,1.24-.29,2.33-1.33,3.81-3.09.76-.76,2.14-2.48,3.71-4.71-4.19.52-5.33.81-6.09,1.19-.29-1.1-1.19-3.81-1.81-5.28ZM144.56,57.38l.9,4.71c-5.47,1.95-11.28,4-15.95,5.57l-1.14-5.43c4-1.05,10.24-2.95,16.19-4.86ZM171.94,51.05c-2.29,3.57-5.14,6.66-8.43,9.38,1,2.48,2.19,3.91,3.38,3.91.9,0,1.33-1.19,1.57-5.05,1.1,1.33,2.76,2.52,4,3.14-.9,5.9-2.43,7.43-6.24,7.43-3.05,0-5.48-2.33-7.33-6.14-3.52,2.24-7.43,4.05-11.52,5.52-.71-1.47-2.14-3.43-3.43-4.76,4.67-1.38,9.14-3.28,13.05-5.76-.76-2.62-1.43-5.57-1.95-8.76l-8.47,1.57-.95-5.1,8.76-1.57-.48-4.57-6.33,1-.9-5.14,6.9-1.05c-.19-3.33-.28-6.76-.28-10.09h5.71c-.05,3.09,0,6.19.14,9.24l10.24-1.57.95,5-10.86,1.72.43,4.48,10.71-1.95.95,4.95-11,2.05c.38,2.24.81,4.33,1.24,6.19,2.09-1.86,3.91-3.91,5.33-6.19l4.81,2.14ZM163.08,25.62c1.9,1.09,4.62,2.95,6,4.14l-3.43,3.33c-1.33-1.24-3.95-3.19-5.9-4.52l3.33-2.95Z" style="fill: #fff;"/>
      </g>
      <g>
        <path d="M88.07,99.01v-18.78h3.82v15.59h9.51v3.19h-13.33Z" style="fill: #fff;"/>
        <path d="M104.11,83.43v-3.36h3.63v3.36h-3.63ZM104.11,99.01v-13.72h3.63v13.72h-3.63Z" style="fill: #fff;"/>
        <path d="M123.94,99.01h-3.63v-7c0-1.48-.08-2.44-.23-2.87-.16-.43-.41-.77-.76-1.01-.35-.24-.77-.36-1.26-.36-.63,0-1.19.17-1.69.52s-.84.8-1.03,1.37c-.18.57-.28,1.62-.28,3.15v6.21h-3.63v-13.72h3.37v2.02c1.2-1.55,2.7-2.33,4.52-2.33.8,0,1.53.14,2.2.43.66.29,1.16.66,1.51,1.1.34.45.58.96.71,1.52.13.57.2,1.38.2,2.44v8.53Z" style="fill: #fff;"/>
        <path d="M135.56,94.64l3.62.61c-.47,1.33-1.2,2.34-2.2,3.03-1,.69-2.26,1.04-3.77,1.04-2.39,0-4.15-.78-5.3-2.34-.9-1.25-1.36-2.82-1.36-4.73,0-2.27.6-4.05,1.78-5.34,1.19-1.29,2.69-1.93,4.51-1.93,2.04,0,3.65.67,4.83,2.02,1.18,1.35,1.74,3.41,1.69,6.19h-9.1c.03,1.08.32,1.91.88,2.51.56.6,1.26.9,2.09.9.57,0,1.05-.16,1.43-.47s.68-.81.88-1.5ZM135.77,90.97c-.03-1.05-.3-1.85-.81-2.4-.52-.55-1.15-.82-1.89-.82-.79,0-1.45.29-1.96.87s-.77,1.36-.76,2.35h5.43Z" style="fill: #fff;"/>
        <path d="M159.37,88.79c-.94-.4-1.62-.94-2.05-1.63-.43-.69-.64-1.45-.64-2.28,0-1.41.49-2.58,1.48-3.5.99-.92,2.39-1.38,4.2-1.38s3.2.46,4.19,1.38,1.49,2.09,1.49,3.5c0,.88-.23,1.66-.68,2.34-.46.69-1.1,1.21-1.92,1.57,1.05.42,1.85,1.04,2.39,1.85.55.81.82,1.74.82,2.8,0,1.75-.56,3.17-1.67,4.26-1.12,1.09-2.6,1.64-4.45,1.64-1.72,0-3.16-.45-4.3-1.36-1.35-1.07-2.03-2.53-2.03-4.39,0-1.02.25-1.97.76-2.82.51-.86,1.31-1.52,2.4-1.98ZM159.78,93.25c0,1,.26,1.78.77,2.34.51.56,1.15.84,1.92.84s1.37-.27,1.86-.81c.49-.54.74-1.32.74-2.33,0-.89-.25-1.6-.75-2.14-.5-.54-1.13-.81-1.9-.81-.89,0-1.55.31-1.98.92-.44.61-.65,1.27-.65,1.99ZM160.12,85.13c0,.72.2,1.29.61,1.69.41.4.95.61,1.63.61s1.24-.2,1.65-.61c.41-.41.62-.98.62-1.7,0-.68-.2-1.22-.61-1.63-.41-.41-.95-.61-1.62-.61s-1.25.21-1.67.62-.62.96-.62,1.64Z" style="fill: #fff;"/>
      </g>
      <path d="M17.19,58.97c-2.17-.72-10.84-4.03-10.84-15.17,0-9.8,7.22-18.99,21.67-18.99s21.88,9.39,21.88,19.19c0,7.53-4.54,12.59-10.63,15.07,13.31,4.64,13.31,16.3,13.31,18.78,0,12.59-9.49,22.39-24.15,22.39S3.98,91.27,3.98,77.85c0-6.5,2.79-15.69,13.21-18.68v-.2ZM28.44,90.86c6.5,0,12.59-4.54,12.59-13.31,0-8.15-5.57-13.62-12.9-13.62-8.87,0-12.69,7.53-12.69,13.52,0,6.81,4.64,13.42,13,13.42ZM28.13,54.74c5.26,0,10.52-3.41,10.52-10.22,0-6.19-4.44-10.32-10.52-10.32s-10.53,4.13-10.53,10.21c0,6.81,5.16,10.32,10.53,10.32Z" style="fill: #fff;"/>
    </g>
  </g>
  <g id="c">
    <rect x="0" y="110" width="175" height="40" style="fill: #009b6b;"/>
  </g>
</svg>