<?xml version="1.0" encoding="UTF-8"?>
<svg xmlns="http://www.w3.org/2000/svg" viewBox="0 0 250 150">
  <g id="a">
    <g>
      <g>
        <path d="M20.79,24.81c1.76,1.67,3.71,4,4.67,5.67l-2.14,1.1h11c1.33-2,2.81-4.52,3.62-6.52l6.57,1.43c-1.24,1.81-2.57,3.57-3.81,5.09h10.71v5.28h-18.14l-1.33,2.9h14.43v30.14h-5.95v-2.24h-21.76v2.24h-5.71v-30.14h12.67l.76-2.9H8.22v-5.28h10.95c-.95-1.48-2.24-3.19-3.48-4.48l5.09-2.29ZM40.41,47.62v-2.9h-21.76v2.9h21.76ZM18.65,55.09h21.76v-3.1h-21.76v3.1ZM18.65,62.71h21.76v-3.24h-21.76v3.24Z" style="fill: #fff;"/>
        <path d="M95.03,27.81l.86-.19,4.14,2.57c-1.71,4.57-3.86,10-5.76,14.19,4.05,4.28,4.86,8.05,4.86,11.14,0,3.57-.76,5.9-2.67,7.19-.9.67-2.09,1.05-3.38,1.24-1.14.14-2.67.19-4.14.09-.05-1.57-.62-4-1.48-5.52,1.19.09,2.19.09,3,.09.76-.05,1.48-.14,2-.48.86-.48,1.19-1.62,1.19-3.24,0-2.62-1.1-6.09-4.95-9.81,1.38-3.43,3-8.24,4.14-11.9h-6v36.66h-5.62V28.95c-1.38,3.62-3.09,7-5.09,10.09h3.57v4.95h-7.09c-1,1.24-2.05,2.38-3.14,3.52h8.62v21.57h-5.43v-1.81h-7.71v2.48h-5.19v-14.47l-2.38,1.38c-.62-1.19-2.24-3.62-3.24-4.76,4.24-2,8.09-4.67,11.38-7.9h-10.19v-4.95h8.33v-3.91h-6.24v-4.95h6.24v-4.67h5.28v4.67h4.9v2.43c.86-1.71,1.67-3.47,2.33-5.33l5.05,1.38v-.86h13.81ZM72.66,55.09v-3.05h-7.71v3.05h7.71ZM72.66,62.71v-3.33h-7.71v3.33h7.71ZM68.94,39.05h.9c.95-1.24,1.81-2.52,2.62-3.91h-3.52v3.91Z" style="fill: #fff;"/>
        <path d="M115.85,25.14v9.85h6.19v5.38h-6.19v2.86c1.62,1.71,5.81,6.76,6.76,8l-3.24,4.62c-.76-1.52-2.14-3.81-3.52-5.95v19.95h-5.48v-19.04c-1.52,4.29-3.43,8.19-5.52,10.86-.52-1.57-1.81-3.9-2.71-5.33,3.14-3.81,6-10.19,7.52-15.95h-6.33v-5.38h7.05v-9.85h5.48ZM141.56,27.91v33.8c0,1.29,0,1.95.14,2.14.14.19.33.28.52.28h.81c.24,0,.48-.09.62-.28.19-.24.24-.67.33-1.72.05-1.05.14-3.33.14-6.19,1.09.9,2.71,1.81,4.09,2.29-.05,2.57-.24,5.95-.52,7.33-.29,1.43-.76,2.33-1.57,2.95-.76.62-1.86.86-2.95.86h-2.67c-1.14,0-2.52-.43-3.33-1.29-.91-.95-1.29-2.1-1.29-6.19v-28.61h-5.95v10.05c0,8.09-1.1,19.57-8,26.47-.91-1.05-3.14-2.95-4.43-3.67,6.33-6.28,6.9-15.62,6.9-22.81v-15.43h17.14Z" style="fill: #fff;"/>
        <path d="M166.52,40.86c1.43-.24,3.19-1.24,5-2.43,1.24-.81,4.48-2.95,7.76-5.71h-12.67v-5.38h18.76l1.24-.48,4.05,3.24c-4.14,3.81-8.57,7.24-12.71,10h16.52s-.05,1.76-.14,2.43c-.95,16.43-1.9,22.62-3.62,24.71-1.1,1.48-2.29,2-3.86,2.19-1.33.24-3.38.28-5.62.24-.05-1.62-.67-3.91-1.57-5.38,1.86.19,3.52.24,4.38.24.76,0,1.24-.19,1.71-.81,1.1-1.19,2-6.14,2.71-18.28h-1.62c-2.9,10.62-8.05,18.9-15.09,24.09-.91-.86-3.1-2.38-4.33-3.1,7-4.38,11.67-11.81,14.19-21h-2.71c-1.95,6-5.48,10.9-9.67,14.09-.57-.52-1.62-1.33-2.62-2l.19.76c-5.05,2.09-10.52,4.28-14.9,6l-1.86-5.85c1.67-.48,3.67-1.14,5.86-1.86v-14.62h-5.19v-5.43h5.19v-10.71h5.33v10.71h4.71v5.43h-4.71v12.71l4.43-1.57.57,2.57c3.28-2.52,5.81-6.09,7.33-10.24h-.43c-1.91,0-3.86.28-4.29.71-.38-1.19-1.57-3.9-2.33-5.28Z" style="fill: #fff;"/>
        <path d="M198.15,40.67c1-.29,1.81-1.24,2.86-2.76,1.05-1.47,4.33-7.24,6.05-12.66l5.33,2.57c-1.86,4.24-4.48,8.71-7.14,12.33l4.05-.29c1-1.62,1.95-3.33,2.81-5.05l4.62,2.9c-2.57,4.48-5.71,8.95-9,12.81l7.52-1.24c-.14,1.43-.24,3.62-.14,4.76-11.62,2.24-13.57,2.81-14.81,3.52-.29-1.05-1.14-3.62-1.76-5,1.24-.29,2.33-1.33,3.81-3.1.76-.76,2.14-2.48,3.71-4.71-4.19.52-5.33.81-6.09,1.19-.29-1.1-1.19-3.81-1.81-5.28ZM214.91,57.38l.9,4.71c-5.47,1.95-11.28,4-15.95,5.57l-1.14-5.43c4-1.05,10.24-2.95,16.19-4.86ZM242.29,51.04c-2.29,3.57-5.14,6.67-8.43,9.38,1,2.48,2.19,3.91,3.38,3.91.9,0,1.33-1.19,1.57-5.05,1.1,1.33,2.76,2.52,4,3.14-.9,5.9-2.43,7.43-6.24,7.43-3.05,0-5.48-2.33-7.33-6.14-3.52,2.24-7.43,4.05-11.52,5.52-.71-1.48-2.14-3.43-3.43-4.76,4.67-1.38,9.14-3.28,13.05-5.76-.76-2.62-1.43-5.57-1.95-8.76l-8.47,1.57-.95-5.1,8.76-1.57-.48-4.57-6.33,1-.9-5.14,6.9-1.05c-.19-3.33-.28-6.76-.28-10.09h5.71c-.05,3.09,0,6.19.14,9.24l10.24-1.57.95,5-10.86,1.71.43,4.48,10.71-1.95.95,4.95-11,2.05c.38,2.24.81,4.33,1.24,6.19,2.09-1.86,3.91-3.91,5.33-6.19l4.81,2.14ZM233.43,25.62c1.9,1.1,4.62,2.95,6,4.14l-3.43,3.33c-1.33-1.24-3.95-3.19-5.9-4.52l3.33-2.95Z" style="fill: #fff;"/>
      </g>
      <g>
        <path d="M13.86,92.04l3.29,1.18c-.5,2.07-1.34,3.6-2.52,4.61-1.17,1-2.66,1.5-4.47,1.5-2.23,0-4.07-.86-5.5-2.58-1.44-1.72-2.16-4.07-2.16-7.05,0-3.15.72-5.6,2.17-7.34,1.45-1.74,3.34-2.62,5.7-2.62,2.06,0,3.73.69,5.01,2.05.76.81,1.34,1.97,1.72,3.49l-3.36.9c-.2-.98-.61-1.76-1.24-2.33s-1.4-.85-2.3-.85c-1.25,0-2.26.5-3.03,1.51-.78,1.01-1.16,2.64-1.16,4.9,0,2.39.38,4.1,1.15,5.12.76,1.02,1.76,1.52,2.98,1.52.9,0,1.68-.32,2.33-.97.65-.64,1.12-1.66,1.4-3.05Z" style="fill: #fff;"/>
        <path d="M21.86,89.47l-2.92-.59c.33-1.33.89-2.31,1.7-2.95s1.99-.96,3.58-.96c1.44,0,2.51.19,3.21.58.7.38,1.2.87,1.48,1.46.29.59.43,1.67.43,3.25l-.03,4.24c0,1.21.05,2.09.16,2.67.1.57.3,1.19.58,1.84h-3.19c-.08-.24-.19-.6-.31-1.07-.05-.21-.09-.36-.11-.43-.55.6-1.14,1.06-1.77,1.36-.63.3-1.3.45-2.01.45-1.25,0-2.24-.38-2.96-1.15-.72-.77-1.08-1.74-1.08-2.91,0-.78.16-1.47.49-2.07.33-.61.79-1.07,1.38-1.4.59-.32,1.45-.6,2.56-.85,1.51-.32,2.55-.61,3.13-.89v-.36c0-.7-.15-1.2-.46-1.49-.31-.3-.88-.45-1.73-.45-.57,0-1.02.13-1.34.38s-.58.7-.78,1.34ZM26.17,92.42c-.41.16-1.07.34-1.96.55-.89.22-1.48.43-1.75.63-.42.34-.63.76-.63,1.28s.17.95.5,1.32c.34.37.76.55,1.28.55.58,0,1.14-.22,1.66-.65.39-.33.65-.73.77-1.2.08-.31.13-.9.13-1.77v-.72Z" style="fill: #fff;"/>
        <path d="M31.83,85.29h3v2.02c.39-.69.92-1.25,1.58-1.68.66-.43,1.4-.65,2.21-.65,1.41,0,2.61.62,3.6,1.87.99,1.25,1.48,2.99,1.48,5.22s-.5,4.07-1.49,5.34c-.99,1.27-2.2,1.91-3.61,1.91-.67,0-1.28-.15-1.83-.45-.55-.3-1.12-.82-1.73-1.55v6.91h-3.22v-18.94ZM35.02,91.92c0,1.54.27,2.68.81,3.42.54.74,1.2,1.1,1.98,1.1s1.37-.34,1.87-1.01.75-1.78.75-3.33c0-1.44-.26-2.5-.77-3.2-.51-.7-1.15-1.05-1.9-1.05s-1.44.34-1.96,1.03c-.52.69-.78,1.7-.78,3.04Z" style="fill: #fff;"/>
        <path d="M45.68,83.43v-3.36h3.22v3.36h-3.22ZM45.68,99.01v-13.72h3.22v13.72h-3.22Z" style="fill: #fff;"/>
        <path d="M57.2,85.29v2.89h-2.2v5.53c0,1.12.02,1.77.06,1.96.04.19.14.34.29.46s.33.18.55.18c.3,0,.73-.12,1.3-.35l.28,2.82c-.75.36-1.6.54-2.55.54-.58,0-1.11-.11-1.57-.33-.47-.22-.81-.5-1.03-.85-.22-.35-.37-.82-.45-1.41-.07-.42-.1-1.27-.1-2.56v-5.98h-1.48v-2.89h1.48v-2.73l3.23-2.12v4.84h2.2Z" style="fill: #fff;"/>
        <path d="M61.26,89.47l-2.92-.59c.33-1.33.89-2.31,1.7-2.95s1.99-.96,3.58-.96c1.44,0,2.51.19,3.21.58.7.38,1.2.87,1.48,1.46.29.59.43,1.67.43,3.25l-.03,4.24c0,1.21.05,2.09.16,2.67.1.57.3,1.19.58,1.84h-3.19c-.08-.24-.19-.6-.31-1.07-.05-.21-.09-.36-.11-.43-.55.6-1.14,1.06-1.77,1.36-.63.3-1.3.45-2.01.45-1.25,0-2.24-.38-2.96-1.15-.72-.77-1.08-1.74-1.08-2.91,0-.78.16-1.47.49-2.07.33-.61.79-1.07,1.38-1.4.59-.32,1.45-.6,2.56-.85,1.51-.32,2.55-.61,3.13-.89v-.36c0-.7-.15-1.2-.46-1.49-.31-.3-.88-.45-1.73-.45-.57,0-1.02.13-1.34.38s-.58.7-.78,1.34ZM65.57,92.42c-.41.16-1.07.34-1.96.55-.89.22-1.48.43-1.75.63-.42.34-.63.76-.63,1.28s.17.95.5,1.32c.34.37.76.55,1.28.55.58,0,1.14-.22,1.66-.65.39-.33.65-.73.77-1.2.08-.31.13-.9.13-1.77v-.72Z" style="fill: #fff;"/>
        <path d="M71.33,99.01v-18.94h3.22v18.94h-3.22Z" style="fill: #fff;"/>
        <path d="M97.52,99.01h-3.69l-1.47-4.3h-6.72l-1.39,4.3h-3.6l6.55-18.94h3.59l6.73,18.94ZM91.27,91.51l-2.32-7.03-2.27,7.03h4.59Z" style="fill: #fff;"/>
        <path d="M98.71,83.43v-3.36h3.22v3.36h-3.22ZM98.71,99.01v-13.72h3.22v13.72h-3.22Z" style="fill: #fff;"/>
        <path d="M107.73,99.01h-3.22v-13.72h2.99v1.95c.51-.92.97-1.53,1.38-1.82s.87-.44,1.39-.44c.73,0,1.44.23,2.12.69l-1,3.16c-.54-.4-1.05-.59-1.51-.59s-.83.14-1.15.42c-.31.28-.56.79-.74,1.52-.18.73-.27,2.27-.27,4.6v4.24Z" style="fill: #fff;"/>
        <path d="M113.1,85.29h3v2.02c.39-.69.92-1.25,1.58-1.68.66-.43,1.4-.65,2.21-.65,1.41,0,2.61.62,3.6,1.87.99,1.25,1.48,2.99,1.48,5.22s-.5,4.07-1.49,5.34-2.2,1.91-3.61,1.91c-.67,0-1.28-.15-1.83-.45-.55-.3-1.12-.82-1.73-1.55v6.91h-3.22v-18.94ZM116.29,91.92c0,1.54.27,2.68.81,3.42.54.74,1.2,1.1,1.98,1.1s1.37-.34,1.87-1.01.75-1.78.75-3.33c0-1.44-.26-2.5-.77-3.2-.51-.7-1.15-1.05-1.9-1.05s-1.44.34-1.96,1.03c-.52.69-.78,1.7-.78,3.04Z" style="fill: #fff;"/>
        <path d="M126.21,91.95c0-1.21.26-2.37.79-3.5.53-1.13,1.27-1.99,2.24-2.58.97-.6,2.05-.89,3.24-.89,1.84,0,3.35.68,4.53,2.02s1.77,3.05,1.77,5.11-.6,3.8-1.78,5.16c-1.19,1.37-2.69,2.05-4.49,2.05-1.12,0-2.18-.28-3.19-.85s-1.78-1.4-2.31-2.5c-.53-1.1-.79-2.44-.79-4.01ZM129.51,92.15c0,1.36.29,2.4.86,3.13s1.28,1.09,2.12,1.09,1.55-.36,2.12-1.09c.57-.72.85-1.77.85-3.15s-.29-2.38-.85-3.1c-.57-.72-1.27-1.09-2.12-1.09s-1.55.36-2.12,1.09-.86,1.76-.86,3.12Z" style="fill: #fff;"/>
        <path d="M143.8,99.01h-3.22v-13.72h2.99v1.95c.51-.92.97-1.53,1.38-1.82s.87-.44,1.39-.44c.73,0,1.44.23,2.12.69l-1,3.16c-.54-.4-1.05-.59-1.51-.59s-.83.14-1.15.42c-.31.28-.56.79-.74,1.52-.18.73-.27,2.27-.27,4.6v4.24Z" style="fill: #fff;"/>
        <path d="M154.85,85.29v2.89h-2.2v5.53c0,1.12.02,1.77.06,1.96.04.19.14.34.29.46s.33.18.55.18c.3,0,.73-.12,1.3-.35l.28,2.82c-.75.36-1.6.54-2.55.54-.58,0-1.11-.11-1.57-.33-.47-.22-.81-.5-1.03-.85-.22-.35-.37-.82-.45-1.41-.07-.42-.1-1.27-.1-2.56v-5.98h-1.48v-2.89h1.48v-2.73l3.23-2.12v4.84h2.2Z" style="fill: #fff;"/>
        <path d="M162.46,99.01v-18.94h12.47v3.2h-9.07v4.2h8.44v3.19h-8.44v5.15h9.39v3.19h-12.79Z" style="fill: #fff;"/>
        <path d="M175.97,99.01l4.39-7.07-4.21-6.65h3.93l2.16,3.77,2.27-3.77h3.78l-4.13,6.5,4.51,7.22h-3.96l-2.48-4.25-2.5,4.25h-3.77Z" style="fill: #fff;"/>
        <path d="M189.9,85.29h3v2.02c.39-.69.92-1.25,1.58-1.68s1.4-.65,2.21-.65c1.42,0,2.61.62,3.6,1.87.99,1.25,1.48,2.99,1.48,5.22s-.5,4.07-1.49,5.34c-.99,1.27-2.2,1.91-3.61,1.91-.68,0-1.28-.15-1.83-.45-.55-.3-1.12-.82-1.73-1.55v6.91h-3.22v-18.94ZM193.09,91.92c0,1.54.27,2.68.81,3.42.54.74,1.21,1.1,1.98,1.1s1.37-.34,1.87-1.01.75-1.78.75-3.33c0-1.44-.26-2.5-.77-3.2-.51-.7-1.15-1.05-1.91-1.05s-1.44.34-1.96,1.03c-.52.69-.78,1.7-.78,3.04Z" style="fill: #fff;"/>
        <path d="M206.83,99.01h-3.22v-13.72h2.99v1.95c.51-.92.97-1.53,1.38-1.82.41-.29.87-.44,1.39-.44.73,0,1.44.23,2.12.69l-1,3.16c-.54-.4-1.05-.59-1.51-.59s-.83.14-1.15.42-.56.79-.74,1.52c-.18.73-.27,2.27-.27,4.6v4.24Z" style="fill: #fff;"/>
        <path d="M219.35,94.64l3.21.61c-.41,1.33-1.06,2.34-1.96,3.03-.89.69-2.01,1.04-3.34,1.04-2.12,0-3.68-.78-4.7-2.34-.8-1.25-1.21-2.82-1.21-4.73,0-2.27.53-4.05,1.58-5.34,1.05-1.29,2.39-1.93,4-1.93,1.81,0,3.24.68,4.29,2.02s1.55,3.41,1.5,6.19h-8.07c.02,1.08.28,1.92.78,2.51.5.6,1.12.9,1.86.9.5,0,.93-.16,1.27-.47s.6-.81.78-1.5ZM219.54,90.97c-.02-1.05-.27-1.85-.72-2.4s-1.02-.82-1.67-.82c-.7,0-1.29.29-1.74.87s-.68,1.36-.68,2.35h4.82Z" style="fill: #fff;"/>
        <path d="M223.64,95.09l3.23-.55c.14.71.42,1.24.84,1.61s1.01.55,1.77.55c.83,0,1.46-.17,1.88-.52.28-.24.42-.56.42-.97,0-.28-.08-.5-.23-.69-.16-.17-.52-.33-1.08-.48-2.6-.65-4.25-1.24-4.94-1.77-.96-.74-1.45-1.77-1.45-3.09,0-1.19.42-2.19,1.25-3s2.13-1.21,3.88-1.21,2.91.31,3.72.92c.81.61,1.37,1.52,1.67,2.71l-3.04.63c-.13-.53-.38-.94-.74-1.23-.36-.28-.88-.43-1.55-.43-.85,0-1.46.13-1.82.4-.25.19-.37.43-.37.74,0,.26.11.48.32.66.29.24,1.3.58,3.01,1.02s2.91.98,3.59,1.62c.67.64,1.01,1.55,1.01,2.7,0,1.26-.47,2.34-1.4,3.24-.93.9-2.31,1.36-4.14,1.36-1.66,0-2.97-.38-3.94-1.14s-1.6-1.79-1.9-3.09Z" style="fill: #fff;"/>
        <path d="M236.11,95.09l3.23-.55c.14.71.42,1.24.84,1.61s1.01.55,1.77.55c.83,0,1.46-.17,1.88-.52.28-.24.42-.56.42-.97,0-.28-.08-.5-.23-.69-.16-.17-.52-.33-1.08-.48-2.6-.65-4.25-1.24-4.94-1.77-.96-.74-1.45-1.77-1.45-3.09,0-1.19.42-2.19,1.25-3s2.13-1.21,3.88-1.21,2.91.31,3.72.92c.81.61,1.37,1.52,1.67,2.71l-3.04.63c-.13-.53-.38-.94-.74-1.23-.36-.28-.88-.43-1.55-.43-.85,0-1.46.13-1.82.4-.25.19-.37.43-.37.74,0,.26.11.48.32.66.29.24,1.3.58,3.01,1.02s2.91.98,3.59,1.62c.67.64,1.01,1.55,1.01,2.7,0,1.26-.47,2.34-1.4,3.24-.93.9-2.31,1.36-4.14,1.36-1.66,0-2.97-.38-3.94-1.14-.97-.76-1.6-1.79-1.9-3.09Z" style="fill: #fff;"/>
      </g>
    </g>
  </g>
  <g id="c">
    <rect y="110" width="250" height="40" style="fill: #a29bbb;"/>
  </g>
</svg>