<?xml version="1.0" encoding="UTF-8"?>
<svg xmlns="http://www.w3.org/2000/svg" viewBox="0 0 175 150">
  <g id="a">
    <g>
      <g>
        <path d="M123.36,44.19v5.14h-27l-1.14,3.57h22.9s-.14,1.62-.29,2.38c-.95,7.38-2.1,10.95-3.81,12.57-1.43,1.33-3,1.67-5.24,1.81-1.81.1-4.95.14-8.24-.05-.09-1.62-.95-3.91-2-5.43,3.19.29,6.71.33,8.19.33,1.05,0,1.67-.05,2.29-.43.9-.66,1.62-2.57,2.24-6h-24.42c1-2.33,2.14-5.62,3.09-8.76h-8.95v-5.14h42.37ZM117.88,26.81v14.38h-31.23v-14.38h31.23ZM92.36,36.24h19.43v-4.43h-19.43v4.43Z" style="fill: #fff;"/>
        <path d="M127.8,40.67c1-.29,1.81-1.24,2.86-2.76,1.05-1.47,4.33-7.24,6.05-12.66l5.33,2.57c-1.86,4.24-4.48,8.71-7.14,12.33l4.05-.29c1-1.62,1.95-3.33,2.81-5.05l4.62,2.9c-2.57,4.48-5.71,8.95-9,12.81l7.52-1.24c-.14,1.43-.24,3.62-.14,4.76-11.62,2.24-13.57,2.81-14.81,3.52-.29-1.05-1.14-3.62-1.76-5,1.24-.29,2.33-1.33,3.81-3.1.76-.76,2.14-2.48,3.71-4.71-4.19.52-5.33.81-6.09,1.19-.29-1.1-1.19-3.81-1.81-5.28ZM144.56,57.38l.9,4.71c-5.48,1.95-11.28,4-15.95,5.57l-1.14-5.43c4-1.05,10.24-2.95,16.19-4.86ZM171.94,51.05c-2.29,3.57-5.14,6.66-8.43,9.38,1,2.48,2.19,3.9,3.38,3.9.9,0,1.33-1.19,1.57-5.05,1.1,1.33,2.76,2.52,4,3.14-.9,5.9-2.43,7.43-6.24,7.43-3.05,0-5.48-2.33-7.33-6.14-3.52,2.24-7.43,4.05-11.52,5.52-.71-1.48-2.14-3.43-3.43-4.76,4.67-1.38,9.14-3.29,13.05-5.76-.76-2.62-1.43-5.57-1.95-8.76l-8.47,1.57-.95-5.1,8.76-1.57-.48-4.57-6.33,1-.9-5.14,6.9-1.05c-.19-3.33-.29-6.76-.29-10.09h5.71c-.05,3.09,0,6.19.14,9.24l10.24-1.57.95,5-10.86,1.71.43,4.48,10.71-1.95.95,4.95-11,2.05c.38,2.24.81,4.33,1.24,6.19,2.09-1.86,3.9-3.9,5.33-6.19l4.81,2.14ZM163.08,25.62c1.9,1.09,4.62,2.95,6,4.14l-3.43,3.33c-1.33-1.24-3.95-3.19-5.9-4.52l3.33-2.95Z" style="fill: #fff;"/>
      </g>
      <g>
        <path d="M88.07,99.01v-18.78h3.82v15.59h9.51v3.19h-13.33Z" style="fill: #fff;"/>
        <path d="M104.1,83.43v-3.36h3.63v3.36h-3.63ZM104.1,99.01v-13.72h3.63v13.72h-3.63Z" style="fill: #fff;"/>
        <path d="M123.94,99.01h-3.63v-7c0-1.48-.08-2.44-.23-2.87-.16-.43-.41-.77-.76-1.01-.35-.24-.77-.36-1.26-.36-.63,0-1.19.17-1.69.52s-.84.8-1.03,1.37-.28,1.62-.28,3.15v6.21h-3.63v-13.72h3.37v2.02c1.2-1.55,2.7-2.33,4.52-2.33.8,0,1.53.14,2.2.43.66.29,1.16.66,1.51,1.11.34.45.58.96.71,1.52s.2,1.38.2,2.44v8.53Z" style="fill: #fff;"/>
        <path d="M135.56,94.64l3.62.61c-.47,1.33-1.2,2.34-2.2,3.03-1,.69-2.26,1.04-3.77,1.04-2.39,0-4.15-.78-5.3-2.34-.9-1.25-1.36-2.82-1.36-4.73,0-2.27.59-4.05,1.78-5.34,1.19-1.29,2.69-1.93,4.51-1.93,2.04,0,3.65.68,4.83,2.02,1.18,1.35,1.74,3.41,1.69,6.19h-9.1c.03,1.08.32,1.92.88,2.51.56.6,1.26.9,2.09.9.57,0,1.05-.16,1.43-.47s.68-.81.88-1.5ZM135.77,90.97c-.03-1.05-.3-1.85-.81-2.4-.52-.55-1.15-.82-1.89-.82-.79,0-1.45.29-1.96.86s-.77,1.36-.76,2.35h5.43Z" style="fill: #fff;"/>
        <path d="M156.34,94.63l3.51-.39c.09.71.31,1.24.67,1.59s.84.52,1.43.52c.75,0,1.39-.34,1.91-1.03s.86-2.12,1.01-4.29c-.91,1.06-2.05,1.59-3.42,1.59-1.49,0-2.78-.58-3.86-1.73-1.08-1.15-1.62-2.65-1.62-4.49s.57-3.47,1.71-4.64c1.14-1.18,2.6-1.76,4.36-1.76,1.92,0,3.5.74,4.73,2.23,1.23,1.48,1.85,3.93,1.85,7.33s-.64,5.96-1.92,7.49c-1.28,1.53-2.95,2.3-5.01,2.3-1.48,0-2.68-.39-3.59-1.18-.91-.79-1.5-1.97-1.76-3.53ZM164.55,86.7c0-1.17-.27-2.08-.81-2.73-.54-.65-1.16-.97-1.87-.97s-1.23.26-1.67.79c-.44.53-.67,1.4-.67,2.6s.24,2.12.72,2.69c.48.57,1.09.86,1.81.86s1.29-.28,1.76-.83c.48-.55.72-1.36.72-2.43Z" style="fill: #fff;"/>
      </g>
      <path d="M15.96,80.74c.41,2.27,1.65,10.11,10.42,10.11s11.45-7.74,12.49-11.35c.93-3.3,2.06-8.36,2.06-13.52h-.21c-2.06,2.99-7.33,8.05-15.58,8.05-11.14,0-21.57-8.98-21.57-24.25s9.6-24.97,23.32-24.97c10.42,0,17.03,5.78,20.43,11.76,2.79,4.95,5.37,11.76,5.37,24.87,0,7.02-.2,38.8-26.93,38.8-5.37,0-12.69-1.65-16.82-7.64-3.1-4.44-3.61-8.25-4.02-10.73l11.04-1.14ZM27.2,34.2c-7.84,0-12.18,7.53-12.18,15.68,0,8.67,4.85,14.96,12.49,14.96,8.26,0,12.18-7.02,12.18-14.55,0-7.95-4.23-16.1-12.49-16.1Z" style="fill: #fff;"/>
    </g>
  </g>
  <g id="c">
    <rect x="0" y="110" width="175" height="40" style="fill: #8fc31f;"/>
  </g>
</svg>