<?xml version="1.0" encoding="UTF-8"?>
<svg xmlns="http://www.w3.org/2000/svg" viewBox="0 0 175 150">
  <g id="a">
    <g>
      <g>
        <path d="M58.82,27.76v5.52h-13.57v5.14h11.9v31.19h-5.81v-2.62h-27.38v2.71h-5.52v-31.28h11.24v-5.14h-13.66v-5.52h42.8ZM51.34,61.71v-5.9h-5.48c-5,0-6.05-1.57-6.05-7.05v-5.05h-5.1c-.28,5-2.09,10.28-8.86,13.38-.38-.62-1.14-1.62-1.9-2.48v7.09h27.38ZM29.63,43.71h-5.67v8.62c4.33-2.33,5.43-5.43,5.67-8.62ZM39.82,38.43v-5.14h-5.05v5.14h5.05ZM45.25,48.76c0,1.57.14,1.76,1.48,1.76h3.76c.43,0,.67-.05.86-.09v-6.71h-6.09v5.05Z" style="fill: #fff;"/>
        <path d="M73.54,46.47l4.62,4.48c.9-1.86,1.67-3.81,2.24-5.85l4.95,1.29c-1.57-2.33-3.71-5.05-5.57-7.19l3.1-2.33h-10.62l4.29,1.52c-2.09,4.09-5.38,8.66-8.29,11.52-.57-1.05-2.14-3.43-3.09-4.48,2.48-2.14,5-5.43,6.62-8.57h-5.48v-5.05h10.09c-.57-1.52-1.52-3.43-2.33-4.95l5.05-1.86c1.14,1.81,2.33,4.24,2.95,5.81l-2.48,1h10.43v5.05h-6c2.48,2.81,5.52,6.33,6.9,8.76l-4.05,3.33c-.33-.66-.81-1.47-1.33-2.28-.95,2.95-2.05,5.76-3.43,8.33,2.28,2.48,4.33,4.86,5.57,6.86l-3.67,4.28c-1.09-1.86-2.81-4.09-4.81-6.43-2.76,3.81-6.19,7.05-10.33,9.57-.76-1.14-2.57-3.19-3.71-4.09,4.19-2.38,7.67-5.71,10.38-9.62-1.81-1.91-3.62-3.81-5.33-5.43l3.33-3.67ZM104.59,27.43l.86-.24,4.09,2.57c-1.81,4.62-4.09,10.05-6.05,14.09,4.33,4.33,5.19,8.14,5.19,11.29,0,3.43-.86,5.81-2.76,7.05-.95.62-2.09,1-3.38,1.19-1.14.14-2.62.14-4.05.09-.05-1.52-.52-3.86-1.43-5.43,1.19.14,2.29.14,3.05.09.71,0,1.43-.09,1.95-.43.9-.52,1.24-1.67,1.24-3.24,0-2.67-1.24-6.09-5.43-9.9,1.52-3.52,3.28-8.52,4.57-12.19h-5.47v37.47h-5.24V27.43h12.86Z" style="fill: #fff;"/>
        <path d="M115.41,40.66c1-.29,1.81-1.24,2.86-2.76,1.05-1.48,4.33-7.24,6.05-12.67l5.33,2.57c-1.86,4.24-4.48,8.71-7.14,12.33l4.05-.29c1-1.62,1.95-3.33,2.81-5.05l4.62,2.9c-2.57,4.48-5.71,8.95-9,12.81l7.52-1.24c-.14,1.43-.24,3.62-.14,4.76-11.62,2.24-13.57,2.81-14.81,3.52-.29-1.05-1.14-3.62-1.76-5,1.24-.29,2.33-1.33,3.81-3.1.76-.76,2.14-2.48,3.71-4.71-4.19.52-5.33.81-6.09,1.19-.29-1.1-1.19-3.81-1.81-5.28ZM132.17,57.37l.9,4.71c-5.48,1.95-11.28,4-15.95,5.57l-1.14-5.43c4-1.05,10.24-2.95,16.19-4.86ZM159.54,51.04c-2.29,3.57-5.14,6.67-8.43,9.38,1,2.48,2.19,3.9,3.38,3.9.9,0,1.33-1.19,1.57-5.05,1.1,1.33,2.76,2.52,4,3.14-.9,5.9-2.43,7.43-6.24,7.43-3.05,0-5.47-2.33-7.33-6.14-3.52,2.24-7.43,4.05-11.52,5.52-.71-1.48-2.14-3.43-3.43-4.76,4.67-1.38,9.14-3.28,13.05-5.76-.76-2.62-1.43-5.57-1.95-8.76l-8.47,1.57-.95-5.09,8.76-1.57-.48-4.57-6.33,1-.9-5.14,6.9-1.05c-.19-3.33-.29-6.76-.29-10.09h5.71c-.05,3.1,0,6.19.14,9.24l10.24-1.57.95,5-10.86,1.71.43,4.48,10.71-1.95.95,4.95-11,2.05c.38,2.24.81,4.33,1.24,6.19,2.09-1.86,3.9-3.9,5.33-6.19l4.81,2.14ZM150.69,25.62c1.91,1.1,4.62,2.95,6,4.14l-3.43,3.33c-1.33-1.24-3.95-3.19-5.9-4.52l3.33-2.95Z" style="fill: #fff;"/>
      </g>
      <g>
        <path d="M21.34,99.01l6.47-9.88-5.87-9.06h4.47l3.8,6.08,3.72-6.08h4.43l-5.89,9.2,6.47,9.74h-4.61l-4.2-6.55-4.21,6.55h-4.59Z" style="fill: #fff;"/>
        <path d="M40.89,83.43v-3.36h3.63v3.36h-3.63ZM40.89,99.01v-13.72h3.63v13.72h-3.63Z" style="fill: #fff;"/>
        <path d="M51.79,85.29v13.29c0,1.75-.12,2.98-.34,3.7-.23.72-.67,1.28-1.32,1.69-.65.4-1.48.61-2.49.61-.36,0-.75-.03-1.17-.1-.42-.06-.87-.16-1.35-.29l.63-3.1c.17.03.33.06.49.08.15.02.29.03.42.03.37,0,.67-.08.91-.24.24-.16.39-.35.47-.58s.12-.9.12-2.02v-13.09h3.63ZM48.16,83.43v-3.36h3.63v3.36h-3.63Z" style="fill: #fff;"/>
        <path d="M55.59,83.43v-3.36h3.63v3.36h-3.63ZM55.59,99.01v-13.72h3.63v13.72h-3.63Z" style="fill: #fff;"/>
        <path d="M65.65,89.47l-3.29-.59c.37-1.33,1.01-2.31,1.91-2.95s2.25-.96,4.03-.96c1.62,0,2.82.19,3.62.58.79.38,1.35.87,1.67,1.46.32.59.48,1.67.48,3.25l-.04,4.24c0,1.21.06,2.1.17,2.67.12.57.33,1.19.65,1.84h-3.59c-.09-.24-.21-.6-.35-1.07-.06-.22-.1-.36-.13-.43-.62.6-1.28,1.05-1.99,1.36s-1.46.45-2.26.45c-1.41,0-2.53-.38-3.34-1.15-.81-.77-1.22-1.73-1.22-2.91,0-.78.19-1.47.56-2.07.37-.61.89-1.07,1.56-1.4.67-.32,1.63-.6,2.89-.85,1.7-.32,2.87-.62,3.53-.89v-.36c0-.7-.17-1.19-.52-1.49-.34-.3-.99-.45-1.95-.45-.65,0-1.15.13-1.51.38-.36.25-.65.7-.88,1.34ZM70.51,92.42c-.47.16-1.2.34-2.21.55s-1.67.43-1.98.63c-.47.34-.71.76-.71,1.28s.19.95.57,1.32.86.56,1.45.56c.65,0,1.28-.22,1.87-.65.44-.33.73-.73.87-1.2.09-.31.14-.9.14-1.77v-.72Z" style="fill: #fff;"/>
        <path d="M76.82,91.95c0-1.21.3-2.37.89-3.5s1.43-1.99,2.53-2.58c1.09-.59,2.31-.89,3.65-.89,2.08,0,3.78.67,5.1,2.02,1.33,1.35,1.99,3.05,1.99,5.11s-.67,3.8-2.01,5.16c-1.34,1.37-3.02,2.05-5.06,2.05-1.26,0-2.46-.28-3.6-.85-1.14-.57-2.01-1.4-2.6-2.5-.59-1.1-.89-2.44-.89-4.01ZM80.54,92.15c0,1.36.32,2.4.97,3.13s1.44,1.09,2.39,1.09,1.74-.36,2.38-1.09c.64-.72.96-1.77.96-3.15s-.32-2.38-.96-3.1c-.64-.72-1.44-1.09-2.38-1.09s-1.74.36-2.39,1.09-.97,1.77-.97,3.13Z" style="fill: #fff;"/>
        <path d="M101.3,99.01v-18.78h3.82v15.59h9.51v3.19h-13.33Z" style="fill: #fff;"/>
        <path d="M117.33,83.43v-3.36h3.63v3.36h-3.63ZM117.33,99.01v-13.72h3.63v13.72h-3.63Z" style="fill: #fff;"/>
        <path d="M137.16,99.01h-3.63v-7c0-1.48-.08-2.44-.23-2.87-.16-.43-.41-.77-.76-1.01-.35-.24-.77-.36-1.26-.36-.63,0-1.19.17-1.69.52s-.84.8-1.03,1.37c-.18.57-.28,1.62-.28,3.15v6.21h-3.63v-13.72h3.37v2.02c1.2-1.55,2.7-2.33,4.52-2.33.8,0,1.53.14,2.2.43.66.29,1.16.66,1.51,1.1.34.45.58.96.71,1.52.13.57.2,1.38.2,2.44v8.53Z" style="fill: #fff;"/>
        <path d="M148.79,94.64l3.62.61c-.47,1.33-1.2,2.34-2.2,3.03-1,.69-2.26,1.04-3.77,1.04-2.39,0-4.15-.78-5.3-2.34-.9-1.25-1.36-2.82-1.36-4.73,0-2.27.59-4.05,1.78-5.34,1.19-1.29,2.69-1.93,4.51-1.93,2.04,0,3.65.67,4.83,2.02,1.18,1.35,1.74,3.41,1.69,6.19h-9.1c.03,1.08.32,1.91.88,2.51.56.6,1.26.9,2.09.9.57,0,1.05-.16,1.43-.47s.68-.81.88-1.5ZM149,90.97c-.03-1.05-.3-1.85-.81-2.4-.52-.55-1.15-.82-1.89-.82-.79,0-1.45.29-1.96.87s-.77,1.36-.76,2.35h5.43Z" style="fill: #fff;"/>
      </g>
    </g>
  </g>
  <g id="c">
    <rect x="0" y="110" width="175" height="40" style="fill: #e6081b;"/>
  </g>
</svg>