<?xml version="1.0" encoding="UTF-8"?>
<svg xmlns="http://www.w3.org/2000/svg" viewBox="0 0 175 150">
  <g id="a">
    <g>
      <g>
        <path d="M26.96,43.47c-1.38,5.95-3.9,11.85-6.76,15.52-1.1-.9-3.57-2.48-4.95-3.19,2.81-3.19,4.9-8.33,6-13.48l5.71,1.14ZM38.35,24.67c1.29,2.05,2.86,4.86,3.62,6.62l-3.86,1.38h20.57v5.57h-11.71v24.9c0,3.05-.57,4.62-2.52,5.52-2,.9-4.81,1.05-8.76,1.05-.19-1.67-1.05-4.14-1.81-5.81,2.52.09,5.33.09,6.19.09.76,0,1.05-.19,1.05-.95v-24.81h-5.52v4.76c0,8.19-1.24,19.43-12.05,27.09-.95-1.29-3-3.33-4.38-4.29,9.67-6.57,10.62-16.05,10.62-22.85v-4.71h-13.47v-5.57h19.57c-.67-1.76-1.9-4.28-3-6.14l5.48-1.86ZM52.44,42.14c2.95,4.76,5.95,11,6.95,15.19l-5.38,2.52c-.9-4.14-3.71-10.62-6.52-15.57l4.95-2.14Z" style="fill: #fff;"/>
        <path d="M90.87,24.62c.86,1.81,2,4.19,2.52,5.76l-3,.86h18.76v5.28h-34.47v6.86c0,7.76-.62,19.23-4.52,26.66-1.14-.76-3.71-2.05-5.24-2.52,3.81-6.95,4.09-17.14,4.09-24.14v-12.14h18.14c-.48-1.52-1.29-3.52-2-5.09l5.71-1.52ZM94.68,38v7.95h12.09v5.48h-12.09v11.62h14.57v5.43h-34.76v-5.43h14.33v-11.62h-11.19v-5.48h11.19v-7.95h5.86Z" style="fill: #fff;"/>
        <path d="M115.41,40.66c1-.29,1.81-1.24,2.86-2.76,1.05-1.48,4.33-7.24,6.05-12.67l5.33,2.57c-1.86,4.24-4.48,8.71-7.14,12.33l4.05-.29c1-1.62,1.95-3.33,2.81-5.05l4.62,2.9c-2.57,4.48-5.71,8.95-9,12.81l7.52-1.24c-.14,1.43-.24,3.62-.14,4.76-11.62,2.24-13.57,2.81-14.81,3.52-.29-1.05-1.14-3.62-1.76-5,1.24-.29,2.33-1.33,3.81-3.09.76-.76,2.14-2.48,3.71-4.71-4.19.52-5.33.81-6.09,1.19-.29-1.1-1.19-3.81-1.81-5.28ZM132.17,57.38l.9,4.71c-5.47,1.95-11.28,4-15.95,5.57l-1.14-5.43c4-1.05,10.24-2.95,16.19-4.86ZM159.55,51.04c-2.29,3.57-5.14,6.66-8.43,9.38,1,2.48,2.19,3.9,3.38,3.9.9,0,1.33-1.19,1.57-5.05,1.1,1.33,2.76,2.52,4,3.14-.9,5.9-2.43,7.43-6.24,7.43-3.05,0-5.48-2.33-7.33-6.14-3.52,2.24-7.43,4.05-11.52,5.52-.71-1.47-2.14-3.43-3.43-4.76,4.67-1.38,9.14-3.28,13.05-5.76-.76-2.62-1.43-5.57-1.95-8.76l-8.47,1.57-.95-5.09,8.76-1.57-.48-4.57-6.33,1-.91-5.14,6.9-1.05c-.19-3.33-.28-6.76-.28-10.09h5.71c-.05,3.1,0,6.19.14,9.24l10.24-1.57.95,5-10.86,1.71.43,4.48,10.71-1.95.95,4.95-11,2.05c.38,2.24.81,4.33,1.24,6.19,2.09-1.86,3.91-3.9,5.33-6.19l4.81,2.14ZM150.69,25.62c1.9,1.09,4.62,2.95,6,4.14l-3.43,3.33c-1.33-1.24-3.95-3.19-5.9-4.52l3.33-2.95Z" style="fill: #fff;"/>
      </g>
      <g>
        <path d="M9.15,99.01v-7.97l-6.65-10.97h4.3l4.27,7.49,4.19-7.49h4.22l-6.67,11v7.94h-3.65Z" style="fill: #fff;"/>
        <path d="M20.34,83.43v-3.36h3.48v3.36h-3.48ZM20.34,99.01v-13.72h3.48v13.72h-3.48Z" style="fill: #fff;"/>
        <path d="M25.98,99.01v-2.83l4.93-5.9c.81-.96,1.41-1.65,1.8-2.05-.4.02-.94.04-1.6.05l-4.64.02v-3.01h10.87v2.57l-5.03,6.05-1.77,2c.96-.06,1.56-.09,1.79-.09h5.39v3.19h-11.74Z" style="fill: #fff;"/>
        <path d="M43.53,80.07v6.96c1.12-1.37,2.46-2.05,4.03-2.05.8,0,1.52.16,2.17.47s1.13.71,1.46,1.19.55,1.02.67,1.6c.12.59.18,1.49.18,2.73v8.05h-3.48v-7.25c0-1.44-.07-2.35-.2-2.74-.13-.39-.37-.69-.7-.92-.33-.23-.75-.34-1.26-.34-.58,0-1.09.14-1.55.44-.45.29-.79.74-1,1.32-.21.59-.32,1.46-.32,2.62v6.87h-3.48v-18.94h3.48Z" style="fill: #fff;"/>
        <path d="M64.21,99.01v-2.05c-.48.73-1.11,1.31-1.89,1.73-.78.42-1.6.63-2.47.63s-1.68-.2-2.38-.61c-.7-.41-1.21-.97-1.52-1.71-.31-.73-.47-1.74-.47-3.04v-8.68h3.48v6.3c0,1.93.06,3.11.19,3.55.13.43.36.78.7,1.03.34.25.77.38,1.29.38.59,0,1.13-.17,1.6-.51s.79-.76.97-1.27c.17-.5.26-1.74.26-3.7v-5.79h3.48v13.72h-3.23Z" style="fill: #fff;"/>
        <path d="M73.65,89.47l-3.16-.59c.35-1.33.96-2.31,1.83-2.95.87-.64,2.15-.96,3.86-.96,1.55,0,2.71.19,3.47.58s1.29.87,1.6,1.46c.31.59.47,1.67.47,3.25l-.04,4.24c0,1.21.06,2.1.17,2.67.11.57.32,1.19.63,1.84h-3.44c-.09-.24-.2-.6-.34-1.07-.06-.22-.1-.36-.12-.43-.6.6-1.23,1.05-1.91,1.36-.68.3-1.4.45-2.17.45-1.35,0-2.42-.38-3.2-1.15-.78-.76-1.17-1.73-1.17-2.91,0-.78.18-1.47.53-2.07.35-.61.85-1.07,1.49-1.4.64-.32,1.56-.6,2.77-.85,1.63-.32,2.75-.62,3.38-.89v-.36c0-.7-.17-1.19-.49-1.49-.33-.3-.95-.44-1.87-.44-.62,0-1.1.13-1.45.38s-.63.7-.84,1.34ZM78.31,92.42c-.44.16-1.15.34-2.12.56-.97.21-1.6.43-1.89.63-.45.34-.68.76-.68,1.28s.18.95.55,1.32c.36.37.83.56,1.39.56.63,0,1.23-.22,1.8-.65.42-.33.7-.73.83-1.2.09-.31.14-.9.14-1.77v-.72Z" style="fill: #fff;"/>
        <path d="M97.12,99.01h-3.48v-7c0-1.48-.07-2.44-.22-2.87-.15-.43-.39-.77-.73-1.01s-.74-.36-1.21-.36c-.6,0-1.14.17-1.62.52s-.81.8-.98,1.37-.27,1.62-.27,3.15v6.21h-3.48v-13.72h3.23v2.02c1.15-1.55,2.59-2.33,4.34-2.33.77,0,1.47.14,2.1.43.64.29,1.12.66,1.44,1.11.33.45.55.95.68,1.52s.19,1.38.19,2.44v8.53Z" style="fill: #fff;"/>
        <path d="M100.33,99.91l3.98.5c.07.48.22.81.46.99.33.26.85.39,1.56.39.91,0,1.59-.14,2.04-.43.3-.19.54-.49.69-.92.11-.3.16-.86.16-1.67v-2c-1.04,1.48-2.35,2.22-3.94,2.22-1.77,0-3.17-.78-4.2-2.34-.81-1.23-1.21-2.76-1.21-4.6,0-2.3.53-4.05,1.59-5.27,1.06-1.21,2.38-1.82,3.96-1.82s2.97.75,4.02,2.23v-1.92h3.26v12.31c0,1.62-.13,2.83-.38,3.63-.25.8-.61,1.43-1.08,1.89-.46.46-1.08.81-1.85,1.07s-1.75.39-2.93.39c-2.23,0-3.81-.4-4.74-1.19-.93-.8-1.4-1.81-1.4-3.03,0-.12,0-.27.01-.44ZM103.44,91.86c0,1.46.27,2.52.81,3.2s1.21,1.01,2,1.01c.85,0,1.57-.35,2.15-1.04.59-.69.88-1.72.88-3.08s-.28-2.48-.84-3.16-1.27-1.03-2.13-1.03-1.52.34-2.06,1.01c-.54.68-.81,1.71-.81,3.09Z" style="fill: #fff;"/>
        <path d="M123.31,99.01v-18.78h3.67v15.59h9.12v3.19h-12.78Z" style="fill: #fff;"/>
        <path d="M138.69,83.43v-3.36h3.48v3.36h-3.48ZM138.69,99.01v-13.72h3.48v13.72h-3.48Z" style="fill: #fff;"/>
        <path d="M157.7,99.01h-3.48v-7c0-1.48-.07-2.44-.22-2.87-.15-.43-.39-.77-.72-1.01s-.74-.36-1.21-.36c-.6,0-1.14.17-1.62.52s-.81.8-.99,1.37-.27,1.62-.27,3.15v6.21h-3.48v-13.72h3.23v2.02c1.15-1.55,2.59-2.33,4.33-2.33.77,0,1.47.14,2.11.43.64.29,1.12.66,1.44,1.11s.55.95.68,1.52c.13.57.19,1.38.19,2.44v8.53Z" style="fill: #fff;"/>
        <path d="M168.84,94.64l3.47.61c-.45,1.33-1.15,2.34-2.11,3.03-.96.69-2.17,1.04-3.61,1.04-2.29,0-3.98-.78-5.08-2.34-.87-1.25-1.3-2.82-1.3-4.73,0-2.27.57-4.05,1.71-5.34,1.14-1.29,2.58-1.93,4.32-1.93,1.96,0,3.5.67,4.63,2.02s1.67,3.41,1.62,6.19h-8.72c.03,1.08.31,1.91.84,2.51.54.6,1.21.9,2.01.9.54,0,1-.16,1.37-.47s.65-.81.84-1.5ZM169.04,90.97c-.02-1.05-.28-1.85-.78-2.4s-1.1-.82-1.81-.82c-.76,0-1.39.29-1.88.86-.49.58-.74,1.36-.73,2.35h5.2Z" style="fill: #fff;"/>
      </g>
    </g>
  </g>
  <g id="c">
    <rect x="0" y="110" width="175" height="40" style="fill: #e40077;"/>
  </g>
</svg>