<?xml version="1.0" encoding="UTF-8"?>
<svg xmlns="http://www.w3.org/2000/svg" viewBox="0 0 175 150">
  <g id="a">
    <g>
      <g>
        <path d="M40.49,25.19c-.05,3.95-.09,8.33-.57,12.81h18.81v5.9h-16.85c3.19,9.28,8.95,16.81,17.9,20.42-1.43,1.24-3.33,3.76-4.24,5.38-8.67-4-14.19-11-17.9-20.28-2.62,8-7.76,15.43-17.9,20.28-.91-1.52-2.62-3.57-4.29-4.81,10.95-4.9,15.47-12.76,17.38-21h-16.47v-5.9h17.43c.48-4.48.43-8.9.48-12.81h6.24Z" style="fill: #fff;"/>
        <path d="M83.4,56.62c-3.52,4.81-8.62,9.95-13.28,13.24-1.29-1.24-3.52-3.14-5-4.14,4.57-2.86,9.52-7.67,11.9-11.43l6.38,2.33ZM70.93,28.95c3.09,4.24,5.95,9.86,7.24,13.71l-5.57,2.53c-1.1-3.86-4-9.76-6.86-14.09l5.19-2.14ZM109.16,47.43v5.43h-43.33v-5.43h43.33ZM85.3,25.29c2.48,4.52,4.67,10.43,5.52,14.47l-5.81,2.05c-.62-3.95-2.81-10.14-5.09-14.71l5.38-1.81ZM96.87,54.42c4.05,3.57,9.86,8.76,12.76,12.19l-5.9,3.24c-2.52-3.33-8.14-8.81-12.33-12.71l5.48-2.71ZM109.25,28.38c-3,6.57-6.86,13.52-10,18.05l-5.67-1.91c3.14-4.71,6.9-12.09,8.95-17.95l6.71,1.81Z" style="fill: #fff;"/>
        <path d="M115.41,40.66c1-.29,1.81-1.24,2.86-2.76,1.05-1.47,4.33-7.23,6.05-12.66l5.33,2.57c-1.86,4.24-4.48,8.71-7.14,12.33l4.05-.29c1-1.62,1.95-3.33,2.81-5.05l4.62,2.9c-2.57,4.48-5.71,8.95-9,12.81l7.52-1.24c-.14,1.43-.24,3.62-.14,4.76-11.62,2.24-13.57,2.81-14.81,3.52-.29-1.05-1.14-3.62-1.76-5,1.24-.29,2.33-1.33,3.81-3.09.76-.76,2.14-2.48,3.71-4.71-4.19.52-5.33.81-6.09,1.19-.29-1.1-1.19-3.81-1.81-5.28ZM132.17,57.38l.9,4.71c-5.48,1.95-11.28,4-15.95,5.57l-1.14-5.43c4-1.05,10.24-2.95,16.19-4.86ZM159.55,51.04c-2.29,3.57-5.14,6.66-8.43,9.38,1,2.48,2.19,3.91,3.38,3.91.9,0,1.33-1.19,1.57-5.05,1.1,1.33,2.76,2.52,4,3.14-.9,5.9-2.43,7.43-6.24,7.43-3.05,0-5.48-2.33-7.33-6.14-3.52,2.24-7.43,4.05-11.52,5.52-.71-1.47-2.14-3.43-3.43-4.76,4.67-1.38,9.14-3.28,13.05-5.76-.76-2.62-1.43-5.57-1.95-8.76l-8.47,1.57-.95-5.1,8.76-1.57-.48-4.57-6.33,1-.91-5.14,6.9-1.05c-.19-3.33-.29-6.76-.29-10.09h5.71c-.05,3.09,0,6.19.14,9.24l10.24-1.57.95,5-10.86,1.72.43,4.48,10.71-1.95.95,4.95-11,2.05c.38,2.24.81,4.33,1.24,6.19,2.09-1.86,3.9-3.91,5.33-6.19l4.81,2.14ZM150.69,25.62c1.9,1.09,4.62,2.95,6,4.14l-3.43,3.33c-1.33-1.24-3.95-3.19-5.9-4.52l3.33-2.95Z" style="fill: #fff;"/>
      </g>
      <g>
        <path d="M14.44,80.07h6.99c1.58,0,2.78.12,3.6.36,1.11.33,2.06.91,2.86,1.74s1.4,1.86,1.81,3.07c.41,1.21.62,2.7.62,4.48,0,1.56-.19,2.9-.58,4.03-.47,1.38-1.15,2.49-2.03,3.35-.66.65-1.56,1.15-2.69,1.51-.84.27-1.97.4-3.38.4h-7.2v-18.94ZM18.26,83.27v12.54h2.86c1.07,0,1.84-.06,2.31-.18.62-.16,1.13-.42,1.54-.79s.74-.98,1-1.83c.26-.85.39-2.01.39-3.47s-.13-2.59-.39-3.37-.62-1.4-1.09-1.83-1.06-.74-1.77-.89c-.53-.12-1.58-.18-3.14-.18h-1.72Z" style="fill: #fff;"/>
        <path d="M36.24,89.47l-3.29-.59c.37-1.33,1.01-2.31,1.91-2.95s2.25-.96,4.03-.96c1.62,0,2.82.19,3.62.58.79.38,1.35.87,1.67,1.46.32.59.48,1.67.48,3.25l-.04,4.24c0,1.21.06,2.1.17,2.67.12.57.33,1.19.65,1.84h-3.59c-.09-.24-.21-.6-.35-1.07-.06-.22-.1-.36-.13-.43-.62.6-1.28,1.05-1.99,1.36s-1.46.45-2.26.45c-1.41,0-2.53-.38-3.34-1.15-.81-.77-1.22-1.73-1.22-2.91,0-.78.19-1.47.56-2.07.37-.61.89-1.07,1.56-1.4.67-.32,1.63-.6,2.89-.85,1.7-.32,2.87-.62,3.53-.89v-.36c0-.7-.17-1.19-.52-1.49-.34-.3-.99-.45-1.95-.45-.65,0-1.15.13-1.51.38-.36.25-.65.7-.88,1.34ZM41.1,92.42c-.47.16-1.2.34-2.21.55s-1.67.43-1.98.63c-.47.34-.71.76-.71,1.28s.19.95.57,1.32.86.56,1.45.56c.65,0,1.28-.22,1.87-.65.44-.33.73-.73.87-1.2.09-.31.14-.9.14-1.77v-.72Z" style="fill: #fff;"/>
        <path d="M46.5,99.01l4.95-7.07-4.74-6.65h4.43l2.43,3.77,2.56-3.77h4.26l-4.65,6.5,5.08,7.22h-4.46l-2.79-4.25-2.82,4.25h-4.25Z" style="fill: #fff;"/>
        <path d="M62.96,83.43v-3.36h3.63v3.36h-3.63ZM62.96,99.01v-13.72h3.63v13.72h-3.63Z" style="fill: #fff;"/>
        <path d="M82.79,99.01h-3.63v-7c0-1.48-.08-2.44-.23-2.87-.16-.43-.41-.77-.76-1.01-.35-.24-.77-.36-1.26-.36-.63,0-1.19.17-1.69.52s-.84.8-1.03,1.37-.28,1.62-.28,3.15v6.21h-3.63v-13.72h3.37v2.02c1.2-1.55,2.7-2.33,4.52-2.33.8,0,1.53.14,2.2.43.66.29,1.16.66,1.51,1.1.34.45.58.96.71,1.52s.2,1.38.2,2.44v8.53Z" style="fill: #fff;"/>
        <path d="M86.14,99.91l4.15.5c.07.48.23.81.48,1,.34.26.89.39,1.63.39.95,0,1.66-.14,2.13-.43.32-.19.56-.49.72-.92.11-.3.17-.86.17-1.67v-2c-1.09,1.48-2.45,2.22-4.11,2.22-1.84,0-3.3-.78-4.38-2.34-.84-1.23-1.27-2.76-1.27-4.6,0-2.3.55-4.06,1.66-5.27,1.11-1.21,2.48-1.82,4.13-1.82s3.1.74,4.2,2.23v-1.92h3.4v12.31c0,1.62-.13,2.83-.4,3.63s-.64,1.43-1.12,1.89-1.13.81-1.93,1.07c-.81.26-1.82.39-3.06.39-2.33,0-3.97-.4-4.95-1.19-.97-.8-1.46-1.81-1.46-3.03,0-.12,0-.27.01-.44ZM89.38,91.86c0,1.46.28,2.52.85,3.2.56.68,1.26,1.01,2.09,1.01.89,0,1.64-.35,2.25-1.04.61-.69.92-1.72.92-3.08s-.29-2.48-.88-3.17-1.33-1.03-2.22-1.03-1.59.34-2.15,1.01c-.56.68-.85,1.71-.85,3.09Z" style="fill: #fff;"/>
        <path d="M110.12,99.01v-18.78h3.82v15.59h9.51v3.19h-13.33Z" style="fill: #fff;"/>
        <path d="M126.15,83.43v-3.36h3.63v3.36h-3.63ZM126.15,99.01v-13.72h3.63v13.72h-3.63Z" style="fill: #fff;"/>
        <path d="M145.98,99.01h-3.63v-7c0-1.48-.08-2.44-.23-2.87-.16-.43-.41-.77-.76-1.01-.35-.24-.77-.36-1.26-.36-.63,0-1.19.17-1.69.52s-.84.8-1.03,1.37-.28,1.62-.28,3.15v6.21h-3.63v-13.72h3.37v2.02c1.2-1.55,2.7-2.33,4.52-2.33.8,0,1.53.14,2.2.43.66.29,1.16.66,1.51,1.1.34.45.58.96.71,1.52s.2,1.38.2,2.44v8.53Z" style="fill: #fff;"/>
        <path d="M157.61,94.64l3.62.61c-.47,1.33-1.2,2.34-2.2,3.03-1,.69-2.26,1.04-3.77,1.04-2.39,0-4.15-.78-5.3-2.34-.9-1.25-1.36-2.82-1.36-4.73,0-2.27.59-4.05,1.78-5.34,1.19-1.29,2.69-1.93,4.51-1.93,2.04,0,3.65.67,4.83,2.02,1.18,1.35,1.74,3.41,1.69,6.19h-9.1c.03,1.08.32,1.91.88,2.51.56.6,1.26.9,2.09.9.57,0,1.05-.16,1.43-.47s.68-.81.88-1.5ZM157.81,90.97c-.03-1.05-.3-1.85-.81-2.4-.52-.55-1.15-.82-1.89-.82-.79,0-1.45.29-1.96.87s-.77,1.36-.76,2.35h5.43Z" style="fill: #fff;"/>
      </g>
    </g>
  </g>
  <g id="c">
    <rect x="0" y="110" width="175" height="40" style="fill: #008e9c;"/>
  </g>
</svg>