<?xml version="1.0" encoding="UTF-8"?>
<svg xmlns="http://www.w3.org/2000/svg" viewBox="0 0 175 150">
  <g id="a">
    <g>
      <g>
        <path d="M125.89,44.19v5.14h-25.65l-1.09,3.57h21.76s-.14,1.62-.27,2.38c-.9,7.38-1.99,10.95-3.62,12.57-1.36,1.33-2.85,1.67-4.98,1.81-1.72.09-4.71.14-7.83-.05-.09-1.62-.91-3.9-1.9-5.43,3.03.29,6.38.33,7.78.33.99,0,1.58-.05,2.17-.43.86-.67,1.54-2.57,2.13-6h-23.21c.95-2.33,2.04-5.62,2.94-8.76h-8.51v-5.14h40.27ZM120.69,26.81v14.38h-29.68v-14.38h29.68ZM96.44,36.24h18.46v-4.43h-18.46v4.43Z" style="fill: #fff;"/>
        <path d="M130.1,40.67c.95-.29,1.72-1.24,2.71-2.76,1-1.47,4.12-7.24,5.75-12.66l5.07,2.57c-1.76,4.24-4.25,8.71-6.79,12.33l3.85-.29c.95-1.62,1.86-3.33,2.67-5.05l4.39,2.9c-2.44,4.48-5.43,8.95-8.55,12.81l7.15-1.24c-.14,1.43-.23,3.62-.14,4.76-11.04,2.24-12.89,2.81-14.07,3.52-.27-1.05-1.09-3.62-1.67-5,1.18-.29,2.22-1.33,3.62-3.1.72-.76,2.04-2.48,3.53-4.71-3.98.52-5.07.81-5.79,1.19-.27-1.1-1.13-3.81-1.72-5.28ZM146.02,57.38l.86,4.71c-5.2,1.95-10.72,4-15.16,5.57l-1.09-5.43c3.8-1.05,9.73-2.95,15.38-4.86ZM172.04,51.04c-2.17,3.57-4.89,6.67-8.01,9.38.95,2.48,2.08,3.91,3.21,3.91.86,0,1.27-1.19,1.49-5.05,1.04,1.33,2.62,2.52,3.8,3.14-.86,5.9-2.31,7.43-5.93,7.43-2.9,0-5.2-2.33-6.97-6.14-3.35,2.24-7.06,4.05-10.95,5.52-.68-1.48-2.04-3.43-3.26-4.76,4.43-1.38,8.69-3.28,12.4-5.76-.72-2.62-1.36-5.57-1.86-8.76l-8.05,1.57-.9-5.1,8.33-1.57-.45-4.57-6.02,1-.86-5.14,6.56-1.05c-.18-3.33-.27-6.76-.27-10.09h5.43c-.04,3.09,0,6.19.14,9.24l9.73-1.57.91,5-10.32,1.71.41,4.48,10.18-1.95.9,4.95-10.45,2.05c.36,2.24.77,4.33,1.18,6.19,1.99-1.86,3.71-3.91,5.07-6.19l4.57,2.14ZM163.62,25.62c1.81,1.1,4.39,2.95,5.7,4.14l-3.26,3.33c-1.27-1.24-3.76-3.19-5.61-4.52l3.17-2.95Z" style="fill: #fff;"/>
      </g>
      <g>
        <path d="M90.96,99.01v-18.79h3.63v15.59h9.03v3.19h-12.67Z" style="fill: #fff;"/>
        <path d="M106.19,83.43v-3.36h3.45v3.36h-3.45ZM106.19,99.01v-13.72h3.45v13.72h-3.45Z" style="fill: #fff;"/>
        <path d="M125.03,99.01h-3.45v-7c0-1.48-.07-2.44-.22-2.87-.15-.43-.39-.77-.72-1.01s-.73-.36-1.2-.36c-.6,0-1.13.17-1.61.52s-.8.8-.98,1.37c-.18.57-.26,1.62-.26,3.15v6.21h-3.45v-13.72h3.2v2.02c1.14-1.55,2.57-2.33,4.3-2.33.76,0,1.46.14,2.09.43.63.29,1.11.66,1.43,1.1.32.45.55.96.67,1.52.13.57.19,1.38.19,2.44v8.53Z" style="fill: #fff;"/>
        <path d="M136.07,94.64l3.44.61c-.44,1.33-1.14,2.34-2.09,3.03-.95.69-2.15,1.04-3.58,1.04-2.27,0-3.94-.78-5.03-2.34-.86-1.25-1.29-2.82-1.29-4.73,0-2.27.56-4.05,1.69-5.34,1.13-1.29,2.56-1.93,4.28-1.93,1.94,0,3.47.68,4.59,2.02,1.12,1.35,1.66,3.41,1.61,6.19h-8.64c.02,1.08.3,1.92.83,2.51.53.6,1.19.9,1.99.9.54,0,.99-.16,1.36-.47.37-.31.65-.81.83-1.5ZM136.27,90.97c-.02-1.05-.28-1.85-.77-2.39-.49-.55-1.09-.82-1.79-.82-.75,0-1.37.29-1.87.87-.49.58-.73,1.36-.72,2.35h5.15Z" style="fill: #fff;"/>
        <path d="M157.58,99.01h-3.45v-13.68c-1.26,1.24-2.74,2.16-4.46,2.75v-3.29c.9-.31,1.88-.9,2.93-1.76,1.06-.86,1.78-1.87,2.17-3.03h2.8v19.02Z" style="fill: #fff;"/>
        <path d="M160.22,83.7v-3.37h11.79v2.64c-.97,1.01-1.96,2.46-2.97,4.34-1.01,1.89-1.77,3.89-2.3,6.02-.53,2.12-.79,4.02-.78,5.69h-3.33c.06-2.62.57-5.29,1.54-8.01.97-2.72,2.26-5.16,3.89-7.3h-7.84Z" style="fill: #fff;"/>
      </g>
      <g>
        <path d="M17.94,99.01v-55.72c-4.12,4.64-10.17,8.67-15.44,10.83v-10.63c2.89-1.34,14.04-7.74,17.98-18.68h7.19v74.2h-9.74Z" style="fill: #fff;"/>
        <path d="M36.88,26.16h40.88v8.56c-6.23,7.53-21.14,31.89-22.54,64.29h-9.74c.53-26.42,13.16-51.91,20.61-62.12h-29.21v-10.73Z" style="fill: #fff;"/>
      </g>
    </g>
  </g>
  <g id="c">
    <rect x="0" y="110" width="175" height="40" style="fill: #00a9a9;"/>
  </g>
</svg>