<?xml version="1.0" encoding="UTF-8"?>
<svg xmlns="http://www.w3.org/2000/svg" viewBox="0 0 175 150">
  <g id="a">
    <g>
      <g>
        <path d="M39.96,25.1c.62,1.33,1.29,2.95,1.76,4.38h15.38v12.86h-14.33c.81,1.43,1.67,3.24,2.09,4.48l-2.95,1h16.43v4.57h-19.09c-.14,1.05-.24,2.05-.43,3l12.43.05h4.24s-.05,1.33-.1,2c-.52,6.28-1.14,9.19-2.43,10.42-1.05,1.1-2.38,1.43-4.05,1.52-1.38.14-4,.14-6.67.05-.1-1.43-.71-3.33-1.48-4.57,2.33.24,4.71.29,5.67.29.86,0,1.33-.09,1.81-.48.52-.48.95-1.95,1.29-4.9h-11.81c-1.57,4.33-4.52,7.76-10.47,10.05-.62-1.33-2.05-3.33-3.24-4.29,7.43-2.67,9-7.19,9.67-13.14h-7.52v-4.57h13.19c-.43-1.29-1.19-3-1.81-4.29l3.95-1.19h-16.47c-.14,8.28-1.05,20.05-4.95,27.9-1.19-.86-3.81-2.19-5.29-2.66,4.14-7.86,4.48-19.47,4.48-27.14v-10.95h16.19l-1.1-3.05,5.62-1.33ZM25.01,37.62h26.42v-3.38h-26.42v3.38Z" style="fill: #fff;"/>
        <path d="M74.02,35.47v25.04h10.43V25.52h6v35h10.67v-25.24h5.95v34.52h-5.95v-3.38h-33v-30.95h5.9Z" style="fill: #fff;"/>
        <path d="M115.41,40.66c1-.29,1.81-1.24,2.86-2.76,1.05-1.47,4.33-7.23,6.05-12.66l5.33,2.57c-1.86,4.24-4.48,8.71-7.14,12.33l4.05-.29c1-1.62,1.95-3.33,2.81-5.05l4.62,2.9c-2.57,4.48-5.71,8.95-9,12.81l7.52-1.24c-.14,1.43-.24,3.62-.14,4.76-11.62,2.24-13.57,2.81-14.81,3.52-.29-1.05-1.14-3.62-1.76-5,1.24-.29,2.33-1.33,3.81-3.09.76-.76,2.14-2.48,3.71-4.71-4.19.52-5.33.81-6.09,1.19-.29-1.1-1.19-3.81-1.81-5.28ZM132.17,57.38l.9,4.71c-5.48,1.95-11.28,4-15.95,5.57l-1.14-5.43c4-1.05,10.24-2.95,16.19-4.86ZM159.54,51.04c-2.29,3.57-5.14,6.66-8.43,9.38,1,2.48,2.19,3.91,3.38,3.91.9,0,1.33-1.19,1.57-5.05,1.1,1.33,2.76,2.52,4,3.14-.9,5.9-2.43,7.43-6.24,7.43-3.05,0-5.48-2.33-7.33-6.14-3.52,2.24-7.43,4.05-11.52,5.52-.71-1.47-2.14-3.43-3.43-4.76,4.67-1.38,9.14-3.28,13.05-5.76-.76-2.62-1.43-5.57-1.95-8.76l-8.47,1.57-.95-5.1,8.76-1.57-.48-4.57-6.33,1-.91-5.14,6.9-1.05c-.19-3.33-.29-6.76-.29-10.09h5.71c-.05,3.09,0,6.19.14,9.24l10.24-1.57.95,5-10.86,1.72.43,4.48,10.71-1.95.95,4.95-11,2.05c.38,2.24.81,4.33,1.24,6.19,2.09-1.86,3.9-3.91,5.33-6.19l4.81,2.14ZM150.69,25.62c1.9,1.09,4.62,2.95,6,4.14l-3.43,3.33c-1.33-1.24-3.95-3.19-5.9-4.52l3.33-2.95Z" style="fill: #fff;"/>
      </g>
      <g>
        <path d="M2.49,99.01v-18.94h12.22v3.2H6.09v4.48h7.44v3.2h-7.44v8.05h-3.6Z" style="fill: #fff;"/>
        <path d="M19.97,89.47l-3.1-.6c.35-1.33.95-2.31,1.8-2.95.85-.64,2.12-.95,3.79-.95,1.52,0,2.66.19,3.41.58.75.38,1.27.87,1.58,1.46.3.59.46,1.67.46,3.25l-.04,4.24c0,1.21.06,2.1.16,2.67s.31,1.19.61,1.84h-3.38c-.09-.24-.2-.6-.33-1.07-.06-.22-.1-.36-.12-.43-.58.6-1.21,1.06-1.87,1.36s-1.37.45-2.13.45c-1.33,0-2.38-.38-3.14-1.15-.77-.77-1.15-1.73-1.15-2.91,0-.78.17-1.47.52-2.07s.84-1.07,1.47-1.4,1.53-.61,2.72-.85c1.6-.32,2.7-.61,3.32-.89v-.36c0-.7-.16-1.19-.49-1.49-.32-.3-.94-.44-1.84-.44-.61,0-1.08.13-1.42.38-.34.25-.62.7-.83,1.34ZM24.54,92.42c-.44.16-1.13.34-2.08.55-.95.22-1.57.43-1.86.63-.45.33-.67.76-.67,1.28s.18.95.54,1.32c.36.37.81.56,1.36.56.62,0,1.2-.22,1.76-.65.41-.33.69-.73.82-1.2.09-.31.13-.9.13-1.77v-.72Z" style="fill: #fff;"/>
        <path d="M42.77,99.01h-3.42v-7c0-1.48-.07-2.44-.22-2.88-.15-.43-.38-.77-.71-1.01-.33-.24-.72-.36-1.19-.36-.59,0-1.12.17-1.59.52-.47.34-.79.8-.97,1.37-.17.57-.26,1.62-.26,3.15v6.21h-3.42v-13.72h3.17v2.02c1.13-1.55,2.55-2.33,4.26-2.33.75,0,1.44.14,2.07.43.62.29,1.1.66,1.42,1.11s.54.96.67,1.52c.12.57.19,1.38.19,2.44v8.53Z" style="fill: #fff;"/>
        <path d="M45.67,99.91l3.9.5c.06.48.22.81.45,1,.32.26.83.39,1.53.39.89,0,1.56-.14,2.01-.43.3-.19.53-.49.68-.92.11-.3.16-.86.16-1.67v-2c-1.02,1.48-2.31,2.22-3.87,2.22-1.74,0-3.11-.78-4.12-2.34-.79-1.23-1.19-2.76-1.19-4.6,0-2.3.52-4.06,1.56-5.27s2.34-1.82,3.89-1.82,2.92.74,3.95,2.23v-1.92h3.2v12.31c0,1.62-.13,2.83-.38,3.63-.25.8-.6,1.43-1.06,1.89-.45.45-1.06.81-1.82,1.07-.76.26-1.72.39-2.88.39-2.19,0-3.74-.4-4.66-1.19-.92-.8-1.37-1.81-1.37-3.03,0-.12,0-.27.01-.44ZM48.72,91.86c0,1.46.27,2.52.8,3.2.53.68,1.19,1.01,1.96,1.01.84,0,1.54-.35,2.12-1.04.58-.69.86-1.72.86-3.08s-.28-2.48-.83-3.17-1.25-1.03-2.09-1.03-1.49.34-2.02,1.01c-.53.68-.8,1.71-.8,3.1Z" style="fill: #fff;"/>
        <path d="M59.75,95.09l3.43-.55c.15.71.44,1.24.89,1.61.45.37,1.07.55,1.87.55.88,0,1.55-.17,1.99-.52.3-.24.45-.56.45-.97,0-.28-.08-.5-.24-.69-.17-.17-.55-.33-1.14-.48-2.76-.64-4.5-1.24-5.24-1.77-1.02-.74-1.53-1.77-1.53-3.09,0-1.19.44-2.19,1.33-3s2.25-1.21,4.11-1.21,3.08.3,3.94.92,1.45,1.52,1.78,2.71l-3.22.63c-.14-.53-.4-.94-.78-1.23-.39-.28-.94-.43-1.65-.43-.9,0-1.54.13-1.93.4-.26.19-.39.44-.39.74,0,.26.11.48.34.66.31.24,1.37.58,3.19,1.02,1.82.44,3.09.98,3.81,1.61.71.65,1.07,1.55,1.07,2.7,0,1.26-.5,2.34-1.48,3.24-.99.9-2.45,1.36-4.39,1.36-1.76,0-3.15-.38-4.18-1.14s-1.7-1.79-2.01-3.09Z" style="fill: #fff;"/>
        <path d="M77.96,80.07v6.96c1.1-1.37,2.42-2.05,3.95-2.05.79,0,1.5.16,2.13.47.63.31,1.11.71,1.43,1.19s.54,1.02.66,1.6c.12.59.18,1.49.18,2.73v8.05h-3.42v-7.25c0-1.44-.06-2.35-.19-2.74s-.36-.69-.69-.93c-.33-.23-.74-.34-1.23-.34-.57,0-1.07.15-1.52.44s-.77.74-.98,1.32c-.21.59-.31,1.46-.31,2.61v6.87h-3.42v-18.94h3.42Z" style="fill: #fff;"/>
        <path d="M92.08,89.47l-3.1-.6c.35-1.33.95-2.31,1.8-2.95.85-.64,2.12-.95,3.79-.95,1.52,0,2.66.19,3.41.58.75.38,1.27.87,1.58,1.46.3.59.46,1.67.46,3.25l-.04,4.24c0,1.21.06,2.1.16,2.67s.31,1.19.61,1.84h-3.38c-.09-.24-.2-.6-.33-1.07-.06-.22-.1-.36-.12-.43-.58.6-1.21,1.06-1.87,1.36s-1.37.45-2.13.45c-1.33,0-2.38-.38-3.14-1.15-.77-.77-1.15-1.73-1.15-2.91,0-.78.17-1.47.52-2.07s.84-1.07,1.47-1.4,1.53-.61,2.72-.85c1.6-.32,2.7-.61,3.32-.89v-.36c0-.7-.16-1.19-.49-1.49-.32-.3-.94-.44-1.84-.44-.61,0-1.08.13-1.42.38-.34.25-.62.7-.83,1.34ZM96.65,92.42c-.44.16-1.13.34-2.08.55-.95.22-1.57.43-1.86.63-.45.33-.67.76-.67,1.28s.18.95.54,1.32c.36.37.81.56,1.36.56.62,0,1.2-.22,1.76-.65.41-.33.69-.73.82-1.2.09-.31.13-.9.13-1.77v-.72Z" style="fill: #fff;"/>
        <path d="M114.88,99.01h-3.42v-7c0-1.48-.07-2.44-.22-2.88-.15-.43-.38-.77-.71-1.01-.33-.24-.72-.36-1.19-.36-.59,0-1.12.17-1.59.52-.47.34-.79.8-.97,1.37-.17.57-.26,1.62-.26,3.15v6.21h-3.42v-13.72h3.17v2.02c1.13-1.55,2.55-2.33,4.26-2.33.75,0,1.44.14,2.07.43.62.29,1.1.66,1.42,1.11s.54.96.67,1.52c.12.57.19,1.38.19,2.44v8.53Z" style="fill: #fff;"/>
        <path d="M124.89,99.01v-18.78h3.6v15.59h8.95v3.19h-12.55Z" style="fill: #fff;"/>
        <path d="M139.74,83.43v-3.36h3.42v3.36h-3.42ZM139.74,99.01v-13.72h3.42v13.72h-3.42Z" style="fill: #fff;"/>
        <path d="M158.16,99.01h-3.42v-7c0-1.48-.07-2.44-.22-2.88-.15-.43-.38-.77-.71-1.01-.33-.24-.72-.36-1.19-.36-.59,0-1.12.17-1.59.52-.47.34-.79.8-.97,1.37-.17.57-.26,1.62-.26,3.15v6.21h-3.42v-13.72h3.17v2.02c1.13-1.55,2.55-2.33,4.26-2.33.75,0,1.44.14,2.07.43.62.29,1.1.66,1.42,1.11s.54.96.67,1.52c.12.57.19,1.38.19,2.44v8.53Z" style="fill: #fff;"/>
        <path d="M168.86,94.64l3.41.61c-.44,1.33-1.13,2.34-2.07,3.03-.94.7-2.13,1.04-3.55,1.04-2.25,0-3.91-.78-4.99-2.34-.85-1.25-1.28-2.82-1.28-4.73,0-2.27.56-4.05,1.68-5.34,1.12-1.29,2.53-1.93,4.25-1.93,1.92,0,3.44.67,4.55,2.02,1.11,1.35,1.64,3.41,1.59,6.19h-8.56c.02,1.07.3,1.91.83,2.51.53.6,1.18.9,1.97.9.53,0,.98-.16,1.35-.47s.64-.81.83-1.5ZM169.05,90.97c-.02-1.05-.28-1.85-.77-2.4-.49-.55-1.08-.82-1.78-.82-.75,0-1.36.29-1.85.86-.49.58-.73,1.36-.72,2.35h5.11Z" style="fill: #fff;"/>
      </g>
    </g>
  </g>
  <g id="c">
    <rect x="0" y="110" width="175" height="40" style="fill: #e46022;"/>
  </g>
</svg>