<?xml version="1.0" encoding="UTF-8"?>
<svg xmlns="http://www.w3.org/2000/svg" viewBox="0 0 250 150">
  <g id="a">
    <g>
      <g>
        <path d="M32.74,25.19c-.05,3.95-.09,8.33-.57,12.81h18.81v5.9h-16.86c3.19,9.28,8.95,16.81,17.9,20.42-1.43,1.24-3.33,3.76-4.24,5.38-8.67-4-14.19-11-17.9-20.28-2.62,8-7.76,15.43-17.9,20.28-.91-1.52-2.62-3.57-4.29-4.81,10.95-4.9,15.47-12.76,17.38-21H8.6v-5.9h17.43c.48-4.48.43-8.91.48-12.81h6.24Z" style="fill: #fff;"/>
        <path d="M73.27,56.62c-3.52,4.81-8.62,9.95-13.28,13.24-1.29-1.24-3.52-3.14-5-4.14,4.57-2.86,9.52-7.67,11.9-11.43l6.38,2.33ZM60.8,28.95c3.09,4.24,5.95,9.86,7.24,13.71l-5.57,2.52c-1.1-3.86-4-9.76-6.86-14.09l5.19-2.14ZM99.03,47.43v5.43h-43.33v-5.43h43.33ZM75.18,25.29c2.48,4.52,4.67,10.42,5.52,14.47l-5.81,2.05c-.62-3.95-2.81-10.14-5.09-14.71l5.38-1.81ZM86.75,54.43c4.05,3.57,9.86,8.76,12.76,12.19l-5.9,3.24c-2.52-3.33-8.14-8.81-12.33-12.71l5.48-2.71ZM99.13,28.38c-3,6.57-6.86,13.52-10,18.05l-5.67-1.91c3.14-4.71,6.9-12.09,8.95-17.95l6.71,1.81Z" style="fill: #fff;"/>
        <path d="M115.85,25.14v9.86h6.19v5.38h-6.19v2.86c1.62,1.71,5.81,6.76,6.76,8l-3.24,4.62c-.76-1.52-2.14-3.81-3.52-5.95v19.95h-5.48v-19.04c-1.52,4.28-3.43,8.19-5.52,10.86-.52-1.57-1.81-3.91-2.71-5.33,3.14-3.81,6-10.19,7.52-15.95h-6.33v-5.38h7.05v-9.86h5.48ZM141.56,27.91v33.8c0,1.29,0,1.95.14,2.14.14.19.33.29.52.29h.81c.24,0,.48-.09.62-.29.19-.24.24-.66.33-1.71.05-1.05.14-3.33.14-6.19,1.09.9,2.71,1.81,4.09,2.28-.05,2.57-.24,5.95-.52,7.33-.29,1.43-.76,2.33-1.57,2.95-.76.62-1.86.86-2.95.86h-2.67c-1.14,0-2.52-.43-3.33-1.29-.91-.95-1.29-2.09-1.29-6.19v-28.61h-5.95v10.05c0,8.09-1.1,19.57-8,26.47-.91-1.05-3.14-2.95-4.43-3.67,6.33-6.29,6.9-15.62,6.9-22.81v-15.43h17.14Z" style="fill: #fff;"/>
        <path d="M166.52,40.86c1.43-.24,3.19-1.24,5-2.43,1.24-.81,4.48-2.95,7.76-5.71h-12.67v-5.38h18.76l1.24-.48,4.05,3.24c-4.14,3.81-8.57,7.24-12.71,10h16.52s-.05,1.76-.14,2.43c-.95,16.43-1.9,22.61-3.62,24.71-1.1,1.48-2.29,2-3.86,2.19-1.33.24-3.38.29-5.62.24-.05-1.62-.67-3.9-1.57-5.38,1.86.19,3.52.24,4.38.24.76,0,1.24-.19,1.71-.81,1.1-1.19,2-6.14,2.71-18.28h-1.62c-2.9,10.62-8.05,18.9-15.09,24.09-.91-.86-3.1-2.38-4.33-3.1,7-4.38,11.67-11.81,14.19-21h-2.71c-1.95,6-5.48,10.9-9.67,14.09-.57-.52-1.62-1.33-2.62-2l.19.76c-5.05,2.09-10.52,4.29-14.9,6l-1.86-5.85c1.67-.48,3.67-1.14,5.86-1.86v-14.62h-5.19v-5.43h5.19v-10.71h5.33v10.71h4.71v5.43h-4.71v12.71l4.43-1.57.57,2.57c3.28-2.52,5.81-6.09,7.33-10.24h-.43c-1.91,0-3.86.28-4.29.71-.38-1.19-1.57-3.9-2.33-5.28Z" style="fill: #fff;"/>
        <path d="M198.15,40.67c1-.29,1.81-1.24,2.86-2.76,1.05-1.47,4.33-7.24,6.05-12.66l5.33,2.57c-1.86,4.24-4.48,8.71-7.14,12.33l4.05-.29c1-1.62,1.95-3.33,2.81-5.05l4.62,2.9c-2.57,4.48-5.71,8.95-9,12.81l7.52-1.24c-.14,1.43-.24,3.62-.14,4.76-11.62,2.24-13.57,2.81-14.81,3.52-.29-1.05-1.14-3.62-1.76-5,1.24-.29,2.33-1.33,3.81-3.1.76-.76,2.14-2.48,3.71-4.71-4.19.52-5.33.81-6.09,1.19-.29-1.1-1.19-3.81-1.81-5.28ZM214.91,57.38l.9,4.71c-5.47,1.95-11.28,4-15.95,5.57l-1.14-5.43c4-1.05,10.24-2.95,16.19-4.86ZM242.29,51.04c-2.29,3.57-5.14,6.66-8.43,9.38,1,2.48,2.19,3.9,3.38,3.9.9,0,1.33-1.19,1.57-5.05,1.1,1.33,2.76,2.52,4,3.14-.9,5.9-2.43,7.43-6.24,7.43-3.05,0-5.48-2.33-7.33-6.14-3.52,2.24-7.43,4.05-11.52,5.52-.71-1.48-2.14-3.43-3.43-4.76,4.67-1.38,9.14-3.29,13.05-5.76-.76-2.62-1.43-5.57-1.95-8.76l-8.47,1.57-.95-5.1,8.76-1.57-.48-4.57-6.33,1-.9-5.14,6.9-1.05c-.19-3.33-.28-6.76-.28-10.09h5.71c-.05,3.09,0,6.19.14,9.24l10.24-1.57.95,5-10.86,1.71.43,4.48,10.71-1.95.95,4.95-11,2.05c.38,2.24.81,4.33,1.24,6.19,2.09-1.86,3.91-3.9,5.33-6.19l4.81,2.14ZM233.43,25.62c1.9,1.09,4.62,2.95,6,4.14l-3.43,3.33c-1.33-1.24-3.95-3.19-5.9-4.52l3.33-2.95Z" style="fill: #fff;"/>
      </g>
      <g>
        <path d="M2.53,80.13h6.2c1.4,0,2.46.12,3.2.36.99.33,1.83.91,2.53,1.74s1.24,1.86,1.61,3.07c.37,1.21.55,2.7.55,4.48,0,1.56-.17,2.9-.52,4.03-.42,1.38-1.02,2.49-1.8,3.35-.59.64-1.38,1.15-2.39,1.51-.75.27-1.75.4-3,.4H2.53v-18.94ZM5.92,83.34v12.55h2.53c.95,0,1.63-.06,2.05-.18.55-.16,1.01-.42,1.37-.79.36-.37.66-.98.89-1.83.23-.85.34-2.01.34-3.47s-.11-2.59-.34-3.37c-.23-.78-.55-1.4-.96-1.83s-.94-.74-1.57-.89c-.47-.12-1.4-.18-2.79-.18h-1.53Z" style="fill: #fff;"/>
        <path d="M21.3,89.54l-2.92-.59c.33-1.33.89-2.31,1.7-2.95s1.99-.96,3.58-.96c1.44,0,2.51.19,3.21.58.7.38,1.2.87,1.48,1.46s.43,1.67.43,3.25l-.03,4.24c0,1.21.05,2.09.16,2.67.1.58.3,1.19.58,1.84h-3.19c-.08-.24-.19-.6-.31-1.07-.05-.22-.09-.36-.11-.43-.55.6-1.14,1.05-1.77,1.36s-1.3.45-2.01.45c-1.25,0-2.24-.38-2.96-1.15s-1.08-1.74-1.08-2.91c0-.78.16-1.46.49-2.07.33-.61.79-1.07,1.38-1.4.59-.32,1.45-.6,2.56-.84,1.51-.32,2.55-.62,3.13-.89v-.36c0-.7-.15-1.2-.46-1.49s-.88-.45-1.73-.45c-.57,0-1.02.13-1.34.38-.32.25-.58.7-.78,1.34ZM25.61,92.48c-.41.16-1.07.34-1.96.56-.89.22-1.48.43-1.75.63-.42.34-.63.76-.63,1.28s.17.95.5,1.32c.34.37.76.55,1.28.55.58,0,1.14-.21,1.66-.64.39-.33.65-.73.77-1.2.08-.31.13-.9.13-1.77v-.72Z" style="fill: #fff;"/>
        <path d="M29.82,99.07l4.39-7.07-4.21-6.65h3.93l2.16,3.77,2.27-3.77h3.78l-4.13,6.5,4.51,7.22h-3.96l-2.48-4.25-2.5,4.25h-3.77Z" style="fill: #fff;"/>
        <path d="M43.84,83.49v-3.36h3.22v3.36h-3.22ZM43.84,99.07v-13.72h3.22v13.72h-3.22Z" style="fill: #fff;"/>
        <path d="M60.85,99.07h-3.22v-7c0-1.48-.07-2.44-.21-2.87s-.36-.77-.67-1.01c-.31-.24-.68-.36-1.12-.36-.56,0-1.06.17-1.5.52-.44.34-.75.8-.91,1.37s-.25,1.62-.25,3.15v6.21h-3.22v-13.72h2.99v2.02c1.06-1.55,2.4-2.33,4.01-2.33.71,0,1.36.14,1.95.43.59.29,1.03.66,1.34,1.1.3.45.51.96.63,1.52.12.57.18,1.38.18,2.44v8.53Z" style="fill: #fff;"/>
        <path d="M63.24,99.98l3.68.5c.06.48.2.81.42.99.31.26.79.39,1.44.39.84,0,1.47-.14,1.89-.43.28-.19.5-.5.64-.92.1-.3.15-.86.15-1.67v-2c-.96,1.48-2.18,2.22-3.65,2.22-1.64,0-2.93-.78-3.89-2.34-.75-1.23-1.12-2.76-1.12-4.6,0-2.3.49-4.06,1.47-5.27.98-1.21,2.2-1.82,3.66-1.82s2.75.75,3.73,2.24v-1.93h3.02v12.31c0,1.62-.12,2.83-.35,3.63-.24.8-.57,1.43-1,1.88-.43.46-1,.81-1.71,1.07s-1.62.39-2.71.39c-2.06,0-3.53-.4-4.39-1.2s-1.3-1.81-1.3-3.03c0-.12,0-.27.01-.44ZM66.11,91.93c0,1.46.25,2.52.75,3.2.5.68,1.12,1.01,1.85,1.01.79,0,1.45-.35,2-1.04.54-.69.81-1.72.81-3.08s-.26-2.48-.78-3.16-1.18-1.03-1.97-1.03-1.41.34-1.91,1.01-.75,1.71-.75,3.09Z" style="fill: #fff;"/>
        <path d="M97.54,99.07h-3.69l-1.47-4.3h-6.72l-1.39,4.3h-3.6l6.55-18.94h3.59l6.73,18.94ZM91.29,91.58l-2.32-7.03-2.27,7.03h4.59Z" style="fill: #fff;"/>
        <path d="M98.73,83.49v-3.36h3.22v3.36h-3.22ZM98.73,99.07v-13.72h3.22v13.72h-3.22Z" style="fill: #fff;"/>
        <path d="M107.76,99.07h-3.22v-13.72h2.99v1.95c.51-.92.97-1.53,1.38-1.82s.87-.44,1.39-.44c.73,0,1.44.23,2.12.69l-1,3.17c-.54-.4-1.05-.6-1.51-.6s-.83.14-1.15.42c-.31.28-.56.79-.74,1.52-.18.73-.27,2.26-.27,4.6v4.24Z" style="fill: #fff;"/>
        <path d="M113.13,85.35h3v2.02c.39-.69.92-1.25,1.58-1.68.66-.43,1.4-.65,2.21-.65,1.41,0,2.61.63,3.6,1.87s1.48,2.99,1.48,5.22-.5,4.07-1.49,5.34c-.99,1.27-2.2,1.91-3.61,1.91-.67,0-1.28-.15-1.83-.45s-1.12-.82-1.73-1.55v6.91h-3.22v-18.94ZM116.32,91.98c0,1.54.27,2.68.81,3.42.54.74,1.2,1.1,1.98,1.1s1.37-.34,1.87-1.01c.5-.68.75-1.78.75-3.33,0-1.44-.26-2.51-.77-3.2-.51-.7-1.15-1.05-1.9-1.05s-1.44.34-1.96,1.03c-.52.69-.78,1.7-.78,3.04Z" style="fill: #fff;"/>
        <path d="M126.24,92.02c0-1.21.26-2.37.79-3.5.53-1.13,1.27-1.99,2.24-2.58.97-.59,2.05-.89,3.24-.89,1.84,0,3.35.68,4.53,2.02,1.18,1.35,1.77,3.05,1.77,5.11s-.6,3.8-1.78,5.16c-1.19,1.37-2.69,2.05-4.49,2.05-1.12,0-2.18-.29-3.19-.85s-1.78-1.4-2.31-2.5c-.53-1.1-.79-2.44-.79-4.01ZM129.54,92.21c0,1.36.29,2.4.86,3.13s1.28,1.09,2.12,1.09,1.55-.36,2.12-1.09c.57-.72.85-1.77.85-3.15s-.29-2.38-.85-3.1c-.57-.72-1.27-1.09-2.12-1.09s-1.55.36-2.12,1.09-.86,1.77-.86,3.13Z" style="fill: #fff;"/>
        <path d="M143.83,99.07h-3.22v-13.72h2.99v1.95c.51-.92.97-1.53,1.38-1.82s.87-.44,1.39-.44c.73,0,1.44.23,2.12.69l-1,3.17c-.54-.4-1.05-.6-1.51-.6s-.83.14-1.15.42c-.31.28-.56.79-.74,1.52-.18.73-.27,2.26-.27,4.6v4.24Z" style="fill: #fff;"/>
        <path d="M154.88,85.35v2.89h-2.2v5.53c0,1.12.02,1.77.06,1.96.04.19.14.34.29.46s.33.18.55.18c.3,0,.73-.12,1.3-.35l.28,2.81c-.75.36-1.6.54-2.55.54-.58,0-1.11-.11-1.57-.33-.47-.22-.81-.5-1.03-.85-.22-.35-.37-.82-.45-1.42-.07-.42-.1-1.27-.1-2.56v-5.98h-1.48v-2.89h1.48v-2.73l3.23-2.12v4.84h2.2Z" style="fill: #fff;"/>
        <path d="M162.49,99.07v-18.94h12.47v3.2h-9.07v4.2h8.44v3.19h-8.44v5.16h9.39v3.19h-12.79Z" style="fill: #fff;"/>
        <path d="M175.99,99.07l4.39-7.07-4.21-6.65h3.93l2.16,3.77,2.27-3.77h3.78l-4.13,6.5,4.51,7.22h-3.96l-2.48-4.25-2.5,4.25h-3.77Z" style="fill: #fff;"/>
        <path d="M189.92,85.35h3v2.02c.39-.69.92-1.25,1.58-1.68s1.4-.65,2.21-.65c1.41,0,2.61.63,3.6,1.87.99,1.25,1.48,2.99,1.48,5.22s-.5,4.07-1.49,5.34c-.99,1.27-2.2,1.91-3.61,1.91-.67,0-1.28-.15-1.83-.45-.55-.3-1.12-.82-1.73-1.55v6.91h-3.22v-18.94ZM193.11,91.98c0,1.54.27,2.68.81,3.42.54.74,1.2,1.1,1.98,1.1s1.37-.34,1.87-1.01c.5-.68.75-1.78.75-3.33,0-1.44-.26-2.51-.77-3.2s-1.15-1.05-1.9-1.05-1.44.34-1.96,1.03c-.52.69-.78,1.7-.78,3.04Z" style="fill: #fff;"/>
        <path d="M206.86,99.07h-3.22v-13.72h2.99v1.95c.51-.92.97-1.53,1.38-1.82.41-.29.87-.44,1.39-.44.73,0,1.44.23,2.12.69l-1,3.17c-.54-.4-1.05-.6-1.51-.6s-.83.14-1.15.42c-.31.28-.56.79-.74,1.52-.18.73-.27,2.26-.27,4.6v4.24Z" style="fill: #fff;"/>
        <path d="M219.38,94.71l3.21.61c-.41,1.33-1.06,2.34-1.96,3.03s-2.01,1.04-3.34,1.04c-2.12,0-3.68-.78-4.7-2.34-.8-1.25-1.2-2.82-1.2-4.73,0-2.27.53-4.05,1.58-5.34,1.06-1.29,2.39-1.93,4-1.93,1.81,0,3.24.68,4.29,2.02,1.05,1.35,1.55,3.41,1.5,6.19h-8.07c.02,1.08.28,1.92.78,2.51.5.6,1.12.9,1.86.9.5,0,.93-.16,1.27-.47s.6-.81.78-1.5ZM219.56,91.04c-.02-1.05-.26-1.85-.72-2.39-.46-.55-1.02-.82-1.67-.82-.7,0-1.29.29-1.74.87-.46.58-.68,1.36-.68,2.35h4.82Z" style="fill: #fff;"/>
        <path d="M223.67,95.16l3.23-.56c.14.71.42,1.24.84,1.61.42.37,1.01.55,1.77.55.83,0,1.46-.17,1.88-.52.28-.24.42-.56.42-.97,0-.28-.08-.5-.23-.68-.16-.17-.52-.33-1.08-.48-2.6-.65-4.25-1.24-4.94-1.77-.96-.74-1.45-1.77-1.45-3.09,0-1.19.42-2.19,1.25-3,.83-.81,2.12-1.22,3.88-1.22s2.9.31,3.72.92c.81.61,1.37,1.52,1.67,2.71l-3.04.63c-.13-.53-.38-.94-.74-1.23s-.88-.43-1.55-.43c-.85,0-1.46.13-1.82.4-.25.19-.37.43-.37.74,0,.26.11.48.32.66.29.24,1.29.58,3.01,1.02,1.72.44,2.91.98,3.59,1.62.67.65,1.01,1.55,1.01,2.7,0,1.26-.47,2.34-1.4,3.24-.93.9-2.31,1.36-4.14,1.36-1.66,0-2.97-.38-3.94-1.14s-1.6-1.79-1.9-3.09Z" style="fill: #fff;"/>
        <path d="M236.14,95.16l3.23-.56c.14.71.42,1.24.84,1.61.42.37,1.01.55,1.77.55.83,0,1.46-.17,1.88-.52.28-.24.42-.56.42-.97,0-.28-.08-.5-.23-.68-.16-.17-.52-.33-1.08-.48-2.6-.65-4.25-1.24-4.94-1.77-.96-.74-1.45-1.77-1.45-3.09,0-1.19.42-2.19,1.25-3,.83-.81,2.12-1.22,3.88-1.22s2.9.31,3.72.92c.81.61,1.37,1.52,1.67,2.71l-3.04.63c-.13-.53-.38-.94-.74-1.23s-.88-.43-1.55-.43c-.85,0-1.46.13-1.82.4-.25.19-.37.43-.37.74,0,.26.11.48.32.66.29.24,1.29.58,3.01,1.02,1.72.44,2.91.98,3.59,1.62.67.65,1.01,1.55,1.01,2.7,0,1.26-.47,2.34-1.4,3.24-.93.9-2.31,1.36-4.14,1.36-1.66,0-2.97-.38-3.94-1.14s-1.6-1.79-1.9-3.09Z" style="fill: #fff;"/>
      </g>
    </g>
  </g>
  <g id="c">
    <rect y="110" width="250" height="40" style="fill: #004ba0;"/>
  </g>
</svg>