<svg width="132" height="132" viewBox="0 0 132 132" fill="none" xmlns="http://www.w3.org/2000/svg">
<circle cx="66" cy="66" r="66" fill="black"/>
<path d="M60.9038 96H47.8838L32.8478 74.832V96H22.1798V37.452H38.4758C42.4518 37.452 46.0078 38.04 49.1438 39.216C52.2798 40.364 54.7578 42.296 56.5778 45.012C58.3978 47.728 59.3078 51.424 59.3078 56.1C59.3078 58.648 58.8738 61.28 58.0058 63.996C57.1658 66.684 55.7518 69.092 53.7638 71.22C51.8038 73.348 49.1438 74.832 45.7838 75.672L60.9038 96ZM32.8478 69.54H37.2998C39.7638 69.54 41.8218 68.966 43.4738 67.818C45.1538 66.642 46.4138 65.116 47.2538 63.24C48.1218 61.336 48.5558 59.292 48.5558 57.108C48.5558 53.328 47.6878 50.514 45.9518 48.666C44.2158 46.79 41.2478 45.852 37.0478 45.852H32.8478V69.54ZM91.634 97.512C86.678 97.512 82.366 96.28 78.698 93.816C75.03 91.352 72.174 87.782 70.13 83.106C68.114 78.43 67.106 72.788 67.106 66.18C67.106 60.384 68.212 55.26 70.424 50.808C72.636 46.328 75.688 42.814 79.58 40.266C83.5 37.718 87.994 36.444 93.062 36.444C96.758 36.444 99.712 36.738 101.924 37.326C104.164 37.886 105.9 38.572 107.132 39.384C108.392 40.196 109.386 40.952 110.114 41.652L105.494 50.976C105.074 50.416 104.416 49.772 103.52 49.044C102.624 48.316 101.35 47.686 99.698 47.154C98.046 46.622 95.89 46.356 93.23 46.356C90.402 46.356 87.868 47.182 85.628 48.834C83.388 50.486 81.61 52.782 80.294 55.722C79.006 58.662 78.362 62.064 78.362 65.928C78.362 72.928 79.594 78.374 82.058 82.266C84.522 86.158 87.77 88.104 91.802 88.104C96.142 88.104 99.208 87.082 101 85.038C102.82 82.966 103.73 79.984 103.73 76.092C103.73 75.42 103.702 74.664 103.646 73.824H91.634V64.584H113.558C113.698 65.872 113.81 67.258 113.894 68.742C114.006 70.226 114.062 71.556 114.062 72.732C114.062 75.896 113.754 78.962 113.138 81.93C112.522 84.898 111.402 87.558 109.778 89.91C108.154 92.234 105.872 94.082 102.932 95.454C100.02 96.826 96.254 97.512 91.634 97.512Z" fill="white"/>
</svg>
