<?xml version="1.0" encoding="UTF-8"?>
<svg id="a" xmlns="http://www.w3.org/2000/svg" viewBox="0 0 85 150">
  <path d="M0,125V25h40.18c10.1,0,17.44.9,22.02,2.69,4.58,1.8,8.24,4.99,11,9.58,2.75,4.59,4.13,9.85,4.13,15.76,0,7.5-2.09,13.7-6.26,18.59-4.17,4.89-10.41,7.97-18.7,9.24,4.13,2.55,7.53,5.34,10.22,8.39,2.69,3.05,6.31,8.46,10.87,16.24l11.54,19.51h-22.83l-13.8-21.76c-4.9-7.78-8.26-12.68-10.06-14.7-1.81-2.02-3.72-3.41-5.74-4.16-2.02-.75-5.22-1.13-9.61-1.13h-3.87v41.75H0ZM19.09,67.29h14.12c9.16,0,14.88-.41,17.16-1.23,2.28-.82,4.06-2.23,5.35-4.23,1.29-2,1.93-4.5,1.93-7.5,0-3.37-.85-6.08-2.55-8.15-1.7-2.07-4.1-3.38-7.19-3.92-1.55-.23-6.19-.34-13.93-.34h-14.9v25.38Z" style="fill: #fff;"/>
</svg>