<?xml version="1.0" encoding="UTF-8"?>
<svg id="a" xmlns="http://www.w3.org/2000/svg" viewBox="0 0 85 150">
  <path d="M71.36,104.67c4.18,3.17,8.73,5.7,13.64,7.57l-6.27,12.76c-2.57-.81-5.08-1.93-7.54-3.36-.54-.28-4.32-2.93-11.34-7.94-5.52,2.56-11.64,3.85-18.36,3.85-12.97,0-23.13-4.05-30.47-12.15C3.67,97.3,0,85.93,0,71.28s3.68-25.98,11.05-34.1c7.37-8.12,17.36-12.18,29.98-12.18s22.42,4.06,29.75,12.18c7.33,8.12,10.99,19.49,10.99,34.1,0,7.73-1.02,14.53-3.05,20.39-1.53,4.48-3.99,8.81-7.37,13ZM57.66,94.48c2.19-2.73,3.83-6.02,4.92-9.89,1.09-3.87,1.64-8.3,1.64-13.31,0-10.34-2.15-18.06-6.44-23.17-4.3-5.11-9.92-7.66-16.86-7.66s-12.57,2.56-16.89,7.69c-4.32,5.13-6.47,12.84-6.47,23.14s2.16,18.29,6.47,23.47c4.32,5.19,9.77,7.78,16.37,7.78,2.45,0,4.78-.43,6.96-1.28-3.45-2.4-6.96-4.27-10.53-5.62l4.78-10.32c5.6,2.04,10.95,5.09,16.06,9.16Z" style="fill: #fff;"/>
</svg>