<?xml version="1.0" encoding="UTF-8"?>
<svg id="a" xmlns="http://www.w3.org/2000/svg" viewBox="0 0 75 150">
  <path d="M62.1,60.63c-4.51-3.93-11.08-7.28-12.86-7.86.38-.56.72-1.25.92-2.09.07-.31.53-2.41-.57-4.53-.5-.94-1.11-1.49-1.49-1.86-.79-.76-2.75-2.13-5.81-2.11h-18.11v16.11c-3.09-2.31-9.72-7.33-9.1-12.4.46-3.74,5.03-6.31,7.12-7.48,1.83-1.02,4.06-1.91,8.92-2.62,3.23-.47,8.76-1.03,17.93-.28,3.41.28,8.07.81,13.61,1.87,0,0,3.8-8.33,5.14-11.88-10.44-.64-19.13-.62-25.59-.28,0,0-9.44.33-20.28,3.74-.74.23-6.07,1.83-10.72,6.08-1.51,1.39-2.64,2.76-3.15,4.68-.7,2.61.09,4.89.45,5.89.81,2.25,2.25,3.92,4.96,6.27,3.79,3.3,8.39,5.94,10.72,7v11.3h19.81c.84,0,1.8-.12,2.8-.49,1.08-.41,1.79-.95,1.96-1.09.54-.43,1.98-1.7,2.51-4.13.07-.33.68-2.48-.33-4.89-.43-1.04-1.1-1.75-1.48-2.14-.61-.63-1.98-1.51-3.98-1.87.02,0,.04-.01.06-.02,1.08-.38,1.79-.89,1.96-1.02.32-.24,1.03-.76,1.65-1.63,2.11,1.66,12.05,7.86,11.33,13.71-.46,3.74-5.03,6.31-7.12,7.48-1.82,1.03-4.06,1.91-8.92,2.62-3.23.47-8.76,1.04-17.93.28-3.41-.28-8.07-.81-13.61-1.87,0,0-3.8,8.33-5.14,11.88,10.44.64,19.13.62,25.59.28,0,0,9.44-.33,20.27-3.74.74-.23,6.07-1.83,10.72-6.08,1.51-1.39,2.64-2.76,3.15-4.68.7-2.61-.09-4.89-.45-5.89-.81-2.25-2.25-3.92-4.96-6.27ZM45.97,64.27c.72.08,1.51.09,1.89.09v2.18h-20.17v-2.18c.38,0,1.17-.01,1.89-.09,2.26-.25,6.46-1.21,6.52-2.89v-7.65c0-.07,0-.19-.03-.35-.18-.85-1.02-1.31-1.6-1.63-.42-.23-1.14-.55-2.13-.65v.02s0-.02,0-.02v-2.37c0-.57.15-1.1.77-1.76.49-.52,1.08-.85,1.55-.85h6.24c.47,0,1.07.33,1.55.85.62.67.77,1.19.77,1.76v2.39s0-.02,0-.02c-.98.1-1.7.42-2.13.65-.59.32-1.43.78-1.6,1.63-.03.16-.03.28-.03.35v7.65c.07,1.68,4.26,2.64,6.52,2.89Z" style="fill: #fff;"/>
  <g>
    <path d="M3.81,120.78v-3.43H.71v-1.23h3.1v-2.97h1.23v11.71h-1.23v-2.83l-2.97,1.31-.54-1.24c.89-.3,2.2-.81,3.51-1.31ZM11.85,116.21c-1.07.82-2.44,1.65-3.72,2.37v4.09c0,.7.09.82.59.82h1.6c.55,0,.63-.54.71-2.67.3.23.8.48,1.14.55-.13,2.43-.44,3.32-1.74,3.32h-1.86c-1.29,0-1.67-.45-1.67-2.05v-9.49h1.24v4.15c1.06-.69,2.12-1.51,2.86-2.2l.86,1.09Z" style="fill: #fff;"/>
    <path d="M16.4,121.66c-.66,1.04-1.62,2.2-2.5,2.96-.21-.25-.61-.59-.86-.78.81-.69,1.75-1.76,2.21-2.61l1.15.43ZM18.73,112.81c.31.51.69,1.17.91,1.66h4.55v1.21h-10.97v-1.21h5.01c-.19-.41-.43-.9-.65-1.27l1.15-.39ZM22.8,116.56v3.92h-3.42v3.15c0,.68-.14,1-.62,1.18-.49.18-1.21.2-2.29.18-.05-.35-.22-.84-.39-1.18.76.03,1.55.03,1.77.03.21-.01.28-.07.28-.23v-3.13h-3.42v-3.92h8.1ZM15.88,119.42h5.67v-1.79h-5.67v1.79ZM21.87,121.21c.79.83,1.8,1.99,2.29,2.72l-1.04.73c-.44-.75-1.43-1.97-2.21-2.83l.96-.62Z" style="fill: #fff;"/>
    <path d="M31.18,112.81c.35.61.79,1.44.98,1.96h4.74v1.19h-5.11v1.64h4.06v4.5c0,.65-.14,1-.59,1.2-.49.19-1.19.21-2.22.21-.05-.36-.24-.87-.4-1.21.76.04,1.5.04,1.71.02.21-.01.27-.06.27-.23v-3.3h-2.84v6.14h-1.24v-6.14h-2.66v4.74h-1.19v-5.93h3.85v-1.64h-5v-1.19h5.22c-.2-.49-.49-1.12-.75-1.6l1.16-.37Z" style="fill: #fff;"/>
    <path d="M39.97,118.75c.44.43.93.91,1.39,1.4.29-.59.51-1.21.69-1.84l1.09.29c-.25.87-.57,1.67-.97,2.41.63.7,1.16,1.36,1.5,1.91l-.76.92c-.31-.52-.79-1.15-1.34-1.82-.76,1.1-1.71,2.02-2.85,2.75-.15-.23-.54-.66-.78-.87,1.18-.69,2.14-1.64,2.86-2.76-.51-.57-1.04-1.13-1.53-1.61l.7-.78ZM40.71,116.37c-.54,1.08-1.36,2.28-2.09,3.04-.11-.21-.46-.71-.66-.92.66-.64,1.34-1.59,1.77-2.47l.98.35ZM41.4,112.91c.31.49.66,1.15.81,1.59l-.64.29h2.86v1.09h-6.2v-1.09h2.84c-.17-.43-.46-1.01-.71-1.47l1.04-.4ZM42.7,115.95c.65.77,1.47,1.82,1.84,2.49l-.84.73c-.34-.7-1.14-1.82-1.8-2.61l.8-.61ZM48.36,113.57l.17-.05.85.56c-.49,1.23-1.13,2.71-1.69,3.86,1.22,1.21,1.5,2.23,1.5,3.13,0,.84-.2,1.47-.68,1.78-.22.17-.52.26-.86.3-.33.04-.75.04-1.14.01-.01-.31-.12-.83-.32-1.17.37.04.74.06.99.03.2,0,.39-.04.55-.13.25-.14.34-.51.34-.95,0-.78-.36-1.72-1.56-2.83.48-1.05,1-2.44,1.38-3.45h-1.84v10.32h-1.09v-11.4h3.4Z" style="fill: #fff;"/>
    <path d="M53.25,113.28c-.13.34-.26.69-.43,1.02h2.52v1.15h-3.15c-.4.66-.86,1.27-1.35,1.74-.09-.26-.38-.91-.58-1.18.8-.74,1.51-1.88,1.92-3.06l1.05.32ZM52.47,119.33v-1.55h-1.12v-1.1h3.7v1.1h-1.44v1.55h1.77v1.1h-1.77v2.52l1.59-.82c.04.32.13.8.2,1.06-2.36,1.3-2.75,1.53-2.97,1.76-.09-.3-.35-.83-.56-1.09.26-.16.61-.49.61-1.05v-2.38h-1.79v-1.1h1.79ZM59.32,113.02v2.18h2.27v1.13h-2.27v.67c0,.52-.01,1.06-.06,1.62h2.64v1.17h-2.49c.46,1.82,1.35,3.35,2.71,4.1-.27.23-.64.7-.82,1.03-1.19-.77-2-2.08-2.55-3.71-.48,1.38-1.31,2.68-2.82,3.74-.16-.25-.56-.68-.85-.88,1.81-1.15,2.57-2.73,2.89-4.27h-2.39v-1.17h2.55c.04-.57.05-1.12.05-1.62v-.67h-1.32c-.19.67-.41,1.27-.68,1.76-.22-.17-.7-.47-.97-.6.57-.99.91-2.52,1.09-4.05l1.1.18c-.07.53-.16,1.06-.26,1.57h1.05v-2.18h1.15Z" style="fill: #fff;"/>
    <path d="M63.48,123.1v-4.44h.98v4.22l.82-.19v-5.11h-1.76v-4.13h4.19v3.35c.95-.95,1.74-2.39,2.18-3.88l1.13.29c-.11.34-.23.68-.36,1.01h2.14l.21-.05.75.34c-.4,1.36-1.03,2.53-1.8,3.5.75.7,1.67,1.31,2.75,1.7-.24.23-.58.71-.74,1.04l-.24-.1v4.27h-1.14v-.43h-2.8v.47h-1.09v-4.31l-.55.26c-.08-.14-.2-.34-.34-.52h-1.47v2.06l1.57-.38.11,1.09c-1.74.45-3.57.91-4.95,1.25l-.2-1.18.6-.12ZM64.57,116.51h2.04v-2.01h-2.04v2.01ZM69.48,116.47c-.31.47-.64.88-.97,1.23-.16-.2-.54-.52-.8-.73v.6h-1.36v1.73h1.47v.53c.95-.43,1.86-1.05,2.65-1.85-.39-.49-.71-1-.99-1.51ZM72.94,120.21c-.65-.4-1.23-.87-1.74-1.39-.54.54-1.13,1-1.75,1.39h3.49ZM72.59,123.41v-2.17h-2.8v2.17h2.8ZM70.18,115.26l-.11.22c.28.56.65,1.14,1.1,1.69.45-.58.82-1.22,1.11-1.91h-2.1Z" style="fill: #fff;"/>
  </g>
  <g>
    <path d="M20.42,96.67h3.79c.75,0,1.31.03,1.68.09s.7.19.99.39c.29.2.53.46.73.79.19.33.29.7.29,1.11,0,.44-.12.85-.36,1.22-.24.37-.56.65-.97.83.58.17,1.02.45,1.33.86.31.4.47.88.47,1.43,0,.43-.1.85-.3,1.26-.2.41-.47.73-.82.98-.35.24-.78.39-1.28.45-.32.03-1.09.06-2.31.07h-3.23v-9.47ZM22.33,98.25v2.19h1.25c.74,0,1.21-.01,1.39-.03.33-.04.59-.15.77-.34.19-.19.28-.43.28-.74s-.08-.53-.24-.72c-.16-.18-.4-.29-.72-.33-.19-.02-.74-.03-1.64-.03h-1.1ZM22.33,102.01v2.53h1.77c.69,0,1.13-.02,1.31-.06.28-.05.52-.18.69-.38.18-.2.27-.47.27-.8,0-.29-.07-.53-.21-.72-.14-.2-.34-.34-.6-.43s-.83-.13-1.7-.13h-1.55Z" style="fill: #fff;"/>
    <path d="M39.71,102.66l1.85.59c-.28,1.03-.76,1.8-1.42,2.3-.66.5-1.5.75-2.52.75-1.26,0-2.29-.43-3.1-1.29-.81-.86-1.21-2.04-1.21-3.53,0-1.58.41-2.8,1.22-3.67.82-.87,1.89-1.31,3.21-1.31,1.16,0,2.1.34,2.82,1.03.43.41.75.99.97,1.75l-1.89.45c-.11-.49-.35-.88-.7-1.16-.35-.28-.79-.42-1.3-.42-.7,0-1.27.25-1.71.75s-.65,1.32-.65,2.45c0,1.2.21,2.05.64,2.56.43.51.99.76,1.68.76.51,0,.94-.16,1.31-.48.37-.32.63-.83.79-1.53Z" style="fill: #fff;"/>
    <path d="M46.89,106.14v-9.47h4.03c1.01,0,1.75.09,2.21.26.46.17.83.47,1.1.91.28.43.41.93.41,1.49,0,.71-.21,1.3-.63,1.76-.42.46-1.04.75-1.87.88.41.24.75.51,1.02.79.27.29.63.8,1.09,1.54l1.16,1.85h-2.29l-1.38-2.06c-.49-.74-.83-1.2-1.01-1.39-.18-.19-.37-.32-.58-.4-.2-.07-.52-.11-.96-.11h-.39v3.96h-1.91ZM48.8,100.68h1.42c.92,0,1.49-.04,1.72-.12.23-.08.41-.21.54-.4.13-.19.19-.43.19-.71,0-.32-.08-.58-.26-.77s-.41-.32-.72-.37c-.16-.02-.62-.03-1.4-.03h-1.49v2.41Z" style="fill: #fff;"/>
  </g>
</svg>