<?xml version="1.0" encoding="UTF-8"?>
<svg id="a" xmlns="http://www.w3.org/2000/svg" viewBox="0 0 85 150">
  <path d="M45.44,87.8v-16.29h39.56v38.52c-3.84,3.96-9.41,7.44-16.71,10.46-7.29,3.01-14.68,4.52-22.16,4.52-9.51,0-17.79-2.12-24.86-6.36-7.07-4.24-12.38-10.31-15.93-18.21C1.78,92.54,0,83.95,0,74.67,0,64.6,1.98,55.65,5.95,47.82c3.97-7.83,9.78-13.83,17.42-18.01,5.83-3.21,13.08-4.82,21.76-4.82,11.28,0,20.1,2.52,26.44,7.55,6.34,5.04,10.43,12,12.24,20.88l-18.23,3.63c-1.28-4.75-3.69-8.5-7.22-11.25-3.53-2.75-7.95-4.12-13.24-4.12-8.02,0-14.4,2.7-19.13,8.11-4.73,5.41-7.1,13.43-7.1,24.08,0,11.48,2.4,20.09,7.19,25.82,4.8,5.74,11.08,8.61,18.85,8.61,3.84,0,7.7-.8,11.56-2.41,3.86-1.61,7.18-3.55,9.95-5.84v-12.27h-21.02Z" style="fill: #fff;"/>
</svg>