<?xml version="1.0" encoding="UTF-8"?>
<svg id="a" xmlns="http://www.w3.org/2000/svg" viewBox="0 0 100 150">
  <g>
    <path d="M95.67,25H4.33c-2.39,0-4.33,1.97-4.33,4.39v36.03h8.37c0-6.92,5.52-12.52,12.33-12.52s12.33,5.61,12.33,12.52h33.92c0-6.92,5.52-12.52,12.33-12.52s12.33,5.61,12.33,12.52h8.37V29.39c0-2.43-1.94-4.39-4.33-4.39ZM23.29,44.75H4.99v-13.79c0-.61.49-1.1,1.08-1.1h17.21v14.89ZM47.23,44.75h-18.3v-14.89h18.3v14.89ZM71.17,44.75h-18.3v-14.89h18.3v14.89ZM95.11,44.75h-18.3v-14.89h17.21c.6,0,1.09.49,1.09,1.1v13.79Z" style="fill: #fff;"/>
    <circle cx="20.71" cy="65.43" r="9.57" style="fill: #fff;"/>
    <circle cx="79.29" cy="65.43" r="9.57" style="fill: #fff;"/>
  </g>
  <g>
    <path d="M13.54,84.41c-1.51,3.74-3.97,7.27-6.44,9.54-.46-.44-1.47-1.19-2.02-1.56,2.52-1.99,4.79-5.25,6.1-8.65l2.36.66ZM6.78,100.78c.66-.16,1.26-.8,2.11-1.86.94-1.03,3.76-5.02,5.53-8.87l2.38,1.03c-1.79,3.37-4.01,6.65-6.21,9.24l9.77-.6c-.8-1.22-1.67-2.43-2.48-3.46l2.04-.94c1.99,2.5,4.27,5.73,5.39,7.84l-2.15,1.19c-.37-.76-.9-1.65-1.49-2.61-11.67.87-13.07.96-14.03,1.33-.11-.46-.53-1.65-.85-2.29ZM26.2,92.07c-.57.46-1.38,1.28-1.81,1.86-2.36-2.27-5.23-6.08-6.97-9.49l2.13-.85c1.47,3.03,4.31,6.56,6.65,8.49Z" style="fill: #fff;"/>
    <path d="M38.49,97.66c1.4-1.33,2.48-2.96,3.21-4.93l2.2.64c-.94,2.27-2.2,4.13-3.78,5.66,2.32,1.63,5.25,2.75,8.81,3.3-.46.46-1.05,1.35-1.33,1.95-3.74-.69-6.74-1.97-9.13-3.85-2.5,1.88-5.57,3.14-9.15,4.01-.23-.5-.89-1.47-1.31-1.95,3.53-.71,6.51-1.81,8.85-3.48-1.47-1.54-2.66-3.39-3.58-5.55l1.95-.62c.76,1.86,1.86,3.49,3.26,4.82ZM36.15,89.63c-1.58,1.97-4.04,4.06-6.05,5.34-.41-.44-1.24-1.26-1.72-1.61,2.04-1.1,4.31-2.87,5.67-4.56l2.11.83ZM38.42,82.89c.62.94,1.38,2.25,1.67,3.07l-.6.23h8.9v2.11h-20v-2.11h9.31c-.32-.8-.85-1.79-1.35-2.59l2.06-.71ZM42.62,88.74c2.04,1.38,4.66,3.46,5.92,4.91l-1.83,1.42c-1.15-1.45-3.72-3.62-5.8-5.09l1.72-1.24Z" style="fill: #fff;"/>
    <path d="M56.12,83.15v4.36h2.57v2.02h-2.57v.89c.62.8,2.29,3.44,2.68,4.08l-1.29,1.49c-.28-.69-.85-1.86-1.4-2.91v11.33h-1.99v-10.2c-.71,2.27-1.63,4.4-2.57,5.78-.23-.62-.71-1.58-1.1-2.13,1.47-1.86,2.82-5.34,3.51-8.32h-3.05v-2.02h3.21v-4.36h1.99ZM71.51,86.4h-10.09v15.18h10.6v1.95h-12.71v-19.13h12.2v1.99ZM70.57,88.08c-.73,2.02-1.63,3.99-2.61,5.85,1.26,1.81,2.34,3.58,3,4.95l-1.79,1.28c-.55-1.19-1.4-2.66-2.39-4.22-1.1,1.81-2.29,3.42-3.53,4.72-.34-.39-1.17-1.12-1.65-1.45,1.42-1.38,2.75-3.16,3.94-5.16-1.19-1.74-2.5-3.51-3.71-5.05l1.61-1.03c1.03,1.26,2.13,2.66,3.19,4.1.73-1.47,1.4-3,1.93-4.54l2.02.53Z" style="fill: #fff;"/>
    <path d="M73.44,90.69c.46-.11.9-.6,1.4-1.37.57-.71,2.25-3.6,3.21-6.31l2.2,1.03c-1.01,2.22-2.38,4.59-3.81,6.47l2.43-.23c.5-.78.99-1.63,1.42-2.45l1.88,1.19c-1.38,2.29-3,4.61-4.7,6.54l3.9-.69c-.09.6-.09,1.47-.05,1.93-5.57,1.1-6.42,1.35-6.97,1.65-.12-.41-.46-1.47-.71-2.04.55-.12,1.08-.64,1.81-1.49.39-.41,1.19-1.37,2.09-2.64-2.43.32-3,.44-3.35.62-.12-.46-.48-1.58-.76-2.2ZM81.21,98.76l.39,1.86c-2.57.96-5.27,1.9-7.41,2.66l-.5-2.15c1.88-.5,4.75-1.45,7.52-2.36ZM84.1,101.74c.34-2.13.71-4.79,1.03-7.52h-2.64v-2.09h2.89c.23-2.13.44-4.24.62-6.17h-3.78v-1.97l10.09.02h1.33c-.28,5.64-.8,13.03-1.29,17.73h2.52v2.13h-13.87v-2.13h3.1ZM87.31,94.22c-.34,2.78-.71,5.41-1.03,7.52h3.88c.25-2.13.5-4.77.71-7.52h-3.55ZM88.2,85.96c-.18,1.95-.41,4.06-.66,6.17h3.48c.16-2.09.3-4.22.39-6.17h-3.21Z" style="fill: #fff;"/>
  </g>
  <g>
    <path d="M21.6,111.66h4.08c.81,0,1.41.04,1.8.11s.75.22,1.06.44.57.52.78.9c.21.37.31.79.31,1.26,0,.5-.13.96-.39,1.38-.26.42-.61.73-1.05.94.62.19,1.1.52,1.43.97.33.46.5,1,.5,1.62,0,.49-.11.96-.32,1.42s-.51.83-.88,1.11-.83.44-1.38.51c-.34.04-1.17.06-2.48.07h-3.47v-10.73ZM23.66,113.44v2.48h1.35c.8,0,1.3-.01,1.5-.04.35-.04.63-.17.83-.38.2-.21.3-.49.3-.84s-.09-.6-.26-.81c-.17-.21-.43-.33-.78-.38-.2-.03-.79-.04-1.76-.04h-1.18ZM23.66,117.71v2.87h1.91c.74,0,1.21-.02,1.41-.07.3-.06.55-.2.75-.43.19-.23.29-.53.29-.91,0-.32-.07-.6-.22-.82s-.36-.39-.64-.49c-.28-.1-.89-.15-1.83-.15h-1.66Z" style="fill: #fff;"/>
    <path d="M36.72,122.39v-1.16c-.27.42-.62.74-1.06.98-.44.24-.9.36-1.39.36s-.94-.12-1.34-.34c-.39-.23-.68-.55-.85-.97-.18-.42-.27-.99-.27-1.72v-4.92h1.96v3.57c0,1.09.04,1.76.11,2.01.07.25.2.44.39.59.19.14.43.22.72.22.33,0,.63-.1.9-.29.27-.19.45-.43.54-.72.1-.29.15-.99.15-2.1v-3.28h1.96v7.78h-1.82Z" style="fill: #fff;"/>
    <path d="M39.87,120.17l1.96-.32c.08.4.25.7.51.91.25.21.61.31,1.07.31.5,0,.89-.1,1.14-.29.17-.14.26-.32.26-.55,0-.16-.05-.28-.14-.39-.1-.1-.32-.19-.65-.27-1.58-.37-2.58-.7-3-1-.58-.42-.88-1-.88-1.75,0-.67.25-1.24.76-1.7.51-.46,1.29-.69,2.35-.69s1.76.17,2.25.52.83.86,1.02,1.54l-1.84.36c-.08-.3-.23-.53-.45-.7-.22-.16-.53-.24-.94-.24-.52,0-.88.08-1.11.23-.15.11-.22.25-.22.42,0,.15.07.27.19.37.18.14.79.33,1.83.58,1.04.25,1.77.55,2.18.92.41.37.61.88.61,1.53,0,.71-.28,1.32-.85,1.84-.56.51-1.4.77-2.51.77-1.01,0-1.8-.22-2.39-.64-.59-.43-.97-1.01-1.15-1.75Z" style="fill: #fff;"/>
    <path d="M52.46,122.39v-10.73h2.06v4.23h4.03v-4.23h2.06v10.73h-2.06v-4.69h-4.03v4.69h-2.06Z" style="fill: #fff;"/>
    <path d="M67.59,122.39v-1.16c-.27.42-.62.74-1.06.98-.44.24-.9.36-1.39.36s-.94-.12-1.34-.34c-.39-.23-.68-.55-.85-.97-.18-.42-.27-.99-.27-1.72v-4.92h1.96v3.57c0,1.09.04,1.76.11,2.01.07.25.2.44.39.59.19.14.43.22.72.22.33,0,.63-.1.9-.29.27-.19.45-.43.54-.72.1-.29.15-.99.15-2.1v-3.28h1.96v7.78h-1.82Z" style="fill: #fff;"/>
    <path d="M71.34,122.39v-10.73h1.96v3.87c.6-.72,1.32-1.08,2.14-1.08.9,0,1.64.34,2.23,1.03s.88,1.67.88,2.95-.3,2.35-.9,3.07c-.6.72-1.33,1.08-2.19,1.08-.42,0-.84-.11-1.25-.33-.41-.22-.76-.55-1.06-.98v1.14h-1.82ZM73.29,118.34c0,.81.12,1.4.36,1.79.34.55.79.82,1.35.82.43,0,.8-.19,1.1-.58.3-.39.45-1,.45-1.83,0-.89-.15-1.53-.46-1.92-.31-.39-.7-.59-1.18-.59s-.86.19-1.17.58c-.31.38-.47.96-.47,1.74Z" style="fill: #fff;"/>
  </g>
</svg>