<?xml version="1.0" encoding="UTF-8"?>
<svg id="a" xmlns="http://www.w3.org/2000/svg" viewBox="0 0 46 150">
  <path d="M0,104.26l12.85-1.65c.41,3.47,1.51,6.13,3.31,7.97s3.97,2.76,6.52,2.76c2.74,0,5.05-1.1,6.92-3.31,1.87-2.2,2.81-5.18,2.81-8.92,0-3.54-.9-6.35-2.69-8.42-1.79-2.07-3.98-3.11-6.57-3.11-1.7,0-3.73.35-6.09,1.05l1.46-11.47c3.59.1,6.33-.73,8.22-2.48,1.89-1.75,2.83-4.08,2.83-6.99,0-2.47-.69-4.44-2.08-5.91-1.39-1.47-3.23-2.2-5.53-2.2s-4.2.84-5.81,2.51c-1.61,1.67-2.58,4.11-2.93,7.31l-12.23-2.2c.85-4.44,2.13-7.99,3.85-10.65,1.72-2.66,4.11-4.74,7.18-6.26,3.07-1.52,6.51-2.28,10.32-2.28,6.52,0,11.74,2.2,15.68,6.61,3.24,3.61,4.87,7.68,4.87,12.22,0,6.45-3.32,11.59-9.97,15.43,3.97.9,7.14,2.92,9.52,6.06,2.38,3.14,3.57,6.93,3.57,11.37,0,6.45-2.22,11.94-6.66,16.48-4.44,4.54-9.96,6.81-16.58,6.81-6.27,0-11.46-1.91-15.59-5.74-4.13-3.82-6.52-8.82-7.18-15Z" style="fill: #fff;"/>
</svg>