<?xml version="1.0" encoding="UTF-8"?>
<svg id="a" xmlns="http://www.w3.org/2000/svg" viewBox="0 0 75 150">
  <path d="M0,91.84l18.12-1.85c1.09,6.37,3.3,11.05,6.64,14.04s7.83,4.48,13.5,4.48c6,0,10.52-1.33,13.56-3.99,3.04-2.66,4.56-5.77,4.56-9.33,0-2.28-.64-4.23-1.92-5.83-1.28-1.6-3.51-3-6.7-4.19-2.18-.79-7.15-2.2-14.91-4.22-9.98-2.59-16.99-5.78-21.01-9.56-5.66-5.32-8.49-11.8-8.49-19.45,0-4.92,1.33-9.53,4-13.81,2.66-4.28,6.5-7.55,11.51-9.79,5.01-2.24,11.06-3.36,18.15-3.36,11.58,0,20.29,2.66,26.14,7.98,5.85,5.32,8.92,12.42,9.22,21.29l-18.62.86c-.8-4.97-2.51-8.54-5.13-10.71-2.62-2.18-6.55-3.26-11.8-3.26s-9.65,1.16-12.71,3.49c-1.97,1.5-2.96,3.49-2.96,6,0,2.29.92,4.24,2.77,5.87,2.35,2.07,8.05,4.22,17.11,6.46,9.06,2.24,15.76,4.56,20.1,6.95,4.34,2.4,7.74,5.67,10.19,9.82,2.45,4.15,3.68,9.28,3.68,15.39,0,5.54-1.47,10.72-4.4,15.56-2.94,4.83-7.09,8.43-12.46,10.78-5.37,2.35-12.06,3.53-20.07,3.53-11.66,0-20.62-2.82-26.87-8.47-6.25-5.65-9.98-13.88-11.2-24.69Z" style="fill: #fff;"/>
</svg>