<?xml version="1.0" encoding="UTF-8"?>
<svg id="a" xmlns="http://www.w3.org/2000/svg" viewBox="0 0 80 150">
  <path d="M62.02,87.8l17.98,6c-2.76,10.55-7.34,18.39-13.75,23.52-6.41,5.12-14.55,7.69-24.4,7.69-12.2,0-22.22-4.39-30.07-13.16C3.92,103.07,0,91.07,0,75.86,0,59.76,3.95,47.26,11.84,38.36c7.89-8.91,18.27-13.36,31.14-13.36,11.23,0,20.36,3.5,27.38,10.49,4.18,4.13,7.31,10.07,9.4,17.81l-18.36,4.62c-1.09-5.01-3.35-8.97-6.8-11.87-3.44-2.9-7.63-4.35-12.56-4.35-6.81,0-12.33,2.57-16.57,7.72-4.24,5.14-6.36,13.48-6.36,25,0,12.23,2.09,20.93,6.27,26.12,4.18,5.19,9.6,7.78,16.29,7.78,4.93,0,9.17-1.65,12.72-4.95,3.55-3.3,6.1-8.49,7.64-15.57Z" style="fill: #fff;"/>
</svg>