<?xml version="1.0" encoding="UTF-8"?>
<svg id="a" xmlns="http://www.w3.org/2000/svg" viewBox="0 0 80 150">
  <path d="M0,25h38.18c7.56,0,13.19.33,16.91.99,3.71.66,7.04,2.04,9.97,4.13,2.93,2.09,5.38,4.88,7.33,8.36,1.95,3.48,2.93,7.38,2.93,11.7,0,4.69-1.2,8.98-3.61,12.89-2.41,3.91-5.68,6.84-9.81,8.8,5.82,1.77,10.29,4.8,13.42,9.07,3.13,4.28,4.69,9.3,4.69,15.08,0,4.55-1.01,8.97-3.03,13.27-2.02,4.3-4.78,7.73-8.27,10.3-3.5,2.57-7.81,4.15-12.93,4.74-3.22.36-10.97.59-23.26.68H0V25ZM19.28,41.64v23.12h12.64c7.51,0,12.18-.11,14.01-.34,3.3-.41,5.9-1.6,7.79-3.58,1.89-1.98,2.83-4.58,2.83-7.81s-.81-5.6-2.44-7.54c-1.63-1.93-4.05-3.1-7.26-3.51-1.91-.23-7.4-.34-16.48-.34h-11.08ZM19.28,81.41v26.74h17.85c6.95,0,11.36-.2,13.23-.61,2.87-.55,5.2-1.88,7-3.99,1.8-2.11,2.7-4.95,2.7-8.49,0-3-.69-5.55-2.08-7.64-1.39-2.09-3.4-3.62-6.03-4.57-2.63-.95-8.33-1.43-17.1-1.43h-15.57Z" style="fill: #fff;"/>
</svg>