<?xml version="1.0" encoding="UTF-8"?>
<svg id="a" xmlns="http://www.w3.org/2000/svg" viewBox="0 0 73 150">
  <path d="M0,125V25h30.88c11.7,0,19.33.5,22.88,1.5,5.46,1.5,10.03,4.76,13.72,9.79,3.68,5.02,5.53,11.52,5.53,19.47,0,6.14-1.06,11.3-3.19,15.48-2.12,4.18-4.82,7.47-8.09,9.86-3.27,2.39-6.6,3.97-9.98,4.74-4.59.96-11.25,1.43-19.96,1.43h-12.55v37.72H0ZM19.24,41.92v28.38h10.53c7.58,0,12.65-.52,15.21-1.57,2.56-1.05,4.56-2.68,6.01-4.91,1.45-2.23,2.18-4.82,2.18-7.78,0-3.64-1.02-6.64-3.05-9-2.04-2.36-4.62-3.84-7.74-4.43-2.3-.45-6.91-.68-13.85-.68h-9.3Z" style="fill: #fff;"/>
</svg>