<?xml version="1.0" encoding="UTF-8"?>
<svg id="a" xmlns="http://www.w3.org/2000/svg" viewBox="0 0 75 150">
  <path d="M0,25h18.99v53.25c0,8.45.24,13.93.71,16.43.81,4.02,2.75,7.26,5.81,9.69,3.06,2.44,7.24,3.66,12.54,3.66s9.45-1.15,12.19-3.45c2.74-2.3,4.38-5.13,4.94-8.48.56-3.35.83-8.92.83-16.7V25h18.99v51.64c0,11.8-.51,20.14-1.54,25.02-1.03,4.87-2.92,8.99-5.68,12.34-2.76,3.35-6.45,6.03-11.07,8.01-4.62,1.99-10.65,2.99-18.09,2.99-8.98,0-15.79-1.09-20.43-3.25-4.64-2.17-8.31-4.98-11-8.45-2.69-3.46-4.47-7.1-5.32-10.9-1.24-5.63-1.86-13.95-1.86-24.95V25Z" style="fill: #fff;"/>
</svg>