<?xml version="1.0" encoding="UTF-8"?>
<svg id="a" xmlns="http://www.w3.org/2000/svg" viewBox="0 0 90 150">
  <path d="M29.42,101.24c-2.52,3.07-4.99,6.08-7.49,9.13-3.76-2.2-7.05-4.76-9.94-7.8-4.04-4.24-7.15-9.05-9.21-14.47C.64,82.46-.28,76.66.07,70.66c.31-5.33,1.53-10.43,3.76-15.3,2.92-6.37,7.17-11.74,12.75-16.14,5.39-4.26,11.47-7.16,18.25-8.67.59-.13.83-.37.86-.98.14-2.94,1.87-4.54,4.9-4.56,3.17-.02,6.34-.01,9.51,0,2.43,0,4.41,1.77,4.47,4.12.03.95.27,1.34,1.29,1.59,9.67,2.36,17.73,7.28,24.03,14.76,5.85,6.93,9.2,14.9,9.94,23.86.89,10.81-1.99,20.62-8.53,29.39-3.26,4.37-7.31,7.97-11.98,10.91-.35.22-.65.42-1.05-.03-2.41-2.73-4.85-5.43-7.27-8.14-.06-.06-.07-.16-.13-.29,11.26-6.67,17.37-16.29,17.15-29.19-.15-8.56-3.61-15.93-9.96-21.92-13.54-12.77-35-11.9-47.41,1.28-7.21,7.66-10,16.79-8.23,26.99,1.77,10.17,7.64,17.71,16.99,22.9Z" style="fill: #fff;"/>
  <path d="M13.82,119.05c3.73-.6,7.43-1.11,11.09-1.82,3.26-.63,6.51-1.35,9.68-2.28,2.99-.87,5.31-2.62,5.96-5.83.14-.71.09-1.47.08-2.2-.05-6.48-.17-12.96-.14-19.43.01-1.85-.79-3.15-2.03-4.36-1.91-1.88-4.32-2.84-6.84-3.64-.78-.25-1.57-.5-2.37-.65-.55-.1-.76-.37-.76-.86,0-2.55-.1-5.1.04-7.64.1-1.76,1.39-2.92,2.81-3.86,1.92-1.27,3.97-1.94,6.4-1.88,5.03.14,10.08.04,15.12,0,2.44-.02,4.75.3,6.63,1.97,1.57,1.39,2.42,3.12,2.42,5.2,0,2.09-.04,4.18.02,6.26.02.78-.29,1.05-1.02,1.25-2.62.7-5.31,1.3-7.58,2.82-2.01,1.35-3.3,3.08-3.27,5.66.08,6.57-.07,13.14.02,19.71.05,3.64,1.96,6.74,6.89,7.91,4.98,1.17,10.01,2.12,15.02,3.13,1.36.27,2.75.42,4.2.64v5.83c-.41,0-.81,0-1.21,0-19.68,0-39.37,0-59.05,0-2.21,0-2.21-.01-2.22-2.13,0-1.17.02-2.33.03-3.5,0-.09.04-.18.08-.31Z" style="fill: #fff;"/>
</svg>