<?xml version="1.0" encoding="UTF-8"?>
<svg id="a" xmlns="http://www.w3.org/2000/svg" viewBox="0 0 89 150">
  <path d="M0,75.59c0-9.85,1.4-18.12,4.19-24.8,2.09-4.93,4.93-9.34,8.54-13.26,3.61-3.91,7.56-6.82,11.86-8.71,5.72-2.55,12.31-3.83,19.78-3.83,13.52,0,24.34,4.42,32.45,13.26,8.12,8.84,12.17,21.13,12.17,36.87s-4.03,27.83-12.08,36.64c-8.05,8.82-18.82,13.23-32.3,13.23s-24.49-4.39-32.55-13.16C4.03,103.07,0,90.99,0,75.59ZM19.09,74.93c0,10.95,2.4,19.25,7.2,24.9,4.8,5.65,10.89,8.48,18.28,8.48s13.45-2.8,18.18-8.41c4.73-5.61,7.1-14.02,7.1-25.23s-2.31-19.35-6.92-24.8c-4.61-5.45-10.73-8.18-18.37-8.18s-13.79,2.76-18.46,8.28c-4.67,5.52-7.01,13.84-7.01,24.97Z" style="fill: #fff;"/>
</svg>