<?xml version="1.0" encoding="UTF-8"?>
<svg id="a" xmlns="http://www.w3.org/2000/svg" viewBox="0 0 80 150">
  <path d="M0,25h35.22c7.94,0,13.99.64,18.16,1.91,5.6,1.73,10.39,4.8,14.39,9.21,3.99,4.41,7.03,9.81,9.11,16.2,2.08,6.39,3.12,14.27,3.12,23.64,0,8.23-.98,15.33-2.93,21.28-2.39,7.28-5.79,13.17-10.22,17.67-3.34,3.41-7.85,6.07-13.54,7.98-4.25,1.41-9.94,2.11-17.06,2.11H0V25ZM19.27,41.92v66.23h14.39c5.38,0,9.26-.32,11.65-.95,3.12-.82,5.72-2.21,7.78-4.16,2.06-1.95,3.74-5.17,5.04-9.65,1.3-4.48,1.95-10.58,1.95-18.32s-.65-13.67-1.95-17.8c-1.3-4.14-3.12-7.37-5.47-9.69-2.34-2.32-5.31-3.89-8.92-4.71-2.69-.64-7.96-.96-15.82-.96h-8.66Z" style="fill: #fff;"/>
</svg>