<?xml version="1.0" encoding="UTF-8"?>
<svg id="a" xmlns="http://www.w3.org/2000/svg" viewBox="0 0 47 150">
  <path d="M47,111.7v13.3H0c.51-5.03,2.04-9.79,4.58-14.29,2.54-4.5,7.57-10.47,15.08-17.91,6.04-6.01,9.75-10.09,11.12-12.23,1.84-2.96,2.77-5.88,2.77-8.76,0-3.19-.8-5.64-2.41-7.36-1.61-1.72-3.83-2.58-6.66-2.58s-5.03.9-6.68,2.7c-1.65,1.8-2.61,4.79-2.86,8.97l-13.36-1.43c.8-7.88,3.29-13.54,7.49-16.97,4.2-3.43,9.45-5.15,15.75-5.15,6.9,0,12.33,1.99,16.27,5.96,3.95,3.97,5.92,8.92,5.92,14.83,0,3.36-.57,6.57-1.69,9.6-1.13,3.05-2.92,6.23-5.37,9.56-1.62,2.21-4.55,5.38-8.78,9.53-4.23,4.14-6.91,6.9-8.04,8.25-1.13,1.36-2.05,2.68-2.74,3.97h26.63Z" style="fill: #fff;"/>
</svg>