<?xml version="1.0" encoding="UTF-8"?>
<svg id="a" xmlns="http://www.w3.org/2000/svg" viewBox="0 0 100 150">
  <g>
    <path d="M38.02,45.71c0,3.15,2.56,5.71,5.71,5.71,3.15,0,5.71-2.56,5.71-5.71,0-3.15-2.56-5.71-5.71-5.71-3.15,0-5.71,2.56-5.71,5.71Z" style="fill: #fff;"/>
    <g>
      <path d="M39.52,53.93c-3.22.54-5.4,3.58-4.86,6.8l3,17.86.84,5c.35,2.07,2.14,3.58,4.24,3.58h21.25c.64,0,1.21.4,1.44,1l7.01,18.81c.77,2.06,3.06,3.11,5.12,2.34h0c2.06-.77,3.11-3.06,2.35-5.11l-6.34-17.04-1.83-4.9c-.82-2.21-2.94-3.68-5.3-3.68h-15.65c-.64,0-1.19-.46-1.29-1.09l-.82-4.88c-.07-.39.24-.75.64-.75h10.75c1.46,0,2.65-1.18,2.65-2.64h0c0-1.46-1.18-2.64-2.65-2.64h-11.42c-.57,0-1.05-.41-1.14-.97l-1.15-6.84c-.54-3.22-3.59-5.39-6.82-4.85h0Z" style="fill: #fff;"/>
      <path d="M19.87,88.54c.24,11.89,10.13,21.51,22.04,21.46,11.69-.05,21.22-9.22,21.82-20.74,0-.13-.1-.25-.23-.25h-4.15c-.12,0-.22.09-.23.22-.59,9.14-8.29,16.34-17.64,16.17-9.06-.17-16.55-7.42-16.98-16.45-.36-7.36,3.9-13.78,10.13-16.61.09-.04.15-.14.13-.25l-.7-4.2c-.02-.15-.18-.23-.32-.18-8.26,3.26-14.06,11.38-13.87,20.83Z" style="fill: #fff;"/>
    </g>
  </g>
  <path d="M92.5,28c2.48,0,4.5,2.02,4.5,4.5v85c0,2.48-2.02,4.5-4.5,4.5H7.5c-2.48,0-4.5-2.02-4.5-4.5V32.5c0-2.48,2.02-4.5,4.5-4.5h85M92.5,25H7.5C3.36,25,0,28.36,0,32.5v85C0,121.64,3.36,125,7.5,125h85c4.14,0,7.5-3.36,7.5-7.5V32.5c0-4.14-3.36-7.5-7.5-7.5h0Z" style="fill: #fff;"/>
</svg>