<?xml version="1.0" encoding="UTF-8"?>
<svg id="a" xmlns="http://www.w3.org/2000/svg" viewBox="0 0 95 150">
  <g>
    <circle cx="15.68" cy="33.01" r="6.72" style="fill: #00a0e9;"/>
    <path d="M31.37,50.15v30.16c0,1.58-1.27,2.85-2.85,2.85h0c-1.57,0-2.85-1.27-2.85-2.85v-27.63c0-.28-.22-.51-.51-.51h0c-.28,0-.51.23-.51.51v68.36c0,2.19-1.77,3.96-3.96,3.96-1.1,0-2.09-.44-2.8-1.16-.72-.71-1.16-1.71-1.16-2.8v-40.03c0-.58-.47-1.04-1.04-1.04s-1.04.47-1.04,1.04v40.03c0,2.19-1.77,3.96-3.96,3.96-1.1,0-2.09-.44-2.8-1.16-.72-.71-1.16-1.71-1.16-2.8V52.68c0-.28-.23-.51-.51-.51s-.51.23-.51.51v27.64c0,1.57-1.27,2.85-2.85,2.85-.79,0-1.5-.32-2.02-.83-.51-.52-.83-1.23-.83-2.02v-30.17c0-4.83,3.91-8.74,8.74-8.74h13.88c4.83,0,8.74,3.91,8.74,8.74Z" style="fill: #00a0e9;"/>
  </g>
  <g>
    <circle cx="76.84" cy="33.01" r="6.72" style="fill: #e61673;"/>
    <path d="M93.96,94.43h-7.79c-.21,0-.36.16-.36.36v26.25c0,2.19-1.77,3.96-3.96,3.96-1.09,0-2.09-.44-2.8-1.16-.72-.71-1.16-1.71-1.16-2.8v-25.57c0-.58-.47-1.04-1.04-1.04s-1.04.47-1.04,1.04v25.57c0,2.19-1.77,3.96-3.96,3.96-1.09,0-2.09-.44-2.8-1.16-.72-.71-1.16-1.71-1.16-2.8v-26.25c0-.21-.16-.36-.36-.36h-7.79c-.74,0-1.24-.75-.96-1.43l10.43-25.15c.18-.44.28-.92.28-1.4v-13.79c0-.28-.22-.5-.5-.5s-.5.22-.5.5v13.55c0,.38-.07.75-.21,1.09l-2.7,6.52-1.26,3.05c-.6,1.45-2.27,2.14-3.72,1.54-1.1-.45-1.76-1.52-1.76-2.63,0-.36.06-.74.21-1.09l3.53-8.52c.14-.34.21-.71.21-1.09v-14.93c0-4.83,3.91-8.74,8.74-8.74h.53c1.22,1.24,2.92,2.02,4.8,2.02s3.58-.77,4.8-2.02h.53c4.83,0,8.74,3.91,8.74,8.74v14.93c0,.38.07.74.21,1.09l3.53,8.53c.67,1.64-.28,3.53-2.11,3.9-1.34.26-2.66-.53-3.19-1.79l-1.11-2.69-2.81-6.79c-.14-.34-.21-.71-.21-1.09v-13.57c0-.25-.17-.45-.4-.5-.03,0-.07,0-.1,0s-.07,0-.1,0c-.24.05-.4.25-.4.5v13.79c0,.48.09.96.28,1.4l10.43,25.15c.28.68-.22,1.43-.96,1.43Z" style="fill: #e61673;"/>
  </g>
  <rect x="43.56" y="25" width="5.4" height="100" rx="2.7" ry="2.7" style="fill: #fff;"/>
</svg>