<?xml version="1.0" encoding="UTF-8"?>
<svg id="a" xmlns="http://www.w3.org/2000/svg" viewBox="0 0 135 150">
  <g>
    <circle cx="15.89" cy="31.81" r="6.81" style="fill: #00a0e9;"/>
    <path d="M31.78,49.18v30.55c0,1.6-1.29,2.89-2.88,2.89h0c-1.59,0-2.88-1.29-2.88-2.89v-27.99c0-.29-.22-.51-.51-.52h0c-.29,0-.51.23-.51.52v69.25c0,2.22-1.79,4.01-4.01,4.01-1.11,0-2.11-.45-2.83-1.18-.73-.72-1.18-1.73-1.18-2.83v-40.55c0-.58-.47-1.06-1.06-1.06s-1.06.47-1.06,1.06v40.55c0,2.22-1.79,4.01-4.01,4.01-1.11,0-2.11-.45-2.83-1.18-.73-.72-1.18-1.73-1.18-2.83V51.74c0-.29-.23-.52-.52-.52s-.52.23-.52.52v28c0,1.59-1.29,2.88-2.88,2.88-.8,0-1.52-.32-2.04-.84-.52-.53-.84-1.25-.84-2.04v-30.56c0-4.89,3.96-8.86,8.86-8.86h14.06c4.89,0,8.86,3.96,8.86,8.86Z" style="fill: #00a0e9;"/>
  </g>
  <g>
    <circle cx="68.68" cy="31.81" r="6.81" style="fill: #e61673;"/>
    <path d="M86.03,94.03h-7.9c-.21,0-.37.16-.37.37v26.59c0,2.22-1.79,4.01-4.01,4.01-1.11,0-2.11-.45-2.83-1.18-.73-.72-1.18-1.73-1.18-2.83v-25.9c0-.58-.47-1.06-1.06-1.06s-1.06.47-1.06,1.06v25.9c0,2.22-1.79,4.01-4.01,4.01-1.11,0-2.11-.45-2.83-1.18-.73-.72-1.18-1.73-1.18-2.83v-26.59c0-.21-.16-.37-.37-.37h-7.9c-.74,0-1.26-.76-.97-1.45l10.56-25.47c.18-.45.28-.93.28-1.42v-13.97c0-.28-.22-.5-.5-.5s-.5.22-.5.5v13.73c0,.38-.07.76-.22,1.11l-2.74,6.61-1.28,3.09c-.61,1.47-2.3,2.17-3.77,1.56-1.11-.46-1.78-1.54-1.78-2.67,0-.37.06-.74.22-1.11l3.58-8.63c.14-.34.22-.72.22-1.11v-15.13c0-4.89,3.96-8.86,8.86-8.86h.54c1.23,1.26,2.96,2.04,4.86,2.04s3.63-.78,4.86-2.04h.54c4.89,0,8.86,3.96,8.86,8.86v15.12c0,.38.07.75.22,1.11l3.58,8.64c.68,1.66-.28,3.58-2.14,3.95-1.35.26-2.7-.54-3.23-1.82l-1.13-2.72-2.85-6.88c-.14-.34-.22-.72-.22-1.11v-13.74c0-.25-.17-.46-.4-.5-.03,0-.07,0-.1,0s-.07,0-.1,0c-.24.05-.41.26-.41.5v13.97c0,.49.1.97.28,1.42l10.56,25.47c.29.69-.22,1.45-.97,1.45Z" style="fill: #e61673;"/>
  </g>
  <g>
    <path d="M101.92,79.26c-2.63.44-4.4,2.92-3.96,5.55l2.44,14.57.68,4.08c.28,1.69,1.74,2.92,3.45,2.92h17.3c.52,0,.99.32,1.17.81l5.7,15.35c.62,1.68,2.49,2.54,4.17,1.91h0c1.68-.62,2.54-2.49,1.91-4.17l-5.17-13.9-1.49-4c-.67-1.81-2.39-3-4.32-3h-12.74c-.52,0-.97-.38-1.05-.89l-.66-3.98c-.05-.32.19-.61.52-.61h8.76c1.19,0,2.15-.96,2.15-2.15h0c0-1.19-.96-2.16-2.15-2.16h-9.3c-.46,0-.86-.33-.93-.79l-.93-5.58c-.44-2.63-2.92-4.4-5.55-3.96h0Z" style="fill: #00a0e9;"/>
    <path d="M100.51,73.34c0,2.24,1.82,4.06,4.06,4.06,2.24,0,4.06-1.82,4.06-4.06,0-2.24-1.82-4.06-4.06-4.06s-4.06,1.82-4.06,4.06Z" style="fill: #00a0e9;"/>
    <path d="M85.91,107.49c.2,9.7,8.25,17.55,17.95,17.51,9.52-.04,17.28-7.52,17.77-16.92,0-.11-.08-.2-.19-.2h-3.38c-.1,0-.18.08-.19.18-.48,7.45-6.75,13.33-14.36,13.19-7.38-.14-13.48-6.05-13.83-13.42-.29-6.01,3.18-11.24,8.25-13.55.08-.04.12-.12.11-.2l-.57-3.42c-.02-.12-.15-.19-.26-.15-6.73,2.66-11.45,9.29-11.29,16.99Z" style="fill: #00a0e9;"/>
  </g>
  <g>
    <path d="M40.58,86.7c2.75,0,4.97-2.23,4.97-4.97s-2.23-4.97-4.97-4.97-4.97,2.23-4.97,4.97,2.23,4.97,4.97,4.97Z" style="fill: #00a0e9;"/>
    <path d="M52.94,79.19c-.97-.68-2.31-.44-2.99.53l-6.23,8.92h-6.28l-6.23-8.92c-.68-.97-2.01-1.21-2.99-.53-.97.68-1.21,2.01-.53,2.99l6.82,9.77v30.92c0,.47.3,1.32.79,1.63.48.31,1.14.51,1.9.51,1.48,0,2.67-1.19,2.67-2.14v-15.35c0-.43.32-.69.7-.69s.72.29.72.69v15.35c0,.47.3,1.32.79,1.63.48.31,1.14.51,1.88.51,1.48,0,2.68-1.19,2.68-2.14v-30.92l6.82-9.77c.68-.97.44-2.31-.53-2.99Z" style="fill: #00a0e9;"/>
  </g>
</svg>