<?xml version="1.0" encoding="UTF-8"?>
<svg id="a" xmlns="http://www.w3.org/2000/svg" viewBox="0 0 82 150">
  <path d="M26.74,48.9c-4.39.73-7.34,4.86-6.61,9.23l4.07,24.24,1.14,6.79c.47,2.8,2.91,4.86,5.76,4.86h28.9c.87,0,1.65.54,1.95,1.35l9.53,25.53c1.04,2.79,4.16,4.22,6.97,3.18h0c2.81-1.04,4.24-4.15,3.19-6.94l-8.63-23.12-2.48-6.65c-1.12-3-4-5-7.22-5h-21.29c-.87,0-1.61-.63-1.76-1.48l-1.11-6.63c-.09-.53.32-1.02.86-1.02h14.63c1.99,0,3.6-1.61,3.6-3.59h0c0-1.98-1.61-3.58-3.6-3.58h-15.54c-.77,0-1.43-.55-1.56-1.31l-1.56-9.29c-.73-4.37-4.89-7.32-9.27-6.59h0Z" style="fill: #00a0e9;"/>
  <path d="M24.7,37.75c0,4.28,3.47,7.75,7.75,7.75,4.28,0,7.75-3.47,7.75-7.75s-3.47-7.75-7.75-7.75c-4.28,0-7.75,3.47-7.75,7.75Z" style="fill: #00a0e9;"/>
  <path d="M0,95.88c.33,16.13,13.78,29.19,29.98,29.12,15.9-.07,28.86-12.51,29.68-28.15,0-.18-.14-.33-.32-.33h-5.65c-.17,0-.3.13-.31.29-.81,12.4-11.28,22.18-23.99,21.94-12.32-.23-22.51-10.06-23.11-22.32-.48-9.99,5.31-18.7,13.78-22.55.13-.06.2-.19.18-.33l-.96-5.69c-.03-.2-.24-.32-.43-.24C7.64,72.03-.25,83.06,0,95.88Z" style="fill: #00a0e9;"/>
</svg>