<?xml version="1.0" encoding="UTF-8"?>
<svg id="a" xmlns="http://www.w3.org/2000/svg" viewBox="0 0 32 150">
  <circle cx="16" cy="31.81" r="6.81" style="fill: #00a0e9;"/>
  <path d="M32,49.18v30.55c0,1.6-1.3,2.89-2.9,2.89h0c-1.61,0-2.9-1.29-2.9-2.89v-27.99c0-.29-.23-.51-.52-.52h0c-.29,0-.52.23-.52.52v69.25c0,2.22-1.81,4.01-4.04,4.01-1.12,0-2.13-.45-2.85-1.18-.73-.72-1.19-1.73-1.19-2.83v-40.55c0-.58-.48-1.06-1.06-1.06s-1.06.47-1.06,1.06v40.55c0,2.22-1.81,4.01-4.04,4.01-1.12,0-2.13-.45-2.85-1.18-.73-.72-1.19-1.73-1.19-2.83V51.74c0-.29-.23-.52-.52-.52s-.52.23-.52.52v28c0,1.59-1.3,2.88-2.9,2.88-.81,0-1.53-.32-2.06-.84-.52-.53-.85-1.25-.85-2.04v-30.56c0-4.89,3.99-8.86,8.92-8.86h14.16c4.93,0,8.92,3.96,8.92,8.86Z" style="fill: #00a0e9;"/>
</svg>