<?xml version="1.0" encoding="UTF-8"?>
<svg id="a" xmlns="http://www.w3.org/2000/svg" viewBox="0 0 100 150">
  <circle cx="9.4" cy="29.8" r="4.03" style="fill: #00a0e9;"/>
  <path d="M18.81,40.08v18.09c0,.95-.76,1.71-1.71,1.71h0c-.94,0-1.71-.76-1.71-1.71v-16.57c0-.17-.13-.3-.3-.31h0c-.17,0-.3.14-.3.31v40.99c0,1.31-1.06,2.38-2.38,2.38-.66,0-1.25-.27-1.68-.7-.43-.43-.7-1.02-.7-1.68v-24.01c0-.35-.28-.63-.63-.63s-.63.28-.63.63v24.01c0,1.31-1.06,2.38-2.38,2.38-.66,0-1.25-.27-1.68-.7-.43-.43-.7-1.02-.7-1.68v-40.99c0-.17-.14-.31-.31-.31s-.31.14-.31.31v16.57c0,.94-.76,1.71-1.71,1.71-.47,0-.9-.19-1.21-.5-.31-.31-.5-.74-.5-1.21v-18.09c0-2.9,2.35-5.24,5.24-5.24h8.33c2.9,0,5.24,2.35,5.24,5.24Z" style="fill: #00a0e9;"/>
  <path d="M49.29,29.8c0,2.23-1.8,4.03-4.03,4.03s-4.03-1.81-4.03-4.03,1.8-4.03,4.03-4.03,4.03,1.8,4.03,4.03Z" style="fill: #e61673;"/>
  <path d="M55.53,66.64h-4.67c-.12,0-.22.09-.22.22v15.74c0,1.31-1.06,2.38-2.38,2.38-.65,0-1.25-.27-1.68-.7-.43-.43-.7-1.02-.7-1.68v-15.33c0-.35-.28-.63-.63-.63s-.63.28-.63.63v15.33c0,1.31-1.06,2.38-2.38,2.38-.65,0-1.25-.27-1.68-.7-.43-.43-.7-1.02-.7-1.68v-15.74c0-.12-.09-.22-.22-.22h-4.67c-.44,0-.74-.45-.57-.86l6.25-15.08c.11-.27.17-.55.17-.84v-8.27c0-.17-.13-.3-.3-.3s-.3.13-.3.3v8.13c0,.23-.04.45-.13.65l-1.62,3.91-.76,1.83c-.36.87-1.36,1.28-2.23.92-.66-.27-1.05-.91-1.05-1.58,0-.22.04-.44.13-.65l2.12-5.11c.09-.2.13-.43.13-.65v-8.96c0-2.9,2.35-5.24,5.24-5.24h.32c.73.74,1.75,1.21,2.88,1.21s2.15-.46,2.88-1.21h.32c2.9,0,5.24,2.35,5.24,5.24v8.95c0,.23.04.45.13.65l2.12,5.12c.4.98-.17,2.12-1.27,2.34-.8.16-1.6-.32-1.91-1.08l-.67-1.61-1.69-4.07c-.09-.2-.13-.43-.13-.65v-8.14c0-.15-.1-.27-.24-.3-.02,0-.04,0-.06,0s-.04,0-.06,0c-.14.03-.24.15-.24.3v8.27c0,.29.06.57.17.84l6.25,15.08c.17.41-.13.86-.57.86Z" style="fill: #e61673;"/>
  <rect x="25.72" y="25" width="3.24" height="59.97" rx="1.62" ry="1.62" style="fill: #fff;"/>
  <path d="M80.91,70.46c3.13.52,5.24,3.49,4.72,6.62l-2.91,17.38-.81,4.87c-.34,2.01-2.08,3.48-4.11,3.48h-20.63c-.62,0-1.18.39-1.39.97l-6.8,18.3c-.74,2-2.97,3.02-4.98,2.28h0c-2-.74-3.02-2.97-2.28-4.98l6.16-16.57,1.77-4.77c.8-2.15,2.85-3.58,5.15-3.58h15.2c.62,0,1.15-.45,1.25-1.06l.79-4.75c.06-.38-.23-.73-.62-.73h-10.44c-1.42,0-2.57-1.15-2.57-2.57h0c0-1.42,1.15-2.57,2.57-2.57h11.09c.55,0,1.02-.4,1.11-.94l1.11-6.66c.52-3.13,3.49-5.25,6.62-4.72h0Z" style="fill: #00a0e9;"/>
  <path d="M82.59,63.4c0,2.67-2.16,4.84-4.84,4.84s-4.84-2.16-4.84-4.84,2.16-4.84,4.84-4.84,4.84,2.16,4.84,4.84Z" style="fill: #00a0e9;"/>
  <path d="M100,104.13c-.23,11.56-9.84,20.92-21.4,20.87-11.35-.05-20.6-8.97-21.19-20.18,0-.13.1-.24.23-.24h4.03c.12,0,.21.09.22.21.58,8.89,8.05,15.9,17.13,15.73,8.8-.17,16.07-7.21,16.49-16,.34-7.16-3.79-13.4-9.84-16.16-.09-.04-.14-.14-.13-.24l.68-4.08c.02-.14.17-.23.31-.17,8.02,3.17,13.65,11.07,13.47,20.26Z" style="fill: #00a0e9;"/>
</svg>