<?xml version="1.0" encoding="UTF-8"?>
<svg id="a" xmlns="http://www.w3.org/2000/svg" viewBox="0 0 100 150">
  <g>
    <circle cx="43.17" cy="45.71" r="5.71" style="fill: #fff;"/>
    <path d="M51.04,91.73v16.01c0,1.25,1.01,2.25,2.26,2.25h1.45v-20.51h-1.45c-1.25,0-2.26,1.01-2.26,2.25Z" style="fill: #fff;"/>
    <path d="M67.7,72.89c0-1.76-1.43-3.19-3.2-3.19h-1.33c1.35-.11,2.4-1.32,2.17-2.74-.19-1.17-1.3-1.98-2.49-1.98h-11.97c-.24,0-.45-.18-.49-.42l-.95-6.05c-1-6.39-10.07-6.84-11.71-.58l-7.65,29.23h3.7v3.29c0,.39-.14.77-.39,1.07l-8.19,9.69c-1.67,1.99-.42,5.47,3.28,5.19.38-.03.72-.23.96-.52l4.34-5.13,5.87-6.95c.25-.3.39-.68.39-1.07v-5.57h2.88v19.71c0,1.72,1.4,3.12,3.13,3.12s3.13-1.39,3.13-3.12v-19.71h4.75l-2.64-16.85c-.05-.3.19-.57.49-.57h10.04c-1.66.11-2.99,1.46-2.99,3.14v16.59h-2.26v20.51h13.37v-20.51h-2.25v-16.59ZM65.87,89.48h-5.21v-16.59c0-.75.62-1.36,1.37-1.36h2.47c.76,0,1.37.61,1.37,1.36v16.59Z" style="fill: #fff;"/>
    <path d="M73.26,89.48h-1.5v20.51h1.5c1.25,0,2.26-1.01,2.26-2.25v-16.01c0-1.25-1.01-2.25-2.26-2.25Z" style="fill: #fff;"/>
  </g>
  <path d="M92.5,28c2.48,0,4.5,2.02,4.5,4.5v85c0,2.48-2.02,4.5-4.5,4.5H7.5c-2.48,0-4.5-2.02-4.5-4.5V32.5c0-2.48,2.02-4.5,4.5-4.5h85M92.5,25H7.5c-4.14,0-7.5,3.36-7.5,7.5v85c0,4.14,3.36,7.5,7.5,7.5h85c4.14,0,7.5-3.36,7.5-7.5V32.5c0-4.14-3.36-7.5-7.5-7.5h0Z" style="fill: #fff;"/>
</svg>