<?xml version="1.0" encoding="UTF-8"?>
<svg id="a" xmlns="http://www.w3.org/2000/svg" viewBox="0 0 100 150">
  <g>
    <path d="M78.88,75.4l2.29,2.29-2.96,2.96-4.81-4.81c8.15-2.36,14.1-9.88,14.1-18.78,0-10.8-8.75-19.56-19.56-19.56-8.91,0-16.42,5.95-18.78,14.1l-4.81-4.81,2.96-2.96,2.29,2.29c.6-1,1.27-1.95,2.02-2.84l-4.18-4.18-2.43,2.43-5.39,5.39,38.45,38.45,5.39-5.39,2.43-2.43-4.18-4.18c-.89.75-1.83,1.43-2.84,2.02ZM70.28,67.98h-4.88v-4.4h-5.58v-3.21h5.58v-2.41h-5.58v-3.18h4.5l-6-10.55h5.22c2.36,4.89,3.85,8.11,4.48,9.66h.11c.08-.22.18-.51.29-.84.19-.54.92-2.14,2.21-4.79l1.92-4.03h4.94l-6.17,10.55h4.37v3.18h-5.4v2.41h5.4v3.21h-5.4v4.4Z" style="fill: #fff;"/>
    <polygon points="60 72.9 60 86.66 51.6 86.66 51.6 83.03 56.27 83.03 56.27 76.53 16.23 76.53 16.23 83.03 20.9 83.03 20.9 86.66 12.5 86.66 12.5 72.9 60 72.9" style="fill: #fff;"/>
    <polygon points="50.2 78.52 50.2 112.5 22.31 112.5 22.31 78.52 25.06 78.52 25.06 110.08 47.45 110.08 47.45 78.52 50.2 78.52" style="fill: #fff;"/>
    <circle cx="29.47" cy="101.99" r="1.36" style="fill: #fff;"/>
    <circle cx="33.99" cy="101.99" r="1.36" style="fill: #fff;"/>
    <circle cx="38.51" cy="101.99" r="1.36" style="fill: #fff;"/>
    <circle cx="43.03" cy="101.99" r="1.36" style="fill: #fff;"/>
  </g>
  <path d="M92.5,28c2.48,0,4.5,2.02,4.5,4.5v85c0,2.48-2.02,4.5-4.5,4.5H7.5c-2.48,0-4.5-2.02-4.5-4.5V32.5c0-2.48,2.02-4.5,4.5-4.5h85M92.5,25H7.5C3.36,25,0,28.36,0,32.5v85C0,121.64,3.36,125,7.5,125h85c4.14,0,7.5-3.36,7.5-7.5V32.5c0-4.14-3.36-7.5-7.5-7.5h0Z" style="fill: #fff;"/>
</svg>