<?xml version="1.0" encoding="UTF-8"?>
<svg id="a" xmlns="http://www.w3.org/2000/svg" viewBox="0 0 100 150">
  <g>
    <g>
      <path d="M60.82,73.55c-.43-4.86-3.55-8.37-7.13-8.98-.96-.16-1.69-.96-1.75-1.91l-.34-4.26c-.85-6.77-11.09-6.33-11.34.48l-1.12,30.76h4.76v17.04c0,1.84,1.52,3.32,3.37,3.32s3.37-1.48,3.37-3.32v-17.04h4.9l-.49-3.84c-.11-.86.34-1.73,1.14-2.12,3.05-1.49,5.01-5.54,4.62-10.12ZM55.63,73.81c-.63,1.17-1.87,1.9-3.21,1.9-.59,0-1.18-.15-1.7-.42l-5.19-2.7-2.31-1.21c-1.33-.69-2.14-2.09-2.07-3.57l.13-2.57.33-6.67c.09-1.91,1.68-3.42,3.63-3.42.05,0,.11,0,.16.01.98.04,1.87.46,2.53,1.16.65.72.99,1.63.94,2.59l-.35,7.11,5.6,2.93c.85.44,1.49,1.2,1.78,2.11.28.91.19,1.89-.28,2.74Z" style="fill: #fff;"/>
      <path d="M54.7,71.43c-.19-.6-.6-1.1-1.16-1.39l-5.89-3.07c-.25-.13-.41-.4-.39-.67l.36-7.43v-.12c0-1.26-1-2.29-2.27-2.36h-.02s-.02,0-.02,0h-.08c-1.27,0-2.32.98-2.39,2.24l-.31,6.67-.13,2.57c-.05,1.01.5,1.96,1.4,2.43l2.31,1.2,5.19,2.7c.36.18.74.28,1.12.28.51,0,.95-.17,1.63-.64l.04-.03.04-.04c.16-.16.3-.35.41-.56.29-.54.35-1.17.16-1.78Z" style="fill: #fff;"/>
    </g>
    <path d="M45.88,51.42c3.15,0,5.71-2.56,5.71-5.71s-2.56-5.71-5.71-5.71-5.71,2.56-5.71,5.71,2.56,5.71,5.71,5.71Z" style="fill: #fff;"/>
  </g>
  <path d="M92.5,28c2.48,0,4.5,2.02,4.5,4.5v85c0,2.48-2.02,4.5-4.5,4.5H7.5c-2.48,0-4.5-2.02-4.5-4.5V32.5c0-2.48,2.02-4.5,4.5-4.5h85M92.5,25H7.5C3.36,25,0,28.36,0,32.5v85C0,121.64,3.36,125,7.5,125h85c4.14,0,7.5-3.36,7.5-7.5V32.5c0-4.14-3.36-7.5-7.5-7.5h0Z" style="fill: #fff;"/>
</svg>