<?xml version="1.0" encoding="UTF-8"?>
<svg id="a" xmlns="http://www.w3.org/2000/svg" viewBox="0 0 100 150">
  <g>
    <path d="M8.55,99.21c-.29,0-.59-.12-.79-.37-.37-.44-.32-1.1.12-1.47L83.58,32.75c.44-.37,1.1-.32,1.47.12.37.44.32,1.1-.12,1.47L9.22,98.96c-.2.17-.44.25-.68.25Z" style="fill: #fff;"/>
    <path d="M15.75,117.5c-.29,0-.59-.12-.79-.37-.37-.44-.32-1.1.12-1.47L90.78,51.04c.44-.37,1.1-.32,1.47.12.37.44.32,1.1-.12,1.47L16.43,117.25c-.2.17-.44.25-.68.25Z" style="fill: #fff;"/>
    <rect x="19.56" y="90.11" width="58.95" height="6.03" style="fill: #fff;"/>
    <g>
      <path d="M56.49,47.82c2.29.38,3.84,2.56,3.46,4.85l-2.13,12.73-.6,3.57c-.25,1.47-1.52,2.55-3.01,2.55h-15.12c-.46,0-.86.28-1.02.71l-4.98,13.41c-.55,1.47-2.18,2.22-3.65,1.67h0c-1.47-.55-2.22-2.18-1.67-3.65l4.51-12.14,1.3-3.49c.59-1.58,2.09-2.62,3.77-2.62h11.14c.46,0,.84-.33.92-.78l.58-3.48c.05-.28-.17-.53-.45-.53h-7.65c-1.04,0-1.88-.84-1.88-1.88h0c0-1.04.84-1.88,1.88-1.88h8.13c.4,0,.75-.29.81-.69l.82-4.88c.38-2.29,2.56-3.84,4.85-3.46h0Z" style="fill: #fff;"/>
      <path d="M57.56,41.96c0,2.25-1.82,4.07-4.07,4.07-2.25,0-4.07-1.82-4.07-4.07s1.82-4.07,4.07-4.07,4.07,1.82,4.07,4.07Z" style="fill: #fff;"/>
      <path d="M70.48,72.49c-.17,8.47-7.21,15.33-15.68,15.29-8.32-.04-15.1-6.57-15.53-14.79,0-.09.07-.17.17-.17h2.95c.09,0,.16.07.16.15.42,6.51,5.9,11.65,12.55,11.52,6.44-.12,11.78-5.29,12.09-11.72.25-5.25-2.77-9.82-7.21-11.84-.07-.03-.11-.1-.09-.18l.5-2.99c.02-.1.13-.17.22-.13,5.88,2.32,10,8.11,9.87,14.85Z" style="fill: #fff;"/>
    </g>
  </g>
  <path d="M92.5,28c2.48,0,4.5,2.02,4.5,4.5v85c0,2.48-2.02,4.5-4.5,4.5H7.5c-2.48,0-4.5-2.02-4.5-4.5V32.5c0-2.48,2.02-4.5,4.5-4.5h85M92.5,25H7.5C3.36,25,0,28.36,0,32.5v85C0,121.64,3.36,125,7.5,125h85c4.14,0,7.5-3.36,7.5-7.5V32.5c0-4.14-3.36-7.5-7.5-7.5h0Z" style="fill: #fff;"/>
</svg>