<?xml version="1.0" encoding="UTF-8"?>
<svg id="a" xmlns="http://www.w3.org/2000/svg" viewBox="0 0 100 150">
  <path d="M0,102.87c.24,6.82,6.06,12.13,12.89,12.13h12.07c3.23,0,6.33-1.28,8.61-3.57l4.11-4.11,40.27-40.27c1-1,2.36-1.56,3.77-1.56h5.7c7.07,0,12.79-5.86,12.55-12.99-.23-6.82-6.05-12.14-12.88-12.14h-11.87c-3.23,0-6.33,1.28-8.61,3.57l-18.51,18.51v-6.27c0-4.2-3.41-7.61-7.61-7.61-4.21,0-7.61,3.41-7.61,7.61v21.5s-10.65,10.65-10.65,10.65c-1,1-2.36,1.56-3.77,1.56h-5.91c-7.08,0-12.8,5.86-12.56,12.99ZM5.71,102.57c-.07-3.85,3.02-6.98,6.85-6.98h6.69c2.02,0,3.95-.8,5.38-2.23l8.26-8.26,15.22-15.23,16.35-16.35,5.21-5.21c1.43-1.43,3.36-2.23,5.38-2.23h12.13c3.78,0,7.01,2.95,7.09,6.72.07,3.85-3.02,6.98-6.85,6.98h-6.69c-2.02,0-3.95.8-5.38,2.23l-38.81,38.82-6.24,6.24c-1.43,1.43-3.36,2.23-5.38,2.23h-12.13c-3.78,0-7.01-2.95-7.09-6.72Z" style="fill: #00a0e9;"/>
  <path d="M34.57,40.94c0,3.28,2.66,5.94,5.94,5.94,3.28,0,5.94-2.66,5.94-5.94s-2.66-5.94-5.94-5.94c-3.28,0-5.94,2.66-5.94,5.94Z" style="fill: #00a0e9;"/>
</svg>