<?xml version="1.0" encoding="UTF-8"?>
<svg id="a" xmlns="http://www.w3.org/2000/svg" viewBox="0 0 100 150">
  <g>
    <path d="M51.71,92.91h-4.48c-1.82,0-3.3-1.47-3.3-3.29h0c0-4.06.59-7.4,1.77-10.02,1.18-2.62,3.53-5.56,7.07-8.84,3.53-3.27,5.65-5.42,6.34-6.43,1.57-2.36,1.98-5.08,1.24-8.16-.06-.24-.14-.48-.24-.7-1.86-4.15-5.14-6.22-9.83-6.22-3.07,0-5.65,1-7.71,3-1.56,1.51-2.76,3.62-3.58,6.33-.48,1.58-2,2.62-3.65,2.39l-4.96-.7c-1.82-.26-3.14-1.96-2.8-3.77.84-4.44,2.9-8.32,6.18-11.61,4.07-4.09,9.4-6.14,16.01-6.14,6.95,0,12.48,2.07,16.59,6.21,4.11,4.14,6.16,8.96,6.16,14.46,0,3.04-.75,5.93-2.26,8.64-1.51,2.72-4.73,6.42-9.68,11.1-2.56,2.42-4.15,4.37-4.76,5.84-.43,1.03-.7,2.61-.8,4.77-.08,1.75-1.53,3.14-3.29,3.14Z" style="fill: #fff;"/>
    <path d="M44.18,107.94v-5.96c0-1.83,1.49-3.31,3.32-3.31h4.17c1.83,0,3.32,1.48,3.32,3.31v5.96c0,1.83-1.49,3.31-3.32,3.31h-4.17c-1.83,0-3.32-1.48-3.32-3.31Z" style="fill: #fff;"/>
  </g>
  <path d="M92.5,28c2.48,0,4.5,2.02,4.5,4.5v85c0,2.48-2.02,4.5-4.5,4.5H7.5c-2.48,0-4.5-2.02-4.5-4.5V32.5c0-2.48,2.02-4.5,4.5-4.5h85M92.5,25H7.5C3.36,25,0,28.36,0,32.5v85C0,121.64,3.36,125,7.5,125h85c4.14,0,7.5-3.36,7.5-7.5V32.5c0-4.14-3.36-7.5-7.5-7.5h0Z" style="fill: #fff;"/>
</svg>