<?xml version="1.0" encoding="UTF-8"?>
<svg id="a" xmlns="http://www.w3.org/2000/svg" viewBox="0 0 100 150">
  <path d="M87.43,89.88h-5.91c-1.41,0-2.77-.56-3.77-1.56l-10.65-10.65v-21.5c0-4.2-3.41-7.61-7.61-7.61s-7.61,3.41-7.61,7.61v6.27l-18.51-18.51c-2.28-2.28-5.38-3.57-8.61-3.57h-11.87C6.06,40.36.23,45.68,0,52.5c-.24,7.13,5.48,12.99,12.55,12.99h5.7c1.41,0,2.77.56,3.77,1.56l40.27,40.27,4.11,4.11c2.28,2.28,5.38,3.57,8.61,3.57h12.07c6.83,0,12.66-5.31,12.89-12.13.24-7.13-5.48-12.99-12.56-12.99ZM87.2,109.29h-12.13c-2.02,0-3.95-.8-5.38-2.23l-6.24-6.24L24.64,62.01c-1.43-1.43-3.36-2.23-5.38-2.23h-6.69c-3.83,0-6.92-3.14-6.85-6.98.08-3.77,3.31-6.72,7.09-6.72h12.13c2.02,0,3.95.8,5.38,2.23l5.21,5.21,16.35,16.35,15.22,15.23,8.26,8.26c1.43,1.43,3.36,2.23,5.38,2.23h6.69c3.83,0,6.92,3.14,6.85,6.98-.08,3.77-3.31,6.72-7.09,6.72Z" style="fill: #00a0e9;"/>
  <path d="M65.43,40.94c0,3.28-2.66,5.94-5.94,5.94s-5.94-2.66-5.94-5.94,2.66-5.94,5.94-5.94,5.94,2.66,5.94,5.94Z" style="fill: #00a0e9;"/>
</svg>