<?xml version="1.0" encoding="UTF-8"?>
<svg id="a" xmlns="http://www.w3.org/2000/svg" viewBox="0 0 100 150">
  <g>
    <path d="M60.21,45.71c0,3.15,2.56,5.71,5.71,5.71,3.15,0,5.71-2.56,5.71-5.71,0-3.15-2.56-5.71-5.71-5.71-3.15,0-5.71,2.56-5.71,5.71Z" style="fill: #fff;"/>
    <path d="M66.14,74.59c.91.04,1.79-.47,2.19-1.35.52-1.16,0-2.51-1.16-3.02l-6.25-2.79c-.22-.1-.37-.32-.37-.56v-11.84c0-2.83-2.29-5.12-5.12-5.12-4.05,0-8.72,2.19-14.1,6.68-7.12,5.95-9.86,12.71-10.6,14.83-1.8,5.18-2.36,8.48-2.36,13.23h6.8v21.68c0,2.03,1.65,3.68,3.68,3.68s3.68-1.65,3.68-3.68v-21.68h6.51c0-4.48.1-7.77,1.66-13.7.69-2.63,1.7-4.33,2.84-5.62.56-.62,1.58-.25,1.57.58l-.04,3.82c0,.55.34,1.04.85,1.23l9.49,3.5c-.23-.03-.47-.07-.71-.07-3.06,0-5.55,2.49-5.55,5.55h2.37c0-1.75,1.43-3.18,3.18-3.18s3.18,1.43,3.18,3.18v30.07h2.37v-30.07c0-2.56-1.76-4.71-4.12-5.34Z" style="fill: #fff;"/>
  </g>
  <path d="M92.5,28c2.48,0,4.5,2.02,4.5,4.5v85c0,2.48-2.02,4.5-4.5,4.5H7.5c-2.48,0-4.5-2.02-4.5-4.5V32.5c0-2.48,2.02-4.5,4.5-4.5h85M92.5,25H7.5c-4.14,0-7.5,3.36-7.5,7.5v85c0,4.14,3.36,7.5,7.5,7.5h85c4.14,0,7.5-3.36,7.5-7.5V32.5c0-4.14-3.36-7.5-7.5-7.5h0Z" style="fill: #fff;"/>
</svg>