<?xml version="1.0" encoding="UTF-8"?>
<svg id="a" xmlns="http://www.w3.org/2000/svg" viewBox="0 0 100 150">
  <g>
    <path d="M27.82,45.71c0,3.15,2.56,5.71,5.71,5.71,3.15,0,5.71-2.56,5.71-5.71,0-3.15-2.56-5.71-5.71-5.71-3.15,0-5.71,2.56-5.71,5.71Z" style="fill: #fff;"/>
    <g>
      <path d="M68.01,80.19c0,1.54-.85,2.87-2.08,3.54l-5.24-5.41c.66-1.28,1.95-2.14,3.44-2.14,2.14,0,3.89,1.8,3.89,4.01Z" style="fill: #fff;"/>
      <path d="M84.51,100.74c-.31.32-1.32.81-2.79-.7l-8.04-8.3c1.86-.78,4.09-.39,5.59,1.17l5,5.15c.79.83,1.02,1.86.23,2.67Z" style="fill: #fff;"/>
      <path d="M49.74,69.6h3.38c1.44,0,2.58-1.28,2.34-2.77-.19-1.16-1.28-1.97-2.46-1.97h-11.85c-.24,0-.45-.18-.48-.41l-.94-6.02c-.99-6.35-9.97-6.8-11.59-.58l-7.58,29.08h3.66v3.28c0,.39-.14.76-.39,1.06l-8.11,9.64c-1.65,1.98-.42,5.44,3.25,5.16.37-.03.71-.23.95-.52l4.3-5.11,5.81-6.92c.25-.3.39-.67.39-1.06v-5.54h2.85v19.61c0,1.71,1.39,3.1,3.1,3.1s3.1-1.39,3.1-3.1v-19.61h4.71l-2.62-16.77c-.05-.3.18-.57.48-.57h6.17c-.66.11-1.23.41-1.72.92l-.71.73c-.62.64-.97,1.49-.97,2.41v2.14c0,.67.53,1.22,1.18,1.22s1.18-.55,1.18-1.22v-2.14c0-.27.11-.51.28-.68l.71-.74c.35-.36.97-.36,1.32,0l7.04,7.27v19.6c0,1.88,1.47,3.4,3.3,3.4h1.46l-.98,2.87c-1.17.08-2.1,1.08-2.1,2.31s1.01,2.32,2.25,2.32,2.25-1.04,2.25-2.32c0-.68-.29-1.28-.73-1.71l1.18-3.47h8.78l-.98,2.87c-1.17.08-2.1,1.08-2.1,2.31s1.01,2.32,2.25,2.32,2.25-1.04,2.25-2.32c0-.68-.29-1.28-.73-1.71l1.18-3.47h1.32c1.83,0,3.3-1.52,3.3-3.4v-.43l-27.28-28.16c-.49-.51-1.19-.8-1.85-.91h.46Z" style="fill: #fff;"/>
    </g>
  </g>
  <path d="M92.5,28c2.48,0,4.5,2.02,4.5,4.5v85c0,2.48-2.02,4.5-4.5,4.5H7.5c-2.48,0-4.5-2.02-4.5-4.5V32.5c0-2.48,2.02-4.5,4.5-4.5h85M92.5,25H7.5C3.36,25,0,28.36,0,32.5v85C0,121.64,3.36,125,7.5,125h85c4.14,0,7.5-3.36,7.5-7.5V32.5c0-4.14-3.36-7.5-7.5-7.5h0Z" style="fill: #fff;"/>
</svg>