<?xml version="1.0" encoding="UTF-8"?>
<svg id="a" xmlns="http://www.w3.org/2000/svg" viewBox="0 0 100 150">
  <path d="M86.02,121.98c-.25-.05-.5-.21-.69-.39-.21-.19-.39-.43-.53-.69-.86-1.58-1.76-3.14-2.55-4.76-.9-1.85-1.79-3.73-2.52-5.65-.66-1.74-1.04-3.57-.77-5.47.18-1.28.7-2.4,1.7-3.24.57-.48.6-.47.23-1.12-1.87-3.27-4.2-6.17-7.06-8.63-1.06-.92-2.2-1.71-3.49-2.29-.5-.22-.62-.14-.68.37-.2,1.51-.39,3.03-.61,4.54-.33,2.26-.66,4.51-1.03,6.76-.52,3.16-1.03,6.31-1.17,9.51-.18,3.91-.31,7.81-.44,11.72,0,.2.12.43.25.6.67.88,1.64,1.21,2.66,1.43.99.21,1.96.2,2.9-.23.48-.22.88-.51.91-1.11.04-.58-.26-.95-.72-1.25-.71-.45-1.4-.94-2.11-1.4-.26-.17-.33-.36-.27-.66.34-1.61.6-3.23,1.02-4.82.62-2.36,1.35-4.69,2.03-7.03.25-.86.56-.95,1.21-.3.1.1.21.22.26.35.36.88.79,1.75,1.05,2.66.67,2.35,1.19,4.73,1.9,7.06.51,1.66,1.19,3.27,1.87,4.87.4.94,1.2,1.52,2.19,1.69,1.18.21,2.38.32,3.58.47v-.11c.27,0,.54.01.8,0,1.12-.07,1.02.09,1.27-1.09.24-1.13-.09-1.59-1.21-1.81Z" style="fill: #00a0e9;"/>
  <path d="M99.23,83.2c-.42-.03-.75-.18-1.05-.46-.53-.49-1.15-.8-1.83-1.05-1.47-.56-2.76-1.35-2.98-3.13-.09-.72-.55-1.06-1.21-1.16-.47-.07-.78-.34-.92-.76-.21-.65-.65-.93-1.31-1.03-.82-.12-1.32-.74-1.35-1.58-.01-.3,0-.61,0-.92,0,0,.02,0,.02,0,0-.38.04-.76-.01-1.13-.03-.2-.2-.38-.3-.57-.14.14-.31.27-.41.44-.54.89-.96,1.88-1.61,2.68-1.19,1.48-2.66,2.66-4.3,3.64-.97.58-1.99,1.12-2.83,1.87-1.06.95-1.95,2.11-2.93,3.15-.51.55-.87,1.27-1.63,1.54-.63.23-1.27.4-1.92.57-.44.11-.82.29-1.08.67-.33.48-.31.78.1,1.19.5.49,1.01.96,1.48,1.48,2.64,2.87,5.7,5.25,8.74,7.66.44.35.62.27.73-.27.1-.48.13-.98.25-1.46.26-1.02.56-2.04.86-3.05.06-.22.16-.45.3-.62.46-.56.96-1.09,1.42-1.65.64-.79,1.49-1.27,2.47-1.32,2.09-.11,4.18-.17,6.27-.11,1.28.03,2.51-.14,3.75-.41.93-.2,1.46-.79,1.67-1.69.12-.51.23-1.02.34-1.53.13-.65-.07-.95-.74-.99Z" style="fill: #00a0e9;"/>
  <path d="M66.19,87.55c-1.48.05-2.99-.07-4.43.19-3.32.6-6.65,1.09-10,1.41-2.08.2-4.17.35-6.25.55-1.45.14-2.91.21-4.33.48-2.54.49-4.79,1.6-6.58,3.51-1.14,1.21-1.98,2.62-2.68,4.11-.68,1.43-1.28,2.9-2.28,4.16-1.11,1.39-2.2,2.79-3.99,3.39-.31.1-.47.39-.35.7.18.47.35.97.65,1.36.95,1.25,3.87,1.53,5.06.5.96-.83,1.75-1.82,2.43-2.89.95-1.49,1.45-3.16,2.03-4.81.67-1.92,1.35-3.84,2.41-5.6.19-.31.4-.53.8-.42.42.11.37.44.36.74-.03,1.7-.02,3.4-.14,5.1-.13,1.72-.52,3.4-1.41,4.91-.93,1.59-1.88,3.17-2.89,4.72-1.27,1.95-2.04,4.04-2,6.39.03,1.93.04,3.87.1,5.8.02.48.16.97.3,1.44.1.34.35.59.72.63,1.63.15,3.27.3,4.91.4.21.01.54-.21.64-.42.38-.76-.2-2.36-1.26-2.25-.22.02-.46-.03-.69-.09-.55-.13-.64-.27-.63-.82.02-1.18.02-2.36.05-3.53.04-1.19.1-2.38.16-3.57.02-.43.25-.72.61-.94,1.46-.92,2.91-1.86,4.37-2.79.43-.28.86-.56,1.36-.89-.02.19-.03.29-.04.38-.1.65-.27,1.29-.28,1.94-.05,3.36-.05,6.72-.07,10.07,0,.85.3,1.58.83,2.23.16.19.38.37.61.46.87.34,1.76.44,2.7.32.53-.07,1.07-.06,1.6-.06.34,0,.57-.12.67-.44.13-.39.25-.78.35-1.17.17-.63.14-.68-.42-1.01-.87-.5-1.73-1.02-2.6-1.52-.33-.19-.46-.44-.44-.82.07-2.56.62-5.01,1.53-7.39.67-1.75,1.31-3.51,1.91-5.29.37-1.09.31-1.13,1.45-1.01,1.92.2,3.84.43,5.76.61,1.55.15,3.1.24,4.65.35.8.06,1.6.1,2.39.13.56.02.63-.06.7-.59.13-1.04.25-2.08.37-3.12.28-2.41.55-4.82.83-7.23.3-2.58.62-5.17.93-7.75.04-.36-.07-.57-.47-.56Z" style="fill: #00a0e9;"/>
  <path d="M21.25,40.72c4.34,0,7.86-3.52,7.86-7.86s-3.52-7.86-7.86-7.86-7.86,3.52-7.86,7.86,3.52,7.86,7.86,7.86Z" style="fill: #00a0e9;"/>
  <path d="M28.03,98.67c.88-1.21,1.01-1.93,1.65-3.28.73-1.55,1.6-3.01,2.77-4.26.19-.2.39-.4.6-.58l-6.34-10.52-.08-6.04c-.01-.99.03-1.98.13-2.96l.51-5.36,1.61,2.65c.19.33.43.62.71.88l3.07,2.91,6.68,6.31.02.02.34.33c.75.61,1.76.93,2.83.77.95-.14,1.77-.67,2.32-1.42l22.35,7.36c.25.08.52.05.74-.1.49-.32.52-1.01.08-1.39-.11-.09-.2-.16-.25-.2-1.1-.73-3.96-1.83-6.33-2.61l-15.91-5.24c-.02-.83-.33-1.58-.83-2.17-.02-.03-.05-.06-.08-.1h-.02s-8.34-9.07-8.34-9.07c-.13-.15-.25-.3-.35-.47l-8.86-14.6-.02-.03c-1.46-2.48-4.17-4.14-7.27-4.14-2.44,0-4.64,1.04-6.18,2.68l-9.32,9.14c-.67.66-1.12,1.51-1.29,2.43L.23,73.66c-.07.29-.1.59-.1.9,0,2.31,1.89,4.19,4.22,4.19,2,0,3.68-1.38,4.12-3.23l.07-.33v-.03l2.66-12.98c.08-.41.33-.76.69-.97l.87-.51-1.15,10.25c-.07.59-.1,1.19-.07,1.78l.27,8.05-2.71,13.85c-.07.35-.19.68-.37.99L.62,109.63c-.39.61-.62,1.34-.62,2.11,0,2.18,1.78,3.94,3.97,3.94,1.38,0,2.59-.7,3.3-1.75l.24-.41s.03-.05.03-.07l9.3-15.77c.09-.15.16-.31.22-.49l2.75-7.84c.06-.17.29-.22.41-.08l4.61,4.97c.94,1.01,1.77,2.11,2.5,3.29l.69,1.13Z" style="fill: #00a0e9;"/>
</svg>