<?xml version="1.0" encoding="UTF-8"?>
<svg id="a" xmlns="http://www.w3.org/2000/svg" viewBox="0 0 100 150">
  <g>
    <path d="M75.6,43.73c0-2.06-1.66-3.73-3.71-3.73H28.11c-2.05,0-3.71,1.67-3.71,3.73v45.5h51.21v-45.5ZM68.15,85.5H31.56v-35.46h36.59v35.46Z" style="fill: #fff;"/>
    <rect x="33.79" y="81.22" width="32.43" height="2.31" style="fill: #fff;"/>
    <path d="M57.16,60.79h-1.27v-2.07c0-1.1-.89-2-1.99-2h-7.79c-1.1,0-1.99.9-1.99,2v2.07h-1.27v18.9h14.32v-18.9ZM54.19,60.79h-8.39v-2.07c0-.16.13-.3.3-.3h7.79c.16,0,.3.13.3.3v2.07Z" style="fill: #fff;"/>
    <path d="M38.14,79.69h3.25v-18.9h-3.25c-1.58,0-2.87,1.29-2.87,2.88v13.14c0,1.59,1.28,2.88,2.87,2.88Z" style="fill: #fff;"/>
    <path d="M64.73,76.81v-13.14c0-1.59-1.28-2.88-2.87-2.88h-3.25v18.9h3.25c1.58,0,2.87-1.29,2.87-2.88Z" style="fill: #fff;"/>
    <polygon points="84.5 102.52 15.5 102.52 10 110 44.8 110 55.19 110 90 110 84.5 102.52" style="fill: #fff;"/>
    <polygon points="78.26 94.02 21.74 94.02 18.23 98.8 81.77 98.8 78.26 94.02" style="fill: #fff;"/>
  </g>
  <path d="M92.5,28c2.48,0,4.5,2.02,4.5,4.5v85c0,2.48-2.02,4.5-4.5,4.5H7.5c-2.48,0-4.5-2.02-4.5-4.5V32.5c0-2.48,2.02-4.5,4.5-4.5h85M92.5,25H7.5c-4.14,0-7.5,3.36-7.5,7.5v85c0,4.14,3.36,7.5,7.5,7.5h85c4.14,0,7.5-3.36,7.5-7.5V32.5c0-4.14-3.36-7.5-7.5-7.5h0Z" style="fill: #fff;"/>
</svg>