<?xml version="1.0" encoding="UTF-8"?>
<svg id="a" xmlns="http://www.w3.org/2000/svg" viewBox="0 0 100 150">
  <g>
    <path d="M65.03,77.93c-1.83-.05-3.33,1.41-3.33,3.23v-2.27c0-1.86-1.43-3.48-3.29-3.54-1.92-.06-3.5,1.48-3.5,3.39v-2.61c0-1.86-1.43-3.48-3.29-3.54-1.92-.06-3.5,1.48-3.5,3.39v-17.06c0-1.96-1.51-3.68-3.48-3.74-2.03-.06-3.7,1.57-3.7,3.59v32.23c0,.24-.19.43-.43.43h0c-.24,0-.43-.19-.43-.43v-10.11c0-2.42-1.96-4.38-4.38-4.38h0c-1.3,0-2.36,1.06-2.36,2.36v17.79c0,1.46.3,2.9.89,4.24l5.81,13.14c.25.57.82.94,1.45.94h23.63c.44,0,.85-.24,1.07-.62l1.01-1.78c.63-1.12.97-2.38.97-3.66v-27.64c0-1.77-1.36-3.32-3.13-3.37Z" style="fill: #fff;"/>
    <polygon points="57.09 35 54.4 35 34.66 35 31.96 35 31.84 35 31.84 60.38 31.96 60.38 34.66 60.38 38.82 60.38 38.82 57.56 34.66 57.56 34.66 37.82 54.4 37.82 54.4 57.56 50.23 57.56 50.23 60.38 54.4 60.38 57.09 60.38 57.22 60.38 57.22 35 57.09 35" style="fill: #fff;"/>
    <circle cx="44.53" cy="47.69" r="5.7" style="fill: #fff;"/>
  </g>
  <path d="M92.5,28c2.48,0,4.5,2.02,4.5,4.5v85c0,2.48-2.02,4.5-4.5,4.5H7.5c-2.48,0-4.5-2.02-4.5-4.5V32.5c0-2.48,2.02-4.5,4.5-4.5h85M92.5,25H7.5C3.36,25,0,28.36,0,32.5v85C0,121.64,3.36,125,7.5,125h85c4.14,0,7.5-3.36,7.5-7.5V32.5c0-4.14-3.36-7.5-7.5-7.5h0Z" style="fill: #fff;"/>
</svg>