<?xml version="1.0" encoding="UTF-8"?>
<svg id="a" xmlns="http://www.w3.org/2000/svg" viewBox="0 0 95 150">
  <g>
    <path d="M18.85,34.05l.57-1.56c.1-.26.17-.53.23-.8.11-.54.16-.92.16-1.57h0c0-2.83-2.42-5.12-5.4-5.12h-.14c-2.98,0-5.4,2.29-5.4,5.12h0c0,.65.05,1.03.16,1.57.05.27.13.54.23.8l.57,1.56c.15.72-.43,1.4-1.21,1.4h-3.99c-2.55,0-4.61,1.96-4.61,4.37h0c0,2.42,2.07,4.37,4.61,4.37h19.12c2.55,0,4.61-1.96,4.61-4.37h0c0-2.42-2.07-4.37-4.61-4.37h-3.68c-.78,0-1.36-.67-1.21-1.4Z" style="fill: #00a0e9;"/>
    <path d="M21.69,46.84H6.66c-3.19,0-5.78,2.59-5.78,5.78v36.97c0,3.19,2.59,5.78,5.78,5.78h15.04c3.19,0,5.78-2.59,5.78-5.78v-36.97c0-3.19-2.59-5.78-5.78-5.78ZM24.31,89.59c0,1.44-1.17,2.61-2.61,2.61H6.66c-1.44,0-2.61-1.17-2.61-2.61v-2.91h7.83c.96,0,1.74-.78,1.74-1.74s-.78-1.74-1.74-1.74h-7.83v-5.74h7.83c.96,0,1.74-.78,1.74-1.74h0c0-.96-.78-1.74-1.74-1.74h-7.83v-5.74h7.83c.96,0,1.74-.78,1.74-1.74h0c0-.96-.78-1.74-1.74-1.74h-7.83v-5.74h7.83c.96,0,1.74-.78,1.74-1.74h0c0-.96-.78-1.74-1.74-1.74h-7.83v-2.91c0-1.44,1.17-2.61,2.61-2.61h15.04c1.44,0,2.61,1.17,2.61,2.61v36.97Z" style="fill: #00a0e9;"/>
  </g>
  <g>
    <circle cx="67.04" cy="54.85" r="10.66" style="fill: #00a0e9;"/>
    <path d="M93.37,87.18l-15.71-13.84c-6.07-5.35-15.17-5.35-21.23,0l-15.71,13.84c-1.98,1.74-2.19,4.74-.48,6.75,1.75,2.05,4.84,2.27,6.86.49l7.77-6.85v4.46h24.35v-4.46l7.77,6.85c2.02,1.78,5.11,1.56,6.86-.49h0c1.71-2,1.49-5.01-.48-6.75Z" style="fill: #00a0e9;"/>
    <path d="M58.16,109.17l5.06-5.06-8.49-8.49-8.01,8.01c-2.74,2.74-2.74,7.18,0,9.92l10.01,10.01c1.92,1.92,5.02,1.92,6.94,0h0c1.92-1.92,1.92-5.02,0-6.94l-5.5-5.5c-.54-.54-.54-1.41,0-1.95Z" style="fill: #00a0e9;"/>
    <path d="M75.93,109.17l-5.06-5.06,8.49-8.49,8.01,8.01c2.74,2.74,2.74,7.18,0,9.92l-10.01,10.01c-1.92,1.92-5.02,1.92-6.94,0h0c-1.92-1.92-1.92-5.02,0-6.94l5.5-5.5c.54-.54.54-1.41,0-1.95Z" style="fill: #00a0e9;"/>
  </g>
</svg>