<?xml version="1.0" encoding="UTF-8"?>
<svg id="a" xmlns="http://www.w3.org/2000/svg" viewBox="0 0 100 150">
  <polygon points="0 110.54 0 117.5 21.41 117.5 21.41 110.54 37.13 110.54 37.13 103.58 52.85 103.58 52.85 96.62 68.56 96.62 68.56 89.66 84.28 89.66 84.28 82.7 100 82.7 100 75.74 78.59 75.74 78.59 82.7 62.87 82.7 62.87 89.66 47.15 89.66 47.15 96.62 31.44 96.62 31.44 103.58 15.72 103.58 15.72 110.54 0 110.54" style="fill: #00a0e9;"/>
  <path d="M53.16,37.02c0,2.49,2.02,4.52,4.52,4.52s4.52-2.02,4.52-4.52c0-2.49-2.02-4.52-4.52-4.52s-4.52,2.02-4.52,4.52Z" style="fill: #00a0e9;"/>
  <path d="M52.55,48.07v13.92c0,.39.09.78.26,1.13l1.81,3.66c.12.24.18.5.18.77v15.89c0,1.5,1.1,2.83,2.59,2.97,1.71.16,3.14-1.18,3.14-2.84v-14.88c0-.36.38-.6.71-.44l3.9,1.94c.47.23.76.71.76,1.23v5.19c0,1.38,1.01,2.6,2.38,2.73,1.57.15,2.89-1.08,2.89-2.62v-8.41c0-.61-.34-1.16-.89-1.43l-4.38-2.18-2.4-1.19c-.44-.22-.71-.66-.71-1.15v-5.48c0-.29.31-.47.56-.33l4.55,2.52.09.05c.38.2.84.27,1.32.15.67-.16,1.21-.71,1.37-1.38.21-.89-.22-1.72-.94-2.1l-6.29-3.48c-.41-.23-.66-.66-.66-1.12v-3.1c0-2.83-2.29-5.12-5.12-5.12s-5.12,2.29-5.12,5.12Z" style="fill: #00a0e9;"/>
  <path d="M16.88,75.78c.1.93.86,1.7,1.79,1.82.73.09,1.4-.19,1.84-.69.03-.03.06-.07.09-.11l3.14-3.79c.14-.17.42-.07.42.15v24.84c0,1.32.97,2.49,2.28,2.61,1.51.14,2.76-1.04,2.76-2.51v-9.31c0-.32.37-.5.62-.3l5.04,4.06s.02.02.03.02c.42.33.97.51,1.57.43.93-.12,1.69-.89,1.79-1.82.08-.73-.21-1.4-.71-1.83-.03-.03-.07-.06-.11-.09l-7.68-6.19c-.3-.24-.35-.68-.12-.98l3.73-4.87c.21-.27.32-.6.32-.94v-14.49c0-.4-.05-.79-.14-1.16-.52-2.06-2.39-3.6-4.62-3.6s-4.1,1.54-4.62,3.6c-.1.37-.14.76-.14,1.16v3.66c0,.33-.12.65-.33.91l-6.48,7.81s-.02.02-.02.03c-.34.41-.52.96-.45,1.55Z" style="fill: #00a0e9;"/>
  <path d="M24.41,51.53c0,2.49,2.02,4.52,4.52,4.52s4.52-2.02,4.52-4.52c0-2.49-2.02-4.52-4.52-4.52s-4.52,2.02-4.52,4.52Z" style="fill: #00a0e9;"/>
</svg>