<?xml version="1.0" encoding="UTF-8"?>
<svg id="a" xmlns="http://www.w3.org/2000/svg" viewBox="0 0 100 150">
  <g>
    <path d="M64.54,62.43l-25.66,34.47h25.74v3.38h-29.35v-4.19l1.6-2.15,23.47-31.51h-30.51c-.96,0-1.74.78-1.74,1.74v41.13c0,2.17,1.76,3.92,3.92,3.92h1.08v2.19c0,.6.49,1.09,1.09,1.09h31.68c.6,0,1.09-.49,1.09-1.09v-2.19h1.08c2.17,0,3.92-1.76,3.92-3.92v-41.13c0-.96-.78-1.74-1.74-1.74h-5.64Z" style="fill: #fff;"/>
    <polygon points="40.15 43.73 46.52 43.73 52.8 43.73 59.17 43.73 60.39 43.73 66.61 37.5 59.17 37.5 52.8 37.5 46.52 37.5 40.15 37.5 33.78 37.5 40 43.73 40.15 43.73" style="fill: #fff;"/>
    <path d="M40.27,46.98h-.27l-4.74,4.74h4.66c.78,4.91,5.03,8.67,10.17,8.67s9.39-3.75,10.17-8.67c.09-.51.13-1.04.13-1.58v-3.16h-20.12Z" style="fill: #fff;"/>
  </g>
  <path d="M92.5,28c2.48,0,4.5,2.02,4.5,4.5v85c0,2.48-2.02,4.5-4.5,4.5H7.5c-2.48,0-4.5-2.02-4.5-4.5V32.5c0-2.48,2.02-4.5,4.5-4.5h85M92.5,25H7.5C3.36,25,0,28.36,0,32.5v85C0,121.64,3.36,125,7.5,125h85c4.14,0,7.5-3.36,7.5-7.5V32.5c0-4.14-3.36-7.5-7.5-7.5h0Z" style="fill: #fff;"/>
</svg>