<?xml version="1.0" encoding="UTF-8"?>
<svg id="a" xmlns="http://www.w3.org/2000/svg" viewBox="0 0 100 150">
  <rect y="24.56" width="12.37" height="100.89" style="fill: #00a0e9;"/>
  <g>
    <path d="M75.12,42.52H24.87c-3.18,0-5.75,2.59-5.75,5.8v53.36c0,3.2,2.58,5.8,5.75,5.8h50.25c3.18,0,5.76-2.59,5.76-5.8v-53.36c0-3.2-2.58-5.8-5.76-5.8ZM76.25,100.28c0,1.39-1.12,2.52-2.51,2.52H26.25c-1.38,0-2.5-1.13-2.5-2.52v-50.56c0-1.39,1.12-2.52,2.5-2.52h47.49c1.38,0,2.51,1.13,2.51,2.52v50.56Z" style="fill: #00a0e9;"/>
    <path d="M47.24,52.74c0,1.94-1.56,3.51-3.49,3.51s-3.49-1.57-3.49-3.51,1.56-3.51,3.49-3.51,3.49,1.57,3.49,3.51Z" style="fill: #00a0e9;"/>
    <path d="M51.89,61.69v15.75c0,.83-.66,1.49-1.48,1.49h0c-.82,0-1.48-.66-1.48-1.49v-14.43c0-.15-.11-.26-.26-.27h0c-.15,0-.26.12-.26.27v35.69c0,1.14-.92,2.07-2.05,2.07-.57,0-1.08-.23-1.45-.61-.37-.37-.6-.89-.6-1.46v-20.9c0-.3-.24-.54-.54-.54s-.54.24-.54.54v20.9c0,1.14-.92,2.07-2.05,2.07-.57,0-1.08-.23-1.45-.61-.37-.37-.6-.89-.6-1.46v-35.69c0-.15-.12-.27-.27-.27s-.27.12-.27.27v14.43c0,.82-.66,1.49-1.48,1.49-.41,0-.78-.17-1.05-.43-.27-.27-.43-.64-.43-1.05v-15.75c0-2.52,2.03-4.57,4.53-4.57h7.2c2.5,0,4.53,2.04,4.53,4.57Z" style="fill: #00a0e9;"/>
    <path d="M69.06,56c0,1.45-1.17,2.63-2.61,2.63s-2.61-1.18-2.61-2.63,1.17-2.63,2.61-2.63,2.61,1.18,2.61,2.63Z" style="fill: #00a0e9;"/>
    <path d="M69.06,63.25c0,1.45-1.17,2.63-2.61,2.63s-2.61-1.18-2.61-2.63,1.17-2.63,2.61-2.63,2.61,1.18,2.61,2.63Z" style="fill: #00a0e9;"/>
    <path d="M69.06,70.49c0,1.45-1.17,2.63-2.61,2.63s-2.61-1.18-2.61-2.63,1.17-2.63,2.61-2.63,2.61,1.18,2.61,2.63Z" style="fill: #00a0e9;"/>
    <polygon points="57.46 30.06 57.44 37.03 52.29 31.48 52.25 39.55 47.65 39.55 47.7 31.48 42.54 37.05 42.55 30.05 50 22 57.46 30.06" style="fill: #00a0e9;"/>
    <polygon points="57.46 119.94 57.44 112.97 52.29 118.52 52.25 110.45 47.65 110.45 47.7 118.52 42.54 112.95 42.55 119.95 50 128 57.46 119.94" style="fill: #00a0e9;"/>
  </g>
  <rect x="87.63" y="24.56" width="12.37" height="100.89" style="fill: #00a0e9;"/>
</svg>