<?xml version="1.0" encoding="UTF-8"?>
<svg id="a" xmlns="http://www.w3.org/2000/svg" viewBox="0 0 37 150">
  <path d="M25.31,31.81c0,3.76-3.05,6.81-6.81,6.81s-6.81-3.05-6.81-6.81,3.05-6.81,6.81-6.81,6.81,3.05,6.81,6.81Z" style="fill: #e61673;"/>
  <path d="M35.94,94.03h-7.94c-.21,0-.37.16-.37.37v26.59c0,2.22-1.8,4.01-4.03,4.01-1.11,0-2.13-.45-2.85-1.18-.73-.72-1.18-1.73-1.18-2.84v-25.9c0-.58-.48-1.06-1.06-1.06s-1.06.47-1.06,1.06v25.9c0,2.22-1.8,4.01-4.03,4.01-1.11,0-2.13-.45-2.85-1.18-.73-.72-1.18-1.73-1.18-2.84v-26.59c0-.21-.16-.37-.37-.37H1.06c-.75,0-1.26-.76-.97-1.45l10.62-25.47c.19-.45.28-.93.28-1.42v-13.97c0-.28-.23-.5-.51-.5s-.51.22-.51.5v13.73c0,.38-.07.76-.22,1.11l-2.75,6.61-1.29,3.09c-.61,1.47-2.31,2.17-3.79,1.56-1.12-.46-1.79-1.54-1.79-2.67,0-.37.06-.74.22-1.11l3.6-8.63c.14-.34.22-.72.22-1.11v-15.13c0-4.89,3.99-8.86,8.91-8.86h.54c1.24,1.26,2.97,2.04,4.89,2.04s3.65-.78,4.89-2.04h.54c4.92,0,8.91,3.96,8.91,8.86v15.12c0,.38.07.75.22,1.11l3.6,8.64c.68,1.66-.28,3.58-2.15,3.95-1.36.26-2.71-.54-3.25-1.82l-1.14-2.72-2.87-6.88c-.14-.34-.22-.72-.22-1.11v-13.74c0-.25-.17-.46-.4-.5-.03,0-.07,0-.1,0s-.07,0-.1,0c-.24.05-.41.26-.41.5v13.97c0,.49.1.97.28,1.42l10.62,25.47c.29.69-.23,1.45-.97,1.45Z" style="fill: #e61673;"/>
</svg>