<?xml version="1.0" encoding="UTF-8"?>
<svg id="a" xmlns="http://www.w3.org/2000/svg" viewBox="0 0 100 150">
  <g>
    <g>
      <path d="M25.45,50.24c-2.94.49-4.93,3.28-4.44,6.22l2.73,16.34.77,4.58c.32,1.89,1.95,3.27,3.87,3.27h19.4c.58,0,1.11.36,1.31.91l6.4,17.2c.7,1.88,2.79,2.84,4.68,2.14h0c1.88-.7,2.84-2.79,2.14-4.68l-5.79-15.58-1.67-4.48c-.75-2.02-2.68-3.37-4.84-3.37h-14.29c-.58,0-1.08-.42-1.18-1l-.75-4.47c-.06-.36.22-.68.58-.68h9.82c1.33,0,2.42-1.08,2.42-2.42h0c0-1.33-1.08-2.42-2.42-2.42h-10.43c-.52,0-.96-.37-1.04-.88l-1.05-6.26c-.49-2.94-3.28-4.93-6.22-4.44h0Z" style="fill: #fff;"/>
      <path d="M24.07,42.72c0,2.88,2.34,5.22,5.22,5.22,2.88,0,5.22-2.34,5.22-5.22,0-2.88-2.34-5.22-5.22-5.22-2.88,0-5.22,2.34-5.22,5.22Z" style="fill: #fff;"/>
      <path d="M7.5,81.89c.22,10.87,9.25,19.67,20.12,19.62,10.67-.05,19.37-8.43,19.92-18.97,0-.12-.09-.22-.21-.22h-3.79c-.11,0-.2.09-.21.2-.54,8.36-7.57,14.94-16.1,14.78-8.27-.16-15.11-6.78-15.51-15.04-.32-6.73,3.56-12.6,9.25-15.19.09-.04.14-.13.12-.22l-.64-3.84c-.02-.13-.16-.21-.29-.16-7.54,2.98-12.84,10.41-12.66,19.05Z" style="fill: #fff;"/>
    </g>
    <polygon points="7.5 112.5 92.5 112.5 92.5 95.8 7.5 112.5" style="fill: #fff;"/>
  </g>
  <path d="M92.5,28c2.48,0,4.5,2.02,4.5,4.5v85c0,2.48-2.02,4.5-4.5,4.5H7.5c-2.48,0-4.5-2.02-4.5-4.5V32.5c0-2.48,2.02-4.5,4.5-4.5h85M92.5,25H7.5c-4.14,0-7.5,3.36-7.5,7.5v85c0,4.14,3.36,7.5,7.5,7.5h85c4.14,0,7.5-3.36,7.5-7.5V32.5c0-4.14-3.36-7.5-7.5-7.5h0Z" style="fill: #fff;"/>
</svg>