<?xml version="1.0" encoding="UTF-8"?>
<svg id="a" xmlns="http://www.w3.org/2000/svg" viewBox="0 0 100 150">
  <g>
    <path d="M54.27,54.64c0-2.45-1.98-4.43-4.43-4.43s-4.43,1.98-4.43,4.43,1.98,4.43,4.43,4.43,4.43-1.98,4.43-4.43Z" style="fill: #fff;"/>
    <path d="M54.42,60.17h-9.15c-3.17,0-5.77,2.58-5.77,5.77v19.88c0,.51.21.99.55,1.34.35.34.81.55,1.34.55,1.02,0,1.87-.85,1.87-1.89v-18.22c0-.18.16-.34.34-.34.19,0,.34.16.34.34v42.28c0,.72.3,1.38.78,1.85.46.48,1.11.76,1.83.76,1.45,0,2.61-1.16,2.61-2.61v-23.6c0-.39.32-.69.69-.69s.69.3.69.69v23.6c0,.72.3,1.38.78,1.85.48.48,1.11.76,1.85.76,1.43,0,2.61-1.16,2.61-2.61v-42.28c0-.18.14-.34.32-.34h.02c.18,0,.34.16.34.34v18.22c0,1.04.83,1.89,1.87,1.89s1.89-.85,1.89-1.89v-19.88c0-3.19-2.59-5.77-5.77-5.77Z" style="fill: #fff;"/>
    <polygon points="83.52 105.84 76.3 105.84 76.3 37.49 23.69 37.49 23.69 105.84 16.49 105.84 16.25 105.84 16.25 112.49 16.49 112.49 30.9 112.49 30.9 105.84 30.9 45.46 69.09 45.46 69.09 105.84 69.09 112.49 83.52 112.49 83.75 112.49 83.75 105.84 83.52 105.84" style="fill: #fff;"/>
  </g>
  <path d="M92.5,28c2.48,0,4.5,2.02,4.5,4.5v85c0,2.48-2.02,4.5-4.5,4.5H7.5c-2.48,0-4.5-2.02-4.5-4.5V32.5c0-2.48,2.02-4.5,4.5-4.5h85M92.5,25H7.5C3.36,25,0,28.36,0,32.5v85C0,121.64,3.36,125,7.5,125h85c4.14,0,7.5-3.36,7.5-7.5V32.5c0-4.14-3.36-7.5-7.5-7.5h0Z" style="fill: #fff;"/>
</svg>