<?xml version="1.0" encoding="UTF-8"?>
<svg id="a" xmlns="http://www.w3.org/2000/svg" viewBox="0 0 100 150">
  <g>
    <g>
      <circle cx="64.84" cy="42.5" r="5" style="fill: #fff;"/>
      <path d="M76.37,55.63v22.91c0,1.2-.94,2.17-2.09,2.17h0c-1.16,0-2.09-.97-2.09-2.17v-20.99c0-.22-.16-.38-.37-.39h0c-.21,0-.37.17-.37.39v51.94c0,1.66-1.3,3.01-2.91,3.01-.81,0-1.53-.34-2.06-.88-.53-.54-.85-1.3-.85-2.13v-30.42c0-.44-.34-.79-.77-.79s-.77.35-.77.79v30.42c0,1.66-1.3,3.01-2.91,3.01-.81,0-1.53-.34-2.06-.88-.53-.54-.85-1.3-.85-2.13v-51.94c0-.22-.17-.39-.38-.39s-.38.17-.38.39v21c0,1.2-.94,2.16-2.09,2.16-.58,0-1.1-.24-1.48-.63-.38-.4-.61-.94-.61-1.53v-22.92c0-3.67,2.88-6.64,6.43-6.64h10.2c3.55,0,6.43,2.97,6.43,6.64Z" style="fill: #fff;"/>
    </g>
    <g>
      <ellipse cx="29.61" cy="42.61" rx="5" ry="5.11" style="fill: #fff;"/>
      <path d="M41.14,55.64v12.89h-4.19v-10.98c0-.21-.16-.39-.38-.39-.21,0-.38.17-.38.39v10.98h-13.17v-10.98c0-.21-.17-.39-.38-.39s-.38.17-.38.39v10.98h-4.19v-12.89c0-3.67,2.88-6.65,6.43-6.65h10.2c3.54,0,6.42,2.98,6.42,6.65Z" style="fill: #fff;"/>
    </g>
    <rect x="10" y="71.87" width="39.93" height="5.37" style="fill: #fff;"/>
    <rect x="79.74" y="71.87" width="10.26" height="5.37" style="fill: #fff;"/>
  </g>
  <path d="M92.5,28c2.48,0,4.5,2.02,4.5,4.5v85c0,2.48-2.02,4.5-4.5,4.5H7.5c-2.48,0-4.5-2.02-4.5-4.5V32.5c0-2.48,2.02-4.5,4.5-4.5h85M92.5,25H7.5C3.36,25,0,28.36,0,32.5v85C0,121.64,3.36,125,7.5,125h85c4.14,0,7.5-3.36,7.5-7.5V32.5c0-4.14-3.36-7.5-7.5-7.5h0Z" style="fill: #fff;"/>
</svg>