<?xml version="1.0" encoding="UTF-8"?>
<svg id="a" xmlns="http://www.w3.org/2000/svg" viewBox="0 0 100 150">
  <g>
    <path d="M80.21,52.01l-8.29,5.58-12.12-7.6-10.87,17.89-15.03-8.9c-.84-.52-1.87-.56-2.76-.13l-24.14,12.09c-.46.23-.74.69-.74,1.19v23.96c-.02.64.36,1.2.99,1.27,2.85.29,7.34.32,12.58-1.56,3.66-1.32,6.48-3.17,8.49-4.78,1.57-1.27,3.53-1.91,5.54-1.91h5.59l-.87,1.51c-1.17,2.04-.51,4.62,1.49,5.81,1.3.77,2.84.74,4.07.06.16.93.71,1.79,1.58,2.3,1.57.93,3.58.39,4.5-1.21l1.11-1.93,6.91,4.33,3.41-5.6,32.1-21.63-13.55-20.76ZM29.45,78.55c1.28-2.03,3.11-3.28,5.12-3.28,1.77,0,3.41.98,4.64,2.61l-9.76.68ZM57.08,95.98l-8.75-5.49-5.24-3.3h7.68c2.99,0,5.39-2.43,5.39-5.47s-2.39-5.46-5.39-5.46h-3.17l13.24-21.79,15.53,9.74-19.3,31.77ZM76.17,70.52c-.06.42.05.87.32,1.26.57.77,1.66.93,2.42.35l.97-.72c.46-.34.7-.87.7-1.42,0-.37-.11-.74-.35-1.05-.57-.79-1.65-.95-2.42-.37l-.86.68,3.74-6.16-6.02-3.77,4.42-2.98,10.01,15.32-23.07,15.53,10.14-16.67Z" style="fill: #fff;"/>
    <path d="M59.03,63h0c-.84-.51-1.1-1.59-.58-2.42l.65-1.04c.51-.83,1.61-1.08,2.45-.58h0c.84.51,1.1,1.59.58,2.42l-.65,1.04c-.51.83-1.61,1.08-2.44.58Z" style="fill: #fff;"/>
    <path d="M62.55,65.33h0c-.84-.51-1.1-1.59-.58-2.42l.65-1.04c.51-.83,1.61-1.09,2.44-.58h0c.84.51,1.1,1.59.58,2.42l-.65,1.04c-.51.83-1.61,1.08-2.44.58Z" style="fill: #fff;"/>
    <path d="M66.07,67.66h0c-.84-.51-1.1-1.59-.58-2.42l.65-1.04c.51-.83,1.61-1.09,2.44-.58h0c.84.51,1.1,1.59.58,2.42l-.65,1.04c-.51.83-1.61,1.08-2.44.58Z" style="fill: #fff;"/>
    <path d="M69.6,69.98h0c-.84-.51-1.1-1.59-.58-2.42l.65-1.04c.51-.83,1.61-1.09,2.44-.58h0c.84.51,1.1,1.59.58,2.42l-.65,1.04c-.51.83-1.61,1.08-2.44.58Z" style="fill: #fff;"/>
    <path d="M80.49,73.33h0c-.59-.78-.42-1.88.36-2.46l.99-.73c.79-.58,1.9-.42,2.49.36h0c.59.78.42,1.88-.36,2.46l-.99.73c-.79.58-1.9.42-2.49-.36Z" style="fill: #fff;"/>
  </g>
  <path d="M92.5,28c2.48,0,4.5,2.02,4.5,4.5v85c0,2.48-2.02,4.5-4.5,4.5H7.5c-2.48,0-4.5-2.02-4.5-4.5V32.5c0-2.48,2.02-4.5,4.5-4.5h85M92.5,25H7.5C3.36,25,0,28.36,0,32.5v85C0,121.64,3.36,125,7.5,125h85c4.14,0,7.5-3.36,7.5-7.5V32.5c0-4.14-3.36-7.5-7.5-7.5h0Z" style="fill: #fff;"/>
</svg>