<?xml version="1.0" encoding="UTF-8"?>
<svg xmlns="http://www.w3.org/2000/svg" viewBox="0 0 80 150">
  <g id="a">
    <circle cx="14.88" cy="26.33" r="5.31" style="fill: #00a0e9;"/>
    <path d="M27.27,39.87v23.83c0,1.25-1,2.25-2.25,2.25h0c-1.24,0-2.25-1.01-2.25-2.25v-21.83c0-.22-.17-.4-.4-.41h0c-.22,0-.4.18-.4.41v54c0,1.73-1.4,3.13-3.13,3.13-.87,0-1.65-.35-2.21-.92-.57-.56-.92-1.35-.92-2.21v-31.63c0-.46-.37-.82-.82-.82s-.82.37-.82.82v31.63c0,1.73-1.4,3.13-3.13,3.13-.87,0-1.65-.35-2.21-.92-.57-.56-.92-1.35-.92-2.21v-54c0-.22-.18-.41-.41-.41s-.41.18-.41.41v21.83c0,1.24-1,2.25-2.25,2.25-.62,0-1.19-.25-1.59-.66-.41-.41-.66-.97-.66-1.59v-23.83c0-3.82,3.09-6.91,6.9-6.91h10.96c3.81,0,6.9,3.09,6.9,6.91h.02Z" style="fill: #00a0e9;"/>
    <circle cx="63.16" cy="26.33" r="5.31" style="fill: #e61673;"/>
    <path d="M76.68,74.85h-6.15c-.16,0-.29.12-.29.29v20.73c0,1.73-1.4,3.13-3.13,3.13-.86,0-1.65-.35-2.21-.92-.57-.56-.92-1.35-.92-2.21v-20.2c0-.46-.37-.82-.82-.82s-.82.37-.82.82v20.2c0,1.73-1.4,3.13-3.13,3.13-.86,0-1.65-.35-2.21-.92-.57-.56-.92-1.35-.92-2.21v-20.73c0-.16-.12-.29-.29-.29h-6.15c-.58,0-.98-.59-.76-1.13l8.23-19.87c.14-.35.22-.72.22-1.11v-10.89c0-.22-.17-.39-.39-.39s-.39.17-.39.39v10.7c0,.3-.06.59-.17.86l-2.13,5.15-1,2.41c-.47,1.15-1.79,1.69-2.94,1.22-.87-.36-1.39-1.2-1.39-2.08,0-.29.05-.58.17-.86l2.79-6.73c.11-.27.17-.56.17-.86v-11.8c0-3.82,3.09-6.91,6.9-6.91h.42c.96.98,2.3,1.59,3.79,1.59s2.83-.61,3.79-1.59h.42c3.81,0,6.9,3.09,6.9,6.91v11.79c0,.3.06.59.17.86l2.79,6.74c.53,1.29-.22,2.79-1.67,3.08-1.05.21-2.1-.42-2.52-1.42l-.88-2.12-2.22-5.36c-.11-.27-.17-.56-.17-.86v-10.72c0-.19-.13-.36-.31-.39h-.16c-.19.04-.32.2-.32.39v10.89c0,.38.07.76.22,1.11l8.23,19.87c.22.54-.17,1.13-.76,1.13h0Z" style="fill: #e61673;"/>
    <path d="M39.02,20h0c1.18,0,2.13.95,2.13,2.13v74.74c0,1.18-.95,2.13-2.13,2.13h0c-1.18,0-2.13-.95-2.13-2.13V22.13c0-1.18.95-2.13,2.13-2.13Z" style="fill: #fff;"/>
  </g>
  <g id="c">
    <rect y="110" width="80" height="40" style="fill: #003670;"/>
  </g>
</svg>