<?xml version="1.0" encoding="UTF-8"?>
<svg xmlns="http://www.w3.org/2000/svg" viewBox="0 0 60 150">
  <g id="a">
    <rect x="3.87" y="45.33" width="6.46" height="52.35" style="fill: #00a0e9;"/>
    <path d="M43.13,54.65h-26.26c-1.66,0-3.01,1.35-3.01,3.01v27.69c0,1.66,1.35,3.01,3.01,3.01h26.26c1.66,0,3.01-1.35,3.01-3.01v-27.69c0-1.66-1.35-3.01-3.01-3.01ZM43.72,84.62c0,.72-.59,1.31-1.31,1.31h-24.82c-.72,0-1.31-.59-1.31-1.31v-26.24c0-.72.59-1.31,1.31-1.31h24.81c.72,0,1.31.58,1.31,1.31v26.24h0Z" style="fill: #00a0e9;"/>
    <path d="M28.56,59.95c0,1.01-.82,1.82-1.82,1.82s-1.82-.82-1.82-1.82.82-1.82,1.82-1.82,1.82.82,1.82,1.82Z" style="fill: #00a0e9;"/>
    <path d="M30.99,64.59v8.17c0,.43-.34.77-.77.77h0c-.43,0-.77-.34-.77-.77v-7.49c0-.08-.06-.14-.14-.14h0c-.08,0-.14.06-.14.14v18.52c0,.59-.48,1.07-1.07,1.07-.3,0-.57-.12-.76-.31-.19-.19-.31-.46-.31-.76v-10.85c0-.16-.13-.28-.28-.28s-.28.13-.28.28v10.85c0,.59-.48,1.07-1.07,1.07-.3,0-.57-.12-.76-.31-.19-.19-.31-.46-.31-.76v-18.52c0-.08-.06-.14-.14-.14s-.14.06-.14.14v7.49c0,.43-.34.77-.77.77-.21,0-.41-.09-.55-.22-.14-.14-.22-.33-.22-.55v-8.17c0-1.31,1.06-2.37,2.37-2.37h3.76c1.31,0,2.37,1.06,2.37,2.37h-.02Z" style="fill: #00a0e9;"/>
    <path d="M39.96,61.64c0,.75-.61,1.36-1.36,1.36s-1.36-.61-1.36-1.36.61-1.36,1.36-1.36,1.36.61,1.36,1.36Z" style="fill: #00a0e9;"/>
    <path d="M39.96,65.4c0,.75-.61,1.36-1.36,1.36s-1.36-.61-1.36-1.36.61-1.36,1.36-1.36,1.36.61,1.36,1.36Z" style="fill: #00a0e9;"/>
    <path d="M39.96,69.16c0,.75-.61,1.36-1.36,1.36s-1.36-.61-1.36-1.36.61-1.36,1.36-1.36,1.36.61,1.36,1.36Z" style="fill: #00a0e9;"/>
    <polygon points="33.9 48.18 33.89 51.8 31.2 48.92 31.18 53.11 28.77 53.11 28.8 48.92 26.1 51.81 26.11 48.18 30 44 33.9 48.18" style="fill: #00a0e9;"/>
    <polygon points="33.9 94.82 33.89 91.2 31.2 94.08 31.18 89.89 28.77 89.89 28.8 94.08 26.1 91.19 26.11 94.82 30 99 33.9 94.82" style="fill: #00a0e9;"/>
    <rect x="49.66" y="45.33" width="6.46" height="52.35" style="fill: #00a0e9;"/>
  </g>
  <g id="c">
    <rect y="110" width="60" height="40" style="fill: #003670;"/>
  </g>
</svg>