<?xml version="1.0" encoding="UTF-8"?>
<svg xmlns="http://www.w3.org/2000/svg" viewBox="0 0 52 150">
  <g id="a">
    <path d="M6,46.5h17.61c3.97,0,7,.32,9.08.95,2.8.86,5.2,2.4,7.19,4.6,2,2.21,3.51,4.91,4.55,8.1,1.04,3.19,1.56,7.13,1.56,11.82,0,4.12-.49,7.66-1.47,10.64-1.19,3.64-2.9,6.58-5.11,8.83-1.67,1.71-3.93,3.04-6.77,3.99-2.13.7-4.97,1.06-8.53,1.06H6v-50h0ZM15.64,54.96v33.12h7.19c2.69,0,4.63-.16,5.83-.48,1.56-.41,2.85-1.1,3.89-2.08,1.03-.98,1.87-2.59,2.52-4.82.65-2.24.98-5.29.98-9.16s-.32-6.83-.98-8.9c-.65-2.07-1.56-3.68-2.73-4.84-1.17-1.16-2.66-1.94-4.46-2.35-1.34-.32-3.98-.48-7.91-.48h-4.33Z" style="fill: #fff;"/>
  </g>
  <g id="c">
    <rect y="110" width="52" height="40" style="fill: #003670;"/>
  </g>
</svg>