<?xml version="1.0" encoding="UTF-8"?>
<svg xmlns="http://www.w3.org/2000/svg" viewBox="0 0 52 150">
  <g id="a">
    <path d="M37.01,77.9l8.99,3c-1.38,5.28-3.67,9.2-6.88,11.76-3.2,2.56-7.27,3.84-12.2,3.84-6.1,0-11.11-2.19-15.03-6.58-3.93-4.38-5.89-10.38-5.89-17.99,0-8.05,1.97-14.3,5.92-18.75s9.14-6.68,15.57-6.68c5.62,0,10.18,1.75,13.69,5.24,2.09,2.07,3.66,5.04,4.7,8.91l-9.17,2.31c-.55-2.51-1.68-4.49-3.4-5.94-1.72-1.45-3.82-2.18-6.28-2.18-3.4,0-6.17,1.29-8.29,3.86s-3.18,6.74-3.18,12.5c0,6.11,1.05,10.47,3.13,13.06s4.8,3.89,8.14,3.89c2.47,0,4.59-.82,6.36-2.47s3.05-4.24,3.82-7.78Z" style="fill: #fff;"/>
  </g>
  <g id="c">
    <rect y="110" width="52" height="40" style="fill: #003670;"/>
  </g>
</svg>