<?xml version="1.0" encoding="UTF-8"?>
<svg xmlns="http://www.w3.org/2000/svg" viewBox="0 0 80 150">
  <g id="a">
    <rect x="18.75" y="44" width="42.5" height="55" style="fill: #009f3c;"/>
    <polygon points="42.55 75.2 49.62 75.2 49.62 67.62 54.73 67.62 54.73 80.48 25.1 80.48 25.1 67.62 30.22 67.62 30.22 75.2 37.45 75.2 37.45 64.27 25.63 64.27 25.63 51.4 30.57 51.4 30.57 58.8 37.45 58.8 37.45 49.12 42.55 49.12 42.55 58.8 49.62 58.8 49.62 51.4 54.2 51.4 54.2 64.27 42.55 64.27 42.55 75.2" style="fill: #fff;"/>
    <path d="M25.1,93.88v-10.05h6.88v1.77h-4.93v2.28h4.58v1.77h-4.58v2.82h5.12v1.77h-7.05v-.35h-.02Z" style="fill: #fff;"/>
    <path d="M33.57,93.88l3.17-5.28-2.82-4.77h2.12l1.77,3.17,1.77-3.17h2.12l-2.82,4.93,3.17,5.12h-2.3l-2.12-3.53-2.12,3.53h-2.3s.37,0,.37,0Z" style="fill: #fff;"/>
    <path d="M43.62,93.88v-10.05h1.93v10.05h-1.93Z" style="fill: #fff;"/>
    <path d="M50.13,93.88v-8.47h-2.82v-1.77h7.4v1.77h-2.82v8.47h-1.93.18-.02Z" style="fill: #fff;"/>
  </g>
  <g id="c">
    <rect y="110" width="80" height="40" style="fill: #003670;"/>
  </g>
</svg>