<?xml version="1.0" encoding="UTF-8"?>
<svg xmlns="http://www.w3.org/2000/svg" viewBox="0 0 52 150">
  <g id="a">
    <path d="M6,46.5h19.09c3.78,0,6.6.17,8.45.5,1.85.33,3.52,1.02,4.98,2.06,1.47,1.05,2.69,2.44,3.67,4.18.97,1.74,1.46,3.69,1.46,5.85,0,2.34-.6,4.49-1.81,6.45-1.21,1.96-2.84,3.42-4.9,4.4,2.91.89,5.14,2.4,6.71,4.54,1.56,2.14,2.35,4.65,2.35,7.54,0,2.27-.5,4.49-1.51,6.63-1.01,2.15-2.39,3.87-4.14,5.15s-3.9,2.07-6.46,2.37c-1.61.18-5.49.3-11.63.34H6v-50h0ZM15.64,54.82v11.56h6.32c3.76,0,6.09-.06,7-.17,1.65-.2,2.95-.8,3.89-1.79.95-.99,1.42-2.29,1.42-3.9s-.41-2.8-1.22-3.77-2.03-1.55-3.63-1.76c-.96-.11-3.7-.17-8.24-.17,0,0-5.54,0-5.54,0ZM15.64,74.71v13.37h8.92c3.47,0,5.68-.1,6.61-.31,1.44-.27,2.6-.94,3.5-2s1.35-2.47,1.35-4.25c0-1.5-.35-2.77-1.04-3.82-.69-1.05-1.7-1.81-3.01-2.29-1.32-.48-4.17-.72-8.55-.72h-7.79v.02Z" style="fill: #fff;"/>
  </g>
  <g id="c">
    <rect y="110" width="52" height="40" style="fill: #003670;"/>
  </g>
</svg>