<?xml version="1.0" encoding="UTF-8"?>
<svg xmlns="http://www.w3.org/2000/svg" viewBox="0 0 55 150">
  <g id="a">
    <path d="M28.99,77.9v-8.15h20.01v19.26c-1.94,1.98-4.76,3.72-8.45,5.23s-7.43,2.26-11.22,2.26c-4.81,0-9-1.06-12.58-3.18-3.57-2.12-6.26-5.16-8.06-9.1-1.8-3.95-2.7-8.24-2.7-12.88,0-5.04,1-9.51,3.01-13.42,2.01-3.91,4.95-6.92,8.82-9.01,2.95-1.61,6.62-2.41,11.01-2.41,5.71,0,10.17,1.26,13.38,3.78s5.27,6,6.19,10.44l-9.22,1.82c-.65-2.37-1.87-4.25-3.65-5.63-1.79-1.37-4.02-2.06-6.7-2.06-4.06,0-7.28,1.35-9.68,4.06-2.4,2.71-3.59,6.72-3.59,12.04,0,5.74,1.21,10.04,3.64,12.91,2.42,2.87,5.6,4.3,9.53,4.3,1.94,0,3.9-.4,5.85-1.2,1.95-.8,3.63-1.78,5.03-2.92v-6.14h-10.63.01Z" style="fill: #fff;"/>
  </g>
  <g id="c">
    <rect y="110" width="55" height="40" style="fill: #003670;"/>
  </g>
</svg>