<?xml version="1.0" encoding="UTF-8"?>
<svg id="a" xmlns="http://www.w3.org/2000/svg" viewBox="0 0 110 150">
  <rect x="0" width="110" height="150" style="fill: #009f3c;"/>
  <g>
    <polygon points="61.29 84.07 78.98 84.07 78.98 65.1 91.25 65.1 91.25 97 18.75 97 18.75 65.1 31.02 65.1 31.02 84.07 48.71 84.07 48.71 57.27 19.76 57.27 19.76 25.26 32.03 25.26 32.03 43.83 48.71 43.83 48.71 20 61.29 20 61.29 43.83 78.98 43.83 78.98 25.26 90.24 25.26 90.24 57.27 61.29 57.27 61.29 84.07" style="fill: #fff;"/>
    <g>
      <path d="M18.75,130v-24.75h16.88v4.19h-12.28v5.49h11.43v4.17h-11.43v6.74h12.72v4.17h-17.32Z" style="fill: #fff;"/>
      <path d="M39.24,130l7.78-12.91-7.05-11.84h5.37l4.57,7.95,4.47-7.95h5.33l-7.08,12.02,7.78,12.73h-5.54l-5.05-8.56-5.06,8.56h-5.51Z" style="fill: #fff;"/>
      <path d="M64.22,130v-24.75h4.6v24.75h-4.6Z" style="fill: #fff;"/>
      <path d="M79.91,130v-20.56h-6.76v-4.19h18.09v4.19h-6.74v20.56h-4.6Z" style="fill: #fff;"/>
    </g>
  </g>
</svg>