<?xml version="1.0" encoding="UTF-8"?>
<svg id="a" xmlns="http://www.w3.org/2000/svg" viewBox="0 0 50 150">
  <path d="M50,120.57c0,2.47-1.93,4.41-4.39,4.41s-2.81-.71-3.68-1.94l-.35-.53h0l-10.18-17.46s-.18-.35-.18-.53l-2.98-8.64c0-.18-.35-.18-.53,0l-7.37,8.47c-.18.18-.35.53-.35.88l-2.11,14.64c-.18,2.29-2.11,3.88-4.39,3.88s-4.39-1.94-4.39-4.41v-.88h0l2.28-16.75c0-.71.35-1.41.7-1.94l8.42-14.11v-10.05l-.53-5.82-1.75,3c-.18.35-.53.71-.7,1.06l-3.33,3.17-7.37,6.88h0l-.35.35c-.88.71-1.93,1.06-3.16.88C1.58,84.77.35,83.53,0,81.77,0,80.53.18,79.48.88,78.77h0l9.12-10.05s.35-.35.35-.53l9.65-16.05h0c1.58-2.82,4.56-4.59,8.07-4.59s5.09,1.06,6.84,3l10.18,10.05c.7.71,1.23,1.59,1.4,2.65l2.98,15.52v1.06c0,2.47-2.11,4.59-4.56,4.59s-4.04-1.59-4.56-3.53v-.35h0l-2.98-14.29c0-.53-.35-.88-.7-1.06l-.88-.53,1.23,11.29v1.94l-.35,8.82,2.98,15.34c0,.35.18.71.35,1.06l8.95,15.52c.35.71.7,1.41.7,2.29h0l.35-.35Z" style="fill: #fff;"/>
  <path d="M35.27,33.62c0,4.74-3.86,8.6-8.6,8.6s-8.6-3.86-8.6-8.6,3.86-8.6,8.6-8.6,8.6,3.86,8.6,8.6Z" style="fill: #fff;"/>
</svg>