<?xml version="1.0" encoding="UTF-8"?>
<svg id="a" xmlns="http://www.w3.org/2000/svg" viewBox="0 0 100 150">
  <polygon points="47.65 77.62 65.6 77.62 100 47.06 65.6 16.5 47.65 16.5 75.85 40.91 28.09 40.91 28.09 53.2 75.85 53.2 47.65 77.62" style="fill: #fff;"/>
  <g>
    <g>
      <path d="M48.02,93.71v1.71h-10.97v4.65l.31-.36c3.12,1.51,7.16,3.83,9.23,5.4l-1.2,1.53c-1.84-1.46-5.34-3.63-8.34-5.22v13.78h-1.79v-19.79h-9.97v-1.71h22.73Z" style="fill: #fff;"/>
      <path d="M73.95,102.33v1.87h-23.37v-1.87h23.37Z" style="fill: #fff;"/>
      <path d="M85.16,99.46c-.46,3.07-1.2,7.08-1.87,9.82l2.89-.71.15,1.58c-3.4.9-7.01,1.82-9.67,2.51l-.44-1.71c1.51-.33,3.48-.79,5.6-1.3.66-2.76,1.38-7.31,1.71-10.48l1.61.31ZM86.44,96.68v1.61h-9.89v-1.61h9.89ZM78.97,99.49c.64,2.97,1.2,6.72,1.36,9.28l-1.46.25c-.13-2.53-.66-6.34-1.28-9.26l1.38-.28ZM81.04,91.95c.74,1.2,1.51,2.79,1.84,3.84l-1.56.54c-.31-1.05-1.05-2.69-1.76-3.91l1.48-.46ZM91.19,104.07v-12.27h1.71v5.42h6.62v1.64h-6.62v5.22h5.5v11.05h-1.74v-1.12h-8v1.23h-1.69v-11.15h4.22ZM96.67,112.38v-6.7h-8v6.7h8Z" style="fill: #fff;"/>
    </g>
    <g>
      <path d="M15.47,135v-11.35h1.54l5.96,8.91v-8.91h1.44v11.35h-1.54l-5.96-8.92v8.92h-1.44Z" style="fill: #fff;"/>
      <path d="M32.38,132.35l1.44.18c-.23.84-.65,1.49-1.26,1.96-.61.47-1.4.7-2.35.7-1.2,0-2.15-.37-2.86-1.11s-1.06-1.78-1.06-3.12.36-2.46,1.07-3.22c.71-.76,1.64-1.15,2.77-1.15s2,.37,2.69,1.12c.7.75,1.05,1.8,1.05,3.16,0,.08,0,.21,0,.37h-6.13c.05.9.31,1.6.77,2.07.46.48,1.03.72,1.72.72.51,0,.95-.13,1.31-.4.36-.27.65-.7.86-1.29ZM27.81,130.1h4.59c-.06-.69-.24-1.21-.53-1.56-.44-.54-1.02-.8-1.73-.8-.64,0-1.18.21-1.61.64s-.68,1-.72,1.72Z" style="fill: #fff;"/>
      <path d="M34.64,135l3-4.27-2.78-3.95h1.74l1.26,1.93c.24.37.43.67.57.92.23-.34.44-.64.63-.91l1.39-1.94h1.66l-2.84,3.87,3.06,4.35h-1.71l-1.69-2.55-.45-.69-2.16,3.24h-1.69Z" style="fill: #fff;"/>
      <path d="M46.54,133.75l.2,1.23c-.39.08-.74.12-1.05.12-.51,0-.9-.08-1.18-.24-.28-.16-.48-.37-.59-.63s-.17-.81-.17-1.65v-4.73h-1.02v-1.08h1.02v-2.04l1.39-.84v2.87h1.4v1.08h-1.4v4.81c0,.4.02.65.07.77.05.11.13.2.24.27.11.07.27.1.48.1.16,0,.36-.02.61-.06Z" style="fill: #fff;"/>
      <path d="M51.98,131.35l1.42-.12c.07.57.22,1.03.47,1.4s.63.66,1.14.88c.52.22,1.1.34,1.74.34.57,0,1.08-.08,1.52-.25s.76-.4.98-.7c.22-.3.32-.62.32-.97s-.1-.67-.31-.93c-.21-.27-.55-.49-1.02-.67-.3-.12-.98-.3-2.02-.55-1.04-.25-1.77-.49-2.19-.71-.54-.28-.95-.64-1.21-1.06-.27-.42-.4-.89-.4-1.41,0-.57.16-1.11.49-1.61.33-.5.8-.88,1.42-1.14.63-.26,1.32-.39,2.08-.39.84,0,1.58.13,2.23.41.64.27,1.14.67,1.48,1.2s.53,1.12.56,1.79l-1.44.11c-.08-.72-.34-1.26-.79-1.63-.45-.37-1.11-.55-1.98-.55s-1.57.17-1.99.5c-.42.33-.62.73-.62,1.2,0,.41.15.74.44,1.01.29.26,1.04.53,2.26.81,1.22.28,2.06.52,2.51.72.66.3,1.15.69,1.46,1.16.32.47.47,1.01.47,1.61s-.17,1.17-.52,1.71c-.34.53-.84.95-1.49,1.25-.65.3-1.38.44-2.19.44-1.03,0-1.89-.15-2.58-.45-.69-.3-1.24-.75-1.63-1.35-.39-.6-.6-1.28-.62-2.04Z" style="fill: #fff;"/>
      <path d="M65.93,133.75l.2,1.23c-.39.08-.74.12-1.05.12-.51,0-.9-.08-1.18-.24-.28-.16-.48-.37-.59-.63s-.17-.81-.17-1.65v-4.73h-1.02v-1.08h1.02v-2.04l1.39-.84v2.87h1.4v1.08h-1.4v4.81c0,.4.02.65.07.77.05.11.13.2.24.27.11.07.27.1.48.1.16,0,.36-.02.61-.06Z" style="fill: #fff;"/>
      <path d="M72.66,133.99c-.52.44-1.01.75-1.49.93s-.99.27-1.54.27c-.9,0-1.6-.22-2.08-.66-.49-.44-.73-1-.73-1.69,0-.4.09-.77.27-1.1s.42-.6.72-.8.63-.35,1-.46c.27-.07.69-.14,1.24-.21,1.12-.13,1.95-.29,2.49-.48,0-.19,0-.31,0-.37,0-.57-.13-.97-.39-1.2-.36-.32-.89-.47-1.59-.47-.66,0-1.14.12-1.45.34-.31.23-.54.64-.69,1.22l-1.36-.19c.12-.58.33-1.05.61-1.41.28-.36.69-.63,1.23-.83.54-.19,1.16-.29,1.87-.29s1.27.08,1.71.25.76.37.97.62c.21.25.35.57.43.95.05.24.07.67.07,1.29v1.86c0,1.3.03,2.11.09,2.46.06.34.18.67.35.99h-1.46c-.14-.29-.24-.63-.28-1.01ZM72.54,130.87c-.51.21-1.26.38-2.28.53-.57.08-.98.18-1.22.28s-.42.25-.55.45c-.13.2-.19.42-.19.66,0,.37.14.68.42.93.28.25.69.37,1.24.37s1.01-.12,1.43-.35c.42-.23.73-.55.92-.96.15-.32.22-.78.22-1.39v-.51Z" style="fill: #fff;"/>
      <path d="M79.15,133.75l.2,1.23c-.39.08-.74.12-1.05.12-.51,0-.9-.08-1.18-.24-.28-.16-.48-.37-.59-.63s-.17-.81-.17-1.65v-4.73h-1.02v-1.08h1.02v-2.04l1.39-.84v2.87h1.4v1.08h-1.4v4.81c0,.4.02.65.07.77.05.11.13.2.24.27.11.07.27.1.48.1.16,0,.36-.02.61-.06Z" style="fill: #fff;"/>
      <path d="M80.52,125.25v-1.6h1.39v1.6h-1.39ZM80.52,135v-8.22h1.39v8.22h-1.39Z" style="fill: #fff;"/>
      <path d="M83.52,130.89c0-1.52.42-2.65,1.27-3.38.71-.61,1.57-.91,2.59-.91,1.13,0,2.05.37,2.77,1.11.72.74,1.08,1.76,1.08,3.07,0,1.06-.16,1.89-.48,2.5s-.78,1.08-1.38,1.41c-.61.34-1.27.5-1.99.5-1.15,0-2.08-.37-2.79-1.11-.71-.74-1.06-1.8-1.06-3.19ZM84.95,130.89c0,1.05.23,1.84.69,2.37s1.04.79,1.73.79,1.27-.26,1.73-.79.69-1.33.69-2.41c0-1.02-.23-1.79-.69-2.31s-1.04-.79-1.72-.79-1.27.26-1.73.78c-.46.52-.69,1.31-.69,2.36Z" style="fill: #fff;"/>
      <path d="M92.85,135v-8.22h1.25v1.17c.6-.9,1.48-1.35,2.62-1.35.5,0,.95.09,1.37.27s.73.41.93.7c.21.29.35.63.43,1.03.05.26.08.71.08,1.36v5.06h-1.39v-5c0-.57-.05-.99-.16-1.27s-.3-.51-.58-.67-.6-.25-.97-.25c-.59,0-1.11.19-1.54.56s-.65,1.09-.65,2.14v4.49h-1.39Z" style="fill: #fff;"/>
    </g>
  </g>
</svg>