<?xml version="1.0" encoding="UTF-8"?>
<svg id="a" xmlns="http://www.w3.org/2000/svg" viewBox="0 0 117 150">
  <g>
    <path d="M34.31,50.13v-7.15h4.15v7.15h15.15v27.26c0,2.33-.51,3.56-2.12,4.19-1.61.64-4.23.68-8.04.68-.17-1.1-.76-2.92-1.35-4.02,2.79.13,5.67.13,6.52.08.8-.04,1.06-.25,1.06-1.02v-23.24h-11.26c-.08,1.69-.3,3.43-.68,5.21,3.94,3.56,8.85,8.25,11.3,11.3l-3.3,2.62c-1.95-2.67-5.71-6.6-9.27-10.03-1.65,3.89-4.61,7.62-9.86,10.71-.55-.85-1.91-2.33-2.88-3.01,8.8-4.7,10.33-11.39,10.54-16.8h-11.09v28.28h-4.02v-32.21h15.15Z" style="fill: #fff;"/>
    <path d="M63.9,72.36v-10.79h-4.19v-3.68h4.19v-8.51h-4.78v-3.68h13v3.68h-4.49v8.51h3.56v3.68h-3.56v9.52l4.02-1.35.63,3.6c-4.28,1.52-8.89,3.13-12.53,4.36l-.93-3.77c1.44-.42,3.17-.97,5.08-1.57ZM97.72,45.52v3.81h-8.93c-.63,1.74-1.35,3.43-2.12,5.08v3.43l2.5-1.69c3.05,3.39,6.9,8.13,8.68,11.13l-3.3,2.46c-1.57-2.88-4.95-7.32-7.87-10.88v23.32h-3.98v-20.53c-2.16,3.39-4.61,6.35-7.2,8.72-.68-.85-2.24-2.41-3.13-3.17,5.08-4.11,9.31-10.67,12.02-17.86h-10.37v-3.81h23.7Z" style="fill: #fff;"/>
  </g>
  <g>
    <path d="M0,114.65v-18.31h2.23v18.31H0Z" style="fill: #fff;"/>
    <path d="M5.89,114.65v-13.26h1.86v1.89c.9-1.46,2.19-2.19,3.88-2.19.73,0,1.41.14,2.03.43.62.29,1.08.66,1.38,1.13.31.47.52,1.02.64,1.66.08.42.12,1.15.12,2.19v8.16h-2.07v-8.07c0-.92-.08-1.6-.24-2.05-.16-.45-.45-.82-.86-1.09-.41-.27-.89-.41-1.44-.41-.88,0-1.64.3-2.28.91-.64.61-.96,1.76-.96,3.46v7.24h-2.07Z" style="fill: #fff;"/>
    <path d="M18.96,114.65v-13.26h1.86v1.89c.9-1.46,2.19-2.19,3.88-2.19.73,0,1.41.14,2.03.43.62.29,1.08.66,1.38,1.13.31.47.52,1.02.64,1.66.08.42.12,1.15.12,2.19v8.16h-2.07v-8.07c0-.92-.08-1.6-.24-2.05-.16-.45-.45-.82-.86-1.09-.41-.27-.89-.41-1.44-.41-.88,0-1.64.3-2.28.91-.64.61-.96,1.76-.96,3.46v7.24h-2.07Z" style="fill: #fff;"/>
    <path d="M40.37,110.38l2.13.29c-.34,1.36-.96,2.41-1.87,3.16s-2.07,1.12-3.49,1.12c-1.78,0-3.2-.6-4.24-1.79-1.04-1.19-1.57-2.87-1.57-5.03s.53-3.96,1.58-5.2c1.06-1.23,2.42-1.85,4.11-1.85s2.96.6,3.99,1.81c1.03,1.21,1.55,2.91,1.55,5.1,0,.13,0,.33-.01.6h-9.09c.08,1.46.45,2.57,1.14,3.35s1.53,1.16,2.55,1.16c.76,0,1.4-.22,1.94-.65.54-.43.96-1.12,1.27-2.07ZM33.59,106.74h6.81c-.09-1.12-.35-1.95-.78-2.51-.66-.87-1.51-1.3-2.56-1.3-.95,0-1.75.35-2.39,1.04-.65.69-1,1.62-1.07,2.77Z" style="fill: #fff;"/>
    <path d="M45.08,114.65v-13.26h1.86v2.01c.47-.94.91-1.56,1.31-1.86s.84-.45,1.33-.45c.7,0,1.4.24,2.12.72l-.71,2.08c-.51-.32-1.01-.49-1.51-.49-.45,0-.86.15-1.22.44-.36.29-.62.71-.77,1.23-.23.8-.34,1.67-.34,2.62v6.94h-2.07Z" style="fill: #fff;"/>
    <path d="M71.73,108.23l2.23.61c-.47,1.99-1.31,3.51-2.52,4.55s-2.7,1.57-4.45,1.57-3.29-.4-4.42-1.21c-1.14-.8-2-1.97-2.59-3.49-.59-1.52-.89-3.16-.89-4.91,0-1.91.33-3.57,1-4.99.67-1.42,1.62-2.5,2.86-3.23,1.24-.74,2.6-1.11,4.08-1.11,1.68,0,3.1.47,4.25,1.4,1.15.93,1.95,2.24,2.4,3.93l-2.19.56c-.39-1.33-.96-2.3-1.7-2.91-.74-.61-1.68-.91-2.8-.91-1.29,0-2.37.34-3.24,1.01-.87.67-1.48,1.58-1.83,2.72s-.53,2.31-.53,3.52c0,1.56.21,2.92.63,4.08.42,1.16,1.07,2.03,1.95,2.6.88.58,1.83.86,2.86.86,1.25,0,2.3-.39,3.17-1.17s1.45-1.94,1.76-3.48Z" style="fill: #fff;"/>
    <path d="M76.44,98.93v-2.58h2.07v2.58h-2.07ZM76.44,114.65v-13.26h2.07v13.26h-2.07Z" style="fill: #fff;"/>
    <path d="M81.63,114.65v-13.26h1.86v2.01c.47-.94.91-1.56,1.31-1.86s.84-.45,1.33-.45c.7,0,1.4.24,2.12.72l-.71,2.08c-.51-.32-1.01-.49-1.51-.49-.45,0-.86.15-1.22.44-.36.29-.62.71-.77,1.23-.23.8-.34,1.67-.34,2.62v6.94h-2.07Z" style="fill: #fff;"/>
    <path d="M97.43,109.79l2.03.29c-.22,1.52-.79,2.72-1.7,3.58-.91.86-2.04,1.29-3.37,1.29-1.67,0-3.01-.59-4.02-1.78-1.01-1.19-1.52-2.89-1.52-5.1,0-1.43.22-2.69.65-3.76.44-1.07,1.1-1.88,1.99-2.42s1.86-.81,2.91-.81c1.32,0,2.41.36,3.25,1.09s1.38,1.76,1.62,3.1l-2.01.34c-.19-.89-.53-1.56-1.02-2.01-.49-.45-1.07-.67-1.76-.67-1.04,0-1.89.41-2.54,1.22-.65.81-.98,2.1-.98,3.85s.31,3.08.94,3.88c.63.81,1.45,1.21,2.46,1.21.81,0,1.49-.27,2.03-.81.54-.54.89-1.37,1.03-2.5Z" style="fill: #fff;"/>
    <path d="M101.19,114.65v-18.31h2.07v18.31h-2.07Z" style="fill: #fff;"/>
    <path d="M114.8,110.38l2.13.29c-.34,1.36-.96,2.41-1.87,3.16s-2.07,1.12-3.49,1.12c-1.78,0-3.2-.6-4.24-1.79-1.04-1.19-1.57-2.87-1.57-5.03s.53-3.96,1.58-5.2c1.06-1.23,2.42-1.85,4.11-1.85s2.96.6,3.99,1.81c1.03,1.21,1.55,2.91,1.55,5.1,0,.13,0,.33-.01.6h-9.09c.08,1.46.45,2.57,1.14,3.35s1.53,1.16,2.55,1.16c.76,0,1.4-.22,1.94-.65.54-.43.96-1.12,1.27-2.07ZM108.01,106.74h6.81c-.09-1.12-.35-1.95-.78-2.51-.66-.87-1.51-1.3-2.56-1.3-.95,0-1.75.35-2.39,1.04-.65.69-1,1.62-1.07,2.77Z" style="fill: #fff;"/>
  </g>
</svg>