<?xml version="1.0" encoding="UTF-8"?>
<svg id="a" xmlns="http://www.w3.org/2000/svg" viewBox="0 0 123 150">
  <g>
    <path d="M32.69,43.66c-.42,1.95-.89,3.81-1.44,5.67h7.28l.76-.17,2.88.85c-2.2,16.89-8.68,26.96-17.99,31.87-.63-1.02-2.29-2.67-3.34-3.34,4.87-2.37,8.85-5.97,11.77-11.05-1.74-1.65-4.23-3.56-6.26-5.04l2.46-2.71c1.74,1.19,3.89,2.71,5.59,4.15,1.31-3.13,2.33-6.69,3-10.79h-7.36c-1.57,4.36-3.51,8.21-5.8,11.13-.72-.72-2.45-1.95-3.39-2.54,3.81-4.36,6.43-11.39,7.87-18.75l3.98.72ZM49.16,42.98v13.88l1.44-1.1c3.34,2.88,7.83,6.98,10.03,9.65l-3.39,2.75c-1.69-2.29-5.08-5.71-8.08-8.51v22.6h-4.23v-39.28h4.23Z" style="fill: #fff;"/>
    <path d="M68.21,72.36v-10.79h-4.19v-3.68h4.19v-8.51h-4.78v-3.68h13v3.68h-4.49v8.51h3.56v3.68h-3.56v9.52l4.02-1.35.63,3.6c-4.28,1.52-8.89,3.13-12.53,4.36l-.93-3.77c1.44-.42,3.17-.97,5.08-1.57ZM102.03,45.52v3.81h-8.93c-.63,1.74-1.35,3.43-2.12,5.08v3.43l2.5-1.69c3.05,3.39,6.9,8.13,8.68,11.13l-3.3,2.46c-1.57-2.88-4.95-7.32-7.87-10.88v23.32h-3.98v-20.53c-2.16,3.39-4.61,6.35-7.2,8.72-.68-.85-2.24-2.41-3.13-3.17,5.08-4.11,9.31-10.67,12.02-17.86h-10.37v-3.81h23.7Z" style="fill: #fff;"/>
  </g>
  <g>
    <path d="M0,105.73c0-3.04.75-5.42,2.24-7.14,1.5-1.72,3.43-2.58,5.79-2.58,1.55,0,2.95.4,4.19,1.21,1.24.81,2.19,1.93,2.85,3.38.65,1.44.98,3.08.98,4.91s-.34,3.52-1.03,4.98c-.69,1.47-1.66,2.58-2.92,3.33-1.26.75-2.62,1.13-4.08,1.13-1.58,0-2.99-.42-4.24-1.25-1.24-.83-2.19-1.97-2.83-3.41s-.96-2.96-.96-4.57ZM2.29,105.77c0,2.21.54,3.94,1.63,5.21,1.09,1.27,2.45,1.9,4.09,1.9s3.05-.64,4.13-1.92c1.08-1.28,1.62-3.1,1.62-5.46,0-1.49-.23-2.79-.69-3.9-.46-1.11-1.14-1.97-2.03-2.58-.89-.61-1.89-.92-2.99-.92-1.57,0-2.93.59-4.06,1.77-1.13,1.18-1.7,3.15-1.7,5.9Z" style="fill: #fff;"/>
    <path d="M26.62,114.65v-1.95c-.95,1.5-2.23,2.25-3.86,2.25-.72,0-1.39-.15-2.01-.45-.62-.3-1.08-.68-1.39-1.13-.3-.45-.51-1.01-.64-1.67-.08-.44-.13-1.14-.13-2.1v-8.22h2.06v7.36c0,1.17.04,1.96.13,2.37.13.59.4,1.06.82,1.39.42.34.94.51,1.56.51s1.2-.17,1.74-.52.93-.82,1.15-1.41c.22-.59.34-1.46.34-2.59v-7.11h2.06v13.26h-1.84Z" style="fill: #fff;"/>
    <path d="M36.2,112.64l.3,1.99c-.58.13-1.1.2-1.56.2-.75,0-1.33-.13-1.74-.39-.41-.26-.7-.6-.87-1.02-.17-.42-.25-1.3-.25-2.65v-7.63h-1.51v-1.75h1.51v-3.28l2.05-1.35v4.63h2.07v1.75h-2.07v7.76c0,.64.04,1.05.11,1.24.07.18.19.33.36.44.16.11.4.16.7.16.23,0,.53-.03.9-.09Z" style="fill: #fff;"/>
    <path d="M46.54,110.38l2.13.29c-.34,1.36-.96,2.41-1.87,3.16s-2.07,1.12-3.48,1.12c-1.78,0-3.19-.6-4.23-1.79-1.04-1.19-1.56-2.87-1.56-5.03s.53-3.96,1.58-5.2c1.05-1.23,2.42-1.85,4.1-1.85s2.95.6,3.98,1.81c1.03,1.21,1.55,2.91,1.55,5.1,0,.13,0,.33-.01.6h-9.07c.08,1.46.45,2.57,1.13,3.35s1.53,1.16,2.54,1.16c.76,0,1.4-.22,1.94-.65.53-.43.96-1.12,1.27-2.07ZM39.77,106.74h6.79c-.09-1.12-.35-1.95-.78-2.51-.66-.87-1.51-1.3-2.55-1.3-.95,0-1.74.35-2.39,1.04-.64.69-1,1.62-1.07,2.77Z" style="fill: #fff;"/>
    <path d="M51.23,114.65v-13.26h1.86v2.01c.47-.94.91-1.56,1.31-1.86s.84-.45,1.32-.45c.69,0,1.4.24,2.12.72l-.71,2.08c-.5-.32-1.01-.49-1.51-.49-.45,0-.86.15-1.21.44-.36.29-.62.71-.77,1.23-.23.8-.34,1.67-.34,2.62v6.94h-2.06Z" style="fill: #fff;"/>
    <path d="M77.82,108.23l2.22.61c-.47,1.99-1.3,3.51-2.51,4.55s-2.69,1.57-4.44,1.57-3.28-.4-4.41-1.21c-1.13-.8-2-1.97-2.59-3.49-.59-1.52-.89-3.16-.89-4.91,0-1.91.33-3.57,1-4.99.67-1.42,1.62-2.5,2.85-3.23,1.23-.74,2.59-1.11,4.07-1.11,1.68,0,3.09.47,4.24,1.4,1.14.93,1.94,2.24,2.39,3.93l-2.19.56c-.39-1.33-.95-2.3-1.69-2.91-.74-.61-1.67-.91-2.79-.91-1.29,0-2.37.34-3.23,1.01-.87.67-1.48,1.58-1.83,2.72s-.53,2.31-.53,3.52c0,1.56.21,2.92.62,4.08.42,1.16,1.06,2.03,1.94,2.6.88.58,1.83.86,2.85.86,1.24,0,2.3-.39,3.16-1.17s1.45-1.94,1.75-3.48Z" style="fill: #fff;"/>
    <path d="M82.53,98.93v-2.58h2.06v2.58h-2.06ZM82.53,114.65v-13.26h2.06v13.26h-2.06Z" style="fill: #fff;"/>
    <path d="M87.71,114.65v-13.26h1.86v2.01c.47-.94.91-1.56,1.31-1.86s.84-.45,1.32-.45c.69,0,1.4.24,2.12.72l-.71,2.08c-.5-.32-1.01-.49-1.51-.49-.45,0-.86.15-1.21.44-.36.29-.62.71-.77,1.23-.23.8-.34,1.67-.34,2.62v6.94h-2.06Z" style="fill: #fff;"/>
    <path d="M103.48,109.79l2.03.29c-.22,1.52-.79,2.72-1.7,3.58-.91.86-2.03,1.29-3.36,1.29-1.66,0-3-.59-4.01-1.78-1.01-1.19-1.52-2.89-1.52-5.1,0-1.43.22-2.69.65-3.76.44-1.07,1.1-1.88,1.99-2.42s1.86-.81,2.9-.81c1.32,0,2.4.36,3.24,1.09s1.38,1.76,1.61,3.1l-2,.34c-.19-.89-.53-1.56-1.01-2.01-.48-.45-1.07-.67-1.76-.67-1.04,0-1.88.41-2.53,1.22-.65.81-.97,2.1-.97,3.85s.31,3.08.94,3.88c.63.81,1.44,1.21,2.45,1.21.81,0,1.49-.27,2.03-.81.54-.54.88-1.37,1.03-2.5Z" style="fill: #fff;"/>
    <path d="M107.22,114.65v-18.31h2.06v18.31h-2.06Z" style="fill: #fff;"/>
    <path d="M120.8,110.38l2.13.29c-.34,1.36-.96,2.41-1.87,3.16s-2.07,1.12-3.48,1.12c-1.78,0-3.19-.6-4.23-1.79-1.04-1.19-1.56-2.87-1.56-5.03s.53-3.96,1.58-5.2c1.05-1.23,2.42-1.85,4.1-1.85s2.95.6,3.98,1.81c1.03,1.21,1.55,2.91,1.55,5.1,0,.13,0,.33-.01.6h-9.07c.08,1.46.45,2.57,1.13,3.35s1.53,1.16,2.54,1.16c.76,0,1.4-.22,1.94-.65.53-.43.96-1.12,1.27-2.07ZM114.03,106.74h6.79c-.09-1.12-.35-1.95-.78-2.51-.66-.87-1.51-1.3-2.55-1.3-.95,0-1.74.35-2.39,1.04-.64.69-1,1.62-1.07,2.77Z" style="fill: #fff;"/>
  </g>
</svg>