<?xml version="1.0" encoding="UTF-8"?>
<svg id="a" xmlns="http://www.w3.org/2000/svg" viewBox="0 0 125 150">
  <g>
    <path d="M38.63,46.04v4.06h-17.64v7.23l.71-.88c4.94,2.29,11.64,6.17,14.82,8.64l-2.82,3.7c-2.82-2.29-8.11-5.64-12.7-8.29v21.52h-4.23v-32.1H.71v-4.06h37.75l.18.18Z" style="fill: #fff;"/>
    <path d="M81.49,59.97v4.41h-38.98v-4.41h38.98Z" style="fill: #fff;"/>
    <path d="M100.37,56.27c-.88,4.94-1.94,10.94-3,15.17l4.06-1.06.35,3.7c-5.47,1.41-11.47,2.82-15.88,3.88l-.88-3.88c2.47-.53,5.64-1.06,9-1.94,1.06-4.41,2.12-11.64,2.65-16.58l3.7.71ZM102.13,50.8v3.7h-16.76v-3.7h16.76ZM90.14,56.09c1.06,4.76,1.76,10.58,2.12,14.64l-3.35.71c0-4.06-1.06-10.05-1.94-14.82l3.17-.53ZM93.84,43.22c1.23,1.94,2.47,4.41,3,6.17l-3.7,1.23c-.53-1.76-1.59-4.41-2.65-6.35l3.35-1.06ZM109.54,63.15v-20.11h4.06v8.47h10.41v3.88h-10.41v7.94h8.64v19.05h-4.06v-1.76h-11.64v1.94h-3.88v-19.05h6.7l.18-.35ZM118.18,76.38v-9.7h-11.64v9.7h11.64Z" style="fill: #fff;"/>
  </g>
  <g>
    <path d="M0,114.65v-18.34h2.29l8.82,14.29v-14.29h2.12v18.34h-2.29l-8.82-14.46v14.46H0Z" style="fill: #fff;"/>
    <path d="M25.05,110.42l2.12.35c-.35,1.41-.88,2.47-1.94,3.17-.88.71-2.12,1.06-3.53,1.06s-3.18-.53-4.23-1.76c-1.06-1.23-1.59-2.82-1.59-4.94s.53-3.88,1.59-5.12c1.06-1.23,2.47-1.76,4.06-1.76s3,.53,4.06,1.76,1.59,2.82,1.59,5.12,0,.35,0,.53h-9.17c0,1.41.53,2.65,1.06,3.35.71.71,1.59,1.23,2.47,1.23s1.41-.18,1.94-.71.88-1.06,1.23-2.12l.35-.18ZM18.34,106.72h6.88c0-1.06-.35-1.94-.71-2.47-.71-.88-1.59-1.23-2.65-1.23s-1.76.35-2.47,1.06-1.06,1.59-1.06,2.82v-.18Z" style="fill: #fff;"/>
    <path d="M28.4,114.65l4.41-6.88-4.06-6.35h2.65l1.94,3.17c.35.53.71,1.06.88,1.41.35-.53.71-1.06.88-1.41l2.12-3.17h2.47l-4.23,6.17,4.59,7.06h-2.47l-2.47-4.06-.71-1.06-3.17,5.29h-2.47l-.35-.18Z" style="fill: #fff;"/>
    <path d="M46.04,112.71l.35,1.94c-.53,0-1.06.18-1.59.18-.71,0-1.41,0-1.76-.35s-.71-.53-.88-1.06-.18-1.23-.18-2.65v-7.58h-1.59v-1.76h1.59v-3.35l2.12-1.41v4.59h2.12v1.76h-2.12v9c0,.18.18.35.35.35h1.59v.35Z" style="fill: #fff;"/>
    <path d="M54.15,108.83h2.12c0,.71.35,1.41.71,2.12s.88,1.06,1.76,1.41c.71.35,1.59.53,2.65.53s1.59,0,2.29-.35c.71-.35,1.06-.71,1.41-1.06.35-.53.53-1.06.53-1.59s0-1.06-.53-1.59c-.35-.35-.88-.71-1.59-1.06-.53-.18-1.41-.53-3-.88s-2.65-.71-3.17-1.06c-.88-.53-1.41-1.06-1.76-1.76s-.53-1.41-.53-2.29.18-1.76.71-2.65,1.23-1.41,2.12-1.76,1.94-.71,3.17-.71,2.29.18,3.35.71c.88.35,1.76,1.06,2.12,1.94s.71,1.76.88,2.82h-2.12c0-1.06-.53-1.94-1.23-2.47-.71-.53-1.59-.88-3-.88s-2.29.35-3,.88c-.53.53-.88,1.23-.88,1.94s.18,1.23.71,1.59c.35.35,1.59.88,3.35,1.23,1.76.53,3,.88,3.7,1.23,1.06.53,1.76,1.06,2.12,1.94.53.71.71,1.59.71,2.65s-.18,1.94-.71,2.82c-.53.88-1.23,1.59-2.29,1.94s-2.12.71-3.17.71-2.82-.18-3.88-.71c-1.06-.53-1.76-1.23-2.47-2.12-.53-.88-.88-2.12-.88-3.35l-.18-.18Z" style="fill: #fff;"/>
    <path d="M74.97,112.71l.35,1.94c-.53,0-1.06.18-1.59.18-.71,0-1.41,0-1.76-.35s-.71-.53-.88-1.06-.18-1.23-.18-2.65v-7.58h-1.59v-1.76h1.59v-3.35l2.12-1.41v4.59h2.12v1.76h-2.12v9c0,.18.18.35.35.35h1.59v.35Z" style="fill: #fff;"/>
    <path d="M84.84,113.07c-.71.71-1.59,1.23-2.29,1.41-.71.35-1.41.35-2.29.35-1.41,0-2.29-.35-3.17-1.06-.71-.71-1.06-1.59-1.06-2.65s0-1.23.35-1.76.71-.88,1.06-1.23c.35-.35.88-.53,1.41-.71.35,0,1.06-.18,1.76-.35,1.59-.18,2.82-.53,3.7-.71v-.53c0-.88-.18-1.59-.53-1.94-.53-.53-1.23-.71-2.29-.71s-1.76.18-2.12.53c-.53.35-.88,1.06-1.06,1.94l-1.94-.35c.18-.88.53-1.76.88-2.29s1.06-1.06,1.76-1.41c.88-.35,1.76-.53,2.82-.53s1.94,0,2.47.35c.71.35,1.06.53,1.41,1.06.35.35.53.88.71,1.59v9c0,.53.18,1.06.53,1.59h-2.12c-.18-.53-.35-1.06-.35-1.59h.35ZM84.67,107.95c-.71.35-1.94.53-3.35.88-.88,0-1.41.35-1.76.53-.35,0-.71.35-.88.71s-.35.71-.35,1.06c0,.53.18,1.06.71,1.41s1.06.53,1.76.53,1.59-.18,2.12-.53,1.06-.88,1.41-1.59c.18-.53.35-1.23.35-2.29v-.88.18Z" style="fill: #fff;"/>
    <path d="M94.54,112.71l.35,1.94c-.53,0-1.06.18-1.59.18-.71,0-1.41,0-1.76-.35s-.71-.53-.88-1.06-.18-1.23-.18-2.65v-7.58h-1.59v-1.76h1.59v-3.35l2.12-1.41v4.59h2.12v1.76h-2.12v9c0,.18.18.35.35.35h1.59v.35Z" style="fill: #fff;"/>
    <path d="M96.49,98.95v-2.65h2.12v2.65h-2.12ZM96.49,114.65v-13.23h2.12v13.23h-2.12Z" style="fill: #fff;"/>
    <path d="M101.07,107.95c0-2.47.71-4.23,1.94-5.47,1.06-1.06,2.29-1.41,3.88-1.41s3,.53,4.06,1.76,1.59,2.82,1.59,4.94-.18,3-.71,4.06c-.53,1.06-1.23,1.76-2.12,2.29s-1.94.88-3,.88c-1.76,0-3.17-.53-4.06-1.76s-1.59-2.82-1.59-5.12v-.18ZM103.19,107.95c0,1.76.35,3,1.06,3.88.71.88,1.59,1.23,2.65,1.23s1.94-.35,2.65-1.23,1.06-2.12,1.06-3.88-.35-2.82-1.06-3.7c-.71-.88-1.59-1.23-2.47-1.23s-1.94.35-2.65,1.23-1.06,2.12-1.06,3.88l-.18-.18Z" style="fill: #fff;"/>
    <path d="M114.83,114.65v-13.23h1.94v1.94c.88-1.41,2.12-2.12,3.88-2.12s1.41,0,2.12.35c.53.35,1.06.71,1.41,1.06.35.53.53,1.06.71,1.59v10.23h-2.12v-8.11c0-.88,0-1.59-.18-2.12,0-.53-.53-.88-.88-1.06s-.88-.35-1.41-.35c-.88,0-1.59.35-2.29.88s-.88,1.76-.88,3.53v7.23h-2.12l-.18.18Z" style="fill: #fff;"/>
  </g>
</svg>