<?xml version="1.0" encoding="UTF-8"?>
<svg id="a" xmlns="http://www.w3.org/2000/svg" viewBox="0 0 100 150">
  <path d="M50.12,74.88s-.14.16-.19.25h0l.21-.25h-.02Z" style="fill: #fff;"/>
  <circle cx="50" cy="75" r="49.99" style="fill: #fff;"/>
  <path d="M66.67,105.43c0,1.59-1.3,2.89-2.91,2.89-1.01,0-1.89-.51-2.42-1.29l-.18-.3s0-.04-.02-.05l-6.81-11.55c-.07-.11-.12-.23-.16-.35l-2.01-5.73c-.05-.12-.21-.16-.3-.05l-4.95,5.59c-.14.16-.23.35-.26.55l-1.43,9.68c-.14,1.48-1.38,2.63-2.89,2.63-1.6,0-2.91-1.29-2.91-2.89v-.25l.04-.3v-.04l1.53-11.11c.05-.46.21-.9.46-1.29l5.64-9.36.05-4.43c0-.72-.02-1.45-.09-2.17l-.37-3.91-1.18,1.94c-.14.25-.32.46-.51.65l-2.26,2.13-4.88,4.62h0l-.25.25c-.55.44-1.29.69-2.06.56-1.13-.18-2.03-1.09-2.17-2.2-.11-.78.14-1.48.58-2.01,0-.02.04-.05.05-.07h0l6.1-6.65c.11-.11.18-.21.26-.35l6.49-10.69v-.04c1.08-1.82,3.07-3.03,5.34-3.03,1.78,0,3.4.76,4.53,1.96l6.82,6.7c.49.48.83,1.09.95,1.78l1.99,10.3c.05.21.07.44.07.67,0,1.69-1.39,3.07-3.09,3.07-1.46,0-2.7-1.01-3.02-2.36l-.05-.25v-.02l-1.96-9.5c-.05-.3-.25-.55-.51-.71l-.63-.37.85,7.51c.05.44.07.86.05,1.3l-.19,5.89,1.99,10.14c.05.25.14.49.26.72l5.94,10.24c.28.44.46.97.46,1.55l-.02-.02Z" style="fill: #001d31;"/>
  <path d="M56.87,47.69c0,3.17-2.57,5.75-5.75,5.75s-5.75-2.57-5.75-5.75,2.57-5.75,5.75-5.75,5.75,2.57,5.75,5.75Z" style="fill: #001d31;"/>
  <path d="M49.99,29.17c-25.3,0-45.81,20.51-45.81,45.83s20.51,45.81,45.81,45.81,45.83-20.51,45.83-45.81-20.51-45.83-45.83-45.83ZM49.99,33.35c23.01,0,41.67,18.64,41.67,41.65,0,10.76-4.07,20.56-10.77,27.95L22.06,44.13c7.39-6.7,17.19-10.77,27.93-10.77ZM49.99,116.65c-22.99,0-41.65-18.64-41.65-41.65,0-10.76,4.07-20.56,10.77-27.95l58.82,58.82c-7.39,6.7-17.19,10.77-27.95,10.77Z" style="fill: #d80c24;"/>
</svg>